%TF.GenerationSoftware,KiCad,Pcbnew,8.0.4*%
%TF.CreationDate,2025-04-18T23:16:35+05:30*%
%TF.ProjectId,Snakebot_pcb_dev,536e616b-6562-46f7-945f-7063625f6465,rev?*%
%TF.SameCoordinates,Original*%
%TF.FileFunction,Copper,L2,Bot*%
%TF.FilePolarity,Positive*%
%FSLAX46Y46*%
G04 Gerber Fmt 4.6, Leading zero omitted, Abs format (unit mm)*
G04 Created by KiCad (PCBNEW 8.0.4) date 2025-04-18 23:16:35*
%MOMM*%
%LPD*%
G01*
G04 APERTURE LIST*
G04 Aperture macros list*
%AMRoundRect*
0 Rectangle with rounded corners*
0 $1 Rounding radius*
0 $2 $3 $4 $5 $6 $7 $8 $9 X,Y pos of 4 corners*
0 Add a 4 corners polygon primitive as box body*
4,1,4,$2,$3,$4,$5,$6,$7,$8,$9,$2,$3,0*
0 Add four circle primitives for the rounded corners*
1,1,$1+$1,$2,$3*
1,1,$1+$1,$4,$5*
1,1,$1+$1,$6,$7*
1,1,$1+$1,$8,$9*
0 Add four rect primitives between the rounded corners*
20,1,$1+$1,$2,$3,$4,$5,0*
20,1,$1+$1,$4,$5,$6,$7,0*
20,1,$1+$1,$6,$7,$8,$9,0*
20,1,$1+$1,$8,$9,$2,$3,0*%
G04 Aperture macros list end*
%TA.AperFunction,ComponentPad*%
%ADD10RoundRect,0.250000X0.600000X0.750000X-0.600000X0.750000X-0.600000X-0.750000X0.600000X-0.750000X0*%
%TD*%
%TA.AperFunction,ComponentPad*%
%ADD11O,1.700000X2.000000*%
%TD*%
%TA.AperFunction,HeatsinkPad*%
%ADD12C,0.600000*%
%TD*%
%TA.AperFunction,ComponentPad*%
%ADD13RoundRect,0.250000X-0.600000X-0.750000X0.600000X-0.750000X0.600000X0.750000X-0.600000X0.750000X0*%
%TD*%
%TA.AperFunction,ComponentPad*%
%ADD14RoundRect,0.250000X0.600000X0.725000X-0.600000X0.725000X-0.600000X-0.725000X0.600000X-0.725000X0*%
%TD*%
%TA.AperFunction,ComponentPad*%
%ADD15O,1.700000X1.950000*%
%TD*%
%TA.AperFunction,ComponentPad*%
%ADD16RoundRect,0.250000X0.725000X-0.600000X0.725000X0.600000X-0.725000X0.600000X-0.725000X-0.600000X0*%
%TD*%
%TA.AperFunction,ComponentPad*%
%ADD17O,1.950000X1.700000*%
%TD*%
%TA.AperFunction,ComponentPad*%
%ADD18RoundRect,0.250000X-0.725000X0.600000X-0.725000X-0.600000X0.725000X-0.600000X0.725000X0.600000X0*%
%TD*%
%TA.AperFunction,ViaPad*%
%ADD19C,0.600000*%
%TD*%
%TA.AperFunction,Conductor*%
%ADD20C,0.200000*%
%TD*%
G04 APERTURE END LIST*
D10*
%TO.P,J5,1,Pin_1*%
%TO.N,VCC*%
X117250000Y-143750000D03*
D11*
%TO.P,J5,2,Pin_2*%
%TO.N,GND*%
X114750000Y-143750000D03*
%TD*%
D12*
%TO.P,U1,39,GND*%
%TO.N,GND*%
X124500000Y-127650000D03*
X124500000Y-129050000D03*
X125200000Y-126950000D03*
X125200000Y-128350000D03*
X125200000Y-129750000D03*
X125875000Y-127650000D03*
X125875000Y-129050000D03*
X126600000Y-126950000D03*
X126600000Y-128350000D03*
X126600000Y-129750000D03*
X127300000Y-127650000D03*
X127300000Y-129050000D03*
%TD*%
D13*
%TO.P,J2,1,Pin_1*%
%TO.N,+7.5V*%
X155750000Y-120532500D03*
D11*
%TO.P,J2,2,Pin_2*%
%TO.N,GND*%
X158250000Y-120532500D03*
%TD*%
D14*
%TO.P,J4,1,Pin_1*%
%TO.N,GND*%
X145250000Y-134300000D03*
D15*
%TO.P,J4,2,Pin_2*%
%TO.N,+7.5V*%
X142750000Y-134300000D03*
%TO.P,J4,3,Pin_3*%
%TO.N,MOTOR_V*%
X140250000Y-134300000D03*
%TD*%
D16*
%TO.P,J8,1,Pin_1*%
%TO.N,+3.3V*%
X90000000Y-135000000D03*
D17*
%TO.P,J8,2,Pin_2*%
%TO.N,IO27*%
X90000000Y-132500000D03*
%TO.P,J8,3,Pin_3*%
%TO.N,IO26*%
X90000000Y-130000000D03*
%TO.P,J8,4,Pin_4*%
%TO.N,IO25*%
X90000000Y-127500000D03*
%TO.P,J8,5,Pin_5*%
%TO.N,IO33*%
X90000000Y-125000000D03*
%TO.P,J8,6,Pin_6*%
%TO.N,IO32*%
X90000000Y-122500000D03*
%TO.P,J8,7,Pin_7*%
%TO.N,EN*%
X90000000Y-120000000D03*
%TO.P,J8,8,Pin_8*%
%TO.N,GND*%
X90000000Y-117500000D03*
%TD*%
D14*
%TO.P,J3,1,Pin_1*%
%TO.N,GND*%
X145250000Y-139250000D03*
D15*
%TO.P,J3,2,Pin_2*%
%TO.N,+7.5V*%
X142750000Y-139250000D03*
%TO.P,J3,3,Pin_3*%
%TO.N,MOTOR_H*%
X140250000Y-139250000D03*
%TD*%
D14*
%TO.P,J1,1,Pin_1*%
%TO.N,+5V*%
X130750000Y-143750000D03*
D15*
%TO.P,J1,2,Pin_2*%
%TO.N,GND*%
X128250000Y-143750000D03*
%TO.P,J1,3,Pin_3*%
%TO.N,TX*%
X125750000Y-143750000D03*
%TO.P,J1,4,Pin_4*%
%TO.N,RX*%
X123250000Y-143750000D03*
%TD*%
D10*
%TO.P,J6,1,Pin_1*%
%TO.N,VCC*%
X139500000Y-143750000D03*
D11*
%TO.P,J6,2,Pin_2*%
%TO.N,GND*%
X137000000Y-143750000D03*
%TD*%
D18*
%TO.P,J7,1,Pin_1*%
%TO.N,GND*%
X164000000Y-117500000D03*
D17*
%TO.P,J7,2,Pin_2*%
X164000000Y-120000000D03*
%TO.P,J7,3,Pin_3*%
%TO.N,EN*%
X164000000Y-122500000D03*
%TO.P,J7,4,Pin_4*%
%TO.N,BOOT*%
X164000000Y-125000000D03*
%TO.P,J7,5,Pin_5*%
%TO.N,RX2*%
X164000000Y-127500000D03*
%TO.P,J7,6,Pin_6*%
%TO.N,TX2*%
X164000000Y-130000000D03*
%TO.P,J7,7,Pin_7*%
%TO.N,+3.3V*%
X164000000Y-132500000D03*
%TO.P,J7,8,Pin_8*%
X164000000Y-135000000D03*
%TD*%
D19*
%TO.N,GND*%
X101000000Y-122000000D03*
X138800000Y-121000000D03*
X98631985Y-139118015D03*
X114750000Y-126000000D03*
X113500000Y-124900000D03*
X137600000Y-121000000D03*
X99000000Y-135000000D03*
X148100735Y-138149265D03*
X100911320Y-131732525D03*
X99500000Y-138250000D03*
X100600000Y-123600000D03*
X144082605Y-121614453D03*
X143250000Y-120750000D03*
%TO.N,VCC*%
X117000000Y-126250000D03*
X101500000Y-133250000D03*
%TO.N,Net-(U3-BST)*%
X101500000Y-131000000D03*
X116750000Y-136250000D03*
%TO.N,+3.3V*%
X115750000Y-124900000D03*
X92800000Y-119800000D03*
X114000000Y-119750000D03*
X126000000Y-119750000D03*
X148600000Y-135600000D03*
X146000000Y-130800000D03*
%TO.N,+7.5V*%
X95500000Y-139250000D03*
X106500000Y-135250000D03*
%TO.N,EN*%
X103000000Y-122000000D03*
X116500000Y-125500000D03*
X108250000Y-122000000D03*
%TO.N,RX*%
X138125000Y-127050000D03*
%TO.N,BOOT*%
X159750000Y-131750000D03*
X101000000Y-140000000D03*
X138000000Y-137000000D03*
%TO.N,TX*%
X140075000Y-128000000D03*
%TO.N,RX2*%
X137550000Y-129600000D03*
%TO.N,TX2*%
X137625000Y-130825000D03*
%TO.N,IO32*%
X116600000Y-129525000D03*
%TO.N,IO33*%
X116650000Y-130950000D03*
%TO.N,IO27*%
X116700000Y-134975000D03*
%TO.N,IO26*%
X116650000Y-133725000D03*
%TO.N,IO25*%
X116650000Y-132225000D03*
%TO.N,SCL*%
X141400000Y-127800000D03*
X137750000Y-123250000D03*
%TO.N,SDA*%
X139400000Y-128800000D03*
X141276500Y-128800000D03*
X142800000Y-127800000D03*
%TD*%
D20*
%TO.N,GND*%
X101000000Y-122000000D02*
X101000000Y-123200000D01*
X148100735Y-138100735D02*
X147500000Y-137500000D01*
X113500000Y-124900000D02*
X113650000Y-124900000D01*
X148100735Y-138149265D02*
X148100735Y-138100735D01*
X143250000Y-120000000D02*
X144000000Y-120750000D01*
X99500000Y-138250000D02*
X98631985Y-139118015D01*
X100911320Y-131732525D02*
X100911320Y-133088680D01*
X144000000Y-120750000D02*
X144000000Y-121531848D01*
X147500000Y-137500000D02*
X145290000Y-137500000D01*
X101000000Y-123200000D02*
X100600000Y-123600000D01*
X135475000Y-142000000D02*
X129525000Y-142000000D01*
X144000000Y-121531848D02*
X144082605Y-121614453D01*
X139800000Y-120000000D02*
X138800000Y-121000000D01*
X129525000Y-142000000D02*
X128250000Y-143275000D01*
X145250000Y-137460000D02*
X145250000Y-134300000D01*
X136750000Y-143275000D02*
X135475000Y-142000000D01*
X143250000Y-120000000D02*
X139800000Y-120000000D01*
X145290000Y-137500000D02*
X145250000Y-137460000D01*
X143250000Y-120750000D02*
X143250000Y-120000000D01*
X100911320Y-133088680D02*
X99000000Y-135000000D01*
X113650000Y-124900000D02*
X114750000Y-126000000D01*
X137600000Y-121000000D02*
X138800000Y-121000000D01*
%TO.N,VCC*%
X111250000Y-133250000D02*
X111277942Y-133250000D01*
X101500000Y-133250000D02*
X101500000Y-131848529D01*
X117250000Y-139222058D02*
X117250000Y-141467500D01*
X122150000Y-136567500D02*
X117250000Y-141467500D01*
X117000000Y-126250000D02*
X118315685Y-126250000D01*
X101799265Y-131549264D02*
X109549264Y-131549264D01*
X111277942Y-133250000D02*
X117250000Y-139222058D01*
X122150000Y-130084315D02*
X122150000Y-136567500D01*
X118315685Y-126250000D02*
X122150000Y-130084315D01*
X101500000Y-131848529D02*
X101799265Y-131549264D01*
X109549264Y-131549264D02*
X111250000Y-133250000D01*
X117250000Y-141467500D02*
X117250000Y-143750000D01*
%TO.N,Net-(U3-BST)*%
X114843628Y-136250000D02*
X116750000Y-136250000D01*
X101500000Y-131000000D02*
X109593628Y-131000000D01*
X109593628Y-131000000D02*
X114843628Y-136250000D01*
%TO.N,+3.3V*%
X115750000Y-124900000D02*
X115750000Y-121500000D01*
X148600000Y-133400000D02*
X148600000Y-135600000D01*
X115750000Y-121500000D02*
X114000000Y-119750000D01*
X95000000Y-119750000D02*
X114000000Y-119750000D01*
X146000000Y-130800000D02*
X148600000Y-133400000D01*
X94950000Y-119800000D02*
X95000000Y-119750000D01*
X114000000Y-119750000D02*
X115750000Y-119750000D01*
X115750000Y-119750000D02*
X126000000Y-119750000D01*
X92800000Y-119800000D02*
X94950000Y-119800000D01*
%TO.N,EN*%
X119500000Y-122500000D02*
X164000000Y-122500000D01*
X108250000Y-122000000D02*
X103000000Y-122000000D01*
X116500000Y-125500000D02*
X119500000Y-122500000D01*
%TO.N,RX*%
X123250000Y-138375000D02*
X123250000Y-143750000D01*
X133184314Y-127050000D02*
X125225000Y-135009314D01*
X125225000Y-136400000D02*
X123250000Y-138375000D01*
X138125000Y-127050000D02*
X133184314Y-127050000D01*
X125225000Y-135009314D02*
X125225000Y-136400000D01*
%TO.N,BOOT*%
X147375000Y-141125000D02*
X140373654Y-141125000D01*
X100750000Y-141750000D02*
X105456387Y-146456387D01*
X159750000Y-138500000D02*
X159750000Y-131750000D01*
X101000000Y-140000000D02*
X100750000Y-140250000D01*
X147375000Y-141125000D02*
X148500000Y-140000000D01*
X158250000Y-140000000D02*
X159750000Y-138500000D01*
X105456387Y-146456387D02*
X141927464Y-146572536D01*
X141927464Y-146572536D02*
X147375000Y-141125000D01*
X140373654Y-141125000D02*
X138000000Y-138751346D01*
X148500000Y-140000000D02*
X158250000Y-140000000D01*
X100750000Y-140250000D02*
X100750000Y-141750000D01*
X138000000Y-138751346D02*
X138000000Y-137000000D01*
%TO.N,TX*%
X132900000Y-128000000D02*
X132850000Y-127950000D01*
X140075000Y-128000000D02*
X132900000Y-128000000D01*
X132850000Y-127950000D02*
X125750000Y-135050000D01*
X125750000Y-135050000D02*
X125750000Y-143750000D01*
%TO.N,RX2*%
X137550000Y-129600000D02*
X161900000Y-129600000D01*
X161900000Y-129600000D02*
X164000000Y-127500000D01*
%TO.N,TX2*%
X138450000Y-130000000D02*
X164000000Y-130000000D01*
X137625000Y-130825000D02*
X138450000Y-130000000D01*
%TO.N,IO32*%
X92000000Y-124600000D02*
X90000000Y-122600000D01*
X111675000Y-124600000D02*
X116600000Y-129525000D01*
X90000000Y-122600000D02*
X90000000Y-122500000D01*
X92000000Y-124600000D02*
X111675000Y-124600000D01*
%TO.N,IO33*%
X116101471Y-130950000D02*
X116650000Y-130950000D01*
X90000000Y-125000000D02*
X111509314Y-125000000D01*
X113629657Y-128478186D02*
X116101471Y-130950000D01*
X111509314Y-125000000D02*
X113629657Y-127120343D01*
X113629657Y-127120343D02*
X113629657Y-128478186D01*
%TO.N,IO27*%
X92100000Y-130400000D02*
X109559314Y-130400000D01*
X109559314Y-130400000D02*
X114134314Y-134975000D01*
X90000000Y-132500000D02*
X92100000Y-130400000D01*
X114134314Y-134975000D02*
X116700000Y-134975000D01*
%TO.N,IO26*%
X109725000Y-130000000D02*
X113450000Y-133725000D01*
X113450000Y-133725000D02*
X116650000Y-133725000D01*
X90000000Y-130000000D02*
X109725000Y-130000000D01*
%TO.N,IO25*%
X111725000Y-129600000D02*
X114350000Y-132225000D01*
X92100000Y-129600000D02*
X111725000Y-129600000D01*
X114350000Y-132225000D02*
X116650000Y-132225000D01*
X90000000Y-127500000D02*
X92100000Y-129600000D01*
%TO.N,SCL*%
X138150000Y-123650000D02*
X137750000Y-123250000D01*
X138150000Y-124550000D02*
X138150000Y-123650000D01*
X141400000Y-127800000D02*
X138150000Y-124550000D01*
%TO.N,SDA*%
X141800000Y-128800000D02*
X142800000Y-127800000D01*
X141276500Y-128800000D02*
X141600000Y-128800000D01*
X141600000Y-128800000D02*
X141800000Y-128800000D01*
X141600000Y-128800000D02*
X139400000Y-128800000D01*
%TD*%
%TA.AperFunction,Conductor*%
%TO.N,+7.5V*%
G36*
X103343039Y-115020185D02*
G01*
X103388794Y-115072989D01*
X103400000Y-115124500D01*
X103400000Y-119025500D01*
X103380315Y-119092539D01*
X103327511Y-119138294D01*
X103276000Y-119149500D01*
X95086670Y-119149500D01*
X95086654Y-119149499D01*
X95079058Y-119149499D01*
X94920943Y-119149499D01*
X94779856Y-119187304D01*
X94779855Y-119187303D01*
X94760369Y-119192526D01*
X94760183Y-119191833D01*
X94721637Y-119199500D01*
X93382412Y-119199500D01*
X93315373Y-119179815D01*
X93305097Y-119172445D01*
X93302263Y-119170185D01*
X93302262Y-119170184D01*
X93187610Y-119098143D01*
X93149523Y-119074211D01*
X92979254Y-119014631D01*
X92979249Y-119014630D01*
X92800004Y-118994435D01*
X92799996Y-118994435D01*
X92620750Y-119014630D01*
X92620745Y-119014631D01*
X92450476Y-119074211D01*
X92297737Y-119170184D01*
X92170184Y-119297737D01*
X92074211Y-119450476D01*
X92014631Y-119620745D01*
X92014630Y-119620750D01*
X91994435Y-119799996D01*
X91994435Y-119800003D01*
X92014630Y-119979249D01*
X92014631Y-119979254D01*
X92074211Y-120149523D01*
X92138767Y-120252262D01*
X92170184Y-120302262D01*
X92297738Y-120429816D01*
X92299887Y-120431166D01*
X92438740Y-120518414D01*
X92450478Y-120525789D01*
X92607405Y-120580700D01*
X92620745Y-120585368D01*
X92620750Y-120585369D01*
X92799996Y-120605565D01*
X92800000Y-120605565D01*
X92800004Y-120605565D01*
X92979249Y-120585369D01*
X92979252Y-120585368D01*
X92979255Y-120585368D01*
X93149522Y-120525789D01*
X93302262Y-120429816D01*
X93302267Y-120429810D01*
X93305097Y-120427555D01*
X93307275Y-120426665D01*
X93308158Y-120426111D01*
X93308255Y-120426265D01*
X93369783Y-120401145D01*
X93382412Y-120400500D01*
X94863331Y-120400500D01*
X94863347Y-120400501D01*
X94870943Y-120400501D01*
X95029054Y-120400501D01*
X95029057Y-120400501D01*
X95181785Y-120359577D01*
X95181786Y-120359575D01*
X95189635Y-120357473D01*
X95189820Y-120358165D01*
X95228364Y-120350500D01*
X113417588Y-120350500D01*
X113484627Y-120370185D01*
X113494903Y-120377555D01*
X113497736Y-120379814D01*
X113497738Y-120379816D01*
X113650478Y-120475789D01*
X113820745Y-120535368D01*
X113907669Y-120545161D01*
X113972080Y-120572226D01*
X113981465Y-120580700D01*
X115113181Y-121712416D01*
X115146666Y-121773739D01*
X115149500Y-121800097D01*
X115149500Y-124317587D01*
X115129815Y-124384626D01*
X115122450Y-124394896D01*
X115120186Y-124397734D01*
X115024211Y-124550476D01*
X114964631Y-124720745D01*
X114964630Y-124720750D01*
X114944435Y-124899996D01*
X114944435Y-124900004D01*
X114961288Y-125049588D01*
X114949233Y-125118410D01*
X114901884Y-125169789D01*
X114834273Y-125187413D01*
X114767868Y-125165686D01*
X114750387Y-125151152D01*
X114286750Y-124687515D01*
X114257389Y-124640788D01*
X114254593Y-124632798D01*
X114225789Y-124550478D01*
X114222652Y-124545486D01*
X114186582Y-124488080D01*
X114129816Y-124397738D01*
X114002262Y-124270184D01*
X113969985Y-124249903D01*
X113849523Y-124174211D01*
X113679254Y-124114631D01*
X113679249Y-124114630D01*
X113500004Y-124094435D01*
X113499996Y-124094435D01*
X113320750Y-124114630D01*
X113320745Y-124114631D01*
X113150476Y-124174211D01*
X112997737Y-124270184D01*
X112870184Y-124397737D01*
X112774209Y-124550480D01*
X112761755Y-124586072D01*
X112721034Y-124642848D01*
X112656081Y-124668595D01*
X112587519Y-124655139D01*
X112557033Y-124632798D01*
X112162590Y-124238355D01*
X112162588Y-124238352D01*
X112043717Y-124119481D01*
X112043716Y-124119480D01*
X111933012Y-124055565D01*
X111933010Y-124055564D01*
X111906785Y-124040423D01*
X111906784Y-124040422D01*
X111906783Y-124040422D01*
X111850881Y-124025443D01*
X111754057Y-123999499D01*
X111595943Y-123999499D01*
X111588347Y-123999499D01*
X111588331Y-123999500D01*
X101483063Y-123999500D01*
X101416024Y-123979815D01*
X101370269Y-123927011D01*
X101360325Y-123857853D01*
X101366021Y-123834546D01*
X101379862Y-123794989D01*
X101385368Y-123779255D01*
X101395161Y-123692331D01*
X101422226Y-123627921D01*
X101430701Y-123618535D01*
X101480517Y-123568719D01*
X101480517Y-123568718D01*
X101480520Y-123568716D01*
X101559577Y-123431784D01*
X101596100Y-123295477D01*
X101600500Y-123279058D01*
X101600500Y-123120943D01*
X101600500Y-122582412D01*
X101620185Y-122515373D01*
X101627555Y-122505097D01*
X101629810Y-122502267D01*
X101629816Y-122502262D01*
X101725789Y-122349522D01*
X101785368Y-122179255D01*
X101805565Y-122000000D01*
X101805565Y-121999996D01*
X102194435Y-121999996D01*
X102194435Y-122000003D01*
X102214630Y-122179249D01*
X102214631Y-122179254D01*
X102274211Y-122349523D01*
X102301978Y-122393713D01*
X102370184Y-122502262D01*
X102497738Y-122629816D01*
X102650478Y-122725789D01*
X102820745Y-122785368D01*
X102820750Y-122785369D01*
X102999996Y-122805565D01*
X103000000Y-122805565D01*
X103000004Y-122805565D01*
X103179249Y-122785369D01*
X103179252Y-122785368D01*
X103179255Y-122785368D01*
X103349522Y-122725789D01*
X103502262Y-122629816D01*
X103502267Y-122629810D01*
X103505097Y-122627555D01*
X103507275Y-122626665D01*
X103508158Y-122626111D01*
X103508255Y-122626265D01*
X103569783Y-122601145D01*
X103582412Y-122600500D01*
X107667588Y-122600500D01*
X107734627Y-122620185D01*
X107744903Y-122627555D01*
X107747736Y-122629814D01*
X107747738Y-122629816D01*
X107900478Y-122725789D01*
X108070745Y-122785368D01*
X108070750Y-122785369D01*
X108249996Y-122805565D01*
X108250000Y-122805565D01*
X108250004Y-122805565D01*
X108429249Y-122785369D01*
X108429252Y-122785368D01*
X108429255Y-122785368D01*
X108599522Y-122725789D01*
X108752262Y-122629816D01*
X108879816Y-122502262D01*
X108975789Y-122349522D01*
X109035368Y-122179255D01*
X109055565Y-122000000D01*
X109053490Y-121981588D01*
X109035369Y-121820750D01*
X109035368Y-121820745D01*
X109013361Y-121757853D01*
X108975789Y-121650478D01*
X108953150Y-121614449D01*
X108913736Y-121551721D01*
X108879816Y-121497738D01*
X108752262Y-121370184D01*
X108720647Y-121350319D01*
X108599523Y-121274211D01*
X108429254Y-121214631D01*
X108429249Y-121214630D01*
X108250004Y-121194435D01*
X108249996Y-121194435D01*
X108070750Y-121214630D01*
X108070745Y-121214631D01*
X107900476Y-121274211D01*
X107747736Y-121370185D01*
X107744903Y-121372445D01*
X107742724Y-121373334D01*
X107741842Y-121373889D01*
X107741744Y-121373734D01*
X107680217Y-121398855D01*
X107667588Y-121399500D01*
X103582412Y-121399500D01*
X103515373Y-121379815D01*
X103505097Y-121372445D01*
X103502263Y-121370185D01*
X103502262Y-121370184D01*
X103442266Y-121332486D01*
X103349523Y-121274211D01*
X103179254Y-121214631D01*
X103179249Y-121214630D01*
X103000004Y-121194435D01*
X102999996Y-121194435D01*
X102820750Y-121214630D01*
X102820745Y-121214631D01*
X102650476Y-121274211D01*
X102497737Y-121370184D01*
X102370184Y-121497737D01*
X102274211Y-121650476D01*
X102214631Y-121820745D01*
X102214630Y-121820750D01*
X102194435Y-121999996D01*
X101805565Y-121999996D01*
X101803490Y-121981588D01*
X101785369Y-121820750D01*
X101785368Y-121820745D01*
X101763361Y-121757853D01*
X101725789Y-121650478D01*
X101703150Y-121614449D01*
X101663736Y-121551721D01*
X101629816Y-121497738D01*
X101502262Y-121370184D01*
X101470647Y-121350319D01*
X101349523Y-121274211D01*
X101179254Y-121214631D01*
X101179249Y-121214630D01*
X101000004Y-121194435D01*
X100999996Y-121194435D01*
X100820750Y-121214630D01*
X100820745Y-121214631D01*
X100650476Y-121274211D01*
X100497737Y-121370184D01*
X100370184Y-121497737D01*
X100274211Y-121650476D01*
X100214631Y-121820745D01*
X100214630Y-121820750D01*
X100194435Y-121999996D01*
X100194435Y-122000003D01*
X100214630Y-122179249D01*
X100214631Y-122179254D01*
X100274211Y-122349523D01*
X100370185Y-122502263D01*
X100372445Y-122505097D01*
X100373334Y-122507275D01*
X100373889Y-122508158D01*
X100373734Y-122508255D01*
X100398855Y-122569783D01*
X100399500Y-122582412D01*
X100399500Y-122734083D01*
X100379815Y-122801122D01*
X100327011Y-122846877D01*
X100316456Y-122851124D01*
X100250476Y-122874211D01*
X100250475Y-122874212D01*
X100097737Y-122970184D01*
X99970184Y-123097737D01*
X99874211Y-123250476D01*
X99814631Y-123420745D01*
X99814630Y-123420750D01*
X99794435Y-123599996D01*
X99794435Y-123600003D01*
X99814630Y-123779249D01*
X99814633Y-123779262D01*
X99833978Y-123834545D01*
X99837540Y-123904324D01*
X99802812Y-123964951D01*
X99740818Y-123997179D01*
X99716937Y-123999500D01*
X92300097Y-123999500D01*
X92233058Y-123979815D01*
X92212416Y-123963181D01*
X91403244Y-123154009D01*
X91369759Y-123092686D01*
X91374743Y-123022994D01*
X91376371Y-123018859D01*
X91376549Y-123018427D01*
X91376557Y-123018412D01*
X91442246Y-122816243D01*
X91475500Y-122606287D01*
X91475500Y-122393713D01*
X91442246Y-122183757D01*
X91376557Y-121981588D01*
X91280051Y-121792184D01*
X91280049Y-121792181D01*
X91280048Y-121792179D01*
X91155109Y-121620213D01*
X91004792Y-121469896D01*
X91004784Y-121469890D01*
X90840204Y-121350316D01*
X90797540Y-121294989D01*
X90791561Y-121225376D01*
X90824166Y-121163580D01*
X90840199Y-121149686D01*
X91004792Y-121030104D01*
X91155104Y-120879792D01*
X91155106Y-120879788D01*
X91155109Y-120879786D01*
X91280048Y-120707820D01*
X91280047Y-120707820D01*
X91280051Y-120707816D01*
X91376557Y-120518412D01*
X91442246Y-120316243D01*
X91475500Y-120106287D01*
X91475500Y-119893713D01*
X91442246Y-119683757D01*
X91376557Y-119481588D01*
X91280051Y-119292184D01*
X91280049Y-119292181D01*
X91280048Y-119292179D01*
X91155109Y-119120213D01*
X91004792Y-118969896D01*
X91004784Y-118969890D01*
X90840204Y-118850316D01*
X90797540Y-118794989D01*
X90791561Y-118725376D01*
X90824166Y-118663580D01*
X90840199Y-118649686D01*
X91004792Y-118530104D01*
X91155104Y-118379792D01*
X91155106Y-118379788D01*
X91155109Y-118379786D01*
X91280048Y-118207820D01*
X91280047Y-118207820D01*
X91280051Y-118207816D01*
X91376557Y-118018412D01*
X91442246Y-117816243D01*
X91475500Y-117606287D01*
X91475500Y-117393713D01*
X91442246Y-117183757D01*
X91376557Y-116981588D01*
X91280051Y-116792184D01*
X91280049Y-116792181D01*
X91280048Y-116792179D01*
X91155109Y-116620213D01*
X91004786Y-116469890D01*
X90832820Y-116344951D01*
X90643414Y-116248444D01*
X90643413Y-116248443D01*
X90643412Y-116248443D01*
X90441243Y-116182754D01*
X90441241Y-116182753D01*
X90441240Y-116182753D01*
X90279957Y-116157208D01*
X90231287Y-116149500D01*
X89768713Y-116149500D01*
X89720042Y-116157208D01*
X89558760Y-116182753D01*
X89356585Y-116248444D01*
X89167179Y-116344951D01*
X88995213Y-116469890D01*
X88844890Y-116620213D01*
X88719951Y-116792179D01*
X88623444Y-116981585D01*
X88557753Y-117183760D01*
X88524500Y-117393713D01*
X88524500Y-117606286D01*
X88557753Y-117816239D01*
X88623444Y-118018414D01*
X88719951Y-118207820D01*
X88844890Y-118379786D01*
X88995209Y-118530105D01*
X88995214Y-118530109D01*
X89159793Y-118649682D01*
X89202459Y-118705011D01*
X89208438Y-118774625D01*
X89175833Y-118836420D01*
X89159793Y-118850318D01*
X88995214Y-118969890D01*
X88995209Y-118969894D01*
X88844890Y-119120213D01*
X88719951Y-119292179D01*
X88623444Y-119481585D01*
X88557753Y-119683760D01*
X88524500Y-119893713D01*
X88524500Y-120106286D01*
X88555539Y-120302262D01*
X88557754Y-120316243D01*
X88623380Y-120518219D01*
X88623444Y-120518414D01*
X88719951Y-120707820D01*
X88844890Y-120879786D01*
X88995209Y-121030105D01*
X88995214Y-121030109D01*
X89159793Y-121149682D01*
X89202459Y-121205011D01*
X89208438Y-121274625D01*
X89175833Y-121336420D01*
X89159793Y-121350318D01*
X88995214Y-121469890D01*
X88995209Y-121469894D01*
X88844890Y-121620213D01*
X88719951Y-121792179D01*
X88623444Y-121981585D01*
X88557753Y-122183760D01*
X88531499Y-122349522D01*
X88524500Y-122393713D01*
X88524500Y-122606287D01*
X88528227Y-122629816D01*
X88556062Y-122805565D01*
X88557754Y-122816243D01*
X88576589Y-122874212D01*
X88623444Y-123018414D01*
X88719951Y-123207820D01*
X88844890Y-123379786D01*
X88995209Y-123530105D01*
X88995214Y-123530109D01*
X89159793Y-123649682D01*
X89202459Y-123705011D01*
X89208438Y-123774625D01*
X89175833Y-123836420D01*
X89159793Y-123850318D01*
X88995214Y-123969890D01*
X88995209Y-123969894D01*
X88844890Y-124120213D01*
X88719951Y-124292179D01*
X88623444Y-124481585D01*
X88623443Y-124481587D01*
X88623443Y-124481588D01*
X88616286Y-124503614D01*
X88557753Y-124683760D01*
X88542227Y-124781787D01*
X88524500Y-124893713D01*
X88524500Y-125106287D01*
X88557754Y-125316243D01*
X88562814Y-125331817D01*
X88623444Y-125518414D01*
X88719951Y-125707820D01*
X88844890Y-125879786D01*
X88995209Y-126030105D01*
X88995214Y-126030109D01*
X89159793Y-126149682D01*
X89202459Y-126205011D01*
X89208438Y-126274625D01*
X89175833Y-126336420D01*
X89159793Y-126350318D01*
X88995214Y-126469890D01*
X88995209Y-126469894D01*
X88844890Y-126620213D01*
X88719951Y-126792179D01*
X88623444Y-126981585D01*
X88557753Y-127183760D01*
X88524500Y-127393713D01*
X88524500Y-127606286D01*
X88557753Y-127816239D01*
X88557753Y-127816241D01*
X88557754Y-127816243D01*
X88617305Y-127999522D01*
X88623444Y-128018414D01*
X88719951Y-128207820D01*
X88844890Y-128379786D01*
X88995209Y-128530105D01*
X88995214Y-128530109D01*
X89159793Y-128649682D01*
X89202459Y-128705011D01*
X89208438Y-128774625D01*
X89175833Y-128836420D01*
X89159793Y-128850318D01*
X88995214Y-128969890D01*
X88995209Y-128969894D01*
X88844890Y-129120213D01*
X88719951Y-129292179D01*
X88623444Y-129481585D01*
X88557753Y-129683760D01*
X88524500Y-129893713D01*
X88524500Y-130106286D01*
X88557564Y-130315047D01*
X88557754Y-130316243D01*
X88609492Y-130475476D01*
X88623444Y-130518414D01*
X88719951Y-130707820D01*
X88844890Y-130879786D01*
X88995209Y-131030105D01*
X88995214Y-131030109D01*
X89159793Y-131149682D01*
X89202459Y-131205011D01*
X89208438Y-131274625D01*
X89175833Y-131336420D01*
X89159793Y-131350318D01*
X88995214Y-131469890D01*
X88995209Y-131469894D01*
X88844890Y-131620213D01*
X88719951Y-131792179D01*
X88623444Y-131981585D01*
X88557753Y-132183760D01*
X88524500Y-132393713D01*
X88524500Y-132606286D01*
X88552738Y-132784577D01*
X88557754Y-132816243D01*
X88617204Y-132999211D01*
X88623444Y-133018414D01*
X88719951Y-133207820D01*
X88844890Y-133379786D01*
X88983705Y-133518601D01*
X89017190Y-133579924D01*
X89012206Y-133649616D01*
X88970334Y-133705549D01*
X88961121Y-133711821D01*
X88806342Y-133807289D01*
X88682289Y-133931342D01*
X88590187Y-134080663D01*
X88590186Y-134080666D01*
X88535001Y-134247203D01*
X88535001Y-134247204D01*
X88535000Y-134247204D01*
X88524500Y-134349983D01*
X88524500Y-135650001D01*
X88524501Y-135650018D01*
X88535000Y-135752796D01*
X88535001Y-135752799D01*
X88568123Y-135852753D01*
X88590186Y-135919334D01*
X88682288Y-136068656D01*
X88806344Y-136192712D01*
X88955666Y-136284814D01*
X89122203Y-136339999D01*
X89224991Y-136350500D01*
X90775008Y-136350499D01*
X90877797Y-136339999D01*
X91044334Y-136284814D01*
X91193656Y-136192712D01*
X91317712Y-136068656D01*
X91409814Y-135919334D01*
X91464999Y-135752797D01*
X91475500Y-135650009D01*
X91475499Y-134349992D01*
X91464999Y-134247203D01*
X91409814Y-134080666D01*
X91317712Y-133931344D01*
X91193656Y-133807288D01*
X91044334Y-133715186D01*
X91044333Y-133715185D01*
X91038878Y-133711821D01*
X90992154Y-133659873D01*
X90980931Y-133590910D01*
X91008775Y-133526828D01*
X91016272Y-133518623D01*
X91155104Y-133379792D01*
X91280051Y-133207816D01*
X91376557Y-133018412D01*
X91442246Y-132816243D01*
X91475500Y-132606287D01*
X91475500Y-132393713D01*
X91442246Y-132183757D01*
X91397851Y-132047126D01*
X91395857Y-131977290D01*
X91428100Y-131921133D01*
X92312416Y-131036819D01*
X92373739Y-131003334D01*
X92400097Y-131000500D01*
X100211905Y-131000500D01*
X100278944Y-131020185D01*
X100324699Y-131072989D01*
X100334643Y-131142147D01*
X100305618Y-131205703D01*
X100299586Y-131212181D01*
X100281504Y-131230262D01*
X100185531Y-131383001D01*
X100125951Y-131553270D01*
X100125950Y-131553275D01*
X100105755Y-131732521D01*
X100105755Y-131732528D01*
X100125950Y-131911774D01*
X100125951Y-131911779D01*
X100185531Y-132082048D01*
X100228080Y-132149764D01*
X100275356Y-132225003D01*
X100281505Y-132234788D01*
X100283765Y-132237622D01*
X100284654Y-132239800D01*
X100285209Y-132240683D01*
X100285054Y-132240780D01*
X100310175Y-132302308D01*
X100310820Y-132314937D01*
X100310820Y-132788582D01*
X100291135Y-132855621D01*
X100274501Y-132876263D01*
X98981465Y-134169298D01*
X98920142Y-134202783D01*
X98907668Y-134204837D01*
X98820750Y-134214630D01*
X98650478Y-134274210D01*
X98497737Y-134370184D01*
X98370184Y-134497737D01*
X98274211Y-134650476D01*
X98214631Y-134820745D01*
X98214630Y-134820750D01*
X98194435Y-134999996D01*
X98194435Y-135000003D01*
X98214630Y-135179249D01*
X98214631Y-135179254D01*
X98274211Y-135349523D01*
X98354475Y-135477262D01*
X98370184Y-135502262D01*
X98497738Y-135629816D01*
X98569934Y-135675180D01*
X98621880Y-135707820D01*
X98650478Y-135725789D01*
X98762531Y-135764998D01*
X98820745Y-135785368D01*
X98820750Y-135785369D01*
X98999996Y-135805565D01*
X99000000Y-135805565D01*
X99000004Y-135805565D01*
X99179249Y-135785369D01*
X99179252Y-135785368D01*
X99179255Y-135785368D01*
X99349522Y-135725789D01*
X99502262Y-135629816D01*
X99629816Y-135502262D01*
X99725789Y-135349522D01*
X99785368Y-135179255D01*
X99795161Y-135092329D01*
X99822226Y-135027918D01*
X99830690Y-135018543D01*
X100910424Y-133938809D01*
X100971745Y-133905326D01*
X101041437Y-133910310D01*
X101064076Y-133921499D01*
X101150475Y-133975788D01*
X101320745Y-134035368D01*
X101320750Y-134035369D01*
X101499996Y-134055565D01*
X101500000Y-134055565D01*
X101500004Y-134055565D01*
X101679249Y-134035369D01*
X101679252Y-134035368D01*
X101679255Y-134035368D01*
X101849522Y-133975789D01*
X102002262Y-133879816D01*
X102129816Y-133752262D01*
X102225789Y-133599522D01*
X102285368Y-133429255D01*
X102291427Y-133375478D01*
X102305565Y-133250003D01*
X102305565Y-133249996D01*
X102285369Y-133070750D01*
X102285368Y-133070745D01*
X102267594Y-133019949D01*
X102225789Y-132900478D01*
X102219321Y-132890185D01*
X102178049Y-132824500D01*
X102129816Y-132747738D01*
X102129814Y-132747736D01*
X102129813Y-132747734D01*
X102127550Y-132744896D01*
X102126659Y-132742715D01*
X102126111Y-132741842D01*
X102126264Y-132741745D01*
X102101144Y-132680209D01*
X102100500Y-132667587D01*
X102100500Y-132273764D01*
X102120185Y-132206725D01*
X102172989Y-132160970D01*
X102224500Y-132149764D01*
X109249167Y-132149764D01*
X109316206Y-132169449D01*
X109336848Y-132186083D01*
X110765139Y-133614374D01*
X110765149Y-133614385D01*
X110881285Y-133730521D01*
X110905131Y-133744288D01*
X110933261Y-133760529D01*
X110958941Y-133780234D01*
X116613181Y-139434474D01*
X116646666Y-139495797D01*
X116649500Y-139522155D01*
X116649500Y-141380830D01*
X116649499Y-141380848D01*
X116649499Y-141556546D01*
X116649500Y-141556559D01*
X116649500Y-142132465D01*
X116629815Y-142199504D01*
X116577011Y-142245259D01*
X116538102Y-142255823D01*
X116497202Y-142260001D01*
X116497200Y-142260001D01*
X116330668Y-142315185D01*
X116330663Y-142315187D01*
X116181342Y-142407289D01*
X116057289Y-142531342D01*
X115961821Y-142686121D01*
X115909873Y-142732845D01*
X115840910Y-142744068D01*
X115776828Y-142716224D01*
X115768601Y-142708705D01*
X115629786Y-142569890D01*
X115457820Y-142444951D01*
X115268414Y-142348444D01*
X115268413Y-142348443D01*
X115268412Y-142348443D01*
X115066243Y-142282754D01*
X115066241Y-142282753D01*
X115066240Y-142282753D01*
X114904957Y-142257208D01*
X114856287Y-142249500D01*
X114643713Y-142249500D01*
X114595042Y-142257208D01*
X114433760Y-142282753D01*
X114231585Y-142348444D01*
X114042179Y-142444951D01*
X113870213Y-142569890D01*
X113719890Y-142720213D01*
X113594951Y-142892179D01*
X113498444Y-143081585D01*
X113432753Y-143283760D01*
X113399500Y-143493713D01*
X113399500Y-144006286D01*
X113432753Y-144216239D01*
X113498444Y-144418414D01*
X113594951Y-144607820D01*
X113719890Y-144779786D01*
X113870213Y-144930109D01*
X114042179Y-145055048D01*
X114042181Y-145055049D01*
X114042184Y-145055051D01*
X114231588Y-145151557D01*
X114433757Y-145217246D01*
X114643713Y-145250500D01*
X114643714Y-145250500D01*
X114856286Y-145250500D01*
X114856287Y-145250500D01*
X115066243Y-145217246D01*
X115268412Y-145151557D01*
X115457816Y-145055051D01*
X115629792Y-144930104D01*
X115768604Y-144791291D01*
X115829923Y-144757809D01*
X115899615Y-144762793D01*
X115955549Y-144804664D01*
X115961821Y-144813878D01*
X115965185Y-144819333D01*
X115965186Y-144819334D01*
X116057288Y-144968656D01*
X116181344Y-145092712D01*
X116330666Y-145184814D01*
X116497203Y-145239999D01*
X116599991Y-145250500D01*
X117900008Y-145250499D01*
X118002797Y-145239999D01*
X118169334Y-145184814D01*
X118318656Y-145092712D01*
X118442712Y-144968656D01*
X118534814Y-144819334D01*
X118589999Y-144652797D01*
X118600500Y-144550009D01*
X118600499Y-142949992D01*
X118589999Y-142847203D01*
X118534814Y-142680666D01*
X118442712Y-142531344D01*
X118318656Y-142407288D01*
X118223253Y-142348443D01*
X118169336Y-142315187D01*
X118169331Y-142315185D01*
X118167862Y-142314698D01*
X118002797Y-142260001D01*
X118002795Y-142260000D01*
X117961896Y-142255822D01*
X117897205Y-142229425D01*
X117857054Y-142172244D01*
X117850500Y-142132464D01*
X117850500Y-141767596D01*
X117870185Y-141700557D01*
X117886814Y-141679920D01*
X122508506Y-137058227D01*
X122508511Y-137058224D01*
X122518714Y-137048020D01*
X122518716Y-137048020D01*
X122630520Y-136936216D01*
X122709577Y-136799284D01*
X122740325Y-136684530D01*
X122750500Y-136646558D01*
X122750500Y-136488443D01*
X122750500Y-130005258D01*
X122738248Y-129959530D01*
X122709577Y-129852530D01*
X122701549Y-129838626D01*
X122667271Y-129779255D01*
X122660898Y-129768216D01*
X122630520Y-129715599D01*
X122518716Y-129603795D01*
X122518715Y-129603794D01*
X122514385Y-129599464D01*
X122514374Y-129599454D01*
X120564916Y-127649996D01*
X123694435Y-127649996D01*
X123694435Y-127650003D01*
X123714630Y-127829249D01*
X123714631Y-127829254D01*
X123774211Y-127999523D01*
X123870184Y-128152262D01*
X123980241Y-128262319D01*
X124013726Y-128323642D01*
X124008742Y-128393334D01*
X123980241Y-128437681D01*
X123870184Y-128547737D01*
X123774211Y-128700476D01*
X123714631Y-128870745D01*
X123714630Y-128870750D01*
X123694435Y-129049996D01*
X123694435Y-129050003D01*
X123714630Y-129229249D01*
X123714631Y-129229254D01*
X123774211Y-129399523D01*
X123853052Y-129524996D01*
X123870184Y-129552262D01*
X123997738Y-129679816D01*
X124054686Y-129715599D01*
X124138425Y-129768216D01*
X124150478Y-129775789D01*
X124320745Y-129835368D01*
X124320754Y-129835369D01*
X124321207Y-129835473D01*
X124321477Y-129835624D01*
X124327318Y-129837668D01*
X124326960Y-129838690D01*
X124382191Y-129869573D01*
X124411377Y-129923017D01*
X124412333Y-129922683D01*
X124414362Y-129928483D01*
X124414523Y-129928777D01*
X124414631Y-129929250D01*
X124414632Y-129929255D01*
X124441225Y-130005254D01*
X124474210Y-130099521D01*
X124563270Y-130241258D01*
X124570184Y-130252262D01*
X124697738Y-130379816D01*
X124749247Y-130412181D01*
X124849979Y-130475476D01*
X124850478Y-130475789D01*
X124972288Y-130518412D01*
X125020745Y-130535368D01*
X125020750Y-130535369D01*
X125199996Y-130555565D01*
X125200000Y-130555565D01*
X125200004Y-130555565D01*
X125379249Y-130535369D01*
X125379252Y-130535368D01*
X125379255Y-130535368D01*
X125549522Y-130475789D01*
X125702262Y-130379816D01*
X125812319Y-130269759D01*
X125873642Y-130236274D01*
X125943334Y-130241258D01*
X125987681Y-130269759D01*
X126097738Y-130379816D01*
X126149247Y-130412181D01*
X126249979Y-130475476D01*
X126250478Y-130475789D01*
X126372288Y-130518412D01*
X126420745Y-130535368D01*
X126420750Y-130535369D01*
X126599996Y-130555565D01*
X126600000Y-130555565D01*
X126600004Y-130555565D01*
X126779249Y-130535369D01*
X126779252Y-130535368D01*
X126779255Y-130535368D01*
X126949522Y-130475789D01*
X127102262Y-130379816D01*
X127229816Y-130252262D01*
X127325789Y-130099522D01*
X127385368Y-129929255D01*
X127385369Y-129929243D01*
X127385473Y-129928793D01*
X127385624Y-129928522D01*
X127387668Y-129922682D01*
X127388690Y-129923039D01*
X127419573Y-129867809D01*
X127473017Y-129838626D01*
X127472682Y-129837668D01*
X127478504Y-129835630D01*
X127478793Y-129835473D01*
X127479243Y-129835369D01*
X127479255Y-129835368D01*
X127649522Y-129775789D01*
X127802262Y-129679816D01*
X127929816Y-129552262D01*
X128025789Y-129399522D01*
X128085368Y-129229255D01*
X128091427Y-129175478D01*
X128105565Y-129050003D01*
X128105565Y-129049996D01*
X128085369Y-128870750D01*
X128085368Y-128870745D01*
X128043117Y-128750000D01*
X128025789Y-128700478D01*
X128008516Y-128672989D01*
X127975689Y-128620745D01*
X127929816Y-128547738D01*
X127819759Y-128437681D01*
X127786274Y-128376358D01*
X127791258Y-128306666D01*
X127819759Y-128262319D01*
X127874262Y-128207816D01*
X127929816Y-128152262D01*
X128025789Y-127999522D01*
X128085368Y-127829255D01*
X128086834Y-127816243D01*
X128105565Y-127650003D01*
X128105565Y-127649996D01*
X128085369Y-127470750D01*
X128085368Y-127470745D01*
X128078276Y-127450476D01*
X128025789Y-127300478D01*
X128024067Y-127297738D01*
X127952448Y-127183757D01*
X127929816Y-127147738D01*
X127802262Y-127020184D01*
X127793423Y-127014630D01*
X127649521Y-126924210D01*
X127570437Y-126896538D01*
X127479255Y-126864632D01*
X127479251Y-126864631D01*
X127479250Y-126864631D01*
X127478777Y-126864523D01*
X127478501Y-126864369D01*
X127472683Y-126862333D01*
X127473039Y-126861313D01*
X127417798Y-126830416D01*
X127388626Y-126776982D01*
X127387668Y-126777318D01*
X127385630Y-126771496D01*
X127385473Y-126771207D01*
X127385369Y-126770754D01*
X127385368Y-126770745D01*
X127325789Y-126600478D01*
X127325188Y-126599522D01*
X127243739Y-126469896D01*
X127229816Y-126447738D01*
X127102262Y-126320184D01*
X126949523Y-126224211D01*
X126779254Y-126164631D01*
X126779249Y-126164630D01*
X126600004Y-126144435D01*
X126599996Y-126144435D01*
X126420750Y-126164630D01*
X126420745Y-126164631D01*
X126250476Y-126224211D01*
X126097737Y-126320184D01*
X125987681Y-126430241D01*
X125926358Y-126463726D01*
X125856666Y-126458742D01*
X125812319Y-126430241D01*
X125702262Y-126320184D01*
X125549523Y-126224211D01*
X125379254Y-126164631D01*
X125379249Y-126164630D01*
X125200004Y-126144435D01*
X125199996Y-126144435D01*
X125020750Y-126164630D01*
X125020745Y-126164631D01*
X124850476Y-126224211D01*
X124697737Y-126320184D01*
X124570184Y-126447737D01*
X124474210Y-126600478D01*
X124414628Y-126770755D01*
X124414518Y-126771241D01*
X124414360Y-126771522D01*
X124412333Y-126777317D01*
X124411317Y-126776961D01*
X124380400Y-126832215D01*
X124326984Y-126861381D01*
X124327317Y-126862333D01*
X124321541Y-126864353D01*
X124321241Y-126864518D01*
X124320755Y-126864628D01*
X124150478Y-126924210D01*
X123997737Y-127020184D01*
X123870184Y-127147737D01*
X123774211Y-127300476D01*
X123714631Y-127470745D01*
X123714630Y-127470750D01*
X123694435Y-127649996D01*
X120564916Y-127649996D01*
X118803275Y-125888355D01*
X118803273Y-125888352D01*
X118684402Y-125769481D01*
X118684401Y-125769480D01*
X118573697Y-125705565D01*
X118573695Y-125705564D01*
X118547470Y-125690423D01*
X118547469Y-125690422D01*
X118547468Y-125690422D01*
X118484612Y-125673580D01*
X118394742Y-125649499D01*
X118236628Y-125649499D01*
X118229032Y-125649499D01*
X118229016Y-125649500D01*
X117582412Y-125649500D01*
X117515373Y-125629815D01*
X117505097Y-125622445D01*
X117502263Y-125620185D01*
X117502262Y-125620184D01*
X117491703Y-125613549D01*
X117466133Y-125597482D01*
X117419842Y-125545147D01*
X117409195Y-125476094D01*
X117437570Y-125412245D01*
X117444412Y-125404821D01*
X119712417Y-123136819D01*
X119773740Y-123103334D01*
X119800098Y-123100500D01*
X136822524Y-123100500D01*
X136889563Y-123120185D01*
X136935318Y-123172989D01*
X136945744Y-123238386D01*
X136944435Y-123250001D01*
X136944435Y-123250003D01*
X136964630Y-123429249D01*
X136964631Y-123429254D01*
X137024211Y-123599523D01*
X137059102Y-123655051D01*
X137120184Y-123752262D01*
X137247738Y-123879816D01*
X137391090Y-123969890D01*
X137400478Y-123975789D01*
X137466454Y-123998875D01*
X137523230Y-124039597D01*
X137548978Y-124104549D01*
X137549500Y-124115917D01*
X137549500Y-124463330D01*
X137549499Y-124463348D01*
X137549499Y-124629054D01*
X137549498Y-124629054D01*
X137549499Y-124629057D01*
X137590423Y-124781785D01*
X137590424Y-124781787D01*
X137590423Y-124781787D01*
X137598441Y-124795673D01*
X137598442Y-124795674D01*
X137669477Y-124918712D01*
X137669481Y-124918717D01*
X137788349Y-125037585D01*
X137788355Y-125037590D01*
X139807798Y-127057033D01*
X139841283Y-127118356D01*
X139836299Y-127188048D01*
X139794427Y-127243981D01*
X139761072Y-127261755D01*
X139725480Y-127274209D01*
X139572736Y-127370185D01*
X139569903Y-127372445D01*
X139567724Y-127373334D01*
X139566842Y-127373889D01*
X139566744Y-127373734D01*
X139505217Y-127398855D01*
X139492588Y-127399500D01*
X139025559Y-127399500D01*
X138958520Y-127379815D01*
X138912765Y-127327011D01*
X138902821Y-127257853D01*
X138908517Y-127234546D01*
X138910367Y-127229257D01*
X138910368Y-127229255D01*
X138912016Y-127214632D01*
X138930565Y-127050003D01*
X138930565Y-127049996D01*
X138910369Y-126870750D01*
X138910368Y-126870745D01*
X138908131Y-126864353D01*
X138850789Y-126700478D01*
X138754816Y-126547738D01*
X138627262Y-126420184D01*
X138516073Y-126350319D01*
X138474523Y-126324211D01*
X138304254Y-126264631D01*
X138304249Y-126264630D01*
X138125004Y-126244435D01*
X138124996Y-126244435D01*
X137945750Y-126264630D01*
X137945745Y-126264631D01*
X137775476Y-126324211D01*
X137622736Y-126420185D01*
X137619903Y-126422445D01*
X137617724Y-126423334D01*
X137616842Y-126423889D01*
X137616744Y-126423734D01*
X137555217Y-126448855D01*
X137542588Y-126449500D01*
X133270984Y-126449500D01*
X133270968Y-126449499D01*
X133263372Y-126449499D01*
X133105257Y-126449499D01*
X132952529Y-126490423D01*
X132832997Y-126559435D01*
X132815595Y-126569482D01*
X124744479Y-134640598D01*
X124722209Y-134679172D01*
X124712796Y-134695477D01*
X124665423Y-134777529D01*
X124624499Y-134930257D01*
X124624499Y-134930259D01*
X124624499Y-135098360D01*
X124624500Y-135098373D01*
X124624500Y-136099902D01*
X124604815Y-136166941D01*
X124588181Y-136187583D01*
X122769481Y-138006282D01*
X122769479Y-138006285D01*
X122738713Y-138059575D01*
X122738712Y-138059577D01*
X122690423Y-138143214D01*
X122690423Y-138143215D01*
X122649499Y-138295943D01*
X122649499Y-138295945D01*
X122649499Y-138464046D01*
X122649500Y-138464059D01*
X122649500Y-142339281D01*
X122629815Y-142406320D01*
X122581795Y-142449765D01*
X122542185Y-142469947D01*
X122542184Y-142469948D01*
X122370213Y-142594890D01*
X122219890Y-142745213D01*
X122094951Y-142917179D01*
X121998444Y-143106585D01*
X121932753Y-143308760D01*
X121903460Y-143493713D01*
X121899500Y-143518713D01*
X121899500Y-143981287D01*
X121903460Y-144006287D01*
X121932753Y-144191239D01*
X121998444Y-144393414D01*
X122094951Y-144582820D01*
X122219890Y-144754786D01*
X122370213Y-144905109D01*
X122542179Y-145030048D01*
X122542181Y-145030049D01*
X122542184Y-145030051D01*
X122731588Y-145126557D01*
X122933757Y-145192246D01*
X123143713Y-145225500D01*
X123143714Y-145225500D01*
X123356286Y-145225500D01*
X123356287Y-145225500D01*
X123566243Y-145192246D01*
X123768412Y-145126557D01*
X123957816Y-145030051D01*
X123979789Y-145014086D01*
X124129786Y-144905109D01*
X124129788Y-144905106D01*
X124129792Y-144905104D01*
X124280104Y-144754792D01*
X124399683Y-144590204D01*
X124455011Y-144547540D01*
X124524624Y-144541561D01*
X124586420Y-144574166D01*
X124600313Y-144590199D01*
X124645793Y-144652797D01*
X124719896Y-144754792D01*
X124870213Y-144905109D01*
X125042179Y-145030048D01*
X125042181Y-145030049D01*
X125042184Y-145030051D01*
X125231588Y-145126557D01*
X125433757Y-145192246D01*
X125643713Y-145225500D01*
X125643714Y-145225500D01*
X125856286Y-145225500D01*
X125856287Y-145225500D01*
X126066243Y-145192246D01*
X126268412Y-145126557D01*
X126457816Y-145030051D01*
X126479789Y-145014086D01*
X126629786Y-144905109D01*
X126629788Y-144905106D01*
X126629792Y-144905104D01*
X126780104Y-144754792D01*
X126899683Y-144590204D01*
X126955011Y-144547540D01*
X127024624Y-144541561D01*
X127086420Y-144574166D01*
X127100313Y-144590199D01*
X127145793Y-144652797D01*
X127219896Y-144754792D01*
X127370213Y-144905109D01*
X127542179Y-145030048D01*
X127542181Y-145030049D01*
X127542184Y-145030051D01*
X127731588Y-145126557D01*
X127933757Y-145192246D01*
X128143713Y-145225500D01*
X128143714Y-145225500D01*
X128356286Y-145225500D01*
X128356287Y-145225500D01*
X128566243Y-145192246D01*
X128768412Y-145126557D01*
X128957816Y-145030051D01*
X129095374Y-144930110D01*
X129129784Y-144905110D01*
X129129784Y-144905109D01*
X129129792Y-144905104D01*
X129268604Y-144766291D01*
X129329923Y-144732809D01*
X129399615Y-144737793D01*
X129455549Y-144779664D01*
X129461821Y-144788878D01*
X129465185Y-144794333D01*
X129465186Y-144794334D01*
X129557288Y-144943656D01*
X129681344Y-145067712D01*
X129830666Y-145159814D01*
X129997203Y-145214999D01*
X130099991Y-145225500D01*
X131400008Y-145225499D01*
X131502797Y-145214999D01*
X131669334Y-145159814D01*
X131818656Y-145067712D01*
X131942712Y-144943656D01*
X132034814Y-144794334D01*
X132089999Y-144627797D01*
X132100500Y-144525009D01*
X132100499Y-142974992D01*
X132089999Y-142872203D01*
X132053978Y-142763501D01*
X132051577Y-142693676D01*
X132087308Y-142633634D01*
X132149828Y-142602441D01*
X132171685Y-142600500D01*
X135174903Y-142600500D01*
X135241942Y-142620185D01*
X135262584Y-142636819D01*
X135684634Y-143058869D01*
X135718119Y-143120192D01*
X135714884Y-143184868D01*
X135682754Y-143283752D01*
X135682754Y-143283755D01*
X135649500Y-143493713D01*
X135649500Y-144006286D01*
X135682753Y-144216239D01*
X135748444Y-144418414D01*
X135844951Y-144607820D01*
X135969890Y-144779786D01*
X136120213Y-144930109D01*
X136292179Y-145055048D01*
X136292181Y-145055049D01*
X136292184Y-145055051D01*
X136481588Y-145151557D01*
X136683757Y-145217246D01*
X136893713Y-145250500D01*
X136893714Y-145250500D01*
X137106286Y-145250500D01*
X137106287Y-145250500D01*
X137316243Y-145217246D01*
X137518412Y-145151557D01*
X137707816Y-145055051D01*
X137879792Y-144930104D01*
X138018604Y-144791291D01*
X138079923Y-144757809D01*
X138149615Y-144762793D01*
X138205549Y-144804664D01*
X138211821Y-144813878D01*
X138215185Y-144819333D01*
X138215186Y-144819334D01*
X138307288Y-144968656D01*
X138431344Y-145092712D01*
X138580666Y-145184814D01*
X138747203Y-145239999D01*
X138849991Y-145250500D01*
X140150008Y-145250499D01*
X140252797Y-145239999D01*
X140419334Y-145184814D01*
X140568656Y-145092712D01*
X140692712Y-144968656D01*
X140784814Y-144819334D01*
X140839999Y-144652797D01*
X140850500Y-144550009D01*
X140850499Y-142949992D01*
X140839999Y-142847203D01*
X140784814Y-142680666D01*
X140692712Y-142531344D01*
X140568656Y-142407288D01*
X140473253Y-142348443D01*
X140419336Y-142315187D01*
X140419331Y-142315185D01*
X140417862Y-142314698D01*
X140252797Y-142260001D01*
X140252795Y-142260000D01*
X140150010Y-142249500D01*
X138849998Y-142249500D01*
X138849981Y-142249501D01*
X138747203Y-142260000D01*
X138747200Y-142260001D01*
X138580668Y-142315185D01*
X138580663Y-142315187D01*
X138431342Y-142407289D01*
X138307289Y-142531342D01*
X138211821Y-142686121D01*
X138159873Y-142732845D01*
X138090910Y-142744068D01*
X138026828Y-142716224D01*
X138018601Y-142708705D01*
X137879786Y-142569890D01*
X137707820Y-142444951D01*
X137518414Y-142348444D01*
X137518413Y-142348443D01*
X137518412Y-142348443D01*
X137316243Y-142282754D01*
X137316241Y-142282753D01*
X137316240Y-142282753D01*
X137154957Y-142257208D01*
X137106287Y-142249500D01*
X136893713Y-142249500D01*
X136679887Y-142283366D01*
X136610594Y-142274411D01*
X136572809Y-142248574D01*
X135962590Y-141638355D01*
X135962588Y-141638352D01*
X135843717Y-141519481D01*
X135843716Y-141519480D01*
X135756904Y-141469360D01*
X135756904Y-141469359D01*
X135756900Y-141469358D01*
X135706785Y-141440423D01*
X135554057Y-141399499D01*
X135395943Y-141399499D01*
X135388347Y-141399499D01*
X135388331Y-141399500D01*
X129604057Y-141399500D01*
X129445942Y-141399500D01*
X129293215Y-141440423D01*
X129293214Y-141440423D01*
X129293212Y-141440424D01*
X129293209Y-141440425D01*
X129243096Y-141469359D01*
X129243095Y-141469360D01*
X129218602Y-141483501D01*
X129156285Y-141519479D01*
X129156282Y-141519481D01*
X128437583Y-142238181D01*
X128376260Y-142271666D01*
X128349902Y-142274500D01*
X128143713Y-142274500D01*
X128104890Y-142280649D01*
X127933760Y-142307753D01*
X127731585Y-142373444D01*
X127542179Y-142469951D01*
X127370213Y-142594890D01*
X127219894Y-142745209D01*
X127219890Y-142745214D01*
X127100318Y-142909793D01*
X127044989Y-142952459D01*
X126975375Y-142958438D01*
X126913580Y-142925833D01*
X126899682Y-142909793D01*
X126780109Y-142745214D01*
X126780105Y-142745209D01*
X126629786Y-142594890D01*
X126457815Y-142469948D01*
X126457814Y-142469947D01*
X126418205Y-142449765D01*
X126367409Y-142401791D01*
X126350500Y-142339281D01*
X126350500Y-135350097D01*
X126370185Y-135283058D01*
X126386819Y-135262416D01*
X133012416Y-128636819D01*
X133073739Y-128603334D01*
X133100097Y-128600500D01*
X137252886Y-128600500D01*
X137319925Y-128620185D01*
X137365680Y-128672989D01*
X137375624Y-128742147D01*
X137346599Y-128805703D01*
X137293840Y-128841542D01*
X137200478Y-128874210D01*
X137047737Y-128970184D01*
X136920184Y-129097737D01*
X136824211Y-129250476D01*
X136764631Y-129420745D01*
X136764630Y-129420750D01*
X136744435Y-129599996D01*
X136744435Y-129600003D01*
X136764630Y-129779249D01*
X136764631Y-129779254D01*
X136824211Y-129949523D01*
X136920184Y-130102262D01*
X136981396Y-130163474D01*
X137014881Y-130224797D01*
X137009897Y-130294489D01*
X136998709Y-130317127D01*
X136899211Y-130475476D01*
X136839631Y-130645745D01*
X136839630Y-130645750D01*
X136819435Y-130824996D01*
X136819435Y-130825003D01*
X136839630Y-131004249D01*
X136839631Y-131004254D01*
X136899211Y-131174523D01*
X136977754Y-131299522D01*
X136995184Y-131327262D01*
X137122738Y-131454816D01*
X137194360Y-131499819D01*
X137275019Y-131550501D01*
X137275478Y-131550789D01*
X137445745Y-131610368D01*
X137445750Y-131610369D01*
X137624996Y-131630565D01*
X137625000Y-131630565D01*
X137625004Y-131630565D01*
X137804249Y-131610369D01*
X137804252Y-131610368D01*
X137804255Y-131610368D01*
X137974522Y-131550789D01*
X138127262Y-131454816D01*
X138254816Y-131327262D01*
X138350789Y-131174522D01*
X138410368Y-131004255D01*
X138420161Y-130917329D01*
X138447226Y-130852918D01*
X138455680Y-130843553D01*
X138662417Y-130636816D01*
X138723739Y-130603334D01*
X138750097Y-130600500D01*
X145078157Y-130600500D01*
X145145196Y-130620185D01*
X145190951Y-130672989D01*
X145201377Y-130738383D01*
X145194435Y-130799996D01*
X145194435Y-130800003D01*
X145214630Y-130979249D01*
X145214631Y-130979254D01*
X145274211Y-131149523D01*
X145365614Y-131294989D01*
X145370184Y-131302262D01*
X145497738Y-131429816D01*
X145650478Y-131525789D01*
X145820745Y-131585368D01*
X145907669Y-131595161D01*
X145972080Y-131622226D01*
X145981465Y-131630700D01*
X147963181Y-133612416D01*
X147996666Y-133673739D01*
X147999500Y-133700097D01*
X147999500Y-135017587D01*
X147979815Y-135084626D01*
X147972450Y-135094896D01*
X147970186Y-135097734D01*
X147874211Y-135250476D01*
X147814631Y-135420745D01*
X147814630Y-135420750D01*
X147794435Y-135599996D01*
X147794435Y-135600003D01*
X147814630Y-135779249D01*
X147814631Y-135779254D01*
X147874211Y-135949523D01*
X147950384Y-136070750D01*
X147970184Y-136102262D01*
X148097738Y-136229816D01*
X148250478Y-136325789D01*
X148377352Y-136370184D01*
X148420745Y-136385368D01*
X148420750Y-136385369D01*
X148599996Y-136405565D01*
X148600000Y-136405565D01*
X148600004Y-136405565D01*
X148779249Y-136385369D01*
X148779252Y-136385368D01*
X148779255Y-136385368D01*
X148949522Y-136325789D01*
X149102262Y-136229816D01*
X149229816Y-136102262D01*
X149325789Y-135949522D01*
X149385368Y-135779255D01*
X149385791Y-135775500D01*
X149405565Y-135600003D01*
X149405565Y-135599996D01*
X149385369Y-135420750D01*
X149385368Y-135420745D01*
X149358631Y-135344334D01*
X149325789Y-135250478D01*
X149229816Y-135097738D01*
X149229814Y-135097736D01*
X149229813Y-135097734D01*
X149227550Y-135094896D01*
X149226659Y-135092715D01*
X149226111Y-135091842D01*
X149226264Y-135091745D01*
X149201144Y-135030209D01*
X149200500Y-135017587D01*
X149200500Y-133320944D01*
X149200499Y-133320938D01*
X149193694Y-133295540D01*
X149193605Y-133295208D01*
X149159577Y-133168215D01*
X149133965Y-133123855D01*
X149127296Y-133112303D01*
X149127295Y-133112302D01*
X149080521Y-133031286D01*
X149080520Y-133031284D01*
X148968716Y-132919480D01*
X148968715Y-132919479D01*
X148964385Y-132915149D01*
X148964374Y-132915139D01*
X146861416Y-130812181D01*
X146827931Y-130750858D01*
X146832915Y-130681166D01*
X146874787Y-130625233D01*
X146940251Y-130600816D01*
X146949097Y-130600500D01*
X162589281Y-130600500D01*
X162656320Y-130620185D01*
X162699765Y-130668205D01*
X162719947Y-130707814D01*
X162719948Y-130707815D01*
X162844890Y-130879786D01*
X162995209Y-131030105D01*
X162995214Y-131030109D01*
X163159793Y-131149682D01*
X163202459Y-131205011D01*
X163208438Y-131274625D01*
X163175833Y-131336420D01*
X163159793Y-131350318D01*
X162995214Y-131469890D01*
X162995209Y-131469894D01*
X162844890Y-131620213D01*
X162719951Y-131792179D01*
X162623444Y-131981585D01*
X162557753Y-132183760D01*
X162524500Y-132393713D01*
X162524500Y-132606286D01*
X162552738Y-132784577D01*
X162557754Y-132816243D01*
X162617204Y-132999211D01*
X162623444Y-133018414D01*
X162719951Y-133207820D01*
X162844890Y-133379786D01*
X162995209Y-133530105D01*
X162995214Y-133530109D01*
X163159793Y-133649682D01*
X163202459Y-133705011D01*
X163208438Y-133774625D01*
X163175833Y-133836420D01*
X163159793Y-133850318D01*
X162995214Y-133969890D01*
X162995209Y-133969894D01*
X162844890Y-134120213D01*
X162719951Y-134292179D01*
X162623444Y-134481585D01*
X162557753Y-134683760D01*
X162540016Y-134795750D01*
X162524500Y-134893713D01*
X162524500Y-135106287D01*
X162532097Y-135154254D01*
X162557692Y-135315856D01*
X162557754Y-135316243D01*
X162615399Y-135493656D01*
X162623444Y-135518414D01*
X162719951Y-135707820D01*
X162844890Y-135879786D01*
X162995213Y-136030109D01*
X163167179Y-136155048D01*
X163167181Y-136155049D01*
X163167184Y-136155051D01*
X163356588Y-136251557D01*
X163558757Y-136317246D01*
X163768713Y-136350500D01*
X163768714Y-136350500D01*
X164231286Y-136350500D01*
X164231287Y-136350500D01*
X164441243Y-136317246D01*
X164643412Y-136251557D01*
X164832816Y-136155051D01*
X164854789Y-136139086D01*
X165004786Y-136030109D01*
X165004788Y-136030106D01*
X165004792Y-136030104D01*
X165155104Y-135879792D01*
X165155106Y-135879788D01*
X165155109Y-135879786D01*
X165280048Y-135707820D01*
X165280047Y-135707820D01*
X165280051Y-135707816D01*
X165376557Y-135518412D01*
X165442246Y-135316243D01*
X165475500Y-135106287D01*
X165475500Y-134893713D01*
X165442246Y-134683757D01*
X165376557Y-134481588D01*
X165280051Y-134292184D01*
X165280049Y-134292181D01*
X165280048Y-134292179D01*
X165155109Y-134120213D01*
X165004792Y-133969896D01*
X164951729Y-133931344D01*
X164840204Y-133850316D01*
X164797540Y-133794989D01*
X164791561Y-133725376D01*
X164824166Y-133663580D01*
X164840199Y-133649686D01*
X165004792Y-133530104D01*
X165155104Y-133379792D01*
X165155106Y-133379788D01*
X165155109Y-133379786D01*
X165280048Y-133207820D01*
X165280047Y-133207820D01*
X165280051Y-133207816D01*
X165376557Y-133018412D01*
X165442246Y-132816243D01*
X165475500Y-132606287D01*
X165475500Y-132393713D01*
X165442246Y-132183757D01*
X165376557Y-131981588D01*
X165280051Y-131792184D01*
X165280049Y-131792181D01*
X165280048Y-131792179D01*
X165155109Y-131620213D01*
X165004792Y-131469896D01*
X164984036Y-131454816D01*
X164840204Y-131350316D01*
X164797540Y-131294989D01*
X164791561Y-131225376D01*
X164824166Y-131163580D01*
X164840199Y-131149686D01*
X165004792Y-131030104D01*
X165155104Y-130879792D01*
X165155106Y-130879788D01*
X165155109Y-130879786D01*
X165280048Y-130707820D01*
X165280047Y-130707820D01*
X165280051Y-130707816D01*
X165376557Y-130518412D01*
X165442246Y-130316243D01*
X165475500Y-130106287D01*
X165475500Y-129893713D01*
X165442246Y-129683757D01*
X165376557Y-129481588D01*
X165280051Y-129292184D01*
X165280049Y-129292181D01*
X165280048Y-129292179D01*
X165155109Y-129120213D01*
X165004792Y-128969896D01*
X164999114Y-128965771D01*
X164840204Y-128850316D01*
X164797540Y-128794989D01*
X164791561Y-128725376D01*
X164824166Y-128663580D01*
X164840199Y-128649686D01*
X165004792Y-128530104D01*
X165155104Y-128379792D01*
X165155106Y-128379788D01*
X165155109Y-128379786D01*
X165280048Y-128207820D01*
X165280047Y-128207820D01*
X165280051Y-128207816D01*
X165376557Y-128018412D01*
X165442246Y-127816243D01*
X165475500Y-127606287D01*
X165475500Y-127393713D01*
X165442246Y-127183757D01*
X165376557Y-126981588D01*
X165280051Y-126792184D01*
X165280049Y-126792181D01*
X165280048Y-126792179D01*
X165155109Y-126620213D01*
X165004792Y-126469896D01*
X164974294Y-126447738D01*
X164840204Y-126350316D01*
X164797540Y-126294989D01*
X164791561Y-126225376D01*
X164824166Y-126163580D01*
X164840199Y-126149686D01*
X165004792Y-126030104D01*
X165155104Y-125879792D01*
X165155106Y-125879788D01*
X165155109Y-125879786D01*
X165280048Y-125707820D01*
X165280047Y-125707820D01*
X165280051Y-125707816D01*
X165376557Y-125518412D01*
X165442246Y-125316243D01*
X165475500Y-125106287D01*
X165475500Y-124893713D01*
X165442246Y-124683757D01*
X165376557Y-124481588D01*
X165280051Y-124292184D01*
X165280049Y-124292181D01*
X165280048Y-124292179D01*
X165155109Y-124120213D01*
X165004792Y-123969896D01*
X164997986Y-123964951D01*
X164840204Y-123850316D01*
X164797540Y-123794989D01*
X164791561Y-123725376D01*
X164824166Y-123663580D01*
X164840199Y-123649686D01*
X165004792Y-123530104D01*
X165155104Y-123379792D01*
X165155106Y-123379788D01*
X165155109Y-123379786D01*
X165280048Y-123207820D01*
X165280047Y-123207820D01*
X165280051Y-123207816D01*
X165376557Y-123018412D01*
X165442246Y-122816243D01*
X165475500Y-122606287D01*
X165475500Y-122393713D01*
X165442246Y-122183757D01*
X165376557Y-121981588D01*
X165280051Y-121792184D01*
X165280049Y-121792181D01*
X165280048Y-121792179D01*
X165155109Y-121620213D01*
X165004792Y-121469896D01*
X165004784Y-121469890D01*
X164840204Y-121350316D01*
X164797540Y-121294989D01*
X164791561Y-121225376D01*
X164824166Y-121163580D01*
X164840199Y-121149686D01*
X165004792Y-121030104D01*
X165155104Y-120879792D01*
X165155106Y-120879788D01*
X165155109Y-120879786D01*
X165280048Y-120707820D01*
X165280047Y-120707820D01*
X165280051Y-120707816D01*
X165376557Y-120518412D01*
X165442246Y-120316243D01*
X165475500Y-120106287D01*
X165475500Y-119893713D01*
X165442246Y-119683757D01*
X165376557Y-119481588D01*
X165280051Y-119292184D01*
X165280049Y-119292181D01*
X165280048Y-119292179D01*
X165155109Y-119120213D01*
X165016294Y-118981398D01*
X164982809Y-118920075D01*
X164987793Y-118850383D01*
X165029665Y-118794450D01*
X165038879Y-118788178D01*
X165044331Y-118784814D01*
X165044334Y-118784814D01*
X165193656Y-118692712D01*
X165317712Y-118568656D01*
X165409814Y-118419334D01*
X165464999Y-118252797D01*
X165475500Y-118150009D01*
X165475499Y-116849992D01*
X165464999Y-116747203D01*
X165409814Y-116580666D01*
X165317712Y-116431344D01*
X165193656Y-116307288D01*
X165044334Y-116215186D01*
X164877797Y-116160001D01*
X164877795Y-116160000D01*
X164775010Y-116149500D01*
X163224998Y-116149500D01*
X163224981Y-116149501D01*
X163122203Y-116160000D01*
X163122200Y-116160001D01*
X162955668Y-116215185D01*
X162955663Y-116215187D01*
X162806342Y-116307289D01*
X162682289Y-116431342D01*
X162590187Y-116580663D01*
X162590186Y-116580666D01*
X162535001Y-116747203D01*
X162535001Y-116747204D01*
X162535000Y-116747204D01*
X162524500Y-116849983D01*
X162524500Y-118150001D01*
X162524501Y-118150018D01*
X162535000Y-118252796D01*
X162535001Y-118252799D01*
X162577081Y-118379786D01*
X162590186Y-118419334D01*
X162658508Y-118530103D01*
X162682289Y-118568657D01*
X162806344Y-118692712D01*
X162961120Y-118788178D01*
X163007845Y-118840126D01*
X163019068Y-118909088D01*
X162991224Y-118973171D01*
X162983706Y-118981398D01*
X162844889Y-119120215D01*
X162719951Y-119292179D01*
X162623444Y-119481585D01*
X162557753Y-119683760D01*
X162524500Y-119893713D01*
X162524500Y-120106286D01*
X162555539Y-120302262D01*
X162557754Y-120316243D01*
X162623380Y-120518219D01*
X162623444Y-120518414D01*
X162719951Y-120707820D01*
X162844890Y-120879786D01*
X162995209Y-121030105D01*
X162995214Y-121030109D01*
X163159793Y-121149682D01*
X163202459Y-121205011D01*
X163208438Y-121274625D01*
X163175833Y-121336420D01*
X163159793Y-121350318D01*
X162995214Y-121469890D01*
X162995209Y-121469894D01*
X162844890Y-121620213D01*
X162719948Y-121792184D01*
X162719947Y-121792185D01*
X162699765Y-121831795D01*
X162651791Y-121882591D01*
X162589281Y-121899500D01*
X159242258Y-121899500D01*
X159175219Y-121879815D01*
X159129464Y-121827011D01*
X159119520Y-121757853D01*
X159148545Y-121694297D01*
X159154577Y-121687819D01*
X159212581Y-121629815D01*
X159280104Y-121562292D01*
X159280106Y-121562288D01*
X159280109Y-121562286D01*
X159405048Y-121390320D01*
X159405047Y-121390320D01*
X159405051Y-121390316D01*
X159501557Y-121200912D01*
X159567246Y-120998743D01*
X159600500Y-120788787D01*
X159600500Y-120276213D01*
X159567246Y-120066257D01*
X159501557Y-119864088D01*
X159405051Y-119674684D01*
X159405049Y-119674681D01*
X159405048Y-119674679D01*
X159280109Y-119502713D01*
X159129786Y-119352390D01*
X158957820Y-119227451D01*
X158768414Y-119130944D01*
X158768413Y-119130943D01*
X158768412Y-119130943D01*
X158566243Y-119065254D01*
X158566241Y-119065253D01*
X158566240Y-119065253D01*
X158404957Y-119039708D01*
X158356287Y-119032000D01*
X158143713Y-119032000D01*
X158095042Y-119039708D01*
X157933760Y-119065253D01*
X157731585Y-119130944D01*
X157542179Y-119227451D01*
X157370215Y-119352389D01*
X157231035Y-119491569D01*
X157169712Y-119525053D01*
X157100020Y-119520069D01*
X157044087Y-119478197D01*
X157037815Y-119468984D01*
X156942315Y-119314154D01*
X156818345Y-119190184D01*
X156669124Y-119098143D01*
X156669119Y-119098141D01*
X156502697Y-119042994D01*
X156502690Y-119042993D01*
X156399986Y-119032500D01*
X156000000Y-119032500D01*
X156000000Y-120099488D01*
X155942993Y-120066575D01*
X155815826Y-120032500D01*
X155684174Y-120032500D01*
X155557007Y-120066575D01*
X155500000Y-120099488D01*
X155500000Y-119032500D01*
X155100028Y-119032500D01*
X155100012Y-119032501D01*
X154997302Y-119042994D01*
X154830880Y-119098141D01*
X154830875Y-119098143D01*
X154681654Y-119190184D01*
X154557684Y-119314154D01*
X154465643Y-119463375D01*
X154465641Y-119463380D01*
X154410494Y-119629802D01*
X154410493Y-119629809D01*
X154400000Y-119732513D01*
X154400000Y-120282500D01*
X155316988Y-120282500D01*
X155284075Y-120339507D01*
X155250000Y-120466674D01*
X155250000Y-120598326D01*
X155284075Y-120725493D01*
X155316988Y-120782500D01*
X154400001Y-120782500D01*
X154400001Y-121332486D01*
X154410494Y-121435197D01*
X154465641Y-121601619D01*
X154465643Y-121601624D01*
X154532739Y-121710403D01*
X154551179Y-121777796D01*
X154530256Y-121844459D01*
X154476614Y-121889229D01*
X154427200Y-121899500D01*
X144994809Y-121899500D01*
X144927770Y-121879815D01*
X144882015Y-121827011D01*
X144871589Y-121761616D01*
X144888170Y-121614455D01*
X144888170Y-121614449D01*
X144867974Y-121435203D01*
X144867973Y-121435198D01*
X144855256Y-121398855D01*
X144808394Y-121264931D01*
X144712421Y-121112191D01*
X144636819Y-121036589D01*
X144603334Y-120975266D01*
X144600500Y-120948908D01*
X144600500Y-120670945D01*
X144600500Y-120670943D01*
X144559577Y-120518216D01*
X144559577Y-120518215D01*
X144535082Y-120475789D01*
X144526380Y-120460716D01*
X144480522Y-120381287D01*
X144480521Y-120381286D01*
X144480520Y-120381284D01*
X144368716Y-120269480D01*
X144368715Y-120269479D01*
X144364385Y-120265149D01*
X144364374Y-120265139D01*
X143737590Y-119638355D01*
X143737588Y-119638352D01*
X143640917Y-119541681D01*
X143607432Y-119480358D01*
X143612416Y-119410666D01*
X143654288Y-119354733D01*
X143719752Y-119330316D01*
X143728598Y-119330000D01*
X151400000Y-119330000D01*
X151400000Y-115124500D01*
X151419685Y-115057461D01*
X151472489Y-115011706D01*
X151524000Y-115000500D01*
X165625500Y-115000500D01*
X165692539Y-115020185D01*
X165738294Y-115072989D01*
X165749500Y-115124500D01*
X165749500Y-146376000D01*
X165729815Y-146443039D01*
X165677011Y-146488794D01*
X165625500Y-146500000D01*
X143148596Y-146500000D01*
X143081557Y-146480315D01*
X143035802Y-146427511D01*
X143025858Y-146358353D01*
X143054883Y-146294797D01*
X143060915Y-146288319D01*
X145367948Y-143981286D01*
X147733506Y-141615728D01*
X147733511Y-141615724D01*
X147743714Y-141605520D01*
X147743716Y-141605520D01*
X147855520Y-141493716D01*
X147855520Y-141493714D01*
X147865724Y-141483511D01*
X147865727Y-141483506D01*
X147970522Y-141378711D01*
X160899500Y-141378711D01*
X160899500Y-141621288D01*
X160931161Y-141861785D01*
X160993947Y-142096104D01*
X161086773Y-142320205D01*
X161086776Y-142320212D01*
X161208064Y-142530289D01*
X161208066Y-142530292D01*
X161208067Y-142530293D01*
X161355733Y-142722736D01*
X161355739Y-142722743D01*
X161527256Y-142894260D01*
X161527263Y-142894266D01*
X161640321Y-142981018D01*
X161719711Y-143041936D01*
X161929788Y-143163224D01*
X162153900Y-143256054D01*
X162388211Y-143318838D01*
X162568586Y-143342584D01*
X162628711Y-143350500D01*
X162628712Y-143350500D01*
X162871289Y-143350500D01*
X162919388Y-143344167D01*
X163111789Y-143318838D01*
X163346100Y-143256054D01*
X163570212Y-143163224D01*
X163780289Y-143041936D01*
X163972738Y-142894265D01*
X164144265Y-142722738D01*
X164291936Y-142530289D01*
X164413224Y-142320212D01*
X164506054Y-142096100D01*
X164568838Y-141861789D01*
X164600500Y-141621288D01*
X164600500Y-141378712D01*
X164568838Y-141138211D01*
X164506054Y-140903900D01*
X164413224Y-140679788D01*
X164291936Y-140469711D01*
X164225288Y-140382853D01*
X164144266Y-140277263D01*
X164144260Y-140277256D01*
X163972743Y-140105739D01*
X163972736Y-140105733D01*
X163780293Y-139958067D01*
X163780292Y-139958066D01*
X163780289Y-139958064D01*
X163570212Y-139836776D01*
X163570205Y-139836773D01*
X163346104Y-139743947D01*
X163111785Y-139681161D01*
X162871289Y-139649500D01*
X162871288Y-139649500D01*
X162628712Y-139649500D01*
X162628711Y-139649500D01*
X162388214Y-139681161D01*
X162153895Y-139743947D01*
X161929794Y-139836773D01*
X161929785Y-139836777D01*
X161719706Y-139958067D01*
X161527263Y-140105733D01*
X161527256Y-140105739D01*
X161355739Y-140277256D01*
X161355733Y-140277263D01*
X161208067Y-140469706D01*
X161086777Y-140679785D01*
X161086773Y-140679794D01*
X160993947Y-140903895D01*
X160931161Y-141138214D01*
X160899500Y-141378711D01*
X147970522Y-141378711D01*
X148712416Y-140636819D01*
X148773739Y-140603334D01*
X148800097Y-140600500D01*
X158163331Y-140600500D01*
X158163347Y-140600501D01*
X158170943Y-140600501D01*
X158329054Y-140600501D01*
X158329057Y-140600501D01*
X158481785Y-140559577D01*
X158492593Y-140553336D01*
X158532924Y-140530052D01*
X158532925Y-140530051D01*
X158618716Y-140480520D01*
X158730520Y-140368716D01*
X158730520Y-140368714D01*
X158740724Y-140358511D01*
X158740728Y-140358506D01*
X160108506Y-138990728D01*
X160108511Y-138990724D01*
X160118714Y-138980520D01*
X160118716Y-138980520D01*
X160230520Y-138868716D01*
X160309577Y-138731784D01*
X160343123Y-138606588D01*
X160350500Y-138579058D01*
X160350500Y-138420943D01*
X160350500Y-132332412D01*
X160370185Y-132265373D01*
X160377555Y-132255097D01*
X160379810Y-132252267D01*
X160379816Y-132252262D01*
X160475789Y-132099522D01*
X160535368Y-131929255D01*
X160535369Y-131929249D01*
X160555565Y-131750003D01*
X160555565Y-131749996D01*
X160535369Y-131570750D01*
X160535368Y-131570745D01*
X160510550Y-131499819D01*
X160475789Y-131400478D01*
X160464807Y-131383001D01*
X160379815Y-131247737D01*
X160252262Y-131120184D01*
X160099523Y-131024211D01*
X159929254Y-130964631D01*
X159929249Y-130964630D01*
X159750004Y-130944435D01*
X159749996Y-130944435D01*
X159570750Y-130964630D01*
X159570745Y-130964631D01*
X159400476Y-131024211D01*
X159247737Y-131120184D01*
X159120184Y-131247737D01*
X159024211Y-131400476D01*
X158964631Y-131570745D01*
X158964630Y-131570750D01*
X158944435Y-131749996D01*
X158944435Y-131750003D01*
X158964630Y-131929249D01*
X158964631Y-131929254D01*
X159024211Y-132099523D01*
X159078601Y-132186083D01*
X159112969Y-132240780D01*
X159120185Y-132252263D01*
X159122445Y-132255097D01*
X159123334Y-132257275D01*
X159123889Y-132258158D01*
X159123734Y-132258255D01*
X159148855Y-132319783D01*
X159149500Y-132332412D01*
X159149500Y-138199903D01*
X159129815Y-138266942D01*
X159113181Y-138287584D01*
X158037584Y-139363181D01*
X157976261Y-139396666D01*
X157949903Y-139399500D01*
X148420942Y-139399500D01*
X148268213Y-139440423D01*
X148244973Y-139453842D01*
X148244972Y-139453842D01*
X148131287Y-139519477D01*
X148131282Y-139519481D01*
X148030487Y-139620277D01*
X148019480Y-139631284D01*
X148019478Y-139631286D01*
X147577024Y-140073741D01*
X147162584Y-140488181D01*
X147101261Y-140521666D01*
X147074903Y-140524500D01*
X146615021Y-140524500D01*
X146547982Y-140504815D01*
X146502227Y-140452011D01*
X146492283Y-140382853D01*
X146509481Y-140335405D01*
X146534814Y-140294334D01*
X146589999Y-140127797D01*
X146600500Y-140025009D01*
X146600499Y-138474992D01*
X146598851Y-138458863D01*
X146589999Y-138372203D01*
X146576891Y-138332647D01*
X146553978Y-138263501D01*
X146551577Y-138193676D01*
X146587308Y-138133634D01*
X146649828Y-138102441D01*
X146671685Y-138100500D01*
X147178862Y-138100500D01*
X147245901Y-138120185D01*
X147291656Y-138172989D01*
X147302082Y-138210617D01*
X147315365Y-138328514D01*
X147315366Y-138328519D01*
X147374946Y-138498788D01*
X147448440Y-138615752D01*
X147470919Y-138651527D01*
X147598473Y-138779081D01*
X147643495Y-138807370D01*
X147741127Y-138868717D01*
X147751213Y-138875054D01*
X147921480Y-138934633D01*
X147921485Y-138934634D01*
X148100731Y-138954830D01*
X148100735Y-138954830D01*
X148100739Y-138954830D01*
X148279984Y-138934634D01*
X148279987Y-138934633D01*
X148279990Y-138934633D01*
X148450257Y-138875054D01*
X148602997Y-138779081D01*
X148730551Y-138651527D01*
X148826524Y-138498787D01*
X148886103Y-138328520D01*
X148887289Y-138317995D01*
X148906300Y-138149268D01*
X148906300Y-138149261D01*
X148886104Y-137970015D01*
X148886103Y-137970010D01*
X148872904Y-137932289D01*
X148826524Y-137799743D01*
X148810663Y-137774501D01*
X148730550Y-137647002D01*
X148602997Y-137519449D01*
X148450256Y-137423475D01*
X148279984Y-137363895D01*
X148247756Y-137360264D01*
X148183342Y-137333196D01*
X148173960Y-137324725D01*
X147980521Y-137131285D01*
X147868717Y-137019481D01*
X147868716Y-137019480D01*
X147764960Y-136959577D01*
X147764959Y-136959576D01*
X147731783Y-136940422D01*
X147675881Y-136925443D01*
X147579057Y-136899499D01*
X147420943Y-136899499D01*
X147413347Y-136899499D01*
X147413331Y-136899500D01*
X145974500Y-136899500D01*
X145907461Y-136879815D01*
X145861706Y-136827011D01*
X145850500Y-136775500D01*
X145850500Y-135892534D01*
X145870185Y-135825495D01*
X145922989Y-135779740D01*
X145961897Y-135769176D01*
X146002797Y-135764999D01*
X146169334Y-135709814D01*
X146318656Y-135617712D01*
X146442712Y-135493656D01*
X146534814Y-135344334D01*
X146589999Y-135177797D01*
X146600500Y-135075009D01*
X146600499Y-133524992D01*
X146598851Y-133508863D01*
X146589999Y-133422203D01*
X146589998Y-133422200D01*
X146556445Y-133320944D01*
X146534814Y-133255666D01*
X146442712Y-133106344D01*
X146318656Y-132982288D01*
X146209806Y-132915149D01*
X146169336Y-132890187D01*
X146169331Y-132890185D01*
X146127317Y-132876263D01*
X146002797Y-132835001D01*
X146002795Y-132835000D01*
X145900010Y-132824500D01*
X144599998Y-132824500D01*
X144599981Y-132824501D01*
X144497203Y-132835000D01*
X144497200Y-132835001D01*
X144330668Y-132890185D01*
X144330663Y-132890187D01*
X144181342Y-132982289D01*
X144057289Y-133106342D01*
X143961551Y-133261559D01*
X143909603Y-133308283D01*
X143840640Y-133319506D01*
X143776558Y-133291662D01*
X143768331Y-133284143D01*
X143629464Y-133145276D01*
X143629459Y-133145272D01*
X143457557Y-133020379D01*
X143268215Y-132923903D01*
X143066124Y-132858241D01*
X143000000Y-132847768D01*
X143000000Y-133895854D01*
X142933343Y-133857370D01*
X142812535Y-133825000D01*
X142687465Y-133825000D01*
X142566657Y-133857370D01*
X142500000Y-133895854D01*
X142500000Y-132847768D01*
X142499999Y-132847768D01*
X142433875Y-132858241D01*
X142231784Y-132923903D01*
X142042442Y-133020379D01*
X141870540Y-133145272D01*
X141870535Y-133145276D01*
X141720276Y-133295535D01*
X141720272Y-133295540D01*
X141600627Y-133460218D01*
X141545297Y-133502884D01*
X141475684Y-133508863D01*
X141413889Y-133476257D01*
X141399991Y-133460218D01*
X141280106Y-133295210D01*
X141129786Y-133144890D01*
X140957820Y-133019951D01*
X140768414Y-132923444D01*
X140768413Y-132923443D01*
X140768412Y-132923443D01*
X140566243Y-132857754D01*
X140566241Y-132857753D01*
X140566240Y-132857753D01*
X140404957Y-132832208D01*
X140356287Y-132824500D01*
X140143713Y-132824500D01*
X140095042Y-132832208D01*
X139933760Y-132857753D01*
X139731585Y-132923444D01*
X139542179Y-133019951D01*
X139370213Y-133144890D01*
X139370209Y-133144894D01*
X139219896Y-133295208D01*
X139219894Y-133295210D01*
X139094951Y-133467179D01*
X138998444Y-133656585D01*
X138932753Y-133858760D01*
X138899500Y-134068713D01*
X138899500Y-134531286D01*
X138923649Y-134683760D01*
X138932754Y-134741243D01*
X138994169Y-134930259D01*
X138998444Y-134943414D01*
X139094951Y-135132820D01*
X139219890Y-135304786D01*
X139370213Y-135455109D01*
X139542179Y-135580048D01*
X139542181Y-135580049D01*
X139542184Y-135580051D01*
X139731588Y-135676557D01*
X139933757Y-135742246D01*
X140143713Y-135775500D01*
X140143714Y-135775500D01*
X140356286Y-135775500D01*
X140356287Y-135775500D01*
X140566243Y-135742246D01*
X140768412Y-135676557D01*
X140957816Y-135580051D01*
X141042653Y-135518414D01*
X141129786Y-135455109D01*
X141129788Y-135455106D01*
X141129792Y-135455104D01*
X141280104Y-135304792D01*
X141399991Y-135139779D01*
X141455320Y-135097115D01*
X141524933Y-135091136D01*
X141586729Y-135123741D01*
X141600627Y-135139781D01*
X141720272Y-135304459D01*
X141720276Y-135304464D01*
X141870535Y-135454723D01*
X141870540Y-135454727D01*
X142042442Y-135579620D01*
X142231782Y-135676095D01*
X142433871Y-135741757D01*
X142500000Y-135752231D01*
X142500000Y-134704145D01*
X142566657Y-134742630D01*
X142687465Y-134775000D01*
X142812535Y-134775000D01*
X142933343Y-134742630D01*
X143000000Y-134704145D01*
X143000000Y-135752230D01*
X143066126Y-135741757D01*
X143066129Y-135741757D01*
X143268217Y-135676095D01*
X143457557Y-135579620D01*
X143629458Y-135454728D01*
X143768330Y-135315856D01*
X143829653Y-135282371D01*
X143899345Y-135287355D01*
X143955279Y-135329226D01*
X143961551Y-135338440D01*
X143965185Y-135344331D01*
X143965186Y-135344334D01*
X144057288Y-135493656D01*
X144181344Y-135617712D01*
X144330666Y-135709814D01*
X144497203Y-135764999D01*
X144538103Y-135769177D01*
X144602793Y-135795573D01*
X144642945Y-135852753D01*
X144649500Y-135892535D01*
X144649500Y-137373330D01*
X144649499Y-137373348D01*
X144649499Y-137539056D01*
X144671898Y-137622652D01*
X144670235Y-137692502D01*
X144631072Y-137750364D01*
X144566843Y-137777868D01*
X144564725Y-137778103D01*
X144497202Y-137785001D01*
X144497200Y-137785001D01*
X144330668Y-137840185D01*
X144330663Y-137840187D01*
X144181342Y-137932289D01*
X144057289Y-138056342D01*
X143961551Y-138211559D01*
X143909603Y-138258283D01*
X143840640Y-138269506D01*
X143776558Y-138241662D01*
X143768331Y-138234143D01*
X143629464Y-138095276D01*
X143629459Y-138095272D01*
X143457557Y-137970379D01*
X143268215Y-137873903D01*
X143066124Y-137808241D01*
X143000000Y-137797768D01*
X143000000Y-138845854D01*
X142933343Y-138807370D01*
X142812535Y-138775000D01*
X142687465Y-138775000D01*
X142566657Y-138807370D01*
X142500000Y-138845854D01*
X142500000Y-137797768D01*
X142499999Y-137797768D01*
X142433875Y-137808241D01*
X142231784Y-137873903D01*
X142042442Y-137970379D01*
X141870540Y-138095272D01*
X141870535Y-138095276D01*
X141720276Y-138245535D01*
X141720272Y-138245540D01*
X141600627Y-138410218D01*
X141545297Y-138452884D01*
X141475684Y-138458863D01*
X141413889Y-138426257D01*
X141399991Y-138410218D01*
X141280109Y-138245214D01*
X141280105Y-138245209D01*
X141129786Y-138094890D01*
X140957820Y-137969951D01*
X140768414Y-137873444D01*
X140768413Y-137873443D01*
X140768412Y-137873443D01*
X140566243Y-137807754D01*
X140566241Y-137807753D01*
X140566240Y-137807753D01*
X140379035Y-137778103D01*
X140356287Y-137774500D01*
X140143713Y-137774500D01*
X140120965Y-137778103D01*
X139933760Y-137807753D01*
X139731585Y-137873444D01*
X139542179Y-137969951D01*
X139370213Y-138094890D01*
X139219890Y-138245213D01*
X139094951Y-138417179D01*
X138998442Y-138606587D01*
X138988880Y-138636018D01*
X138949442Y-138693693D01*
X138885083Y-138720890D01*
X138816237Y-138708975D01*
X138783269Y-138685379D01*
X138636819Y-138538929D01*
X138603334Y-138477606D01*
X138600500Y-138451248D01*
X138600500Y-137582412D01*
X138620185Y-137515373D01*
X138627555Y-137505097D01*
X138629810Y-137502267D01*
X138629816Y-137502262D01*
X138725789Y-137349522D01*
X138785368Y-137179255D01*
X138799005Y-137058224D01*
X138805565Y-137000003D01*
X138805565Y-136999996D01*
X138785369Y-136820750D01*
X138785368Y-136820745D01*
X138737704Y-136684529D01*
X138725789Y-136650478D01*
X138629816Y-136497738D01*
X138502262Y-136370184D01*
X138454223Y-136339999D01*
X138349523Y-136274211D01*
X138179254Y-136214631D01*
X138179249Y-136214630D01*
X138000004Y-136194435D01*
X137999996Y-136194435D01*
X137820750Y-136214630D01*
X137820745Y-136214631D01*
X137650476Y-136274211D01*
X137497737Y-136370184D01*
X137370184Y-136497737D01*
X137274211Y-136650476D01*
X137214631Y-136820745D01*
X137214630Y-136820750D01*
X137194435Y-136999996D01*
X137194435Y-137000003D01*
X137214630Y-137179249D01*
X137214631Y-137179254D01*
X137274211Y-137349523D01*
X137293954Y-137380943D01*
X137346539Y-137464632D01*
X137370185Y-137502263D01*
X137372445Y-137505097D01*
X137373334Y-137507275D01*
X137373889Y-137508158D01*
X137373734Y-137508255D01*
X137398855Y-137569783D01*
X137399500Y-137582412D01*
X137399500Y-138664676D01*
X137399499Y-138664694D01*
X137399499Y-138830400D01*
X137399498Y-138830400D01*
X137440423Y-138983131D01*
X137469358Y-139033246D01*
X137469359Y-139033250D01*
X137469360Y-139033250D01*
X137519479Y-139120060D01*
X137519481Y-139120063D01*
X137638349Y-139238931D01*
X137638354Y-139238935D01*
X140004938Y-141605520D01*
X140004940Y-141605521D01*
X140004944Y-141605524D01*
X140105100Y-141663348D01*
X140141870Y-141684577D01*
X140294597Y-141725501D01*
X140294599Y-141725501D01*
X140460308Y-141725501D01*
X140460324Y-141725500D01*
X145625903Y-141725500D01*
X145692942Y-141745185D01*
X145738697Y-141797989D01*
X145748641Y-141867147D01*
X145719616Y-141930703D01*
X145713584Y-141937181D01*
X141716003Y-145934760D01*
X141654680Y-145968245D01*
X141627927Y-145971078D01*
X105757043Y-145856840D01*
X105690067Y-145836942D01*
X105669757Y-145820522D01*
X101386819Y-141537584D01*
X101353334Y-141476261D01*
X101350500Y-141449903D01*
X101350500Y-140793706D01*
X101370185Y-140726667D01*
X101408529Y-140688712D01*
X101502259Y-140629818D01*
X101502259Y-140629817D01*
X101502262Y-140629816D01*
X101629816Y-140502262D01*
X101725789Y-140349522D01*
X101785368Y-140179255D01*
X101791166Y-140127795D01*
X101805565Y-140000003D01*
X101805565Y-139999996D01*
X101785369Y-139820750D01*
X101785368Y-139820745D01*
X101749557Y-139718403D01*
X101725789Y-139650478D01*
X101725174Y-139649500D01*
X101643477Y-139519480D01*
X101629816Y-139497738D01*
X101502262Y-139370184D01*
X101491117Y-139363181D01*
X101349523Y-139274211D01*
X101179254Y-139214631D01*
X101179249Y-139214630D01*
X101000004Y-139194435D01*
X100999996Y-139194435D01*
X100820750Y-139214630D01*
X100820745Y-139214631D01*
X100650476Y-139274211D01*
X100497737Y-139370184D01*
X100370184Y-139497737D01*
X100274211Y-139650476D01*
X100214631Y-139820745D01*
X100214630Y-139820749D01*
X100194844Y-139996362D01*
X100191399Y-140014571D01*
X100149499Y-140170943D01*
X100149499Y-140339046D01*
X100149500Y-140339059D01*
X100149500Y-141663330D01*
X100149499Y-141663348D01*
X100149499Y-141829054D01*
X100149498Y-141829054D01*
X100158270Y-141861789D01*
X100190423Y-141981785D01*
X100216573Y-142027077D01*
X100269479Y-142118714D01*
X100269481Y-142118717D01*
X100388349Y-142237585D01*
X100388355Y-142237590D01*
X104439084Y-146288319D01*
X104472569Y-146349642D01*
X104467585Y-146419334D01*
X104425713Y-146475267D01*
X104360249Y-146499684D01*
X104351403Y-146500000D01*
X88374500Y-146500000D01*
X88307461Y-146480315D01*
X88261706Y-146427511D01*
X88250500Y-146376000D01*
X88250500Y-141378711D01*
X89399500Y-141378711D01*
X89399500Y-141621288D01*
X89431161Y-141861785D01*
X89493947Y-142096104D01*
X89586773Y-142320205D01*
X89586776Y-142320212D01*
X89708064Y-142530289D01*
X89708066Y-142530292D01*
X89708067Y-142530293D01*
X89855733Y-142722736D01*
X89855739Y-142722743D01*
X90027256Y-142894260D01*
X90027263Y-142894266D01*
X90140321Y-142981018D01*
X90219711Y-143041936D01*
X90429788Y-143163224D01*
X90653900Y-143256054D01*
X90888211Y-143318838D01*
X91068586Y-143342584D01*
X91128711Y-143350500D01*
X91128712Y-143350500D01*
X91371289Y-143350500D01*
X91419388Y-143344167D01*
X91611789Y-143318838D01*
X91846100Y-143256054D01*
X92070212Y-143163224D01*
X92280289Y-143041936D01*
X92472738Y-142894265D01*
X92644265Y-142722738D01*
X92791936Y-142530289D01*
X92913224Y-142320212D01*
X93006054Y-142096100D01*
X93068838Y-141861789D01*
X93100500Y-141621288D01*
X93100500Y-141378712D01*
X93068838Y-141138211D01*
X93006054Y-140903900D01*
X92913224Y-140679788D01*
X92791936Y-140469711D01*
X92725288Y-140382853D01*
X92644266Y-140277263D01*
X92644260Y-140277256D01*
X92472743Y-140105739D01*
X92472736Y-140105733D01*
X92280293Y-139958067D01*
X92280292Y-139958066D01*
X92280289Y-139958064D01*
X92070212Y-139836776D01*
X92070205Y-139836773D01*
X91846104Y-139743947D01*
X91611785Y-139681161D01*
X91371289Y-139649500D01*
X91371288Y-139649500D01*
X91128712Y-139649500D01*
X91128711Y-139649500D01*
X90888214Y-139681161D01*
X90653895Y-139743947D01*
X90429794Y-139836773D01*
X90429785Y-139836777D01*
X90219706Y-139958067D01*
X90027263Y-140105733D01*
X90027256Y-140105739D01*
X89855739Y-140277256D01*
X89855733Y-140277263D01*
X89708067Y-140469706D01*
X89586777Y-140679785D01*
X89586773Y-140679794D01*
X89493947Y-140903895D01*
X89431161Y-141138214D01*
X89399500Y-141378711D01*
X88250500Y-141378711D01*
X88250500Y-139118011D01*
X97826420Y-139118011D01*
X97826420Y-139118018D01*
X97846615Y-139297264D01*
X97846616Y-139297269D01*
X97906196Y-139467538D01*
X98002169Y-139620277D01*
X98129723Y-139747831D01*
X98201152Y-139792713D01*
X98271279Y-139836777D01*
X98282463Y-139843804D01*
X98424235Y-139893412D01*
X98452730Y-139903383D01*
X98452735Y-139903384D01*
X98631981Y-139923580D01*
X98631985Y-139923580D01*
X98631989Y-139923580D01*
X98811234Y-139903384D01*
X98811237Y-139903383D01*
X98811240Y-139903383D01*
X98981507Y-139843804D01*
X99134247Y-139747831D01*
X99261801Y-139620277D01*
X99357774Y-139467537D01*
X99417353Y-139297270D01*
X99427146Y-139210344D01*
X99454211Y-139145933D01*
X99462675Y-139136558D01*
X99518535Y-139080698D01*
X99579856Y-139047215D01*
X99592311Y-139045163D01*
X99679255Y-139035368D01*
X99849522Y-138975789D01*
X100002262Y-138879816D01*
X100129816Y-138752262D01*
X100225789Y-138599522D01*
X100285368Y-138429255D01*
X100289540Y-138392226D01*
X100305565Y-138250003D01*
X100305565Y-138249996D01*
X100285369Y-138070750D01*
X100285368Y-138070745D01*
X100250119Y-137970010D01*
X100225789Y-137900478D01*
X100208802Y-137873444D01*
X100186582Y-137838080D01*
X100129816Y-137747738D01*
X100002262Y-137620184D01*
X99994411Y-137615251D01*
X99849523Y-137524211D01*
X99679254Y-137464631D01*
X99679249Y-137464630D01*
X99500004Y-137444435D01*
X99499996Y-137444435D01*
X99320750Y-137464630D01*
X99320745Y-137464631D01*
X99150476Y-137524211D01*
X98997737Y-137620184D01*
X98870184Y-137747737D01*
X98774210Y-137900478D01*
X98714630Y-138070750D01*
X98704837Y-138157668D01*
X98677770Y-138222082D01*
X98669298Y-138231465D01*
X98613450Y-138287313D01*
X98552127Y-138320798D01*
X98539653Y-138322852D01*
X98452735Y-138332645D01*
X98282463Y-138392225D01*
X98129722Y-138488199D01*
X98002169Y-138615752D01*
X97906196Y-138768491D01*
X97846616Y-138938760D01*
X97846615Y-138938765D01*
X97826420Y-139118011D01*
X88250500Y-139118011D01*
X88250500Y-115124500D01*
X88270185Y-115057461D01*
X88322989Y-115011706D01*
X88374500Y-115000500D01*
X103276000Y-115000500D01*
X103343039Y-115020185D01*
G37*
%TD.AperFunction*%
%TD*%
M02*
