M48
; DRILL file {KiCad 9.0.3} date 2025-12-24T22:58:58+0530
; FORMAT={-:-/ absolute / metric / decimal}
; #@! TF.CreationDate,2025-12-24T22:58:58+05:30
; #@! TF.GenerationSoftware,Kicad,Pcbnew,9.0.3
; #@! TF.FileFunction,Plated,1,2,PTH
FMAT,2
METRIC
; #@! TA.AperFunction,Plated,PTH,ComponentDrill
T1C0.950
; #@! TA.AperFunction,Plated,PTH,ComponentDrill
T2C1.000
; #@! TA.AperFunction,Plated,PTH,ViaDrill
T3C1.250
; #@! TA.AperFunction,Plated,PTH,ComponentDrill
T4C2.200
%
G90
G05
T1
X250.25Y-64.945
X252.75Y-64.945
X255.25Y-64.945
T2
X193.75Y-75.59
X193.75Y-78.13
X193.75Y-80.67
X193.75Y-83.21
X193.75Y-85.75
X193.75Y-88.29
X193.75Y-90.83
X193.75Y-93.37
X194.0Y-60.42
X194.0Y-62.96
X194.0Y-65.5
X194.0Y-68.04
X194.0Y-70.58
X198.5Y-55.26
X198.5Y-57.8
X198.5Y-60.34
X198.5Y-62.88
X198.5Y-65.42
X198.5Y-67.96
X198.5Y-70.5
X198.5Y-73.04
X198.5Y-75.58
X198.5Y-78.12
X198.5Y-80.66
X198.5Y-83.2
X198.5Y-85.74
X198.5Y-88.28
X198.5Y-90.82
X224.0Y-55.34
X224.0Y-57.88
X224.0Y-60.42
X224.0Y-62.96
X224.0Y-65.5
X224.0Y-68.04
X224.0Y-70.58
X224.0Y-73.12
X224.0Y-75.66
X224.0Y-78.2
X224.0Y-80.74
X224.0Y-83.28
X224.0Y-85.82
X224.0Y-88.36
X224.0Y-90.9
X228.025Y-60.7
X228.025Y-63.24
X228.025Y-65.78
X228.025Y-68.32
X228.025Y-70.86
X228.88Y-75.62
X228.88Y-79.62
X231.42Y-75.62
X231.42Y-79.62
X233.96Y-75.62
X233.96Y-79.62
X264.0Y-84.0
X266.5Y-84.0
T3
X220.5Y-102.75
X222.5Y-100.75
X224.25Y-99.0
X226.25Y-97.0
X228.306Y-95.056
T4
X232.668Y-67.5
X238.668Y-67.5
X244.668Y-67.5
X254.0Y-76.75
X261.5Y-76.75
M30
