%TF.GenerationSoftware,KiCad,Pcbnew,9.0.3*%
%TF.CreationDate,2025-12-24T22:58:55+05:30*%
%TF.ProjectId,snake_pcb_3,736e616b-655f-4706-9362-5f332e6b6963,rev?*%
%TF.SameCoordinates,Original*%
%TF.FileFunction,Legend,Bot*%
%TF.FilePolarity,Positive*%
%FSLAX46Y46*%
G04 Gerber Fmt 4.6, Leading zero omitted, Abs format (unit mm)*
G04 Created by KiCad (PCBNEW 9.0.3) date 2025-12-24 22:58:55*
%MOMM*%
%LPD*%
G01*
G04 APERTURE LIST*
%ADD10C,0.300000*%
%ADD11C,0.000000*%
G04 APERTURE END LIST*
D10*
X222411427Y-97164757D02*
X222554285Y-97093328D01*
X222554285Y-97093328D02*
X222768570Y-97093328D01*
X222768570Y-97093328D02*
X222982856Y-97164757D01*
X222982856Y-97164757D02*
X223125713Y-97307614D01*
X223125713Y-97307614D02*
X223197142Y-97450471D01*
X223197142Y-97450471D02*
X223268570Y-97736185D01*
X223268570Y-97736185D02*
X223268570Y-97950471D01*
X223268570Y-97950471D02*
X223197142Y-98236185D01*
X223197142Y-98236185D02*
X223125713Y-98379042D01*
X223125713Y-98379042D02*
X222982856Y-98521900D01*
X222982856Y-98521900D02*
X222768570Y-98593328D01*
X222768570Y-98593328D02*
X222625713Y-98593328D01*
X222625713Y-98593328D02*
X222411427Y-98521900D01*
X222411427Y-98521900D02*
X222339999Y-98450471D01*
X222339999Y-98450471D02*
X222339999Y-97950471D01*
X222339999Y-97950471D02*
X222625713Y-97950471D01*
X221482856Y-97093328D02*
X221482856Y-97450471D01*
X221839999Y-97307614D02*
X221482856Y-97450471D01*
X221482856Y-97450471D02*
X221125713Y-97307614D01*
X221697142Y-97736185D02*
X221482856Y-97450471D01*
X221482856Y-97450471D02*
X221268570Y-97736185D01*
X220339999Y-97093328D02*
X220339999Y-97450471D01*
X220697142Y-97307614D02*
X220339999Y-97450471D01*
X220339999Y-97450471D02*
X219982856Y-97307614D01*
X220554285Y-97736185D02*
X220339999Y-97450471D01*
X220339999Y-97450471D02*
X220125713Y-97736185D01*
X219197142Y-97093328D02*
X219197142Y-97450471D01*
X219554285Y-97307614D02*
X219197142Y-97450471D01*
X219197142Y-97450471D02*
X218839999Y-97307614D01*
X219411428Y-97736185D02*
X219197142Y-97450471D01*
X219197142Y-97450471D02*
X218982856Y-97736185D01*
D11*
%TO.C,G\u002A\u002A\u002A*%
G36*
X187963589Y-95115911D02*
G01*
X187940456Y-95139044D01*
X187917323Y-95115911D01*
X187940456Y-95092778D01*
X187963589Y-95115911D01*
G37*
G36*
X188194918Y-102610993D02*
G01*
X188171785Y-102634125D01*
X188148652Y-102610993D01*
X188171785Y-102587860D01*
X188194918Y-102610993D01*
G37*
G36*
X188241184Y-92987677D02*
G01*
X188218051Y-93010810D01*
X188194918Y-92987677D01*
X188218051Y-92964544D01*
X188241184Y-92987677D01*
G37*
G36*
X188379982Y-92154890D02*
G01*
X188356849Y-92178023D01*
X188333716Y-92154890D01*
X188356849Y-92131758D01*
X188379982Y-92154890D01*
G37*
G36*
X188518780Y-91507167D02*
G01*
X188495647Y-91530300D01*
X188472514Y-91507167D01*
X188495647Y-91484034D01*
X188518780Y-91507167D01*
G37*
G36*
X188565046Y-104692960D02*
G01*
X188541913Y-104716093D01*
X188518780Y-104692960D01*
X188541913Y-104669827D01*
X188565046Y-104692960D01*
G37*
G36*
X188796376Y-90350519D02*
G01*
X188773243Y-90373652D01*
X188750110Y-90350519D01*
X188773243Y-90327386D01*
X188796376Y-90350519D01*
G37*
G36*
X188842641Y-105757076D02*
G01*
X188819508Y-105780209D01*
X188796376Y-105757076D01*
X188819508Y-105733943D01*
X188842641Y-105757076D01*
G37*
G36*
X188888907Y-90026657D02*
G01*
X188865774Y-90049790D01*
X188842641Y-90026657D01*
X188865774Y-90003524D01*
X188888907Y-90026657D01*
G37*
G36*
X189027705Y-89471466D02*
G01*
X189004572Y-89494599D01*
X188981439Y-89471466D01*
X189004572Y-89448333D01*
X189027705Y-89471466D01*
G37*
G36*
X189444099Y-107931575D02*
G01*
X189420966Y-107954708D01*
X189397833Y-107931575D01*
X189420966Y-107908442D01*
X189444099Y-107931575D01*
G37*
G36*
X190878343Y-111632850D02*
G01*
X190855210Y-111655983D01*
X190832077Y-111632850D01*
X190855210Y-111609717D01*
X190878343Y-111632850D01*
G37*
G36*
X190970875Y-111864180D02*
G01*
X190947742Y-111887313D01*
X190924609Y-111864180D01*
X190947742Y-111841047D01*
X190970875Y-111864180D01*
G37*
G36*
X208551931Y-128658716D02*
G01*
X208528798Y-128681849D01*
X208505665Y-128658716D01*
X208528798Y-128635583D01*
X208551931Y-128658716D01*
G37*
G36*
X208783261Y-128751248D02*
G01*
X208760128Y-128774380D01*
X208736995Y-128751248D01*
X208760128Y-128728115D01*
X208783261Y-128751248D01*
G37*
G36*
X209014590Y-128843779D02*
G01*
X208991457Y-128866912D01*
X208968325Y-128843779D01*
X208991457Y-128820646D01*
X209014590Y-128843779D01*
G37*
G36*
X209384718Y-128982577D02*
G01*
X209361585Y-129005710D01*
X209338452Y-128982577D01*
X209361585Y-128959444D01*
X209384718Y-128982577D01*
G37*
G36*
X227613498Y-130416821D02*
G01*
X227590365Y-130439954D01*
X227567232Y-130416821D01*
X227590365Y-130393688D01*
X227613498Y-130416821D01*
G37*
G36*
X230296922Y-129676566D02*
G01*
X230273789Y-129699699D01*
X230250656Y-129676566D01*
X230273789Y-129653433D01*
X230296922Y-129676566D01*
G37*
G36*
X230435720Y-129630300D02*
G01*
X230412587Y-129653433D01*
X230389454Y-129630300D01*
X230412587Y-129607167D01*
X230435720Y-129630300D01*
G37*
G36*
X230898379Y-129491503D02*
G01*
X230875246Y-129514635D01*
X230852113Y-129491503D01*
X230875246Y-129468370D01*
X230898379Y-129491503D01*
G37*
G36*
X231499836Y-129306439D02*
G01*
X231476703Y-129329572D01*
X231453570Y-129306439D01*
X231476703Y-129283306D01*
X231499836Y-129306439D01*
G37*
G36*
X231916230Y-129167641D02*
G01*
X231893097Y-129190774D01*
X231869964Y-129167641D01*
X231893097Y-129144508D01*
X231916230Y-129167641D01*
G37*
G36*
X232332623Y-129028843D02*
G01*
X232309490Y-129051976D01*
X232286357Y-129028843D01*
X232309490Y-129005710D01*
X232332623Y-129028843D01*
G37*
G36*
X232795283Y-128843779D02*
G01*
X232772150Y-128866912D01*
X232749017Y-128843779D01*
X232772150Y-128820646D01*
X232795283Y-128843779D01*
G37*
G36*
X233026612Y-128751248D02*
G01*
X233003479Y-128774380D01*
X232980346Y-128751248D01*
X233003479Y-128728115D01*
X233026612Y-128751248D01*
G37*
G36*
X233119144Y-128704982D02*
G01*
X233096011Y-128728115D01*
X233072878Y-128704982D01*
X233096011Y-128681849D01*
X233119144Y-128704982D01*
G37*
G36*
X233350474Y-128612450D02*
G01*
X233327341Y-128635583D01*
X233304208Y-128612450D01*
X233327341Y-128589317D01*
X233350474Y-128612450D01*
G37*
G36*
X233766867Y-128427386D02*
G01*
X233743734Y-128450519D01*
X233720601Y-128427386D01*
X233743734Y-128404253D01*
X233766867Y-128427386D01*
G37*
G36*
X233998197Y-128334854D02*
G01*
X233975064Y-128357987D01*
X233951931Y-128334854D01*
X233975064Y-128311721D01*
X233998197Y-128334854D01*
G37*
G36*
X234090729Y-128288588D02*
G01*
X234067596Y-128311721D01*
X234044463Y-128288588D01*
X234067596Y-128265455D01*
X234090729Y-128288588D01*
G37*
G36*
X234507122Y-128103524D02*
G01*
X234483989Y-128126657D01*
X234460856Y-128103524D01*
X234483989Y-128080391D01*
X234507122Y-128103524D01*
G37*
G36*
X234645920Y-128057258D02*
G01*
X234622787Y-128080391D01*
X234599654Y-128057258D01*
X234622787Y-128034125D01*
X234645920Y-128057258D01*
G37*
G36*
X234830984Y-127964727D02*
G01*
X234807851Y-127987860D01*
X234784718Y-127964727D01*
X234807851Y-127941594D01*
X234830984Y-127964727D01*
G37*
G36*
X234923516Y-127918461D02*
G01*
X234900383Y-127941594D01*
X234877250Y-127918461D01*
X234900383Y-127895328D01*
X234923516Y-127918461D01*
G37*
G36*
X235154845Y-127825929D02*
G01*
X235131712Y-127849062D01*
X235108580Y-127825929D01*
X235131712Y-127802796D01*
X235154845Y-127825929D01*
G37*
G36*
X235247377Y-127779663D02*
G01*
X235224244Y-127802796D01*
X235201111Y-127779663D01*
X235224244Y-127756530D01*
X235247377Y-127779663D01*
G37*
G36*
X235432441Y-127687131D02*
G01*
X235409308Y-127710264D01*
X235386175Y-127687131D01*
X235409308Y-127663998D01*
X235432441Y-127687131D01*
G37*
G36*
X235524973Y-127640865D02*
G01*
X235501840Y-127663998D01*
X235478707Y-127640865D01*
X235501840Y-127617732D01*
X235524973Y-127640865D01*
G37*
G36*
X235710037Y-127548333D02*
G01*
X235686904Y-127571466D01*
X235663771Y-127548333D01*
X235686904Y-127525200D01*
X235710037Y-127548333D01*
G37*
G36*
X235802569Y-127502067D02*
G01*
X235779436Y-127525200D01*
X235756303Y-127502067D01*
X235779436Y-127478934D01*
X235802569Y-127502067D01*
G37*
G36*
X235987632Y-127409535D02*
G01*
X235964499Y-127432668D01*
X235941366Y-127409535D01*
X235964499Y-127386402D01*
X235987632Y-127409535D01*
G37*
G36*
X236265228Y-127270737D02*
G01*
X236242095Y-127293870D01*
X236218962Y-127270737D01*
X236242095Y-127247605D01*
X236265228Y-127270737D01*
G37*
G36*
X236404026Y-127178206D02*
G01*
X236380893Y-127201339D01*
X236357760Y-127178206D01*
X236380893Y-127155073D01*
X236404026Y-127178206D01*
G37*
G36*
X236496558Y-127131940D02*
G01*
X236473425Y-127155073D01*
X236450292Y-127131940D01*
X236473425Y-127108807D01*
X236496558Y-127131940D01*
G37*
G36*
X236681621Y-127039408D02*
G01*
X236658488Y-127062541D01*
X236635355Y-127039408D01*
X236658488Y-127016275D01*
X236681621Y-127039408D01*
G37*
G36*
X237144281Y-126761812D02*
G01*
X237121148Y-126784945D01*
X237098015Y-126761812D01*
X237121148Y-126738679D01*
X237144281Y-126761812D01*
G37*
G36*
X237236813Y-126715546D02*
G01*
X237213680Y-126738679D01*
X237190547Y-126715546D01*
X237213680Y-126692413D01*
X237236813Y-126715546D01*
G37*
G36*
X237329345Y-126669280D02*
G01*
X237306212Y-126692413D01*
X237283079Y-126669280D01*
X237306212Y-126646147D01*
X237329345Y-126669280D01*
G37*
G36*
X237468142Y-126576748D02*
G01*
X237445009Y-126599881D01*
X237421876Y-126576748D01*
X237445009Y-126553615D01*
X237468142Y-126576748D01*
G37*
G36*
X237560674Y-126530482D02*
G01*
X237537541Y-126553615D01*
X237514408Y-126530482D01*
X237537541Y-126507350D01*
X237560674Y-126530482D01*
G37*
G36*
X237838270Y-126345419D02*
G01*
X237815137Y-126368552D01*
X237792004Y-126345419D01*
X237815137Y-126322286D01*
X237838270Y-126345419D01*
G37*
G36*
X237930802Y-126299153D02*
G01*
X237907669Y-126322286D01*
X237884536Y-126299153D01*
X237907669Y-126276020D01*
X237930802Y-126299153D01*
G37*
G36*
X238300929Y-126067823D02*
G01*
X238277796Y-126090956D01*
X238254663Y-126067823D01*
X238277796Y-126044690D01*
X238300929Y-126067823D01*
G37*
G36*
X238994918Y-125605164D02*
G01*
X238971785Y-125628297D01*
X238948652Y-125605164D01*
X238971785Y-125582031D01*
X238994918Y-125605164D01*
G37*
G36*
X239457578Y-125281302D02*
G01*
X239434445Y-125304435D01*
X239411312Y-125281302D01*
X239434445Y-125258169D01*
X239457578Y-125281302D01*
G37*
G36*
X242557396Y-122875473D02*
G01*
X242534263Y-122898606D01*
X242511130Y-122875473D01*
X242534263Y-122852340D01*
X242557396Y-122875473D01*
G37*
G36*
X245796011Y-119636858D02*
G01*
X245772878Y-119659991D01*
X245749745Y-119636858D01*
X245772878Y-119613725D01*
X245796011Y-119636858D01*
G37*
G36*
X246119873Y-119266730D02*
G01*
X246096740Y-119289863D01*
X246073607Y-119266730D01*
X246096740Y-119243597D01*
X246119873Y-119266730D01*
G37*
G36*
X246860128Y-118387677D02*
G01*
X246836995Y-118410810D01*
X246813862Y-118387677D01*
X246836995Y-118364544D01*
X246860128Y-118387677D01*
G37*
G36*
X247230255Y-117925018D02*
G01*
X247207122Y-117948151D01*
X247183989Y-117925018D01*
X247207122Y-117901885D01*
X247230255Y-117925018D01*
G37*
G36*
X247646649Y-117369827D02*
G01*
X247623516Y-117392960D01*
X247600383Y-117369827D01*
X247623516Y-117346694D01*
X247646649Y-117369827D01*
G37*
G36*
X248386904Y-116259444D02*
G01*
X248363771Y-116282577D01*
X248340638Y-116259444D01*
X248363771Y-116236311D01*
X248386904Y-116259444D01*
G37*
G36*
X248710765Y-115750519D02*
G01*
X248687632Y-115773652D01*
X248664499Y-115750519D01*
X248687632Y-115727386D01*
X248710765Y-115750519D01*
G37*
G36*
X248849563Y-115519189D02*
G01*
X248826430Y-115542322D01*
X248803297Y-115519189D01*
X248826430Y-115496056D01*
X248849563Y-115519189D01*
G37*
G36*
X249127159Y-115056530D02*
G01*
X249104026Y-115079663D01*
X249080893Y-115056530D01*
X249104026Y-115033397D01*
X249127159Y-115056530D01*
G37*
G36*
X249589818Y-114270009D02*
G01*
X249566685Y-114293142D01*
X249543552Y-114270009D01*
X249566685Y-114246876D01*
X249589818Y-114270009D01*
G37*
G36*
X249774882Y-113946147D02*
G01*
X249751749Y-113969280D01*
X249728616Y-113946147D01*
X249751749Y-113923014D01*
X249774882Y-113946147D01*
G37*
G36*
X250098743Y-113344690D02*
G01*
X250075610Y-113367823D01*
X250052478Y-113344690D01*
X250075610Y-113321557D01*
X250098743Y-113344690D01*
G37*
G36*
X251116594Y-111262723D02*
G01*
X251093461Y-111285856D01*
X251070328Y-111262723D01*
X251093461Y-111239590D01*
X251116594Y-111262723D01*
G37*
G36*
X187817486Y-99580574D02*
G01*
X187811036Y-99644218D01*
X187794150Y-99638406D01*
X187788039Y-99617464D01*
X187794150Y-99522741D01*
X187810215Y-99514893D01*
X187817486Y-99580574D01*
G37*
G36*
X188056120Y-101616275D02*
G01*
X188052782Y-101640768D01*
X188025277Y-101647119D01*
X188019739Y-101640338D01*
X188025277Y-101585431D01*
X188039193Y-101578193D01*
X188056120Y-101616275D01*
G37*
G36*
X188098734Y-93955407D02*
G01*
X188095463Y-94002332D01*
X188074434Y-94016131D01*
X188065266Y-93999762D01*
X188070782Y-93927454D01*
X188087435Y-93906039D01*
X188098734Y-93955407D01*
G37*
G36*
X188237532Y-102977265D02*
G01*
X188234260Y-103024190D01*
X188213232Y-103037989D01*
X188204064Y-103021620D01*
X188209579Y-102949312D01*
X188226233Y-102927897D01*
X188237532Y-102977265D01*
G37*
G36*
X188287450Y-103235583D02*
G01*
X188284111Y-103260076D01*
X188256606Y-103266427D01*
X188251069Y-103259646D01*
X188256606Y-103204739D01*
X188270522Y-103197501D01*
X188287450Y-103235583D01*
G37*
G36*
X188326411Y-103605710D02*
G01*
X188319962Y-103669355D01*
X188303075Y-103663543D01*
X188296964Y-103642600D01*
X188303075Y-103547878D01*
X188319140Y-103540030D01*
X188326411Y-103605710D01*
G37*
G36*
X188379982Y-103790774D02*
G01*
X188376643Y-103815267D01*
X188349138Y-103821618D01*
X188343601Y-103814837D01*
X188349138Y-103759930D01*
X188363054Y-103752692D01*
X188379982Y-103790774D01*
G37*
G36*
X188422595Y-104087647D02*
G01*
X188419324Y-104134573D01*
X188398296Y-104148371D01*
X188389128Y-104132003D01*
X188394643Y-104059695D01*
X188411296Y-104038280D01*
X188422595Y-104087647D01*
G37*
G36*
X188703844Y-105317550D02*
G01*
X188700505Y-105342043D01*
X188673000Y-105348394D01*
X188667463Y-105341613D01*
X188673000Y-105286706D01*
X188686916Y-105279468D01*
X188703844Y-105317550D01*
G37*
G36*
X188750110Y-90512450D02*
G01*
X188746771Y-90536943D01*
X188719266Y-90543294D01*
X188713728Y-90536513D01*
X188719266Y-90481606D01*
X188733182Y-90474368D01*
X188750110Y-90512450D01*
G37*
G36*
X188981439Y-106289135D02*
G01*
X188978100Y-106313628D01*
X188950595Y-106319979D01*
X188945058Y-106313197D01*
X188950595Y-106258291D01*
X188964511Y-106251052D01*
X188981439Y-106289135D01*
G37*
G36*
X189120237Y-106844326D02*
G01*
X189116898Y-106868819D01*
X189089393Y-106875170D01*
X189083856Y-106868389D01*
X189089393Y-106813482D01*
X189103309Y-106806244D01*
X189120237Y-106844326D01*
G37*
G36*
X189162850Y-107002401D02*
G01*
X189159579Y-107049327D01*
X189138551Y-107063125D01*
X189129383Y-107046757D01*
X189134898Y-106974449D01*
X189151551Y-106953034D01*
X189162850Y-107002401D01*
G37*
G36*
X189212769Y-107168187D02*
G01*
X189209430Y-107192680D01*
X189181925Y-107199031D01*
X189176388Y-107192250D01*
X189181925Y-107137343D01*
X189195841Y-107130105D01*
X189212769Y-107168187D01*
G37*
G36*
X189351567Y-107677113D02*
G01*
X189348228Y-107701606D01*
X189320723Y-107707957D01*
X189315186Y-107701176D01*
X189320723Y-107646269D01*
X189334639Y-107639031D01*
X189351567Y-107677113D01*
G37*
G36*
X189397833Y-107815911D02*
G01*
X189394494Y-107840404D01*
X189366989Y-107846754D01*
X189361452Y-107839973D01*
X189366989Y-107785067D01*
X189380905Y-107777828D01*
X189397833Y-107815911D01*
G37*
G36*
X208443977Y-128604739D02*
G01*
X208451215Y-128618655D01*
X208413133Y-128635583D01*
X208388640Y-128632244D01*
X208382289Y-128604739D01*
X208389070Y-128599202D01*
X208443977Y-128604739D01*
G37*
G36*
X208675307Y-128697271D02*
G01*
X208682545Y-128711187D01*
X208644463Y-128728115D01*
X208619970Y-128724776D01*
X208613619Y-128697271D01*
X208620400Y-128691733D01*
X208675307Y-128697271D01*
G37*
G36*
X208906637Y-128789802D02*
G01*
X208913875Y-128803718D01*
X208875793Y-128820646D01*
X208851300Y-128817308D01*
X208844949Y-128789802D01*
X208851730Y-128784265D01*
X208906637Y-128789802D01*
G37*
G36*
X209137966Y-128882334D02*
G01*
X209145204Y-128896250D01*
X209107122Y-128913178D01*
X209082629Y-128909839D01*
X209076278Y-128882334D01*
X209083059Y-128876797D01*
X209137966Y-128882334D01*
G37*
G36*
X209276764Y-128928600D02*
G01*
X209284002Y-128942516D01*
X209245920Y-128959444D01*
X209221427Y-128956105D01*
X209215076Y-128928600D01*
X209221857Y-128923063D01*
X209276764Y-128928600D01*
G37*
G36*
X209508094Y-129021132D02*
G01*
X209515332Y-129035048D01*
X209477250Y-129051976D01*
X209452757Y-129048637D01*
X209446406Y-129021132D01*
X209453187Y-129015595D01*
X209508094Y-129021132D01*
G37*
G36*
X227227948Y-130501642D02*
G01*
X227235186Y-130515558D01*
X227197104Y-130532486D01*
X227172611Y-130529147D01*
X227166260Y-130501642D01*
X227173041Y-130496105D01*
X227227948Y-130501642D01*
G37*
G36*
X227437109Y-130454615D02*
G01*
X227458524Y-130471269D01*
X227409156Y-130482568D01*
X227362231Y-130479296D01*
X227348432Y-130458268D01*
X227364801Y-130449100D01*
X227437109Y-130454615D01*
G37*
G36*
X228041457Y-130316781D02*
G01*
X228049306Y-130332846D01*
X227983625Y-130340117D01*
X227919981Y-130333668D01*
X227925793Y-130316781D01*
X227946735Y-130310671D01*
X228041457Y-130316781D01*
G37*
G36*
X228547491Y-130177020D02*
G01*
X228568906Y-130193673D01*
X228519539Y-130204972D01*
X228472613Y-130201701D01*
X228458815Y-130180672D01*
X228475183Y-130171504D01*
X228547491Y-130177020D01*
G37*
G36*
X229380278Y-129945690D02*
G01*
X229401693Y-129962343D01*
X229352326Y-129973642D01*
X229305400Y-129970371D01*
X229291602Y-129949343D01*
X229307970Y-129940174D01*
X229380278Y-129945690D01*
G37*
G36*
X229541245Y-129900185D02*
G01*
X229548483Y-129914101D01*
X229510401Y-129931029D01*
X229485908Y-129927690D01*
X229479557Y-129900185D01*
X229486338Y-129894648D01*
X229541245Y-129900185D01*
G37*
G36*
X229865107Y-129807653D02*
G01*
X229872345Y-129821569D01*
X229834263Y-129838497D01*
X229809770Y-129835158D01*
X229803419Y-129807653D01*
X229810200Y-129802116D01*
X229865107Y-129807653D01*
G37*
G36*
X230003904Y-129761387D02*
G01*
X230011142Y-129775303D01*
X229973060Y-129792231D01*
X229948567Y-129788892D01*
X229942216Y-129761387D01*
X229948997Y-129755850D01*
X230003904Y-129761387D01*
G37*
G36*
X230142702Y-129715121D02*
G01*
X230149940Y-129729037D01*
X230111858Y-129745965D01*
X230087365Y-129742626D01*
X230081014Y-129715121D01*
X230087795Y-129709584D01*
X230142702Y-129715121D01*
G37*
G36*
X230790425Y-129530057D02*
G01*
X230797663Y-129543973D01*
X230759581Y-129560901D01*
X230735088Y-129557563D01*
X230728737Y-129530057D01*
X230735518Y-129524520D01*
X230790425Y-129530057D01*
G37*
G36*
X232455999Y-128974866D02*
G01*
X232463237Y-128988782D01*
X232425155Y-129005710D01*
X232400662Y-129002371D01*
X232394311Y-128974866D01*
X232401092Y-128969329D01*
X232455999Y-128974866D01*
G37*
G36*
X232687329Y-128882334D02*
G01*
X232694567Y-128896250D01*
X232656485Y-128913178D01*
X232631992Y-128909839D01*
X232625641Y-128882334D01*
X232632422Y-128876797D01*
X232687329Y-128882334D01*
G37*
G36*
X232918658Y-128789802D02*
G01*
X232925897Y-128803718D01*
X232887814Y-128820646D01*
X232863321Y-128817308D01*
X232856971Y-128789802D01*
X232863752Y-128784265D01*
X232918658Y-128789802D01*
G37*
G36*
X242264378Y-123145358D02*
G01*
X242271616Y-123159274D01*
X242233534Y-123176202D01*
X242209041Y-123172863D01*
X242202690Y-123145358D01*
X242209471Y-123139821D01*
X242264378Y-123145358D01*
G37*
G36*
X253938816Y-99765637D02*
G01*
X253935477Y-99790130D01*
X253907972Y-99796481D01*
X253902435Y-99789700D01*
X253907972Y-99734793D01*
X253921888Y-99727555D01*
X253938816Y-99765637D01*
G37*
G36*
X231335239Y-129380152D02*
G01*
X231319583Y-129396694D01*
X231242643Y-129422104D01*
X231189417Y-129416173D01*
X231188390Y-129393178D01*
X231268570Y-129362415D01*
X231320435Y-129356508D01*
X231335239Y-129380152D01*
G37*
G36*
X231751632Y-129241355D02*
G01*
X231735976Y-129257896D01*
X231659037Y-129283306D01*
X231605810Y-129277375D01*
X231604783Y-129254380D01*
X231684964Y-129223618D01*
X231736829Y-129217710D01*
X231751632Y-129241355D01*
G37*
G36*
X232168026Y-129102557D02*
G01*
X232152370Y-129119099D01*
X232075430Y-129144508D01*
X232022204Y-129138577D01*
X232021176Y-129115582D01*
X232101357Y-129084820D01*
X232153222Y-129078913D01*
X232168026Y-129102557D01*
G37*
G36*
X238559810Y-125898744D02*
G01*
X238545528Y-125919297D01*
X238506395Y-125952158D01*
X238499928Y-125951708D01*
X238489739Y-125924926D01*
X238539407Y-125878341D01*
X238565263Y-125867084D01*
X238559810Y-125898744D01*
G37*
G36*
X239901522Y-124973425D02*
G01*
X239887240Y-124993978D01*
X239848108Y-125026839D01*
X239841640Y-125026389D01*
X239831451Y-124999607D01*
X239881120Y-124953023D01*
X239906975Y-124941766D01*
X239901522Y-124973425D01*
G37*
G36*
X240456713Y-124557032D02*
G01*
X240450567Y-124566450D01*
X240404853Y-124609059D01*
X240382896Y-124590044D01*
X240387032Y-124579637D01*
X240436311Y-124536629D01*
X240462166Y-124525372D01*
X240456713Y-124557032D01*
G37*
G36*
X241011882Y-124136220D02*
G01*
X240979166Y-124173833D01*
X240913000Y-124236012D01*
X240891822Y-124224356D01*
X240921784Y-124187810D01*
X240995920Y-124120258D01*
X241100018Y-124032122D01*
X241011882Y-124136220D01*
G37*
G36*
X242446149Y-122983990D02*
G01*
X242431867Y-123004542D01*
X242392734Y-123037404D01*
X242386266Y-123036954D01*
X242376078Y-123010172D01*
X242425746Y-122963587D01*
X242451602Y-122952330D01*
X242446149Y-122983990D01*
G37*
G36*
X245962360Y-119467778D02*
G01*
X245956213Y-119477197D01*
X245910500Y-119519806D01*
X245888543Y-119500790D01*
X245892679Y-119490384D01*
X245941957Y-119447376D01*
X245967813Y-119436119D01*
X245962360Y-119467778D01*
G37*
G36*
X246702593Y-118584308D02*
G01*
X246669876Y-118621920D01*
X246603710Y-118684099D01*
X246582532Y-118672444D01*
X246612494Y-118635898D01*
X246686631Y-118568345D01*
X246790729Y-118480209D01*
X246702593Y-118584308D01*
G37*
G36*
X187792983Y-99866272D02*
G01*
X187841522Y-99927568D01*
X187852596Y-99961943D01*
X187852137Y-99996967D01*
X187833272Y-99985026D01*
X187778525Y-99927568D01*
X187752586Y-99885678D01*
X187767910Y-99858169D01*
X187792983Y-99866272D01*
G37*
G36*
X187808058Y-98032109D02*
G01*
X187810927Y-98146329D01*
X187808715Y-98249719D01*
X187801739Y-98302264D01*
X187791653Y-98273561D01*
X187783908Y-98168542D01*
X187791653Y-98019098D01*
X187800589Y-97989300D01*
X187808058Y-98032109D01*
G37*
G36*
X187808568Y-98635056D02*
G01*
X187813123Y-98724654D01*
X187812526Y-98773666D01*
X187805508Y-98840107D01*
X187793002Y-98829291D01*
X187784620Y-98764780D01*
X187792069Y-98644228D01*
X187798119Y-98621462D01*
X187808568Y-98635056D01*
G37*
G36*
X187815771Y-99187313D02*
G01*
X187815835Y-99198270D01*
X187809632Y-99270697D01*
X187794443Y-99269159D01*
X187785956Y-99231143D01*
X187792729Y-99130361D01*
X187795018Y-99122406D01*
X187809100Y-99115557D01*
X187815771Y-99187313D01*
G37*
G36*
X187948031Y-100930645D02*
G01*
X187952855Y-101014818D01*
X187952407Y-101046208D01*
X187945106Y-101110182D01*
X187931696Y-101095783D01*
X187924501Y-101051193D01*
X187931696Y-100933852D01*
X187936022Y-100920725D01*
X187948031Y-100930645D01*
G37*
G36*
X187994297Y-101300773D02*
G01*
X187999121Y-101384945D01*
X187998673Y-101416336D01*
X187991372Y-101480310D01*
X187977962Y-101465911D01*
X187970767Y-101421321D01*
X187977962Y-101303980D01*
X187982288Y-101290853D01*
X187994297Y-101300773D01*
G37*
G36*
X188086829Y-101948496D02*
G01*
X188091653Y-102032668D01*
X188091205Y-102064059D01*
X188083904Y-102128033D01*
X188070494Y-102113634D01*
X188063299Y-102069044D01*
X188070494Y-101951703D01*
X188074819Y-101938576D01*
X188086829Y-101948496D01*
G37*
G36*
X188139633Y-102379663D02*
G01*
X188139696Y-102390619D01*
X188133493Y-102463047D01*
X188118305Y-102461509D01*
X188109817Y-102423492D01*
X188116591Y-102322711D01*
X188118880Y-102314756D01*
X188132961Y-102307906D01*
X188139633Y-102379663D01*
G37*
G36*
X188758229Y-105517688D02*
G01*
X188758963Y-105521327D01*
X188766308Y-105603775D01*
X188740026Y-105603568D01*
X188719204Y-105567145D01*
X188713369Y-105472829D01*
X188719385Y-105449195D01*
X188736708Y-105439669D01*
X188758229Y-105517688D01*
G37*
G36*
X189259035Y-107399517D02*
G01*
X189279494Y-107439549D01*
X189301341Y-107538315D01*
X189290589Y-107567327D01*
X189259035Y-107515182D01*
X189245893Y-107482978D01*
X189219959Y-107396817D01*
X189224340Y-107363180D01*
X189259035Y-107399517D01*
G37*
G36*
X208189992Y-128503901D02*
G01*
X208274335Y-128543051D01*
X208305744Y-128568808D01*
X208297468Y-128587900D01*
X208266147Y-128582200D01*
X208181804Y-128543051D01*
X208150395Y-128517293D01*
X208158671Y-128498202D01*
X208189992Y-128503901D01*
G37*
G36*
X226215591Y-130682855D02*
G01*
X226179253Y-130717550D01*
X226139222Y-130738009D01*
X226040456Y-130759856D01*
X226011444Y-130749104D01*
X226063589Y-130717550D01*
X226095792Y-130704408D01*
X226181953Y-130678474D01*
X226215591Y-130682855D01*
G37*
G36*
X241684244Y-123604162D02*
G01*
X241669821Y-123622075D01*
X241608316Y-123681508D01*
X241585811Y-123667659D01*
X241602700Y-123643767D01*
X241666776Y-123586694D01*
X241700299Y-123560849D01*
X241724257Y-123549360D01*
X241684244Y-123604162D01*
G37*
G36*
X188472514Y-104345965D02*
G01*
X188496168Y-104434492D01*
X188510916Y-104531029D01*
X188502526Y-104557329D01*
X188472514Y-104507896D01*
X188451561Y-104444355D01*
X188434112Y-104322832D01*
X188435391Y-104290726D01*
X188445965Y-104275464D01*
X188472514Y-104345965D01*
G37*
G36*
X188875118Y-105961093D02*
G01*
X188906937Y-106080938D01*
X188915638Y-106122765D01*
X188918616Y-106176453D01*
X188891021Y-106150337D01*
X188868181Y-106105542D01*
X188843350Y-105992261D01*
X188843485Y-105972076D01*
X188852998Y-105923453D01*
X188875118Y-105961093D01*
G37*
G36*
X189027705Y-106520464D02*
G01*
X189051359Y-106608991D01*
X189066108Y-106705528D01*
X189057717Y-106731828D01*
X189027705Y-106682395D01*
X189006752Y-106618854D01*
X188989303Y-106497331D01*
X188990583Y-106465225D01*
X189001156Y-106449963D01*
X189027705Y-106520464D01*
G37*
G36*
X221702195Y-64708792D02*
G01*
X221703302Y-64708930D01*
X221740260Y-64718362D01*
X221694524Y-64725205D01*
X221575793Y-64727986D01*
X221454093Y-64725636D01*
X221399044Y-64718905D01*
X221424600Y-64709264D01*
X221551315Y-64701236D01*
X221702195Y-64708792D01*
G37*
G36*
X229071321Y-130041255D02*
G01*
X229024609Y-130069827D01*
X228961068Y-130090780D01*
X228839545Y-130108229D01*
X228807438Y-130106949D01*
X228792176Y-130096376D01*
X228862678Y-130069827D01*
X228970172Y-130041554D01*
X229046758Y-130031831D01*
X229071321Y-130041255D01*
G37*
G36*
X188586321Y-104867137D02*
G01*
X188605628Y-104942099D01*
X188627216Y-105063087D01*
X188636942Y-105135855D01*
X188636169Y-105188464D01*
X188613472Y-105155619D01*
X188603668Y-105130172D01*
X188581259Y-105039219D01*
X188567913Y-104942206D01*
X188567038Y-104871319D01*
X188582041Y-104858746D01*
X188586321Y-104867137D01*
G37*
G36*
X227045283Y-130558619D02*
G01*
X227012040Y-130577201D01*
X226926684Y-130597316D01*
X226810866Y-130613509D01*
X226698083Y-130622186D01*
X226617806Y-130621138D01*
X226599502Y-130608153D01*
X226629159Y-130599070D01*
X226729852Y-130582266D01*
X226873243Y-130564947D01*
X226989515Y-130555398D01*
X227045283Y-130558619D01*
G37*
G36*
X187840788Y-95587708D02*
G01*
X187842426Y-95654630D01*
X187837216Y-95785665D01*
X187826253Y-95994963D01*
X187804088Y-96411357D01*
X187779740Y-96041229D01*
X187777154Y-95997133D01*
X187773262Y-95821049D01*
X187780122Y-95683848D01*
X187796684Y-95612151D01*
X187812598Y-95589599D01*
X187831209Y-95570748D01*
X187840788Y-95587708D01*
G37*
G36*
X198441623Y-122121552D02*
G01*
X198509269Y-122179968D01*
X198604754Y-122274016D01*
X198658847Y-122331381D01*
X198723311Y-122406527D01*
X198738571Y-122435947D01*
X198721620Y-122426480D01*
X198653974Y-122368064D01*
X198558488Y-122274016D01*
X198504396Y-122216651D01*
X198439931Y-122141506D01*
X198424672Y-122112085D01*
X198441623Y-122121552D01*
G37*
G36*
X214774700Y-130516180D02*
G01*
X214857451Y-130527212D01*
X214972082Y-130546541D01*
X215025307Y-130561547D01*
X215025662Y-130561872D01*
X215008203Y-130576121D01*
X214930213Y-130577629D01*
X214821977Y-130568838D01*
X214713779Y-130552191D01*
X214635902Y-130530133D01*
X214609185Y-130512810D01*
X214647103Y-130504810D01*
X214774700Y-130516180D01*
G37*
G36*
X187802901Y-96766937D02*
G01*
X187805303Y-96914277D01*
X187806169Y-97128479D01*
X187805578Y-97309222D01*
X187803428Y-97468965D01*
X187799985Y-97556327D01*
X187795544Y-97564591D01*
X187790401Y-97487040D01*
X187784940Y-97282649D01*
X187784481Y-97012449D01*
X187790401Y-96769918D01*
X187794671Y-96699708D01*
X187799258Y-96693175D01*
X187802901Y-96766937D01*
G37*
G36*
X220916503Y-64707901D02*
G01*
X220996954Y-64712720D01*
X220994420Y-64717032D01*
X220912211Y-64720441D01*
X220756838Y-64722682D01*
X220534809Y-64723488D01*
X220317554Y-64722721D01*
X220160432Y-64720513D01*
X220076311Y-64717130D01*
X220071703Y-64712837D01*
X220153115Y-64707901D01*
X220387874Y-64702294D01*
X220667017Y-64702135D01*
X220916503Y-64707901D01*
G37*
G36*
X217029990Y-130845459D02*
G01*
X217170717Y-130853631D01*
X217290399Y-130865232D01*
X217365592Y-130879527D01*
X217365903Y-130879635D01*
X217347200Y-130887590D01*
X217255761Y-130893363D01*
X217111130Y-130895709D01*
X216962542Y-130891738D01*
X216811615Y-130878519D01*
X216717869Y-130859180D01*
X216715971Y-130848890D01*
X216779174Y-130842353D01*
X216891662Y-130841455D01*
X217029990Y-130845459D01*
G37*
G36*
X225631555Y-130776174D02*
G01*
X225754478Y-130782479D01*
X225819415Y-130792312D01*
X225809126Y-130805682D01*
X225799404Y-130807990D01*
X225696606Y-130819957D01*
X225526399Y-130829823D01*
X225310061Y-130836619D01*
X225068871Y-130839376D01*
X224905132Y-130839093D01*
X224720012Y-130836123D01*
X224622176Y-130829825D01*
X224608437Y-130819932D01*
X224675610Y-130806175D01*
X224750510Y-130797320D01*
X224904780Y-130786094D01*
X225087259Y-130778358D01*
X225280707Y-130774121D01*
X225467885Y-130773391D01*
X225631555Y-130776174D01*
G37*
G36*
X215139423Y-130584699D02*
G01*
X215239699Y-130596880D01*
X215405681Y-130620617D01*
X215619166Y-130653242D01*
X215861949Y-130692089D01*
X216081126Y-130728870D01*
X216282734Y-130765703D01*
X216395359Y-130790659D01*
X216418504Y-130803318D01*
X216351670Y-130803258D01*
X216194361Y-130790058D01*
X215946080Y-130763298D01*
X215920673Y-130760290D01*
X215751407Y-130736402D01*
X215572494Y-130705960D01*
X215400745Y-130672626D01*
X215252977Y-130640066D01*
X215146003Y-130611942D01*
X215096638Y-130591919D01*
X215121694Y-130583661D01*
X215139423Y-130584699D01*
G37*
G36*
X209604849Y-129067954D02*
G01*
X209670496Y-129087241D01*
X209791033Y-129126323D01*
X209977426Y-129188353D01*
X210240638Y-129276487D01*
X210467079Y-129350984D01*
X210895590Y-129486674D01*
X211366921Y-129630564D01*
X211859328Y-129776346D01*
X212351063Y-129917713D01*
X212820382Y-130048357D01*
X213245538Y-130161972D01*
X213604784Y-130252250D01*
X213784420Y-130295397D01*
X214025714Y-130353592D01*
X214228701Y-130402825D01*
X214376153Y-130438913D01*
X214450838Y-130457673D01*
X214468324Y-130465650D01*
X214423674Y-130467325D01*
X214312040Y-130458042D01*
X214246218Y-130450286D01*
X214066578Y-130422936D01*
X213918780Y-130392771D01*
X213882942Y-130383840D01*
X213738282Y-130348687D01*
X213546931Y-130302962D01*
X213340456Y-130254228D01*
X213266103Y-130236353D01*
X212984923Y-130163364D01*
X212668940Y-130075022D01*
X212349367Y-129980485D01*
X212057419Y-129888908D01*
X211824310Y-129809451D01*
X211796173Y-129799591D01*
X211662346Y-129761424D01*
X211563607Y-129745965D01*
X211540176Y-129742701D01*
X211433751Y-129715539D01*
X211264449Y-129665430D01*
X211048848Y-129597907D01*
X210803529Y-129518504D01*
X210545069Y-129432754D01*
X210290047Y-129346192D01*
X210055043Y-129264353D01*
X209856635Y-129192769D01*
X209711402Y-129136975D01*
X209635922Y-129102505D01*
X209627601Y-129097310D01*
X209594366Y-129076143D01*
X209583127Y-129065306D01*
X209604849Y-129067954D01*
G37*
G36*
X231516374Y-99140866D02*
G01*
X231915938Y-99241350D01*
X232296767Y-99425365D01*
X232648319Y-99691690D01*
X232695869Y-99739257D01*
X232811395Y-99867946D01*
X232965481Y-100049893D01*
X233151229Y-100276142D01*
X233361746Y-100537738D01*
X233590134Y-100825727D01*
X233829499Y-101131152D01*
X234072944Y-101445059D01*
X234313574Y-101758494D01*
X234544492Y-102062500D01*
X234758804Y-102348124D01*
X234949613Y-102606409D01*
X235110024Y-102828401D01*
X235233141Y-103005145D01*
X235312068Y-103127686D01*
X235339909Y-103187069D01*
X235330324Y-103203253D01*
X235256746Y-103258432D01*
X235126392Y-103333461D01*
X234958215Y-103416925D01*
X234856369Y-103464175D01*
X234215300Y-103761214D01*
X233652546Y-104021218D01*
X233163415Y-104246293D01*
X232743216Y-104438543D01*
X232387259Y-104600076D01*
X232090853Y-104732996D01*
X231849307Y-104839410D01*
X231657930Y-104921424D01*
X231512032Y-104981142D01*
X231406920Y-105020672D01*
X231337906Y-105042118D01*
X231222756Y-105067116D01*
X231125282Y-105081484D01*
X231107806Y-105071845D01*
X231040470Y-104999025D01*
X230934581Y-104863479D01*
X230797044Y-104675564D01*
X230634765Y-104445636D01*
X230454651Y-104184052D01*
X230263606Y-103901169D01*
X230068537Y-103607345D01*
X229876349Y-103312935D01*
X229693949Y-103028297D01*
X229528242Y-102763787D01*
X229386135Y-102529763D01*
X229274532Y-102336581D01*
X229200340Y-102194599D01*
X229190370Y-102173399D01*
X229113231Y-102002481D01*
X229065117Y-101868131D01*
X229039362Y-101738081D01*
X229029297Y-101580064D01*
X229028255Y-101361812D01*
X229028694Y-101287010D01*
X229033053Y-101094391D01*
X229047673Y-100952957D01*
X229080049Y-100831124D01*
X229137676Y-100697307D01*
X229228049Y-100519922D01*
X229240396Y-100496510D01*
X229443434Y-100169262D01*
X229686277Y-99863718D01*
X229948738Y-99602702D01*
X230210629Y-99409035D01*
X230310676Y-99352828D01*
X230703203Y-99195383D01*
X231108615Y-99125137D01*
X231516374Y-99140866D01*
G37*
G36*
X240688827Y-106508993D02*
G01*
X240813083Y-106532794D01*
X240830659Y-106537634D01*
X240940359Y-106573345D01*
X241121272Y-106636255D01*
X241362100Y-106722166D01*
X241651542Y-106826879D01*
X241978301Y-106946196D01*
X242331076Y-107075918D01*
X242698568Y-107211847D01*
X243069478Y-107349783D01*
X243432507Y-107485529D01*
X243776356Y-107614886D01*
X244089725Y-107733654D01*
X244361315Y-107837636D01*
X244579827Y-107922633D01*
X244733961Y-107984447D01*
X244812419Y-108018878D01*
X244929826Y-108096904D01*
X245101174Y-108255382D01*
X245253999Y-108441164D01*
X245357437Y-108620199D01*
X245382819Y-108684238D01*
X245422607Y-108808583D01*
X245448625Y-108940276D01*
X245460070Y-109089685D01*
X245456138Y-109267180D01*
X245436025Y-109483131D01*
X245398927Y-109747905D01*
X245344040Y-110071872D01*
X245270561Y-110465401D01*
X245177686Y-110938861D01*
X245159849Y-111028697D01*
X245068974Y-111490908D01*
X244968048Y-112010463D01*
X244862383Y-112559661D01*
X244757289Y-113110798D01*
X244658080Y-113636172D01*
X244570064Y-114108078D01*
X244508667Y-114436646D01*
X244436211Y-114816254D01*
X244367343Y-115168697D01*
X244304635Y-115481197D01*
X244250657Y-115740975D01*
X244207981Y-115935251D01*
X244179176Y-116051248D01*
X244149883Y-116155612D01*
X244092389Y-116370225D01*
X244028591Y-116617059D01*
X243967687Y-116860901D01*
X243921556Y-117041129D01*
X243869512Y-117225498D01*
X243825599Y-117361273D01*
X243796110Y-117427659D01*
X243789274Y-117435978D01*
X243754228Y-117473483D01*
X243725581Y-117486921D01*
X243701827Y-117467755D01*
X243681460Y-117407450D01*
X243662972Y-117297468D01*
X243644858Y-117129273D01*
X243625610Y-116894329D01*
X243603723Y-116584098D01*
X243577688Y-116190045D01*
X243561226Y-115952010D01*
X243531811Y-115570010D01*
X243496737Y-115152633D01*
X243457057Y-114709692D01*
X243413821Y-114251001D01*
X243368079Y-113786370D01*
X243320884Y-113325613D01*
X243273286Y-112878542D01*
X243226337Y-112454969D01*
X243181086Y-112064707D01*
X243138586Y-111717567D01*
X243099887Y-111423363D01*
X243066040Y-111191907D01*
X243038097Y-111033011D01*
X243017108Y-110956488D01*
X243014028Y-110951528D01*
X242938226Y-110894775D01*
X242791582Y-110827990D01*
X242591940Y-110759444D01*
X242389646Y-110698807D01*
X242089633Y-110610132D01*
X241754605Y-110512089D01*
X241414016Y-110413254D01*
X241097326Y-110322207D01*
X240833989Y-110247524D01*
X240567960Y-110172889D01*
X240567960Y-108354387D01*
X240568008Y-108242471D01*
X240568962Y-107848293D01*
X240571033Y-107486261D01*
X240574085Y-107166437D01*
X240577978Y-106898888D01*
X240582573Y-106693677D01*
X240587733Y-106560868D01*
X240593320Y-106510527D01*
X240606695Y-106505564D01*
X240688827Y-106508993D01*
G37*
G36*
X230064553Y-110873254D02*
G01*
X230128137Y-110925929D01*
X230244436Y-111033874D01*
X230404985Y-111188497D01*
X230601324Y-111381202D01*
X230824988Y-111603398D01*
X231067516Y-111846489D01*
X231320444Y-112101883D01*
X231575309Y-112360986D01*
X231823650Y-112615204D01*
X232057003Y-112855943D01*
X232266905Y-113074611D01*
X232444893Y-113262612D01*
X232582505Y-113411354D01*
X232671279Y-113512243D01*
X232702751Y-113556686D01*
X232701144Y-113570047D01*
X232678194Y-113662160D01*
X232632262Y-113817930D01*
X232568773Y-114019448D01*
X232493152Y-114248802D01*
X232491479Y-114253775D01*
X232401326Y-114530474D01*
X232310399Y-114824163D01*
X232229203Y-115100088D01*
X232168247Y-115323494D01*
X232141268Y-115426283D01*
X232077368Y-115652561D01*
X232013951Y-115857851D01*
X231961452Y-116007629D01*
X231928052Y-116097733D01*
X231886285Y-116231711D01*
X231869964Y-116317070D01*
X231894494Y-116352733D01*
X231979612Y-116450058D01*
X232120667Y-116602598D01*
X232312488Y-116805007D01*
X232549908Y-117051942D01*
X232827756Y-117338058D01*
X233140865Y-117658011D01*
X233484064Y-118006457D01*
X233852186Y-118378052D01*
X234240060Y-118767452D01*
X234588903Y-119117104D01*
X234957084Y-119486994D01*
X235300205Y-119832599D01*
X235613213Y-120148783D01*
X235891053Y-120430412D01*
X236128671Y-120672350D01*
X236321011Y-120869464D01*
X236463021Y-121016616D01*
X236549645Y-121108674D01*
X236575829Y-121140501D01*
X236571791Y-121140074D01*
X236499123Y-121112899D01*
X236357636Y-121047359D01*
X236158047Y-120949014D01*
X235911074Y-120823420D01*
X235627436Y-120676138D01*
X235317850Y-120512725D01*
X234993034Y-120338740D01*
X234663706Y-120159740D01*
X234340585Y-119981285D01*
X234128817Y-119863684D01*
X233820140Y-119693074D01*
X233455061Y-119491928D01*
X233046906Y-119267563D01*
X232609002Y-119027298D01*
X232154678Y-118778450D01*
X231697260Y-118528338D01*
X231250076Y-118284280D01*
X231146609Y-118227853D01*
X230740634Y-118006119D01*
X230356824Y-117795981D01*
X230003626Y-117602098D01*
X229689488Y-117429126D01*
X229422855Y-117281723D01*
X229212176Y-117164546D01*
X229065897Y-117082252D01*
X228992465Y-117039499D01*
X228930090Y-116992860D01*
X228800435Y-116861415D01*
X228691736Y-116711570D01*
X228646333Y-116630696D01*
X228601267Y-116526971D01*
X228575982Y-116414404D01*
X228565045Y-116265122D01*
X228563022Y-116051248D01*
X228563032Y-116016985D01*
X228562751Y-115924512D01*
X228563659Y-115843437D01*
X228567892Y-115765429D01*
X228577585Y-115682161D01*
X228594875Y-115585301D01*
X228621898Y-115466520D01*
X228660789Y-115317488D01*
X228713685Y-115129875D01*
X228782721Y-114895352D01*
X228870035Y-114605588D01*
X228977761Y-114252254D01*
X229108035Y-113827021D01*
X229262994Y-113321557D01*
X229342063Y-113063638D01*
X229496180Y-112562047D01*
X229626511Y-112139892D01*
X229735085Y-111790899D01*
X229823933Y-111508793D01*
X229895085Y-111287301D01*
X229950570Y-111120149D01*
X229992420Y-111001063D01*
X230022663Y-110923769D01*
X230043331Y-110881993D01*
X230056454Y-110869462D01*
X230064553Y-110873254D01*
G37*
G36*
X199692877Y-106545911D02*
G01*
X200015865Y-106587675D01*
X200599425Y-106729412D01*
X201242253Y-106956949D01*
X201861040Y-107248396D01*
X202426781Y-107591673D01*
X202534449Y-107671816D01*
X202745287Y-107849299D01*
X202986787Y-108071045D01*
X203241992Y-108319910D01*
X203493946Y-108578751D01*
X203725692Y-108830424D01*
X203920275Y-109057785D01*
X204060738Y-109243690D01*
X204088488Y-109285463D01*
X204275520Y-109599587D01*
X204461593Y-109961929D01*
X204632866Y-110342079D01*
X204775500Y-110709629D01*
X204875653Y-111034169D01*
X204895585Y-111114284D01*
X204932057Y-111277521D01*
X204958025Y-111432297D01*
X204975246Y-111598808D01*
X204985480Y-111797249D01*
X204990484Y-112047815D01*
X204992017Y-112370702D01*
X204991080Y-112616649D01*
X204981219Y-113015114D01*
X204957250Y-113352049D01*
X204914975Y-113647427D01*
X204850198Y-113921223D01*
X204758722Y-114193409D01*
X204636351Y-114483961D01*
X204478886Y-114812851D01*
X204400943Y-114967699D01*
X204228796Y-115291008D01*
X204067014Y-115560848D01*
X203899793Y-115800625D01*
X203711327Y-116033749D01*
X203485811Y-116283626D01*
X203441711Y-116331027D01*
X203282073Y-116505758D01*
X203082238Y-116727800D01*
X202857179Y-116980375D01*
X202621869Y-117246706D01*
X202391284Y-117510015D01*
X202321994Y-117589447D01*
X202082361Y-117862937D01*
X201838717Y-118139371D01*
X201607204Y-118400522D01*
X201403967Y-118628164D01*
X201245147Y-118804071D01*
X201175318Y-118880950D01*
X200995962Y-119079822D01*
X200778121Y-119322725D01*
X200536981Y-119592676D01*
X200287727Y-119872690D01*
X200045545Y-120145783D01*
X199931729Y-120274221D01*
X199681385Y-120555626D01*
X199429517Y-120837435D01*
X199191789Y-121102183D01*
X198983866Y-121332402D01*
X198821414Y-121510628D01*
X198761248Y-121576525D01*
X198609162Y-121747010D01*
X198486433Y-121890268D01*
X198404371Y-121992874D01*
X198374286Y-122041401D01*
X198349243Y-122046778D01*
X198287577Y-121995135D01*
X198250312Y-121948162D01*
X198160979Y-121831384D01*
X198023113Y-121649477D01*
X197840128Y-121406990D01*
X197615435Y-121108472D01*
X197352449Y-120758471D01*
X197054583Y-120361535D01*
X196725250Y-119922214D01*
X196367863Y-119445055D01*
X195985836Y-118934607D01*
X195582582Y-118395418D01*
X195161514Y-117832038D01*
X194726045Y-117249014D01*
X194277085Y-116647339D01*
X193756484Y-115948431D01*
X193288599Y-115318748D01*
X192871614Y-114755796D01*
X192503713Y-114257078D01*
X192183079Y-113820100D01*
X191907897Y-113442365D01*
X191676349Y-113121379D01*
X191486620Y-112854645D01*
X191336894Y-112639669D01*
X191225353Y-112473956D01*
X191150182Y-112355009D01*
X191109565Y-112280334D01*
X191069003Y-112187945D01*
X191009701Y-112040223D01*
X190987773Y-111965476D01*
X191001978Y-111967127D01*
X191051077Y-112048601D01*
X191133830Y-112213319D01*
X191189486Y-112321709D01*
X191273115Y-112444116D01*
X191337519Y-112478406D01*
X191379355Y-112451750D01*
X191471750Y-112365457D01*
X191594693Y-112234678D01*
X191733071Y-112074831D01*
X191814323Y-111979202D01*
X192015982Y-111751626D01*
X192233196Y-111516515D01*
X192431213Y-111311847D01*
X192542272Y-111197877D01*
X192722210Y-111002814D01*
X192885443Y-110814444D01*
X193006761Y-110661266D01*
X193133944Y-110495214D01*
X193343542Y-110241529D01*
X193594488Y-109953767D01*
X193876620Y-109642356D01*
X194179776Y-109317727D01*
X194493796Y-108990307D01*
X194808517Y-108670527D01*
X195113779Y-108368815D01*
X195399419Y-108095600D01*
X195655276Y-107861312D01*
X195871188Y-107676380D01*
X196036995Y-107551232D01*
X196250275Y-107418711D01*
X196524285Y-107265310D01*
X196827267Y-107108292D01*
X197137659Y-106958072D01*
X197433903Y-106825065D01*
X197694438Y-106719686D01*
X197897704Y-106652351D01*
X198164750Y-106597041D01*
X198523494Y-106553323D01*
X198917335Y-106529631D01*
X199316914Y-106526861D01*
X199692877Y-106545911D01*
G37*
G36*
X239612692Y-108968399D02*
G01*
X239615805Y-109380577D01*
X239615469Y-109761386D01*
X239611519Y-110100650D01*
X239603794Y-110388193D01*
X239592129Y-110613840D01*
X239576362Y-110767413D01*
X239556330Y-110838736D01*
X239554998Y-110840279D01*
X239482940Y-110893272D01*
X239337951Y-110977609D01*
X239131367Y-111087792D01*
X238874525Y-111218322D01*
X238578763Y-111363700D01*
X238255418Y-111518427D01*
X237915827Y-111677005D01*
X237571327Y-111833934D01*
X237233256Y-111983716D01*
X236912951Y-112120851D01*
X236859707Y-112143195D01*
X236575226Y-112263257D01*
X236307885Y-112377147D01*
X236074758Y-112477522D01*
X235892917Y-112557039D01*
X235779436Y-112608354D01*
X235770132Y-112612735D01*
X235631838Y-112676362D01*
X235435850Y-112764822D01*
X235206916Y-112867005D01*
X234969782Y-112971802D01*
X234925260Y-112991196D01*
X234702441Y-113083229D01*
X234502333Y-113158138D01*
X234345346Y-113208654D01*
X234251890Y-113227506D01*
X234239860Y-113226927D01*
X234200643Y-113216350D01*
X234148939Y-113188737D01*
X234079506Y-113139199D01*
X233987099Y-113062847D01*
X233866474Y-112954789D01*
X233712389Y-112810138D01*
X233519599Y-112624002D01*
X233282860Y-112391492D01*
X232996930Y-112107718D01*
X232656564Y-111767791D01*
X232256518Y-111366821D01*
X232008010Y-111116970D01*
X231586080Y-110690043D01*
X231225305Y-110321092D01*
X230926633Y-110011117D01*
X230691015Y-109761119D01*
X230519399Y-109572098D01*
X230412735Y-109445054D01*
X230371973Y-109380988D01*
X230369130Y-109342202D01*
X230380405Y-109207700D01*
X230411540Y-109002875D01*
X230426980Y-108920073D01*
X233496222Y-108920073D01*
X233544475Y-109324920D01*
X233665683Y-109709032D01*
X233856439Y-110056647D01*
X234113335Y-110352006D01*
X234242560Y-110458621D01*
X234425369Y-110580912D01*
X234586445Y-110659197D01*
X234654556Y-110679395D01*
X234859984Y-110718391D01*
X235109719Y-110745535D01*
X235376714Y-110759776D01*
X235633920Y-110760062D01*
X235854286Y-110745341D01*
X236010765Y-110714563D01*
X236280152Y-110607502D01*
X236549473Y-110466043D01*
X236769899Y-110312354D01*
X236920128Y-110159441D01*
X236996299Y-110052858D01*
X237107563Y-109878483D01*
X237180604Y-109720011D01*
X237223692Y-109550371D01*
X237245093Y-109342488D01*
X237253078Y-109069290D01*
X237254598Y-108922975D01*
X237252876Y-108730361D01*
X237241977Y-108589439D01*
X237217599Y-108474427D01*
X237175440Y-108359541D01*
X237111198Y-108218998D01*
X236978095Y-107982086D01*
X236733798Y-107668148D01*
X236444246Y-107400482D01*
X236131718Y-107202216D01*
X236004414Y-107142436D01*
X235874188Y-107093965D01*
X235739122Y-107064218D01*
X235569984Y-107047093D01*
X235337545Y-107036492D01*
X235295787Y-107035092D01*
X235082547Y-107030391D01*
X234930480Y-107035439D01*
X234812691Y-107054173D01*
X234702287Y-107090527D01*
X234572372Y-107148434D01*
X234478658Y-107196923D01*
X234211375Y-107380236D01*
X233965772Y-107610131D01*
X233764484Y-107863351D01*
X233630141Y-108116639D01*
X233524331Y-108510254D01*
X233496222Y-108920073D01*
X230426980Y-108920073D01*
X230460502Y-108740298D01*
X230525261Y-108432536D01*
X230565055Y-108250771D01*
X230635547Y-107922866D01*
X230704398Y-107596080D01*
X230765373Y-107300130D01*
X230812239Y-107064732D01*
X230917187Y-106521750D01*
X231220078Y-106422731D01*
X231254540Y-106410527D01*
X231396339Y-106354033D01*
X231614753Y-106261861D01*
X231904576Y-106136339D01*
X232260598Y-105979793D01*
X232677611Y-105794553D01*
X233150408Y-105582945D01*
X233673779Y-105347297D01*
X234242518Y-105089938D01*
X234851415Y-104813195D01*
X235495263Y-104519396D01*
X236168854Y-104210868D01*
X236882133Y-103883568D01*
X237232970Y-104088736D01*
X237324297Y-104140449D01*
X237527424Y-104249823D01*
X237776695Y-104379321D01*
X238048804Y-104516903D01*
X238320447Y-104650529D01*
X238387998Y-104683372D01*
X238718758Y-104850336D01*
X238974682Y-104994174D01*
X239165532Y-105123499D01*
X239301073Y-105246929D01*
X239391069Y-105373078D01*
X239445283Y-105510563D01*
X239473479Y-105668000D01*
X239483158Y-105762867D01*
X239508000Y-106059647D01*
X239530697Y-106406468D01*
X239551085Y-106793155D01*
X239569002Y-107209531D01*
X239584284Y-107645419D01*
X239596768Y-108090644D01*
X239606292Y-108535030D01*
X239612021Y-108922975D01*
X239612692Y-108968399D01*
G37*
G36*
X204784868Y-77409774D02*
G01*
X205235421Y-77461107D01*
X205691615Y-77538659D01*
X206268933Y-77678671D01*
X206786158Y-77860204D01*
X207258986Y-78089047D01*
X207703115Y-78370987D01*
X207729425Y-78390003D01*
X207960186Y-78572547D01*
X208220016Y-78800700D01*
X208491884Y-79057409D01*
X208758756Y-79325624D01*
X209003600Y-79588294D01*
X209209384Y-79828366D01*
X209359076Y-80028790D01*
X209519059Y-80292119D01*
X209691821Y-80616564D01*
X209856163Y-80961201D01*
X209996942Y-81294215D01*
X210099021Y-81583790D01*
X210150493Y-81779030D01*
X210191945Y-81999310D01*
X210220949Y-82244257D01*
X210237206Y-82520525D01*
X210240419Y-82834774D01*
X210230293Y-83193660D01*
X210206530Y-83603840D01*
X210168833Y-84071972D01*
X210116905Y-84604713D01*
X210050449Y-85208721D01*
X209969169Y-85890652D01*
X209872768Y-86657165D01*
X209847512Y-86854458D01*
X209772182Y-87447289D01*
X209690599Y-88094841D01*
X209605800Y-88772700D01*
X209520823Y-89456455D01*
X209438705Y-90121694D01*
X209362483Y-90744003D01*
X209295197Y-91298971D01*
X209263716Y-91560340D01*
X209132489Y-92649799D01*
X209011707Y-93652201D01*
X208900863Y-94571463D01*
X208799451Y-95411503D01*
X208706964Y-96176238D01*
X208622896Y-96869585D01*
X208546739Y-97495460D01*
X208477988Y-98057781D01*
X208416134Y-98560465D01*
X208360673Y-99007428D01*
X208311096Y-99402588D01*
X208266898Y-99749861D01*
X208227571Y-100053165D01*
X208192610Y-100316416D01*
X208161507Y-100543532D01*
X208133755Y-100738429D01*
X208108848Y-100905025D01*
X208086280Y-101047236D01*
X208065543Y-101168980D01*
X208046132Y-101274173D01*
X208027538Y-101366732D01*
X208009256Y-101450575D01*
X207990780Y-101529619D01*
X207971601Y-101607779D01*
X207951214Y-101688974D01*
X207894665Y-101901912D01*
X207789085Y-102231267D01*
X207666425Y-102517698D01*
X207512161Y-102793005D01*
X207311768Y-103088987D01*
X207310888Y-103090208D01*
X207037072Y-103444060D01*
X206727407Y-103799969D01*
X206398453Y-104141574D01*
X206066769Y-104452518D01*
X205748912Y-104716440D01*
X205461443Y-104916983D01*
X205386336Y-104965356D01*
X205228870Y-105078660D01*
X205103917Y-105182918D01*
X205060152Y-105220793D01*
X204852283Y-105350908D01*
X204568639Y-105474451D01*
X204222243Y-105587017D01*
X203826116Y-105684201D01*
X203393279Y-105761599D01*
X203272658Y-105776780D01*
X202921218Y-105800760D01*
X202522964Y-105805445D01*
X202108921Y-105791600D01*
X201710117Y-105759990D01*
X201357578Y-105711382D01*
X201215803Y-105684086D01*
X200639812Y-105534744D01*
X200066514Y-105328925D01*
X199524980Y-105078158D01*
X199044281Y-104793972D01*
X198904007Y-104689455D01*
X198688793Y-104506227D01*
X198450378Y-104284620D01*
X198207918Y-104043789D01*
X197980568Y-103802891D01*
X197787485Y-103581080D01*
X197647823Y-103397513D01*
X197410765Y-103008223D01*
X197131799Y-102428267D01*
X196914650Y-101818969D01*
X196771717Y-101211274D01*
X196770386Y-101203440D01*
X196753021Y-101094426D01*
X196738200Y-100983599D01*
X196726298Y-100867210D01*
X196717689Y-100741507D01*
X196712748Y-100602742D01*
X196711851Y-100447164D01*
X196715371Y-100271025D01*
X196723685Y-100070573D01*
X196737167Y-99842059D01*
X196756192Y-99581733D01*
X196781134Y-99285845D01*
X196812369Y-98950647D01*
X196850272Y-98572386D01*
X196895217Y-98147315D01*
X196947580Y-97671682D01*
X197007735Y-97141739D01*
X197076057Y-96553735D01*
X197152922Y-95903920D01*
X197238703Y-95188545D01*
X197333777Y-94403860D01*
X197438517Y-93546114D01*
X197553299Y-92611559D01*
X197678498Y-91596444D01*
X197814489Y-90497019D01*
X197961645Y-89309535D01*
X197970654Y-89236877D01*
X198052840Y-88572944D01*
X198134183Y-87914031D01*
X198213623Y-87268819D01*
X198290100Y-86645988D01*
X198362555Y-86054217D01*
X198429927Y-85502187D01*
X198491159Y-84998578D01*
X198545189Y-84552071D01*
X198590958Y-84171345D01*
X198627407Y-83865080D01*
X198653476Y-83641958D01*
X198676559Y-83442840D01*
X198741046Y-82910012D01*
X198800872Y-82457888D01*
X198857840Y-82077823D01*
X198913754Y-81761170D01*
X198970414Y-81499283D01*
X199029626Y-81283518D01*
X199093191Y-81105228D01*
X199162913Y-80955768D01*
X199240595Y-80826491D01*
X199307521Y-80723570D01*
X199418715Y-80540218D01*
X199507226Y-80380209D01*
X199600794Y-80209730D01*
X199871117Y-79803208D01*
X200203167Y-79393527D01*
X200579141Y-78999976D01*
X200981237Y-78641843D01*
X201391652Y-78338419D01*
X201661021Y-78171317D01*
X201971856Y-77996725D01*
X202295876Y-77829579D01*
X202610619Y-77680973D01*
X202893623Y-77561998D01*
X203122426Y-77483747D01*
X203203135Y-77463421D01*
X203524869Y-77411597D01*
X203909278Y-77385237D01*
X204336049Y-77384556D01*
X204784868Y-77409774D01*
G37*
G36*
X219390862Y-78649016D02*
G01*
X219540393Y-78746178D01*
X219737538Y-78911266D01*
X219788297Y-78956822D01*
X219991345Y-79135901D01*
X220214269Y-79328858D01*
X220417273Y-79501156D01*
X220429014Y-79511077D01*
X220558317Y-79627011D01*
X220738516Y-79796717D01*
X220959838Y-80010340D01*
X221212513Y-80258026D01*
X221486770Y-80529918D01*
X221772838Y-80816163D01*
X222060946Y-81106903D01*
X222341323Y-81392285D01*
X222604198Y-81662454D01*
X222839801Y-81907553D01*
X223038359Y-82117727D01*
X223190103Y-82283122D01*
X223285262Y-82393883D01*
X223299295Y-82411051D01*
X223393244Y-82517534D01*
X223539960Y-82676336D01*
X223729393Y-82876879D01*
X223951491Y-83108587D01*
X224196203Y-83360881D01*
X224453477Y-83623186D01*
X224548671Y-83719967D01*
X224787474Y-83965314D01*
X225000748Y-84188065D01*
X225180516Y-84379650D01*
X225318799Y-84531502D01*
X225407619Y-84635050D01*
X225438998Y-84681726D01*
X225440767Y-84687198D01*
X225486027Y-84748478D01*
X225586352Y-84864626D01*
X225733619Y-85026805D01*
X225919711Y-85226180D01*
X226136506Y-85453916D01*
X226375884Y-85701177D01*
X226399121Y-85724994D01*
X226650587Y-85983551D01*
X226890440Y-86231567D01*
X227108043Y-86457941D01*
X227292757Y-86651570D01*
X227433944Y-86801352D01*
X227520966Y-86896186D01*
X227582785Y-86965162D01*
X227718592Y-87114473D01*
X227891341Y-87302715D01*
X228085204Y-87512661D01*
X228284354Y-87727085D01*
X228377950Y-87827872D01*
X228610865Y-88080897D01*
X228850413Y-88343711D01*
X229073227Y-88590609D01*
X229255938Y-88795882D01*
X229423511Y-88985397D01*
X229641376Y-89230120D01*
X229855644Y-89469296D01*
X230037669Y-89670861D01*
X230106847Y-89748286D01*
X230263862Y-89929954D01*
X230451681Y-90153006D01*
X230663413Y-90408761D01*
X230892165Y-90688539D01*
X231131047Y-90983660D01*
X231373167Y-91285443D01*
X231611634Y-91585208D01*
X231839556Y-91874275D01*
X232050041Y-92143965D01*
X232236199Y-92385595D01*
X232391138Y-92590487D01*
X232507966Y-92749961D01*
X232579792Y-92855335D01*
X232599724Y-92897929D01*
X232581981Y-92905712D01*
X232489976Y-92937087D01*
X232333705Y-92986874D01*
X232128733Y-93050155D01*
X231890628Y-93122009D01*
X231765166Y-93160476D01*
X231505612Y-93243390D01*
X231185536Y-93348532D01*
X230821241Y-93470431D01*
X230429029Y-93603615D01*
X230025203Y-93742614D01*
X229626066Y-93881958D01*
X229414353Y-93956181D01*
X228991058Y-94103216D01*
X228561186Y-94250941D01*
X228143484Y-94392996D01*
X227756695Y-94523024D01*
X227419565Y-94634666D01*
X227150838Y-94721564D01*
X227087256Y-94741739D01*
X226817635Y-94827479D01*
X226580372Y-94903218D01*
X226389432Y-94964480D01*
X226258781Y-95006785D01*
X226202386Y-95025658D01*
X226189224Y-95028490D01*
X226098166Y-95034193D01*
X225947818Y-95035812D01*
X225762860Y-95032940D01*
X225611671Y-95026241D01*
X225440813Y-95007659D01*
X225284548Y-94971918D01*
X225135042Y-94912734D01*
X224984456Y-94823822D01*
X224824954Y-94698901D01*
X224648701Y-94531685D01*
X224447860Y-94315890D01*
X224214595Y-94045234D01*
X223941069Y-93713433D01*
X223619445Y-93314202D01*
X223416146Y-93061330D01*
X223126199Y-92703130D01*
X222802856Y-92305801D01*
X222460394Y-91886801D01*
X222113087Y-91463592D01*
X221775212Y-91053632D01*
X221461044Y-90674380D01*
X221413192Y-90616775D01*
X221126090Y-90270356D01*
X220840545Y-89924552D01*
X220566181Y-89591100D01*
X220312621Y-89281736D01*
X220089488Y-89008198D01*
X219906404Y-88782223D01*
X219772994Y-88615546D01*
X219654574Y-88467069D01*
X219438324Y-88199513D01*
X219197926Y-87905380D01*
X218955043Y-87611133D01*
X218731339Y-87343233D01*
X218653529Y-87250449D01*
X218454300Y-87011204D01*
X218215321Y-86722521D01*
X217949090Y-86399575D01*
X217668109Y-86057543D01*
X217384877Y-85711602D01*
X217111893Y-85376931D01*
X216924995Y-85147403D01*
X216600854Y-84749997D01*
X216312655Y-84397814D01*
X216045824Y-84073188D01*
X215785784Y-83758452D01*
X215517961Y-83435942D01*
X215227778Y-83087991D01*
X214900659Y-82696934D01*
X214892320Y-82686947D01*
X214656688Y-82376398D01*
X214481678Y-82086094D01*
X214372702Y-81826461D01*
X214335173Y-81607925D01*
X214350786Y-81476769D01*
X214446517Y-81245740D01*
X214624715Y-81011240D01*
X214879978Y-80781462D01*
X214976891Y-80715093D01*
X215164563Y-80602310D01*
X215415532Y-80461779D01*
X215718211Y-80299432D01*
X216061013Y-80121198D01*
X216432349Y-79933009D01*
X216820631Y-79740795D01*
X217214273Y-79550486D01*
X217601687Y-79368015D01*
X217971284Y-79199310D01*
X218077628Y-79151488D01*
X218333859Y-79034909D01*
X218574547Y-78923681D01*
X218776665Y-78828497D01*
X218917186Y-78760051D01*
X219057509Y-78695836D01*
X219204059Y-78642562D01*
X219303797Y-78622104D01*
X219390862Y-78649016D01*
G37*
G36*
X211088001Y-87220008D02*
G01*
X211206280Y-87293656D01*
X211342971Y-87391691D01*
X211478075Y-87500275D01*
X211591596Y-87605569D01*
X211604075Y-87618531D01*
X211678067Y-87698195D01*
X211776457Y-87808259D01*
X211903099Y-87953258D01*
X212061846Y-88137728D01*
X212256553Y-88366203D01*
X212491071Y-88643218D01*
X212769256Y-88973309D01*
X213094959Y-89361010D01*
X213472036Y-89810858D01*
X213904339Y-90327386D01*
X214157579Y-90629904D01*
X214607051Y-91165397D01*
X215009286Y-91642451D01*
X215371707Y-92069805D01*
X215701738Y-92456198D01*
X216006801Y-92810370D01*
X216294321Y-93141061D01*
X216751731Y-93664573D01*
X216701389Y-94141865D01*
X216687283Y-94267940D01*
X216658679Y-94491796D01*
X216629571Y-94686784D01*
X216604473Y-94821268D01*
X216604367Y-94821730D01*
X216586031Y-94921455D01*
X216558166Y-95098588D01*
X216522823Y-95338854D01*
X216482055Y-95627977D01*
X216437916Y-95951681D01*
X216392457Y-96295692D01*
X216392240Y-96297362D01*
X216340213Y-96688566D01*
X216277730Y-97144139D01*
X216208602Y-97637159D01*
X216136642Y-98140699D01*
X216065661Y-98627837D01*
X215999470Y-99071648D01*
X215951159Y-99392105D01*
X215869817Y-99936959D01*
X215790137Y-100476947D01*
X215713483Y-101002447D01*
X215641220Y-101503836D01*
X215574712Y-101971489D01*
X215515323Y-102395784D01*
X215464419Y-102767098D01*
X215423364Y-103075806D01*
X215393522Y-103312285D01*
X215376258Y-103466912D01*
X215365523Y-103580941D01*
X215345756Y-103748126D01*
X215314960Y-103867022D01*
X215259156Y-103956260D01*
X215164364Y-104034470D01*
X215016603Y-104120282D01*
X214801893Y-104232326D01*
X214670808Y-104302904D01*
X214376012Y-104482901D01*
X214137216Y-104660908D01*
X213965174Y-104828328D01*
X213870641Y-104976567D01*
X213856223Y-105031593D01*
X213828650Y-105169390D01*
X213793271Y-105367931D01*
X213753113Y-105610093D01*
X213711203Y-105878753D01*
X213704626Y-105922036D01*
X213666747Y-106167024D01*
X213616856Y-106484596D01*
X213557396Y-106859446D01*
X213490811Y-107276272D01*
X213419542Y-107719770D01*
X213346033Y-108174635D01*
X213272727Y-108625564D01*
X213241084Y-108820040D01*
X213173595Y-109237925D01*
X213110547Y-109632419D01*
X213053709Y-109992204D01*
X213004848Y-110305962D01*
X212965735Y-110562376D01*
X212938138Y-110750126D01*
X212923827Y-110857896D01*
X212904116Y-110996633D01*
X212870633Y-111110834D01*
X212826888Y-111147058D01*
X212807277Y-111145905D01*
X212705083Y-111136574D01*
X212531731Y-111119090D01*
X212301292Y-111094918D01*
X212027834Y-111065523D01*
X211725428Y-111032371D01*
X211628442Y-111021690D01*
X211289918Y-110984943D01*
X210888457Y-110941979D01*
X210445789Y-110895095D01*
X209983648Y-110846584D01*
X209523763Y-110798742D01*
X209087868Y-110753863D01*
X208874059Y-110731797D01*
X208457921Y-110687861D01*
X208047662Y-110643362D01*
X207660522Y-110600236D01*
X207313742Y-110560415D01*
X207024563Y-110525833D01*
X206810226Y-110498423D01*
X206702407Y-110483891D01*
X206473181Y-110453473D01*
X206283917Y-110429016D01*
X206151853Y-110412724D01*
X206094226Y-110406803D01*
X206079846Y-110402830D01*
X206031383Y-110345361D01*
X205971251Y-110215914D01*
X205897724Y-110009821D01*
X205809080Y-109722413D01*
X205703595Y-109349022D01*
X205659895Y-109207565D01*
X205494432Y-108813964D01*
X205260661Y-108393783D01*
X204967078Y-107961306D01*
X204622179Y-107530819D01*
X204493522Y-107381244D01*
X204341553Y-107199545D01*
X204241883Y-107070998D01*
X204188212Y-106986526D01*
X204174237Y-106937051D01*
X204193659Y-106913495D01*
X204239004Y-106896466D01*
X204362416Y-106852012D01*
X204535180Y-106790842D01*
X204734991Y-106720891D01*
X204992210Y-106623625D01*
X205487244Y-106398352D01*
X205983961Y-106127511D01*
X206458989Y-105825381D01*
X206888954Y-105506237D01*
X207250482Y-105184357D01*
X207469324Y-104950346D01*
X207806210Y-104533022D01*
X208131225Y-104066551D01*
X208428265Y-103576313D01*
X208681224Y-103087683D01*
X208873999Y-102626041D01*
X208879487Y-102610747D01*
X208943039Y-102437019D01*
X209022348Y-102224321D01*
X209101571Y-102015178D01*
X209156454Y-101865160D01*
X209303637Y-101367123D01*
X209409066Y-100829362D01*
X209477705Y-100228297D01*
X209481911Y-100178434D01*
X209503639Y-99948790D01*
X209534506Y-99650212D01*
X209572543Y-99300533D01*
X209615784Y-98917583D01*
X209662261Y-98519194D01*
X209710006Y-98123197D01*
X209867842Y-96819409D01*
X210098269Y-94849001D01*
X210315851Y-92905801D01*
X210517001Y-91021375D01*
X210526285Y-90935593D01*
X210547572Y-90748567D01*
X210576331Y-90502771D01*
X210611141Y-90209794D01*
X210650582Y-89881222D01*
X210693232Y-89528645D01*
X210737672Y-89163651D01*
X210782479Y-88797827D01*
X210826234Y-88442763D01*
X210867516Y-88110045D01*
X210904903Y-87811263D01*
X210936975Y-87558003D01*
X210962311Y-87361856D01*
X210979491Y-87234408D01*
X210987093Y-87187248D01*
X211008128Y-87184584D01*
X211088001Y-87220008D01*
G37*
G36*
X214590337Y-108834470D02*
G01*
X214759004Y-108854669D01*
X214967549Y-108897072D01*
X215177138Y-108954071D01*
X215618579Y-109119912D01*
X216000847Y-109329675D01*
X216304496Y-109580291D01*
X216533619Y-109875999D01*
X216692305Y-110221037D01*
X216784646Y-110619644D01*
X216793260Y-110699595D01*
X216799406Y-110860467D01*
X216795227Y-111062086D01*
X216780183Y-111308308D01*
X216753735Y-111602992D01*
X216715343Y-111949994D01*
X216664467Y-112353171D01*
X216600568Y-112816382D01*
X216523107Y-113343484D01*
X216431542Y-113938334D01*
X216325336Y-114604790D01*
X216203948Y-115346708D01*
X216066839Y-116167947D01*
X215913469Y-117072364D01*
X215743299Y-118063816D01*
X215733427Y-118121063D01*
X215665320Y-118516773D01*
X215601699Y-118887737D01*
X215544446Y-119222883D01*
X215495445Y-119511139D01*
X215456577Y-119741433D01*
X215429727Y-119902695D01*
X215416776Y-119983852D01*
X215403742Y-120040297D01*
X215361863Y-120126934D01*
X215282861Y-120230668D01*
X215155476Y-120365618D01*
X214968445Y-120545900D01*
X214796780Y-120708514D01*
X214630019Y-120868416D01*
X214492960Y-121001803D01*
X214404572Y-121090361D01*
X214382459Y-121113070D01*
X214293211Y-121203732D01*
X214148599Y-121350040D01*
X213955163Y-121545396D01*
X213719442Y-121783205D01*
X213447979Y-122056867D01*
X213147313Y-122359787D01*
X212823985Y-122685367D01*
X212484536Y-123027011D01*
X212339837Y-123172502D01*
X211924222Y-123588718D01*
X211562026Y-123947979D01*
X211245053Y-124257617D01*
X210965109Y-124524964D01*
X210714001Y-124757353D01*
X210483533Y-124962115D01*
X210265512Y-125146582D01*
X210051743Y-125318087D01*
X209834031Y-125483962D01*
X209604182Y-125651540D01*
X209354002Y-125828151D01*
X209282718Y-125876952D01*
X209069914Y-126014444D01*
X208857772Y-126141725D01*
X208683146Y-126236371D01*
X208647481Y-126254497D01*
X208456825Y-126362290D01*
X208242293Y-126496668D01*
X208043872Y-126632833D01*
X207930295Y-126710544D01*
X207731137Y-126833960D01*
X207498621Y-126967745D01*
X207248856Y-127103630D01*
X206997953Y-127233348D01*
X206762019Y-127348632D01*
X206557164Y-127441214D01*
X206399497Y-127502826D01*
X206305128Y-127525200D01*
X206231917Y-127534495D01*
X206192368Y-127563772D01*
X206231859Y-127596008D01*
X206342130Y-127659383D01*
X206509415Y-127747054D01*
X206719945Y-127852262D01*
X206959951Y-127968247D01*
X207215665Y-128088251D01*
X207473319Y-128205514D01*
X207719144Y-128313278D01*
X207768797Y-128334674D01*
X207924537Y-128403703D01*
X208038644Y-128457214D01*
X208089272Y-128485068D01*
X208091570Y-128487681D01*
X208067595Y-128490205D01*
X207974810Y-128460854D01*
X207827037Y-128405392D01*
X207638095Y-128329583D01*
X207421805Y-128239191D01*
X207191989Y-128139980D01*
X206962466Y-128037715D01*
X206747058Y-127938159D01*
X206559584Y-127847078D01*
X206483090Y-127805394D01*
X206317561Y-127706391D01*
X206108163Y-127574438D01*
X205874022Y-127421664D01*
X205634265Y-127260201D01*
X205544611Y-127198939D01*
X205348074Y-127065081D01*
X205088203Y-126888441D01*
X204773087Y-126674505D01*
X204410816Y-126428756D01*
X204009480Y-126156682D01*
X203577170Y-125863767D01*
X203121974Y-125555496D01*
X202651982Y-125237355D01*
X202175285Y-124914830D01*
X199384249Y-123026927D01*
X199815722Y-122580503D01*
X199927528Y-122464564D01*
X200166986Y-122214890D01*
X200427383Y-121941881D01*
X200701013Y-121653747D01*
X200980168Y-121358697D01*
X201257139Y-121064942D01*
X201524220Y-120780693D01*
X201773703Y-120514160D01*
X201997880Y-120273553D01*
X202189043Y-120067083D01*
X202339485Y-119902960D01*
X202441498Y-119789394D01*
X202487374Y-119734596D01*
X202495308Y-119723632D01*
X202564202Y-119641482D01*
X202680269Y-119512228D01*
X202829443Y-119351318D01*
X202997658Y-119174198D01*
X203044647Y-119125012D01*
X203253753Y-118901408D01*
X203490213Y-118642743D01*
X203728386Y-118377263D01*
X203942632Y-118133215D01*
X203995529Y-118072144D01*
X204216086Y-117818591D01*
X204451231Y-117549667D01*
X204675991Y-117293884D01*
X204865393Y-117079750D01*
X204881990Y-117060997D01*
X205051477Y-116860397D01*
X205207750Y-116660491D01*
X205334071Y-116483505D01*
X205413702Y-116351665D01*
X205464535Y-116244334D01*
X205618924Y-115851498D01*
X205757473Y-115397983D01*
X205873439Y-114907811D01*
X205960079Y-114405004D01*
X205981778Y-114249933D01*
X206033119Y-113888957D01*
X206086470Y-113520926D01*
X206139956Y-113158174D01*
X206191702Y-112813035D01*
X206239832Y-112497843D01*
X206282472Y-112224931D01*
X206317746Y-112006633D01*
X206343779Y-111855283D01*
X206358696Y-111783215D01*
X206379410Y-111740189D01*
X206432029Y-111702249D01*
X206434333Y-111702387D01*
X206500438Y-111709767D01*
X206650088Y-111727742D01*
X206876133Y-111755423D01*
X207171423Y-111791919D01*
X207528808Y-111836340D01*
X207941139Y-111887796D01*
X208401265Y-111945397D01*
X208902036Y-112008251D01*
X209436304Y-112075470D01*
X209996917Y-112146161D01*
X210285177Y-112182510D01*
X210914535Y-112261498D01*
X211460244Y-112329325D01*
X211928022Y-112386599D01*
X212323586Y-112433930D01*
X212652651Y-112471930D01*
X212920936Y-112501207D01*
X213134157Y-112522371D01*
X213298031Y-112536033D01*
X213418275Y-112542803D01*
X213500606Y-112543289D01*
X213550740Y-112538104D01*
X213574394Y-112527855D01*
X213583062Y-112513936D01*
X213616000Y-112417928D01*
X213660910Y-112245418D01*
X213715597Y-112007234D01*
X213777867Y-111714204D01*
X213845525Y-111377156D01*
X213916376Y-111006918D01*
X213988227Y-110614318D01*
X214058882Y-110210185D01*
X214126148Y-109805346D01*
X214136414Y-109741726D01*
X214186309Y-109435752D01*
X214226927Y-109207589D01*
X214263397Y-109045829D01*
X214300850Y-108939062D01*
X214344419Y-108875880D01*
X214399233Y-108844875D01*
X214470424Y-108834638D01*
X214563123Y-108833761D01*
X214590337Y-108834470D01*
G37*
G36*
X208961247Y-74990243D02*
G01*
X209407095Y-74991606D01*
X209776144Y-74995571D01*
X210082346Y-75002709D01*
X210339655Y-75013590D01*
X210562025Y-75028785D01*
X210763409Y-75048864D01*
X210957760Y-75074398D01*
X211397932Y-75143526D01*
X212184334Y-75295577D01*
X212941808Y-75482733D01*
X213685732Y-75710383D01*
X214431487Y-75983920D01*
X215194453Y-76308732D01*
X215990009Y-76690210D01*
X216833534Y-77133744D01*
X217062032Y-77259021D01*
X217392188Y-77443011D01*
X217650052Y-77591738D01*
X217842050Y-77709435D01*
X217974612Y-77800335D01*
X218054164Y-77868670D01*
X218087133Y-77918675D01*
X218079948Y-77954580D01*
X218066443Y-77964918D01*
X217980390Y-78015305D01*
X217824340Y-78099762D01*
X217607285Y-78213638D01*
X217338214Y-78352286D01*
X217026119Y-78511057D01*
X216679990Y-78685302D01*
X216308818Y-78870371D01*
X216181549Y-78933657D01*
X215802250Y-79123723D01*
X215441541Y-79306555D01*
X215110172Y-79476570D01*
X214818894Y-79628187D01*
X214578456Y-79755827D01*
X214399609Y-79853907D01*
X214293101Y-79916847D01*
X214111686Y-80044567D01*
X213871211Y-80239669D01*
X213648548Y-80446968D01*
X213464403Y-80646858D01*
X213339483Y-80819736D01*
X213337892Y-80822501D01*
X213238088Y-81066225D01*
X213175266Y-81369316D01*
X213151293Y-81705870D01*
X213168035Y-82049985D01*
X213227359Y-82375757D01*
X213237831Y-82411076D01*
X213288562Y-82534476D01*
X213370612Y-82686465D01*
X213487360Y-82871527D01*
X213642186Y-83094142D01*
X213838469Y-83358794D01*
X214079589Y-83669964D01*
X214368925Y-84032133D01*
X214709856Y-84449785D01*
X215105763Y-84927401D01*
X215560023Y-85469462D01*
X215833283Y-85794967D01*
X216184382Y-86214843D01*
X216575633Y-86684139D01*
X216997340Y-87191151D01*
X217439807Y-87724176D01*
X217893334Y-88271510D01*
X218348227Y-88821448D01*
X218794787Y-89362288D01*
X219223318Y-89882326D01*
X219624123Y-90369857D01*
X219987505Y-90813178D01*
X220215582Y-91091234D01*
X220517074Y-91457163D01*
X220831671Y-91837507D01*
X221141505Y-92210709D01*
X221428711Y-92555216D01*
X221675419Y-92849473D01*
X221792634Y-92988911D01*
X222048100Y-93293924D01*
X222309332Y-93607115D01*
X222559945Y-93908780D01*
X222783552Y-94179216D01*
X222963771Y-94398721D01*
X223035686Y-94486443D01*
X223429147Y-94951058D01*
X223785481Y-95341433D01*
X224112143Y-95662796D01*
X224416587Y-95920375D01*
X224706267Y-96119397D01*
X224988637Y-96265092D01*
X225271153Y-96362687D01*
X225561267Y-96417411D01*
X225866435Y-96434490D01*
X225874027Y-96434478D01*
X226085225Y-96426835D01*
X226291039Y-96407749D01*
X226447928Y-96381211D01*
X226459611Y-96378121D01*
X226566919Y-96344274D01*
X226747843Y-96282590D01*
X226991531Y-96196944D01*
X227287131Y-96091213D01*
X227623792Y-95969272D01*
X227990660Y-95834997D01*
X228376886Y-95692264D01*
X228445714Y-95666711D01*
X229120762Y-95416744D01*
X229716507Y-95197449D01*
X230239391Y-95006498D01*
X230695856Y-94841561D01*
X231092345Y-94700310D01*
X231435301Y-94580415D01*
X231731166Y-94479546D01*
X231747087Y-94474176D01*
X231932462Y-94409580D01*
X232171825Y-94323561D01*
X232436009Y-94226702D01*
X232695846Y-94129582D01*
X232770227Y-94101585D01*
X233003633Y-94016483D01*
X233170578Y-93962153D01*
X233286073Y-93934803D01*
X233365129Y-93930637D01*
X233422758Y-93945862D01*
X233466963Y-93973928D01*
X233540334Y-94040023D01*
X233639171Y-94146009D01*
X233767530Y-94296935D01*
X233929466Y-94497851D01*
X234129037Y-94753809D01*
X234370297Y-95069858D01*
X234657304Y-95451049D01*
X234994113Y-95902431D01*
X235144007Y-96104735D01*
X235603852Y-96737125D01*
X236005235Y-97310295D01*
X236351556Y-97830906D01*
X236646219Y-98305616D01*
X236892624Y-98741086D01*
X237094173Y-99143977D01*
X237254268Y-99520949D01*
X237376312Y-99878662D01*
X237463705Y-100223776D01*
X237519850Y-100562952D01*
X237548148Y-100902849D01*
X237549669Y-100936929D01*
X237557902Y-101178026D01*
X237556281Y-101356548D01*
X237542393Y-101499017D01*
X237513823Y-101631961D01*
X237468159Y-101781902D01*
X237434611Y-101881318D01*
X237323313Y-102169634D01*
X237217686Y-102374405D01*
X237114504Y-102502199D01*
X237055689Y-102547083D01*
X236945937Y-102619311D01*
X236823729Y-102692839D01*
X236718764Y-102749949D01*
X236660739Y-102772923D01*
X236655918Y-102769006D01*
X236607132Y-102712122D01*
X236513572Y-102595896D01*
X236383725Y-102431073D01*
X236226079Y-102228399D01*
X236049122Y-101998619D01*
X235971509Y-101897509D01*
X235633125Y-101459756D01*
X235293178Y-101024633D01*
X234958063Y-100600033D01*
X234634173Y-100193849D01*
X234327903Y-99813977D01*
X234045646Y-99468310D01*
X233793796Y-99164742D01*
X233578748Y-98911167D01*
X233406895Y-98715479D01*
X233284631Y-98585572D01*
X233223216Y-98526328D01*
X232856387Y-98232114D01*
X232442198Y-97998581D01*
X231962496Y-97815152D01*
X231873616Y-97788425D01*
X231732236Y-97752981D01*
X231588985Y-97729888D01*
X231421214Y-97716910D01*
X231206273Y-97711809D01*
X230921512Y-97712349D01*
X230774548Y-97714199D01*
X230481583Y-97725381D01*
X230236200Y-97751214D01*
X230012788Y-97797905D01*
X229785740Y-97871662D01*
X229529445Y-97978692D01*
X229218293Y-98125203D01*
X229203983Y-98132206D01*
X228874441Y-98333712D01*
X228577743Y-98599320D01*
X228308283Y-98935990D01*
X228060452Y-99350681D01*
X227828645Y-99850356D01*
X227826194Y-99856273D01*
X227751262Y-100041402D01*
X227699481Y-100188487D01*
X227665839Y-100323640D01*
X227645325Y-100472971D01*
X227632930Y-100662592D01*
X227623641Y-100918615D01*
X227622450Y-100958346D01*
X227619129Y-101195881D01*
X227625661Y-101414250D01*
X227645578Y-101621417D01*
X227682412Y-101825342D01*
X227739693Y-102033990D01*
X227820954Y-102255320D01*
X227929726Y-102497297D01*
X228069540Y-102767881D01*
X228243928Y-103075035D01*
X228456421Y-103426722D01*
X228710551Y-103830903D01*
X229009849Y-104295541D01*
X229357847Y-104828597D01*
X229522375Y-105082544D01*
X229683143Y-105337022D01*
X229818837Y-105558591D01*
X229922862Y-105736252D01*
X229988625Y-105859004D01*
X230009533Y-105915846D01*
X229974370Y-105959376D01*
X229863689Y-106023786D01*
X229695465Y-106090866D01*
X229446244Y-106159371D01*
X229063599Y-106195609D01*
X228701616Y-106141857D01*
X228361555Y-105998363D01*
X228044680Y-105765376D01*
X227957288Y-105677857D01*
X227810285Y-105513623D01*
X227636178Y-105305985D01*
X227449822Y-105072758D01*
X227266075Y-104831758D01*
X227062981Y-104564233D01*
X226803407Y-104232467D01*
X226508643Y-103863476D01*
X226192078Y-103473616D01*
X225867096Y-103079247D01*
X225547085Y-102696727D01*
X225245430Y-102342415D01*
X224975519Y-102032668D01*
X224897188Y-101942897D01*
X224734574Y-101752294D01*
X224542816Y-101523807D01*
X224339656Y-101278628D01*
X224142832Y-101037951D01*
X224098515Y-100983498D01*
X223917384Y-100762994D01*
X223692883Y-100492049D01*
X223437811Y-100185992D01*
X223164964Y-99860153D01*
X222887142Y-99529861D01*
X222617142Y-99210446D01*
X222320471Y-98859712D01*
X221990265Y-98468030D01*
X221645917Y-98058485D01*
X221305964Y-97653151D01*
X220988945Y-97274102D01*
X220713396Y-96943415D01*
X220669175Y-96890252D01*
X220423481Y-96595962D01*
X220133000Y-96249484D01*
X219810410Y-95865862D01*
X219468392Y-95460142D01*
X219119626Y-95047370D01*
X218776792Y-94642590D01*
X218452569Y-94260847D01*
X218352406Y-94142991D01*
X218038471Y-93772473D01*
X217681062Y-93349261D01*
X217291635Y-92886992D01*
X216881646Y-92399302D01*
X216462551Y-91899826D01*
X216045807Y-91402200D01*
X215642869Y-90920059D01*
X215265193Y-90467040D01*
X215075947Y-90239886D01*
X214701610Y-89791469D01*
X214317249Y-89332113D01*
X213932733Y-88873556D01*
X213557932Y-88427536D01*
X213202714Y-88005793D01*
X212876950Y-87620064D01*
X212590509Y-87282090D01*
X212353261Y-87003607D01*
X211271534Y-85738663D01*
X211278469Y-83950055D01*
X211279802Y-83483300D01*
X211279131Y-83057485D01*
X211275147Y-82701608D01*
X211266702Y-82403941D01*
X211252648Y-82152754D01*
X211231836Y-81936320D01*
X211203118Y-81742908D01*
X211165346Y-81560792D01*
X211117372Y-81378241D01*
X211058048Y-81183527D01*
X210986224Y-80964921D01*
X210884669Y-80682826D01*
X210574634Y-80000043D01*
X210193136Y-79368987D01*
X209744701Y-78795032D01*
X209233851Y-78283551D01*
X208665112Y-77839915D01*
X208043006Y-77469498D01*
X207489557Y-77223205D01*
X206851275Y-77013688D01*
X206138914Y-76847551D01*
X205348015Y-76723557D01*
X205222400Y-76706679D01*
X205054688Y-76679370D01*
X204939641Y-76654363D01*
X204896922Y-76635496D01*
X204900286Y-76628142D01*
X204949516Y-76566625D01*
X205048356Y-76456378D01*
X205185093Y-76310241D01*
X205348015Y-76141052D01*
X205543473Y-75945192D01*
X205711989Y-75790556D01*
X205864865Y-75671277D01*
X206025052Y-75569533D01*
X206215501Y-75467505D01*
X206283438Y-75433832D01*
X206533642Y-75318801D01*
X206796491Y-75208657D01*
X207025155Y-75123309D01*
X207418416Y-74990227D01*
X208898926Y-74990227D01*
X208961247Y-74990243D01*
G37*
%TD*%
M02*
