%TF.GenerationSoftware,KiCad,Pcbnew,8.0.4*%
%TF.CreationDate,2025-04-19T21:15:14+05:30*%
%TF.ProjectId,Snakebot_pcb_dev,536e616b-6562-46f7-945f-7063625f6465,rev?*%
%TF.SameCoordinates,Original*%
%TF.FileFunction,Drillmap*%
%TF.FilePolarity,Positive*%
%FSLAX45Y45*%
G04 Gerber Fmt 4.5, Leading zero omitted, Abs format (unit mm)*
G04 Created by KiCad (PCBNEW 8.0.4) date 2025-04-19 21:15:14*
%MOMM*%
%LPD*%
G01*
G04 APERTURE LIST*
%ADD10C,0.050000*%
%ADD11C,0.200000*%
%ADD12C,0.100000*%
G04 APERTURE END LIST*
D10*
X8775000Y-14725000D02*
X16625000Y-14725000D01*
X8775000Y-14700000D02*
X8775000Y-14725000D01*
X16625000Y-14650000D02*
X16625000Y-14600000D01*
X16625000Y-11450000D02*
X8775000Y-11450000D01*
X8775000Y-14600000D02*
X8775000Y-14650000D01*
X8775000Y-14500000D02*
X8775000Y-14600000D01*
X16625000Y-14725000D02*
X16625000Y-14650000D01*
X16625000Y-14500000D02*
X16625000Y-11450000D01*
X8775000Y-11450000D02*
X8775000Y-14500000D01*
X8775000Y-14650000D02*
X8775000Y-14700000D01*
X16625000Y-14600000D02*
X16625000Y-14500000D01*
D11*
D12*
X12440000Y-12755000D02*
X12460000Y-12775000D01*
X12460000Y-12755000D02*
X12440000Y-12775000D01*
X12440000Y-12895000D02*
X12460000Y-12915000D01*
X12460000Y-12895000D02*
X12440000Y-12915000D01*
X12510000Y-12685000D02*
X12530000Y-12705000D01*
X12530000Y-12685000D02*
X12510000Y-12705000D01*
X12510000Y-12825000D02*
X12530000Y-12845000D01*
X12530000Y-12825000D02*
X12510000Y-12845000D01*
X12510000Y-12965000D02*
X12530000Y-12985000D01*
X12530000Y-12965000D02*
X12510000Y-12985000D01*
X12577500Y-12755000D02*
X12597500Y-12775000D01*
X12597500Y-12755000D02*
X12577500Y-12775000D01*
X12577500Y-12895000D02*
X12597500Y-12915000D01*
X12597500Y-12895000D02*
X12577500Y-12915000D01*
X12650000Y-12685000D02*
X12670000Y-12705000D01*
X12670000Y-12685000D02*
X12650000Y-12705000D01*
X12650000Y-12825000D02*
X12670000Y-12845000D01*
X12670000Y-12825000D02*
X12650000Y-12845000D01*
X12650000Y-12965000D02*
X12670000Y-12985000D01*
X12670000Y-12965000D02*
X12650000Y-12985000D01*
X12720000Y-12755000D02*
X12740000Y-12775000D01*
X12740000Y-12755000D02*
X12720000Y-12775000D01*
X12720000Y-12895000D02*
X12740000Y-12915000D01*
X12740000Y-12895000D02*
X12720000Y-12915000D01*
X9295000Y-11980000D02*
G75*
G02*
X9265000Y-11980000I-15000J0D01*
G01*
X9265000Y-11980000D02*
G75*
G02*
X9295000Y-11980000I15000J0D01*
G01*
X9565000Y-13925000D02*
G75*
G02*
X9535000Y-13925000I-15000J0D01*
G01*
X9535000Y-13925000D02*
G75*
G02*
X9565000Y-13925000I15000J0D01*
G01*
X9878199Y-13911801D02*
G75*
G02*
X9848199Y-13911801I-15000J0D01*
G01*
X9848199Y-13911801D02*
G75*
G02*
X9878199Y-13911801I15000J0D01*
G01*
X9915000Y-13500000D02*
G75*
G02*
X9885000Y-13500000I-15000J0D01*
G01*
X9885000Y-13500000D02*
G75*
G02*
X9915000Y-13500000I15000J0D01*
G01*
X9965000Y-13825000D02*
G75*
G02*
X9935000Y-13825000I-15000J0D01*
G01*
X9935000Y-13825000D02*
G75*
G02*
X9965000Y-13825000I15000J0D01*
G01*
X10075000Y-12360000D02*
G75*
G02*
X10045000Y-12360000I-15000J0D01*
G01*
X10045000Y-12360000D02*
G75*
G02*
X10075000Y-12360000I15000J0D01*
G01*
X10106132Y-13173252D02*
G75*
G02*
X10076132Y-13173252I-15000J0D01*
G01*
X10076132Y-13173252D02*
G75*
G02*
X10106132Y-13173252I15000J0D01*
G01*
X10115000Y-12200000D02*
G75*
G02*
X10085000Y-12200000I-15000J0D01*
G01*
X10085000Y-12200000D02*
G75*
G02*
X10115000Y-12200000I15000J0D01*
G01*
X10115000Y-14000000D02*
G75*
G02*
X10085000Y-14000000I-15000J0D01*
G01*
X10085000Y-14000000D02*
G75*
G02*
X10115000Y-14000000I15000J0D01*
G01*
X10165000Y-13100000D02*
G75*
G02*
X10135000Y-13100000I-15000J0D01*
G01*
X10135000Y-13100000D02*
G75*
G02*
X10165000Y-13100000I15000J0D01*
G01*
X10165000Y-13325000D02*
G75*
G02*
X10135000Y-13325000I-15000J0D01*
G01*
X10135000Y-13325000D02*
G75*
G02*
X10165000Y-13325000I15000J0D01*
G01*
X10315000Y-12200000D02*
G75*
G02*
X10285000Y-12200000I-15000J0D01*
G01*
X10285000Y-12200000D02*
G75*
G02*
X10315000Y-12200000I15000J0D01*
G01*
X10665000Y-13525000D02*
G75*
G02*
X10635000Y-13525000I-15000J0D01*
G01*
X10635000Y-13525000D02*
G75*
G02*
X10665000Y-13525000I15000J0D01*
G01*
X10840000Y-12200000D02*
G75*
G02*
X10810000Y-12200000I-15000J0D01*
G01*
X10810000Y-12200000D02*
G75*
G02*
X10840000Y-12200000I15000J0D01*
G01*
X11365000Y-12490000D02*
G75*
G02*
X11335000Y-12490000I-15000J0D01*
G01*
X11335000Y-12490000D02*
G75*
G02*
X11365000Y-12490000I15000J0D01*
G01*
X11415000Y-11975000D02*
G75*
G02*
X11385000Y-11975000I-15000J0D01*
G01*
X11385000Y-11975000D02*
G75*
G02*
X11415000Y-11975000I15000J0D01*
G01*
X11490000Y-12600000D02*
G75*
G02*
X11460000Y-12600000I-15000J0D01*
G01*
X11460000Y-12600000D02*
G75*
G02*
X11490000Y-12600000I15000J0D01*
G01*
X11590000Y-12490000D02*
G75*
G02*
X11560000Y-12490000I-15000J0D01*
G01*
X11560000Y-12490000D02*
G75*
G02*
X11590000Y-12490000I15000J0D01*
G01*
X11665000Y-12550000D02*
G75*
G02*
X11635000Y-12550000I-15000J0D01*
G01*
X11635000Y-12550000D02*
G75*
G02*
X11665000Y-12550000I15000J0D01*
G01*
X11675000Y-12952500D02*
G75*
G02*
X11645000Y-12952500I-15000J0D01*
G01*
X11645000Y-12952500D02*
G75*
G02*
X11675000Y-12952500I15000J0D01*
G01*
X11680000Y-13095000D02*
G75*
G02*
X11650000Y-13095000I-15000J0D01*
G01*
X11650000Y-13095000D02*
G75*
G02*
X11680000Y-13095000I15000J0D01*
G01*
X11680000Y-13222500D02*
G75*
G02*
X11650000Y-13222500I-15000J0D01*
G01*
X11650000Y-13222500D02*
G75*
G02*
X11680000Y-13222500I15000J0D01*
G01*
X11680000Y-13372500D02*
G75*
G02*
X11650000Y-13372500I-15000J0D01*
G01*
X11650000Y-13372500D02*
G75*
G02*
X11680000Y-13372500I15000J0D01*
G01*
X11685000Y-13497500D02*
G75*
G02*
X11655000Y-13497500I-15000J0D01*
G01*
X11655000Y-13497500D02*
G75*
G02*
X11685000Y-13497500I15000J0D01*
G01*
X11690000Y-13625000D02*
G75*
G02*
X11660000Y-13625000I-15000J0D01*
G01*
X11660000Y-13625000D02*
G75*
G02*
X11690000Y-13625000I15000J0D01*
G01*
X11715000Y-12625000D02*
G75*
G02*
X11685000Y-12625000I-15000J0D01*
G01*
X11685000Y-12625000D02*
G75*
G02*
X11715000Y-12625000I15000J0D01*
G01*
X12615000Y-11975000D02*
G75*
G02*
X12585000Y-11975000I-15000J0D01*
G01*
X12585000Y-11975000D02*
G75*
G02*
X12615000Y-11975000I15000J0D01*
G01*
X13770000Y-12960000D02*
G75*
G02*
X13740000Y-12960000I-15000J0D01*
G01*
X13740000Y-12960000D02*
G75*
G02*
X13770000Y-12960000I15000J0D01*
G01*
X13775000Y-12100000D02*
G75*
G02*
X13745000Y-12100000I-15000J0D01*
G01*
X13745000Y-12100000D02*
G75*
G02*
X13775000Y-12100000I15000J0D01*
G01*
X13777500Y-13082500D02*
G75*
G02*
X13747500Y-13082500I-15000J0D01*
G01*
X13747500Y-13082500D02*
G75*
G02*
X13777500Y-13082500I15000J0D01*
G01*
X13790000Y-12325000D02*
G75*
G02*
X13760000Y-12325000I-15000J0D01*
G01*
X13760000Y-12325000D02*
G75*
G02*
X13790000Y-12325000I15000J0D01*
G01*
X13815000Y-13700000D02*
G75*
G02*
X13785000Y-13700000I-15000J0D01*
G01*
X13785000Y-13700000D02*
G75*
G02*
X13815000Y-13700000I15000J0D01*
G01*
X13827500Y-12705000D02*
G75*
G02*
X13797500Y-12705000I-15000J0D01*
G01*
X13797500Y-12705000D02*
G75*
G02*
X13827500Y-12705000I15000J0D01*
G01*
X13895000Y-12100000D02*
G75*
G02*
X13865000Y-12100000I-15000J0D01*
G01*
X13865000Y-12100000D02*
G75*
G02*
X13895000Y-12100000I15000J0D01*
G01*
X13955000Y-12880000D02*
G75*
G02*
X13925000Y-12880000I-15000J0D01*
G01*
X13925000Y-12880000D02*
G75*
G02*
X13955000Y-12880000I15000J0D01*
G01*
X14022500Y-12800000D02*
G75*
G02*
X13992500Y-12800000I-15000J0D01*
G01*
X13992500Y-12800000D02*
G75*
G02*
X14022500Y-12800000I15000J0D01*
G01*
X14142650Y-12880000D02*
G75*
G02*
X14112650Y-12880000I-15000J0D01*
G01*
X14112650Y-12880000D02*
G75*
G02*
X14142650Y-12880000I15000J0D01*
G01*
X14155000Y-12780000D02*
G75*
G02*
X14125000Y-12780000I-15000J0D01*
G01*
X14125000Y-12780000D02*
G75*
G02*
X14155000Y-12780000I15000J0D01*
G01*
X14295000Y-12780000D02*
G75*
G02*
X14265000Y-12780000I-15000J0D01*
G01*
X14265000Y-12780000D02*
G75*
G02*
X14295000Y-12780000I15000J0D01*
G01*
X14340000Y-12075000D02*
G75*
G02*
X14310000Y-12075000I-15000J0D01*
G01*
X14310000Y-12075000D02*
G75*
G02*
X14340000Y-12075000I15000J0D01*
G01*
X14423260Y-12161445D02*
G75*
G02*
X14393260Y-12161445I-15000J0D01*
G01*
X14393260Y-12161445D02*
G75*
G02*
X14423260Y-12161445I15000J0D01*
G01*
X14615000Y-13080000D02*
G75*
G02*
X14585000Y-13080000I-15000J0D01*
G01*
X14585000Y-13080000D02*
G75*
G02*
X14615000Y-13080000I15000J0D01*
G01*
X14825073Y-13814926D02*
G75*
G02*
X14795073Y-13814926I-15000J0D01*
G01*
X14795073Y-13814926D02*
G75*
G02*
X14825073Y-13814926I15000J0D01*
G01*
X14875000Y-13560000D02*
G75*
G02*
X14845000Y-13560000I-15000J0D01*
G01*
X14845000Y-13560000D02*
G75*
G02*
X14875000Y-13560000I15000J0D01*
G01*
X15990000Y-13175000D02*
G75*
G02*
X15960000Y-13175000I-15000J0D01*
G01*
X15960000Y-13175000D02*
G75*
G02*
X15990000Y-13175000I15000J0D01*
G01*
X9000000Y-11702500D02*
X9000000Y-11797500D01*
X8952500Y-11750000D02*
X9047500Y-11750000D01*
X9000000Y-11952500D02*
X9000000Y-12047500D01*
X8952500Y-12000000D02*
X9047500Y-12000000D01*
X9000000Y-12202500D02*
X9000000Y-12297500D01*
X8952500Y-12250000D02*
X9047500Y-12250000D01*
X9000000Y-12452500D02*
X9000000Y-12547500D01*
X8952500Y-12500000D02*
X9047500Y-12500000D01*
X9000000Y-12702500D02*
X9000000Y-12797500D01*
X8952500Y-12750000D02*
X9047500Y-12750000D01*
X9000000Y-12952500D02*
X9000000Y-13047500D01*
X8952500Y-13000000D02*
X9047500Y-13000000D01*
X9000000Y-13202500D02*
X9000000Y-13297500D01*
X8952500Y-13250000D02*
X9047500Y-13250000D01*
X9000000Y-13452500D02*
X9000000Y-13547500D01*
X8952500Y-13500000D02*
X9047500Y-13500000D01*
X12325000Y-14327500D02*
X12325000Y-14422500D01*
X12277500Y-14375000D02*
X12372500Y-14375000D01*
X12575000Y-14327500D02*
X12575000Y-14422500D01*
X12527500Y-14375000D02*
X12622500Y-14375000D01*
X12825000Y-14327500D02*
X12825000Y-14422500D01*
X12777500Y-14375000D02*
X12872500Y-14375000D01*
X13075000Y-14327500D02*
X13075000Y-14422500D01*
X13027500Y-14375000D02*
X13122500Y-14375000D01*
X14025000Y-13382500D02*
X14025000Y-13477500D01*
X13977500Y-13430000D02*
X14072500Y-13430000D01*
X14025000Y-13877500D02*
X14025000Y-13972500D01*
X13977500Y-13925000D02*
X14072500Y-13925000D01*
X14275000Y-13382500D02*
X14275000Y-13477500D01*
X14227500Y-13430000D02*
X14322500Y-13430000D01*
X14275000Y-13877500D02*
X14275000Y-13972500D01*
X14227500Y-13925000D02*
X14322500Y-13925000D01*
X14525000Y-13382500D02*
X14525000Y-13477500D01*
X14477500Y-13430000D02*
X14572500Y-13430000D01*
X14525000Y-13877500D02*
X14525000Y-13972500D01*
X14477500Y-13925000D02*
X14572500Y-13925000D01*
X16400000Y-11702500D02*
X16400000Y-11797500D01*
X16352500Y-11750000D02*
X16447500Y-11750000D01*
X16400000Y-11952500D02*
X16400000Y-12047500D01*
X16352500Y-12000000D02*
X16447500Y-12000000D01*
X16400000Y-12202500D02*
X16400000Y-12297500D01*
X16352500Y-12250000D02*
X16447500Y-12250000D01*
X16400000Y-12452500D02*
X16400000Y-12547500D01*
X16352500Y-12500000D02*
X16447500Y-12500000D01*
X16400000Y-12702500D02*
X16400000Y-12797500D01*
X16352500Y-12750000D02*
X16447500Y-12750000D01*
X16400000Y-12952500D02*
X16400000Y-13047500D01*
X16352500Y-13000000D02*
X16447500Y-13000000D01*
X16400000Y-13202500D02*
X16400000Y-13297500D01*
X16352500Y-13250000D02*
X16447500Y-13250000D01*
X16400000Y-13452500D02*
X16400000Y-13547500D01*
X16352500Y-13500000D02*
X16447500Y-13500000D01*
X11510356Y-14410356D02*
X11510356Y-14339644D01*
X11439644Y-14339644D01*
X11439644Y-14410356D01*
X11510356Y-14410356D01*
X11760356Y-14410356D02*
X11760356Y-14339644D01*
X11689644Y-14339644D01*
X11689644Y-14410356D01*
X11760356Y-14410356D01*
X13735356Y-14410356D02*
X13735356Y-14339644D01*
X13664644Y-14339644D01*
X13664644Y-14410356D01*
X13735356Y-14410356D01*
X13985356Y-14410356D02*
X13985356Y-14339644D01*
X13914644Y-14339644D01*
X13914644Y-14410356D01*
X13985356Y-14410356D01*
X15610356Y-12088606D02*
X15610356Y-12017894D01*
X15539644Y-12017894D01*
X15539644Y-12088606D01*
X15610356Y-12088606D01*
X15860356Y-12088606D02*
X15860356Y-12017894D01*
X15789644Y-12017894D01*
X15789644Y-12088606D01*
X15860356Y-12088606D01*
D11*
X9033277Y-15038984D02*
X9033277Y-14838984D01*
X9033277Y-14838984D02*
X9080896Y-14838984D01*
X9080896Y-14838984D02*
X9109467Y-14848508D01*
X9109467Y-14848508D02*
X9128515Y-14867555D01*
X9128515Y-14867555D02*
X9138039Y-14886603D01*
X9138039Y-14886603D02*
X9147563Y-14924698D01*
X9147563Y-14924698D02*
X9147563Y-14953269D01*
X9147563Y-14953269D02*
X9138039Y-14991365D01*
X9138039Y-14991365D02*
X9128515Y-15010412D01*
X9128515Y-15010412D02*
X9109467Y-15029460D01*
X9109467Y-15029460D02*
X9080896Y-15038984D01*
X9080896Y-15038984D02*
X9033277Y-15038984D01*
X9233277Y-15038984D02*
X9233277Y-14905650D01*
X9233277Y-14943746D02*
X9242801Y-14924698D01*
X9242801Y-14924698D02*
X9252324Y-14915174D01*
X9252324Y-14915174D02*
X9271372Y-14905650D01*
X9271372Y-14905650D02*
X9290420Y-14905650D01*
X9357086Y-15038984D02*
X9357086Y-14905650D01*
X9357086Y-14838984D02*
X9347563Y-14848508D01*
X9347563Y-14848508D02*
X9357086Y-14858031D01*
X9357086Y-14858031D02*
X9366610Y-14848508D01*
X9366610Y-14848508D02*
X9357086Y-14838984D01*
X9357086Y-14838984D02*
X9357086Y-14858031D01*
X9480896Y-15038984D02*
X9461848Y-15029460D01*
X9461848Y-15029460D02*
X9452324Y-15010412D01*
X9452324Y-15010412D02*
X9452324Y-14838984D01*
X9585658Y-15038984D02*
X9566610Y-15029460D01*
X9566610Y-15029460D02*
X9557086Y-15010412D01*
X9557086Y-15010412D02*
X9557086Y-14838984D01*
X9814229Y-15038984D02*
X9814229Y-14838984D01*
X9814229Y-14838984D02*
X9880896Y-14981841D01*
X9880896Y-14981841D02*
X9947563Y-14838984D01*
X9947563Y-14838984D02*
X9947563Y-15038984D01*
X10128515Y-15038984D02*
X10128515Y-14934222D01*
X10128515Y-14934222D02*
X10118991Y-14915174D01*
X10118991Y-14915174D02*
X10099944Y-14905650D01*
X10099944Y-14905650D02*
X10061848Y-14905650D01*
X10061848Y-14905650D02*
X10042801Y-14915174D01*
X10128515Y-15029460D02*
X10109467Y-15038984D01*
X10109467Y-15038984D02*
X10061848Y-15038984D01*
X10061848Y-15038984D02*
X10042801Y-15029460D01*
X10042801Y-15029460D02*
X10033277Y-15010412D01*
X10033277Y-15010412D02*
X10033277Y-14991365D01*
X10033277Y-14991365D02*
X10042801Y-14972317D01*
X10042801Y-14972317D02*
X10061848Y-14962793D01*
X10061848Y-14962793D02*
X10109467Y-14962793D01*
X10109467Y-14962793D02*
X10128515Y-14953269D01*
X10223753Y-14905650D02*
X10223753Y-15105650D01*
X10223753Y-14915174D02*
X10242801Y-14905650D01*
X10242801Y-14905650D02*
X10280896Y-14905650D01*
X10280896Y-14905650D02*
X10299944Y-14915174D01*
X10299944Y-14915174D02*
X10309467Y-14924698D01*
X10309467Y-14924698D02*
X10318991Y-14943746D01*
X10318991Y-14943746D02*
X10318991Y-15000888D01*
X10318991Y-15000888D02*
X10309467Y-15019936D01*
X10309467Y-15019936D02*
X10299944Y-15029460D01*
X10299944Y-15029460D02*
X10280896Y-15038984D01*
X10280896Y-15038984D02*
X10242801Y-15038984D01*
X10242801Y-15038984D02*
X10223753Y-15029460D01*
X10404705Y-15019936D02*
X10414229Y-15029460D01*
X10414229Y-15029460D02*
X10404705Y-15038984D01*
X10404705Y-15038984D02*
X10395182Y-15029460D01*
X10395182Y-15029460D02*
X10404705Y-15019936D01*
X10404705Y-15019936D02*
X10404705Y-15038984D01*
X10404705Y-14915174D02*
X10414229Y-14924698D01*
X10414229Y-14924698D02*
X10404705Y-14934222D01*
X10404705Y-14934222D02*
X10395182Y-14924698D01*
X10395182Y-14924698D02*
X10404705Y-14915174D01*
X10404705Y-14915174D02*
X10404705Y-14934222D01*
D12*
X8752500Y-15357500D02*
X8772500Y-15377500D01*
X8772500Y-15357500D02*
X8752500Y-15377500D01*
D11*
X9071372Y-15258984D02*
X9090420Y-15258984D01*
X9090420Y-15258984D02*
X9109467Y-15268508D01*
X9109467Y-15268508D02*
X9118991Y-15278031D01*
X9118991Y-15278031D02*
X9128515Y-15297079D01*
X9128515Y-15297079D02*
X9138039Y-15335174D01*
X9138039Y-15335174D02*
X9138039Y-15382793D01*
X9138039Y-15382793D02*
X9128515Y-15420888D01*
X9128515Y-15420888D02*
X9118991Y-15439936D01*
X9118991Y-15439936D02*
X9109467Y-15449460D01*
X9109467Y-15449460D02*
X9090420Y-15458984D01*
X9090420Y-15458984D02*
X9071372Y-15458984D01*
X9071372Y-15458984D02*
X9052324Y-15449460D01*
X9052324Y-15449460D02*
X9042801Y-15439936D01*
X9042801Y-15439936D02*
X9033277Y-15420888D01*
X9033277Y-15420888D02*
X9023753Y-15382793D01*
X9023753Y-15382793D02*
X9023753Y-15335174D01*
X9023753Y-15335174D02*
X9033277Y-15297079D01*
X9033277Y-15297079D02*
X9042801Y-15278031D01*
X9042801Y-15278031D02*
X9052324Y-15268508D01*
X9052324Y-15268508D02*
X9071372Y-15258984D01*
X9223753Y-15439936D02*
X9233277Y-15449460D01*
X9233277Y-15449460D02*
X9223753Y-15458984D01*
X9223753Y-15458984D02*
X9214229Y-15449460D01*
X9214229Y-15449460D02*
X9223753Y-15439936D01*
X9223753Y-15439936D02*
X9223753Y-15458984D01*
X9309467Y-15278031D02*
X9318991Y-15268508D01*
X9318991Y-15268508D02*
X9338039Y-15258984D01*
X9338039Y-15258984D02*
X9385658Y-15258984D01*
X9385658Y-15258984D02*
X9404705Y-15268508D01*
X9404705Y-15268508D02*
X9414229Y-15278031D01*
X9414229Y-15278031D02*
X9423753Y-15297079D01*
X9423753Y-15297079D02*
X9423753Y-15316127D01*
X9423753Y-15316127D02*
X9414229Y-15344698D01*
X9414229Y-15344698D02*
X9299944Y-15458984D01*
X9299944Y-15458984D02*
X9423753Y-15458984D01*
X9547563Y-15258984D02*
X9566610Y-15258984D01*
X9566610Y-15258984D02*
X9585658Y-15268508D01*
X9585658Y-15268508D02*
X9595182Y-15278031D01*
X9595182Y-15278031D02*
X9604705Y-15297079D01*
X9604705Y-15297079D02*
X9614229Y-15335174D01*
X9614229Y-15335174D02*
X9614229Y-15382793D01*
X9614229Y-15382793D02*
X9604705Y-15420888D01*
X9604705Y-15420888D02*
X9595182Y-15439936D01*
X9595182Y-15439936D02*
X9585658Y-15449460D01*
X9585658Y-15449460D02*
X9566610Y-15458984D01*
X9566610Y-15458984D02*
X9547563Y-15458984D01*
X9547563Y-15458984D02*
X9528515Y-15449460D01*
X9528515Y-15449460D02*
X9518991Y-15439936D01*
X9518991Y-15439936D02*
X9509467Y-15420888D01*
X9509467Y-15420888D02*
X9499944Y-15382793D01*
X9499944Y-15382793D02*
X9499944Y-15335174D01*
X9499944Y-15335174D02*
X9509467Y-15297079D01*
X9509467Y-15297079D02*
X9518991Y-15278031D01*
X9518991Y-15278031D02*
X9528515Y-15268508D01*
X9528515Y-15268508D02*
X9547563Y-15258984D01*
X9738039Y-15258984D02*
X9757086Y-15258984D01*
X9757086Y-15258984D02*
X9776134Y-15268508D01*
X9776134Y-15268508D02*
X9785658Y-15278031D01*
X9785658Y-15278031D02*
X9795182Y-15297079D01*
X9795182Y-15297079D02*
X9804705Y-15335174D01*
X9804705Y-15335174D02*
X9804705Y-15382793D01*
X9804705Y-15382793D02*
X9795182Y-15420888D01*
X9795182Y-15420888D02*
X9785658Y-15439936D01*
X9785658Y-15439936D02*
X9776134Y-15449460D01*
X9776134Y-15449460D02*
X9757086Y-15458984D01*
X9757086Y-15458984D02*
X9738039Y-15458984D01*
X9738039Y-15458984D02*
X9718991Y-15449460D01*
X9718991Y-15449460D02*
X9709467Y-15439936D01*
X9709467Y-15439936D02*
X9699944Y-15420888D01*
X9699944Y-15420888D02*
X9690420Y-15382793D01*
X9690420Y-15382793D02*
X9690420Y-15335174D01*
X9690420Y-15335174D02*
X9699944Y-15297079D01*
X9699944Y-15297079D02*
X9709467Y-15278031D01*
X9709467Y-15278031D02*
X9718991Y-15268508D01*
X9718991Y-15268508D02*
X9738039Y-15258984D01*
X9890420Y-15458984D02*
X9890420Y-15325650D01*
X9890420Y-15344698D02*
X9899944Y-15335174D01*
X9899944Y-15335174D02*
X9918991Y-15325650D01*
X9918991Y-15325650D02*
X9947563Y-15325650D01*
X9947563Y-15325650D02*
X9966610Y-15335174D01*
X9966610Y-15335174D02*
X9976134Y-15354222D01*
X9976134Y-15354222D02*
X9976134Y-15458984D01*
X9976134Y-15354222D02*
X9985658Y-15335174D01*
X9985658Y-15335174D02*
X10004705Y-15325650D01*
X10004705Y-15325650D02*
X10033277Y-15325650D01*
X10033277Y-15325650D02*
X10052325Y-15335174D01*
X10052325Y-15335174D02*
X10061848Y-15354222D01*
X10061848Y-15354222D02*
X10061848Y-15458984D01*
X10157086Y-15458984D02*
X10157086Y-15325650D01*
X10157086Y-15344698D02*
X10166610Y-15335174D01*
X10166610Y-15335174D02*
X10185658Y-15325650D01*
X10185658Y-15325650D02*
X10214229Y-15325650D01*
X10214229Y-15325650D02*
X10233277Y-15335174D01*
X10233277Y-15335174D02*
X10242801Y-15354222D01*
X10242801Y-15354222D02*
X10242801Y-15458984D01*
X10242801Y-15354222D02*
X10252325Y-15335174D01*
X10252325Y-15335174D02*
X10271372Y-15325650D01*
X10271372Y-15325650D02*
X10299944Y-15325650D01*
X10299944Y-15325650D02*
X10318991Y-15335174D01*
X10318991Y-15335174D02*
X10328515Y-15354222D01*
X10328515Y-15354222D02*
X10328515Y-15458984D01*
X10718991Y-15249460D02*
X10547563Y-15506603D01*
X10976134Y-15258984D02*
X10995182Y-15258984D01*
X10995182Y-15258984D02*
X11014229Y-15268508D01*
X11014229Y-15268508D02*
X11023753Y-15278031D01*
X11023753Y-15278031D02*
X11033277Y-15297079D01*
X11033277Y-15297079D02*
X11042801Y-15335174D01*
X11042801Y-15335174D02*
X11042801Y-15382793D01*
X11042801Y-15382793D02*
X11033277Y-15420888D01*
X11033277Y-15420888D02*
X11023753Y-15439936D01*
X11023753Y-15439936D02*
X11014229Y-15449460D01*
X11014229Y-15449460D02*
X10995182Y-15458984D01*
X10995182Y-15458984D02*
X10976134Y-15458984D01*
X10976134Y-15458984D02*
X10957087Y-15449460D01*
X10957087Y-15449460D02*
X10947563Y-15439936D01*
X10947563Y-15439936D02*
X10938039Y-15420888D01*
X10938039Y-15420888D02*
X10928515Y-15382793D01*
X10928515Y-15382793D02*
X10928515Y-15335174D01*
X10928515Y-15335174D02*
X10938039Y-15297079D01*
X10938039Y-15297079D02*
X10947563Y-15278031D01*
X10947563Y-15278031D02*
X10957087Y-15268508D01*
X10957087Y-15268508D02*
X10976134Y-15258984D01*
X11128515Y-15439936D02*
X11138039Y-15449460D01*
X11138039Y-15449460D02*
X11128515Y-15458984D01*
X11128515Y-15458984D02*
X11118991Y-15449460D01*
X11118991Y-15449460D02*
X11128515Y-15439936D01*
X11128515Y-15439936D02*
X11128515Y-15458984D01*
X11261848Y-15258984D02*
X11280896Y-15258984D01*
X11280896Y-15258984D02*
X11299944Y-15268508D01*
X11299944Y-15268508D02*
X11309467Y-15278031D01*
X11309467Y-15278031D02*
X11318991Y-15297079D01*
X11318991Y-15297079D02*
X11328515Y-15335174D01*
X11328515Y-15335174D02*
X11328515Y-15382793D01*
X11328515Y-15382793D02*
X11318991Y-15420888D01*
X11318991Y-15420888D02*
X11309467Y-15439936D01*
X11309467Y-15439936D02*
X11299944Y-15449460D01*
X11299944Y-15449460D02*
X11280896Y-15458984D01*
X11280896Y-15458984D02*
X11261848Y-15458984D01*
X11261848Y-15458984D02*
X11242801Y-15449460D01*
X11242801Y-15449460D02*
X11233277Y-15439936D01*
X11233277Y-15439936D02*
X11223753Y-15420888D01*
X11223753Y-15420888D02*
X11214229Y-15382793D01*
X11214229Y-15382793D02*
X11214229Y-15335174D01*
X11214229Y-15335174D02*
X11223753Y-15297079D01*
X11223753Y-15297079D02*
X11233277Y-15278031D01*
X11233277Y-15278031D02*
X11242801Y-15268508D01*
X11242801Y-15268508D02*
X11261848Y-15258984D01*
X11452325Y-15258984D02*
X11471372Y-15258984D01*
X11471372Y-15258984D02*
X11490420Y-15268508D01*
X11490420Y-15268508D02*
X11499944Y-15278031D01*
X11499944Y-15278031D02*
X11509467Y-15297079D01*
X11509467Y-15297079D02*
X11518991Y-15335174D01*
X11518991Y-15335174D02*
X11518991Y-15382793D01*
X11518991Y-15382793D02*
X11509467Y-15420888D01*
X11509467Y-15420888D02*
X11499944Y-15439936D01*
X11499944Y-15439936D02*
X11490420Y-15449460D01*
X11490420Y-15449460D02*
X11471372Y-15458984D01*
X11471372Y-15458984D02*
X11452325Y-15458984D01*
X11452325Y-15458984D02*
X11433277Y-15449460D01*
X11433277Y-15449460D02*
X11423753Y-15439936D01*
X11423753Y-15439936D02*
X11414229Y-15420888D01*
X11414229Y-15420888D02*
X11404706Y-15382793D01*
X11404706Y-15382793D02*
X11404706Y-15335174D01*
X11404706Y-15335174D02*
X11414229Y-15297079D01*
X11414229Y-15297079D02*
X11423753Y-15278031D01*
X11423753Y-15278031D02*
X11433277Y-15268508D01*
X11433277Y-15268508D02*
X11452325Y-15258984D01*
X11585658Y-15258984D02*
X11718991Y-15258984D01*
X11718991Y-15258984D02*
X11633277Y-15458984D01*
X11804706Y-15458984D02*
X11842801Y-15458984D01*
X11842801Y-15458984D02*
X11861848Y-15449460D01*
X11861848Y-15449460D02*
X11871372Y-15439936D01*
X11871372Y-15439936D02*
X11890420Y-15411365D01*
X11890420Y-15411365D02*
X11899944Y-15373269D01*
X11899944Y-15373269D02*
X11899944Y-15297079D01*
X11899944Y-15297079D02*
X11890420Y-15278031D01*
X11890420Y-15278031D02*
X11880896Y-15268508D01*
X11880896Y-15268508D02*
X11861848Y-15258984D01*
X11861848Y-15258984D02*
X11823753Y-15258984D01*
X11823753Y-15258984D02*
X11804706Y-15268508D01*
X11804706Y-15268508D02*
X11795182Y-15278031D01*
X11795182Y-15278031D02*
X11785658Y-15297079D01*
X11785658Y-15297079D02*
X11785658Y-15344698D01*
X11785658Y-15344698D02*
X11795182Y-15363746D01*
X11795182Y-15363746D02*
X11804706Y-15373269D01*
X11804706Y-15373269D02*
X11823753Y-15382793D01*
X11823753Y-15382793D02*
X11861848Y-15382793D01*
X11861848Y-15382793D02*
X11880896Y-15373269D01*
X11880896Y-15373269D02*
X11890420Y-15363746D01*
X11890420Y-15363746D02*
X11899944Y-15344698D01*
X11976134Y-15258984D02*
X11976134Y-15297079D01*
X12052325Y-15258984D02*
X12052325Y-15297079D01*
X12347563Y-15535174D02*
X12338039Y-15525650D01*
X12338039Y-15525650D02*
X12318991Y-15497079D01*
X12318991Y-15497079D02*
X12309468Y-15478031D01*
X12309468Y-15478031D02*
X12299944Y-15449460D01*
X12299944Y-15449460D02*
X12290420Y-15401841D01*
X12290420Y-15401841D02*
X12290420Y-15363746D01*
X12290420Y-15363746D02*
X12299944Y-15316127D01*
X12299944Y-15316127D02*
X12309468Y-15287555D01*
X12309468Y-15287555D02*
X12318991Y-15268508D01*
X12318991Y-15268508D02*
X12338039Y-15239936D01*
X12338039Y-15239936D02*
X12347563Y-15230412D01*
X12528515Y-15458984D02*
X12414229Y-15458984D01*
X12471372Y-15458984D02*
X12471372Y-15258984D01*
X12471372Y-15258984D02*
X12452325Y-15287555D01*
X12452325Y-15287555D02*
X12433277Y-15306603D01*
X12433277Y-15306603D02*
X12414229Y-15316127D01*
X12604706Y-15278031D02*
X12614229Y-15268508D01*
X12614229Y-15268508D02*
X12633277Y-15258984D01*
X12633277Y-15258984D02*
X12680896Y-15258984D01*
X12680896Y-15258984D02*
X12699944Y-15268508D01*
X12699944Y-15268508D02*
X12709468Y-15278031D01*
X12709468Y-15278031D02*
X12718991Y-15297079D01*
X12718991Y-15297079D02*
X12718991Y-15316127D01*
X12718991Y-15316127D02*
X12709468Y-15344698D01*
X12709468Y-15344698D02*
X12595182Y-15458984D01*
X12595182Y-15458984D02*
X12718991Y-15458984D01*
X12957087Y-15458984D02*
X12957087Y-15258984D01*
X13042801Y-15458984D02*
X13042801Y-15354222D01*
X13042801Y-15354222D02*
X13033277Y-15335174D01*
X13033277Y-15335174D02*
X13014230Y-15325650D01*
X13014230Y-15325650D02*
X12985658Y-15325650D01*
X12985658Y-15325650D02*
X12966610Y-15335174D01*
X12966610Y-15335174D02*
X12957087Y-15344698D01*
X13166610Y-15458984D02*
X13147563Y-15449460D01*
X13147563Y-15449460D02*
X13138039Y-15439936D01*
X13138039Y-15439936D02*
X13128515Y-15420888D01*
X13128515Y-15420888D02*
X13128515Y-15363746D01*
X13128515Y-15363746D02*
X13138039Y-15344698D01*
X13138039Y-15344698D02*
X13147563Y-15335174D01*
X13147563Y-15335174D02*
X13166610Y-15325650D01*
X13166610Y-15325650D02*
X13195182Y-15325650D01*
X13195182Y-15325650D02*
X13214230Y-15335174D01*
X13214230Y-15335174D02*
X13223753Y-15344698D01*
X13223753Y-15344698D02*
X13233277Y-15363746D01*
X13233277Y-15363746D02*
X13233277Y-15420888D01*
X13233277Y-15420888D02*
X13223753Y-15439936D01*
X13223753Y-15439936D02*
X13214230Y-15449460D01*
X13214230Y-15449460D02*
X13195182Y-15458984D01*
X13195182Y-15458984D02*
X13166610Y-15458984D01*
X13347563Y-15458984D02*
X13328515Y-15449460D01*
X13328515Y-15449460D02*
X13318991Y-15430412D01*
X13318991Y-15430412D02*
X13318991Y-15258984D01*
X13499944Y-15449460D02*
X13480896Y-15458984D01*
X13480896Y-15458984D02*
X13442801Y-15458984D01*
X13442801Y-15458984D02*
X13423753Y-15449460D01*
X13423753Y-15449460D02*
X13414230Y-15430412D01*
X13414230Y-15430412D02*
X13414230Y-15354222D01*
X13414230Y-15354222D02*
X13423753Y-15335174D01*
X13423753Y-15335174D02*
X13442801Y-15325650D01*
X13442801Y-15325650D02*
X13480896Y-15325650D01*
X13480896Y-15325650D02*
X13499944Y-15335174D01*
X13499944Y-15335174D02*
X13509468Y-15354222D01*
X13509468Y-15354222D02*
X13509468Y-15373269D01*
X13509468Y-15373269D02*
X13414230Y-15392317D01*
X13585658Y-15449460D02*
X13604706Y-15458984D01*
X13604706Y-15458984D02*
X13642801Y-15458984D01*
X13642801Y-15458984D02*
X13661849Y-15449460D01*
X13661849Y-15449460D02*
X13671372Y-15430412D01*
X13671372Y-15430412D02*
X13671372Y-15420888D01*
X13671372Y-15420888D02*
X13661849Y-15401841D01*
X13661849Y-15401841D02*
X13642801Y-15392317D01*
X13642801Y-15392317D02*
X13614230Y-15392317D01*
X13614230Y-15392317D02*
X13595182Y-15382793D01*
X13595182Y-15382793D02*
X13585658Y-15363746D01*
X13585658Y-15363746D02*
X13585658Y-15354222D01*
X13585658Y-15354222D02*
X13595182Y-15335174D01*
X13595182Y-15335174D02*
X13614230Y-15325650D01*
X13614230Y-15325650D02*
X13642801Y-15325650D01*
X13642801Y-15325650D02*
X13661849Y-15335174D01*
X13738039Y-15535174D02*
X13747563Y-15525650D01*
X13747563Y-15525650D02*
X13766611Y-15497079D01*
X13766611Y-15497079D02*
X13776134Y-15478031D01*
X13776134Y-15478031D02*
X13785658Y-15449460D01*
X13785658Y-15449460D02*
X13795182Y-15401841D01*
X13795182Y-15401841D02*
X13795182Y-15363746D01*
X13795182Y-15363746D02*
X13785658Y-15316127D01*
X13785658Y-15316127D02*
X13776134Y-15287555D01*
X13776134Y-15287555D02*
X13766611Y-15268508D01*
X13766611Y-15268508D02*
X13747563Y-15239936D01*
X13747563Y-15239936D02*
X13738039Y-15230412D01*
D12*
X8772500Y-15631500D02*
G75*
G02*
X8742500Y-15631500I-15000J0D01*
G01*
X8742500Y-15631500D02*
G75*
G02*
X8772500Y-15631500I15000J0D01*
G01*
D11*
X9071372Y-15522984D02*
X9090420Y-15522984D01*
X9090420Y-15522984D02*
X9109467Y-15532508D01*
X9109467Y-15532508D02*
X9118991Y-15542031D01*
X9118991Y-15542031D02*
X9128515Y-15561079D01*
X9128515Y-15561079D02*
X9138039Y-15599174D01*
X9138039Y-15599174D02*
X9138039Y-15646793D01*
X9138039Y-15646793D02*
X9128515Y-15684888D01*
X9128515Y-15684888D02*
X9118991Y-15703936D01*
X9118991Y-15703936D02*
X9109467Y-15713460D01*
X9109467Y-15713460D02*
X9090420Y-15722984D01*
X9090420Y-15722984D02*
X9071372Y-15722984D01*
X9071372Y-15722984D02*
X9052324Y-15713460D01*
X9052324Y-15713460D02*
X9042801Y-15703936D01*
X9042801Y-15703936D02*
X9033277Y-15684888D01*
X9033277Y-15684888D02*
X9023753Y-15646793D01*
X9023753Y-15646793D02*
X9023753Y-15599174D01*
X9023753Y-15599174D02*
X9033277Y-15561079D01*
X9033277Y-15561079D02*
X9042801Y-15542031D01*
X9042801Y-15542031D02*
X9052324Y-15532508D01*
X9052324Y-15532508D02*
X9071372Y-15522984D01*
X9223753Y-15703936D02*
X9233277Y-15713460D01*
X9233277Y-15713460D02*
X9223753Y-15722984D01*
X9223753Y-15722984D02*
X9214229Y-15713460D01*
X9214229Y-15713460D02*
X9223753Y-15703936D01*
X9223753Y-15703936D02*
X9223753Y-15722984D01*
X9299944Y-15522984D02*
X9423753Y-15522984D01*
X9423753Y-15522984D02*
X9357086Y-15599174D01*
X9357086Y-15599174D02*
X9385658Y-15599174D01*
X9385658Y-15599174D02*
X9404705Y-15608698D01*
X9404705Y-15608698D02*
X9414229Y-15618222D01*
X9414229Y-15618222D02*
X9423753Y-15637269D01*
X9423753Y-15637269D02*
X9423753Y-15684888D01*
X9423753Y-15684888D02*
X9414229Y-15703936D01*
X9414229Y-15703936D02*
X9404705Y-15713460D01*
X9404705Y-15713460D02*
X9385658Y-15722984D01*
X9385658Y-15722984D02*
X9328515Y-15722984D01*
X9328515Y-15722984D02*
X9309467Y-15713460D01*
X9309467Y-15713460D02*
X9299944Y-15703936D01*
X9547563Y-15522984D02*
X9566610Y-15522984D01*
X9566610Y-15522984D02*
X9585658Y-15532508D01*
X9585658Y-15532508D02*
X9595182Y-15542031D01*
X9595182Y-15542031D02*
X9604705Y-15561079D01*
X9604705Y-15561079D02*
X9614229Y-15599174D01*
X9614229Y-15599174D02*
X9614229Y-15646793D01*
X9614229Y-15646793D02*
X9604705Y-15684888D01*
X9604705Y-15684888D02*
X9595182Y-15703936D01*
X9595182Y-15703936D02*
X9585658Y-15713460D01*
X9585658Y-15713460D02*
X9566610Y-15722984D01*
X9566610Y-15722984D02*
X9547563Y-15722984D01*
X9547563Y-15722984D02*
X9528515Y-15713460D01*
X9528515Y-15713460D02*
X9518991Y-15703936D01*
X9518991Y-15703936D02*
X9509467Y-15684888D01*
X9509467Y-15684888D02*
X9499944Y-15646793D01*
X9499944Y-15646793D02*
X9499944Y-15599174D01*
X9499944Y-15599174D02*
X9509467Y-15561079D01*
X9509467Y-15561079D02*
X9518991Y-15542031D01*
X9518991Y-15542031D02*
X9528515Y-15532508D01*
X9528515Y-15532508D02*
X9547563Y-15522984D01*
X9738039Y-15522984D02*
X9757086Y-15522984D01*
X9757086Y-15522984D02*
X9776134Y-15532508D01*
X9776134Y-15532508D02*
X9785658Y-15542031D01*
X9785658Y-15542031D02*
X9795182Y-15561079D01*
X9795182Y-15561079D02*
X9804705Y-15599174D01*
X9804705Y-15599174D02*
X9804705Y-15646793D01*
X9804705Y-15646793D02*
X9795182Y-15684888D01*
X9795182Y-15684888D02*
X9785658Y-15703936D01*
X9785658Y-15703936D02*
X9776134Y-15713460D01*
X9776134Y-15713460D02*
X9757086Y-15722984D01*
X9757086Y-15722984D02*
X9738039Y-15722984D01*
X9738039Y-15722984D02*
X9718991Y-15713460D01*
X9718991Y-15713460D02*
X9709467Y-15703936D01*
X9709467Y-15703936D02*
X9699944Y-15684888D01*
X9699944Y-15684888D02*
X9690420Y-15646793D01*
X9690420Y-15646793D02*
X9690420Y-15599174D01*
X9690420Y-15599174D02*
X9699944Y-15561079D01*
X9699944Y-15561079D02*
X9709467Y-15542031D01*
X9709467Y-15542031D02*
X9718991Y-15532508D01*
X9718991Y-15532508D02*
X9738039Y-15522984D01*
X9890420Y-15722984D02*
X9890420Y-15589650D01*
X9890420Y-15608698D02*
X9899944Y-15599174D01*
X9899944Y-15599174D02*
X9918991Y-15589650D01*
X9918991Y-15589650D02*
X9947563Y-15589650D01*
X9947563Y-15589650D02*
X9966610Y-15599174D01*
X9966610Y-15599174D02*
X9976134Y-15618222D01*
X9976134Y-15618222D02*
X9976134Y-15722984D01*
X9976134Y-15618222D02*
X9985658Y-15599174D01*
X9985658Y-15599174D02*
X10004705Y-15589650D01*
X10004705Y-15589650D02*
X10033277Y-15589650D01*
X10033277Y-15589650D02*
X10052325Y-15599174D01*
X10052325Y-15599174D02*
X10061848Y-15618222D01*
X10061848Y-15618222D02*
X10061848Y-15722984D01*
X10157086Y-15722984D02*
X10157086Y-15589650D01*
X10157086Y-15608698D02*
X10166610Y-15599174D01*
X10166610Y-15599174D02*
X10185658Y-15589650D01*
X10185658Y-15589650D02*
X10214229Y-15589650D01*
X10214229Y-15589650D02*
X10233277Y-15599174D01*
X10233277Y-15599174D02*
X10242801Y-15618222D01*
X10242801Y-15618222D02*
X10242801Y-15722984D01*
X10242801Y-15618222D02*
X10252325Y-15599174D01*
X10252325Y-15599174D02*
X10271372Y-15589650D01*
X10271372Y-15589650D02*
X10299944Y-15589650D01*
X10299944Y-15589650D02*
X10318991Y-15599174D01*
X10318991Y-15599174D02*
X10328515Y-15618222D01*
X10328515Y-15618222D02*
X10328515Y-15722984D01*
X10718991Y-15513460D02*
X10547563Y-15770603D01*
X10976134Y-15522984D02*
X10995182Y-15522984D01*
X10995182Y-15522984D02*
X11014229Y-15532508D01*
X11014229Y-15532508D02*
X11023753Y-15542031D01*
X11023753Y-15542031D02*
X11033277Y-15561079D01*
X11033277Y-15561079D02*
X11042801Y-15599174D01*
X11042801Y-15599174D02*
X11042801Y-15646793D01*
X11042801Y-15646793D02*
X11033277Y-15684888D01*
X11033277Y-15684888D02*
X11023753Y-15703936D01*
X11023753Y-15703936D02*
X11014229Y-15713460D01*
X11014229Y-15713460D02*
X10995182Y-15722984D01*
X10995182Y-15722984D02*
X10976134Y-15722984D01*
X10976134Y-15722984D02*
X10957087Y-15713460D01*
X10957087Y-15713460D02*
X10947563Y-15703936D01*
X10947563Y-15703936D02*
X10938039Y-15684888D01*
X10938039Y-15684888D02*
X10928515Y-15646793D01*
X10928515Y-15646793D02*
X10928515Y-15599174D01*
X10928515Y-15599174D02*
X10938039Y-15561079D01*
X10938039Y-15561079D02*
X10947563Y-15542031D01*
X10947563Y-15542031D02*
X10957087Y-15532508D01*
X10957087Y-15532508D02*
X10976134Y-15522984D01*
X11128515Y-15703936D02*
X11138039Y-15713460D01*
X11138039Y-15713460D02*
X11128515Y-15722984D01*
X11128515Y-15722984D02*
X11118991Y-15713460D01*
X11118991Y-15713460D02*
X11128515Y-15703936D01*
X11128515Y-15703936D02*
X11128515Y-15722984D01*
X11261848Y-15522984D02*
X11280896Y-15522984D01*
X11280896Y-15522984D02*
X11299944Y-15532508D01*
X11299944Y-15532508D02*
X11309467Y-15542031D01*
X11309467Y-15542031D02*
X11318991Y-15561079D01*
X11318991Y-15561079D02*
X11328515Y-15599174D01*
X11328515Y-15599174D02*
X11328515Y-15646793D01*
X11328515Y-15646793D02*
X11318991Y-15684888D01*
X11318991Y-15684888D02*
X11309467Y-15703936D01*
X11309467Y-15703936D02*
X11299944Y-15713460D01*
X11299944Y-15713460D02*
X11280896Y-15722984D01*
X11280896Y-15722984D02*
X11261848Y-15722984D01*
X11261848Y-15722984D02*
X11242801Y-15713460D01*
X11242801Y-15713460D02*
X11233277Y-15703936D01*
X11233277Y-15703936D02*
X11223753Y-15684888D01*
X11223753Y-15684888D02*
X11214229Y-15646793D01*
X11214229Y-15646793D02*
X11214229Y-15599174D01*
X11214229Y-15599174D02*
X11223753Y-15561079D01*
X11223753Y-15561079D02*
X11233277Y-15542031D01*
X11233277Y-15542031D02*
X11242801Y-15532508D01*
X11242801Y-15532508D02*
X11261848Y-15522984D01*
X11518991Y-15722984D02*
X11404706Y-15722984D01*
X11461848Y-15722984D02*
X11461848Y-15522984D01*
X11461848Y-15522984D02*
X11442801Y-15551555D01*
X11442801Y-15551555D02*
X11423753Y-15570603D01*
X11423753Y-15570603D02*
X11404706Y-15580127D01*
X11709467Y-15722984D02*
X11595182Y-15722984D01*
X11652325Y-15722984D02*
X11652325Y-15522984D01*
X11652325Y-15522984D02*
X11633277Y-15551555D01*
X11633277Y-15551555D02*
X11614229Y-15570603D01*
X11614229Y-15570603D02*
X11595182Y-15580127D01*
X11823753Y-15608698D02*
X11804706Y-15599174D01*
X11804706Y-15599174D02*
X11795182Y-15589650D01*
X11795182Y-15589650D02*
X11785658Y-15570603D01*
X11785658Y-15570603D02*
X11785658Y-15561079D01*
X11785658Y-15561079D02*
X11795182Y-15542031D01*
X11795182Y-15542031D02*
X11804706Y-15532508D01*
X11804706Y-15532508D02*
X11823753Y-15522984D01*
X11823753Y-15522984D02*
X11861848Y-15522984D01*
X11861848Y-15522984D02*
X11880896Y-15532508D01*
X11880896Y-15532508D02*
X11890420Y-15542031D01*
X11890420Y-15542031D02*
X11899944Y-15561079D01*
X11899944Y-15561079D02*
X11899944Y-15570603D01*
X11899944Y-15570603D02*
X11890420Y-15589650D01*
X11890420Y-15589650D02*
X11880896Y-15599174D01*
X11880896Y-15599174D02*
X11861848Y-15608698D01*
X11861848Y-15608698D02*
X11823753Y-15608698D01*
X11823753Y-15608698D02*
X11804706Y-15618222D01*
X11804706Y-15618222D02*
X11795182Y-15627746D01*
X11795182Y-15627746D02*
X11785658Y-15646793D01*
X11785658Y-15646793D02*
X11785658Y-15684888D01*
X11785658Y-15684888D02*
X11795182Y-15703936D01*
X11795182Y-15703936D02*
X11804706Y-15713460D01*
X11804706Y-15713460D02*
X11823753Y-15722984D01*
X11823753Y-15722984D02*
X11861848Y-15722984D01*
X11861848Y-15722984D02*
X11880896Y-15713460D01*
X11880896Y-15713460D02*
X11890420Y-15703936D01*
X11890420Y-15703936D02*
X11899944Y-15684888D01*
X11899944Y-15684888D02*
X11899944Y-15646793D01*
X11899944Y-15646793D02*
X11890420Y-15627746D01*
X11890420Y-15627746D02*
X11880896Y-15618222D01*
X11880896Y-15618222D02*
X11861848Y-15608698D01*
X11976134Y-15522984D02*
X11976134Y-15561079D01*
X12052325Y-15522984D02*
X12052325Y-15561079D01*
X12347563Y-15799174D02*
X12338039Y-15789650D01*
X12338039Y-15789650D02*
X12318991Y-15761079D01*
X12318991Y-15761079D02*
X12309468Y-15742031D01*
X12309468Y-15742031D02*
X12299944Y-15713460D01*
X12299944Y-15713460D02*
X12290420Y-15665841D01*
X12290420Y-15665841D02*
X12290420Y-15627746D01*
X12290420Y-15627746D02*
X12299944Y-15580127D01*
X12299944Y-15580127D02*
X12309468Y-15551555D01*
X12309468Y-15551555D02*
X12318991Y-15532508D01*
X12318991Y-15532508D02*
X12338039Y-15503936D01*
X12338039Y-15503936D02*
X12347563Y-15494412D01*
X12509468Y-15589650D02*
X12509468Y-15722984D01*
X12461848Y-15513460D02*
X12414229Y-15656317D01*
X12414229Y-15656317D02*
X12538039Y-15656317D01*
X12709468Y-15522984D02*
X12614229Y-15522984D01*
X12614229Y-15522984D02*
X12604706Y-15618222D01*
X12604706Y-15618222D02*
X12614229Y-15608698D01*
X12614229Y-15608698D02*
X12633277Y-15599174D01*
X12633277Y-15599174D02*
X12680896Y-15599174D01*
X12680896Y-15599174D02*
X12699944Y-15608698D01*
X12699944Y-15608698D02*
X12709468Y-15618222D01*
X12709468Y-15618222D02*
X12718991Y-15637269D01*
X12718991Y-15637269D02*
X12718991Y-15684888D01*
X12718991Y-15684888D02*
X12709468Y-15703936D01*
X12709468Y-15703936D02*
X12699944Y-15713460D01*
X12699944Y-15713460D02*
X12680896Y-15722984D01*
X12680896Y-15722984D02*
X12633277Y-15722984D01*
X12633277Y-15722984D02*
X12614229Y-15713460D01*
X12614229Y-15713460D02*
X12604706Y-15703936D01*
X12957087Y-15722984D02*
X12957087Y-15522984D01*
X13042801Y-15722984D02*
X13042801Y-15618222D01*
X13042801Y-15618222D02*
X13033277Y-15599174D01*
X13033277Y-15599174D02*
X13014230Y-15589650D01*
X13014230Y-15589650D02*
X12985658Y-15589650D01*
X12985658Y-15589650D02*
X12966610Y-15599174D01*
X12966610Y-15599174D02*
X12957087Y-15608698D01*
X13166610Y-15722984D02*
X13147563Y-15713460D01*
X13147563Y-15713460D02*
X13138039Y-15703936D01*
X13138039Y-15703936D02*
X13128515Y-15684888D01*
X13128515Y-15684888D02*
X13128515Y-15627746D01*
X13128515Y-15627746D02*
X13138039Y-15608698D01*
X13138039Y-15608698D02*
X13147563Y-15599174D01*
X13147563Y-15599174D02*
X13166610Y-15589650D01*
X13166610Y-15589650D02*
X13195182Y-15589650D01*
X13195182Y-15589650D02*
X13214230Y-15599174D01*
X13214230Y-15599174D02*
X13223753Y-15608698D01*
X13223753Y-15608698D02*
X13233277Y-15627746D01*
X13233277Y-15627746D02*
X13233277Y-15684888D01*
X13233277Y-15684888D02*
X13223753Y-15703936D01*
X13223753Y-15703936D02*
X13214230Y-15713460D01*
X13214230Y-15713460D02*
X13195182Y-15722984D01*
X13195182Y-15722984D02*
X13166610Y-15722984D01*
X13347563Y-15722984D02*
X13328515Y-15713460D01*
X13328515Y-15713460D02*
X13318991Y-15694412D01*
X13318991Y-15694412D02*
X13318991Y-15522984D01*
X13499944Y-15713460D02*
X13480896Y-15722984D01*
X13480896Y-15722984D02*
X13442801Y-15722984D01*
X13442801Y-15722984D02*
X13423753Y-15713460D01*
X13423753Y-15713460D02*
X13414230Y-15694412D01*
X13414230Y-15694412D02*
X13414230Y-15618222D01*
X13414230Y-15618222D02*
X13423753Y-15599174D01*
X13423753Y-15599174D02*
X13442801Y-15589650D01*
X13442801Y-15589650D02*
X13480896Y-15589650D01*
X13480896Y-15589650D02*
X13499944Y-15599174D01*
X13499944Y-15599174D02*
X13509468Y-15618222D01*
X13509468Y-15618222D02*
X13509468Y-15637269D01*
X13509468Y-15637269D02*
X13414230Y-15656317D01*
X13585658Y-15713460D02*
X13604706Y-15722984D01*
X13604706Y-15722984D02*
X13642801Y-15722984D01*
X13642801Y-15722984D02*
X13661849Y-15713460D01*
X13661849Y-15713460D02*
X13671372Y-15694412D01*
X13671372Y-15694412D02*
X13671372Y-15684888D01*
X13671372Y-15684888D02*
X13661849Y-15665841D01*
X13661849Y-15665841D02*
X13642801Y-15656317D01*
X13642801Y-15656317D02*
X13614230Y-15656317D01*
X13614230Y-15656317D02*
X13595182Y-15646793D01*
X13595182Y-15646793D02*
X13585658Y-15627746D01*
X13585658Y-15627746D02*
X13585658Y-15618222D01*
X13585658Y-15618222D02*
X13595182Y-15599174D01*
X13595182Y-15599174D02*
X13614230Y-15589650D01*
X13614230Y-15589650D02*
X13642801Y-15589650D01*
X13642801Y-15589650D02*
X13661849Y-15599174D01*
X13738039Y-15799174D02*
X13747563Y-15789650D01*
X13747563Y-15789650D02*
X13766611Y-15761079D01*
X13766611Y-15761079D02*
X13776134Y-15742031D01*
X13776134Y-15742031D02*
X13785658Y-15713460D01*
X13785658Y-15713460D02*
X13795182Y-15665841D01*
X13795182Y-15665841D02*
X13795182Y-15627746D01*
X13795182Y-15627746D02*
X13785658Y-15580127D01*
X13785658Y-15580127D02*
X13776134Y-15551555D01*
X13776134Y-15551555D02*
X13766611Y-15532508D01*
X13766611Y-15532508D02*
X13747563Y-15503936D01*
X13747563Y-15503936D02*
X13738039Y-15494412D01*
D12*
X8725000Y-15848000D02*
X8725000Y-15943000D01*
X8677500Y-15895500D02*
X8772500Y-15895500D01*
D11*
X9071372Y-15786984D02*
X9090420Y-15786984D01*
X9090420Y-15786984D02*
X9109467Y-15796508D01*
X9109467Y-15796508D02*
X9118991Y-15806031D01*
X9118991Y-15806031D02*
X9128515Y-15825079D01*
X9128515Y-15825079D02*
X9138039Y-15863174D01*
X9138039Y-15863174D02*
X9138039Y-15910793D01*
X9138039Y-15910793D02*
X9128515Y-15948888D01*
X9128515Y-15948888D02*
X9118991Y-15967936D01*
X9118991Y-15967936D02*
X9109467Y-15977460D01*
X9109467Y-15977460D02*
X9090420Y-15986984D01*
X9090420Y-15986984D02*
X9071372Y-15986984D01*
X9071372Y-15986984D02*
X9052324Y-15977460D01*
X9052324Y-15977460D02*
X9042801Y-15967936D01*
X9042801Y-15967936D02*
X9033277Y-15948888D01*
X9033277Y-15948888D02*
X9023753Y-15910793D01*
X9023753Y-15910793D02*
X9023753Y-15863174D01*
X9023753Y-15863174D02*
X9033277Y-15825079D01*
X9033277Y-15825079D02*
X9042801Y-15806031D01*
X9042801Y-15806031D02*
X9052324Y-15796508D01*
X9052324Y-15796508D02*
X9071372Y-15786984D01*
X9223753Y-15967936D02*
X9233277Y-15977460D01*
X9233277Y-15977460D02*
X9223753Y-15986984D01*
X9223753Y-15986984D02*
X9214229Y-15977460D01*
X9214229Y-15977460D02*
X9223753Y-15967936D01*
X9223753Y-15967936D02*
X9223753Y-15986984D01*
X9328515Y-15986984D02*
X9366610Y-15986984D01*
X9366610Y-15986984D02*
X9385658Y-15977460D01*
X9385658Y-15977460D02*
X9395182Y-15967936D01*
X9395182Y-15967936D02*
X9414229Y-15939365D01*
X9414229Y-15939365D02*
X9423753Y-15901269D01*
X9423753Y-15901269D02*
X9423753Y-15825079D01*
X9423753Y-15825079D02*
X9414229Y-15806031D01*
X9414229Y-15806031D02*
X9404705Y-15796508D01*
X9404705Y-15796508D02*
X9385658Y-15786984D01*
X9385658Y-15786984D02*
X9347563Y-15786984D01*
X9347563Y-15786984D02*
X9328515Y-15796508D01*
X9328515Y-15796508D02*
X9318991Y-15806031D01*
X9318991Y-15806031D02*
X9309467Y-15825079D01*
X9309467Y-15825079D02*
X9309467Y-15872698D01*
X9309467Y-15872698D02*
X9318991Y-15891746D01*
X9318991Y-15891746D02*
X9328515Y-15901269D01*
X9328515Y-15901269D02*
X9347563Y-15910793D01*
X9347563Y-15910793D02*
X9385658Y-15910793D01*
X9385658Y-15910793D02*
X9404705Y-15901269D01*
X9404705Y-15901269D02*
X9414229Y-15891746D01*
X9414229Y-15891746D02*
X9423753Y-15872698D01*
X9604705Y-15786984D02*
X9509467Y-15786984D01*
X9509467Y-15786984D02*
X9499944Y-15882222D01*
X9499944Y-15882222D02*
X9509467Y-15872698D01*
X9509467Y-15872698D02*
X9528515Y-15863174D01*
X9528515Y-15863174D02*
X9576134Y-15863174D01*
X9576134Y-15863174D02*
X9595182Y-15872698D01*
X9595182Y-15872698D02*
X9604705Y-15882222D01*
X9604705Y-15882222D02*
X9614229Y-15901269D01*
X9614229Y-15901269D02*
X9614229Y-15948888D01*
X9614229Y-15948888D02*
X9604705Y-15967936D01*
X9604705Y-15967936D02*
X9595182Y-15977460D01*
X9595182Y-15977460D02*
X9576134Y-15986984D01*
X9576134Y-15986984D02*
X9528515Y-15986984D01*
X9528515Y-15986984D02*
X9509467Y-15977460D01*
X9509467Y-15977460D02*
X9499944Y-15967936D01*
X9738039Y-15786984D02*
X9757086Y-15786984D01*
X9757086Y-15786984D02*
X9776134Y-15796508D01*
X9776134Y-15796508D02*
X9785658Y-15806031D01*
X9785658Y-15806031D02*
X9795182Y-15825079D01*
X9795182Y-15825079D02*
X9804705Y-15863174D01*
X9804705Y-15863174D02*
X9804705Y-15910793D01*
X9804705Y-15910793D02*
X9795182Y-15948888D01*
X9795182Y-15948888D02*
X9785658Y-15967936D01*
X9785658Y-15967936D02*
X9776134Y-15977460D01*
X9776134Y-15977460D02*
X9757086Y-15986984D01*
X9757086Y-15986984D02*
X9738039Y-15986984D01*
X9738039Y-15986984D02*
X9718991Y-15977460D01*
X9718991Y-15977460D02*
X9709467Y-15967936D01*
X9709467Y-15967936D02*
X9699944Y-15948888D01*
X9699944Y-15948888D02*
X9690420Y-15910793D01*
X9690420Y-15910793D02*
X9690420Y-15863174D01*
X9690420Y-15863174D02*
X9699944Y-15825079D01*
X9699944Y-15825079D02*
X9709467Y-15806031D01*
X9709467Y-15806031D02*
X9718991Y-15796508D01*
X9718991Y-15796508D02*
X9738039Y-15786984D01*
X9890420Y-15986984D02*
X9890420Y-15853650D01*
X9890420Y-15872698D02*
X9899944Y-15863174D01*
X9899944Y-15863174D02*
X9918991Y-15853650D01*
X9918991Y-15853650D02*
X9947563Y-15853650D01*
X9947563Y-15853650D02*
X9966610Y-15863174D01*
X9966610Y-15863174D02*
X9976134Y-15882222D01*
X9976134Y-15882222D02*
X9976134Y-15986984D01*
X9976134Y-15882222D02*
X9985658Y-15863174D01*
X9985658Y-15863174D02*
X10004705Y-15853650D01*
X10004705Y-15853650D02*
X10033277Y-15853650D01*
X10033277Y-15853650D02*
X10052325Y-15863174D01*
X10052325Y-15863174D02*
X10061848Y-15882222D01*
X10061848Y-15882222D02*
X10061848Y-15986984D01*
X10157086Y-15986984D02*
X10157086Y-15853650D01*
X10157086Y-15872698D02*
X10166610Y-15863174D01*
X10166610Y-15863174D02*
X10185658Y-15853650D01*
X10185658Y-15853650D02*
X10214229Y-15853650D01*
X10214229Y-15853650D02*
X10233277Y-15863174D01*
X10233277Y-15863174D02*
X10242801Y-15882222D01*
X10242801Y-15882222D02*
X10242801Y-15986984D01*
X10242801Y-15882222D02*
X10252325Y-15863174D01*
X10252325Y-15863174D02*
X10271372Y-15853650D01*
X10271372Y-15853650D02*
X10299944Y-15853650D01*
X10299944Y-15853650D02*
X10318991Y-15863174D01*
X10318991Y-15863174D02*
X10328515Y-15882222D01*
X10328515Y-15882222D02*
X10328515Y-15986984D01*
X10718991Y-15777460D02*
X10547563Y-16034603D01*
X10976134Y-15786984D02*
X10995182Y-15786984D01*
X10995182Y-15786984D02*
X11014229Y-15796508D01*
X11014229Y-15796508D02*
X11023753Y-15806031D01*
X11023753Y-15806031D02*
X11033277Y-15825079D01*
X11033277Y-15825079D02*
X11042801Y-15863174D01*
X11042801Y-15863174D02*
X11042801Y-15910793D01*
X11042801Y-15910793D02*
X11033277Y-15948888D01*
X11033277Y-15948888D02*
X11023753Y-15967936D01*
X11023753Y-15967936D02*
X11014229Y-15977460D01*
X11014229Y-15977460D02*
X10995182Y-15986984D01*
X10995182Y-15986984D02*
X10976134Y-15986984D01*
X10976134Y-15986984D02*
X10957087Y-15977460D01*
X10957087Y-15977460D02*
X10947563Y-15967936D01*
X10947563Y-15967936D02*
X10938039Y-15948888D01*
X10938039Y-15948888D02*
X10928515Y-15910793D01*
X10928515Y-15910793D02*
X10928515Y-15863174D01*
X10928515Y-15863174D02*
X10938039Y-15825079D01*
X10938039Y-15825079D02*
X10947563Y-15806031D01*
X10947563Y-15806031D02*
X10957087Y-15796508D01*
X10957087Y-15796508D02*
X10976134Y-15786984D01*
X11128515Y-15967936D02*
X11138039Y-15977460D01*
X11138039Y-15977460D02*
X11128515Y-15986984D01*
X11128515Y-15986984D02*
X11118991Y-15977460D01*
X11118991Y-15977460D02*
X11128515Y-15967936D01*
X11128515Y-15967936D02*
X11128515Y-15986984D01*
X11261848Y-15786984D02*
X11280896Y-15786984D01*
X11280896Y-15786984D02*
X11299944Y-15796508D01*
X11299944Y-15796508D02*
X11309467Y-15806031D01*
X11309467Y-15806031D02*
X11318991Y-15825079D01*
X11318991Y-15825079D02*
X11328515Y-15863174D01*
X11328515Y-15863174D02*
X11328515Y-15910793D01*
X11328515Y-15910793D02*
X11318991Y-15948888D01*
X11318991Y-15948888D02*
X11309467Y-15967936D01*
X11309467Y-15967936D02*
X11299944Y-15977460D01*
X11299944Y-15977460D02*
X11280896Y-15986984D01*
X11280896Y-15986984D02*
X11261848Y-15986984D01*
X11261848Y-15986984D02*
X11242801Y-15977460D01*
X11242801Y-15977460D02*
X11233277Y-15967936D01*
X11233277Y-15967936D02*
X11223753Y-15948888D01*
X11223753Y-15948888D02*
X11214229Y-15910793D01*
X11214229Y-15910793D02*
X11214229Y-15863174D01*
X11214229Y-15863174D02*
X11223753Y-15825079D01*
X11223753Y-15825079D02*
X11233277Y-15806031D01*
X11233277Y-15806031D02*
X11242801Y-15796508D01*
X11242801Y-15796508D02*
X11261848Y-15786984D01*
X11395182Y-15786984D02*
X11518991Y-15786984D01*
X11518991Y-15786984D02*
X11452325Y-15863174D01*
X11452325Y-15863174D02*
X11480896Y-15863174D01*
X11480896Y-15863174D02*
X11499944Y-15872698D01*
X11499944Y-15872698D02*
X11509467Y-15882222D01*
X11509467Y-15882222D02*
X11518991Y-15901269D01*
X11518991Y-15901269D02*
X11518991Y-15948888D01*
X11518991Y-15948888D02*
X11509467Y-15967936D01*
X11509467Y-15967936D02*
X11499944Y-15977460D01*
X11499944Y-15977460D02*
X11480896Y-15986984D01*
X11480896Y-15986984D02*
X11423753Y-15986984D01*
X11423753Y-15986984D02*
X11404706Y-15977460D01*
X11404706Y-15977460D02*
X11395182Y-15967936D01*
X11585658Y-15786984D02*
X11718991Y-15786984D01*
X11718991Y-15786984D02*
X11633277Y-15986984D01*
X11880896Y-15853650D02*
X11880896Y-15986984D01*
X11833277Y-15777460D02*
X11785658Y-15920317D01*
X11785658Y-15920317D02*
X11909467Y-15920317D01*
X11976134Y-15786984D02*
X11976134Y-15825079D01*
X12052325Y-15786984D02*
X12052325Y-15825079D01*
X12347563Y-16063174D02*
X12338039Y-16053650D01*
X12338039Y-16053650D02*
X12318991Y-16025079D01*
X12318991Y-16025079D02*
X12309468Y-16006031D01*
X12309468Y-16006031D02*
X12299944Y-15977460D01*
X12299944Y-15977460D02*
X12290420Y-15929841D01*
X12290420Y-15929841D02*
X12290420Y-15891746D01*
X12290420Y-15891746D02*
X12299944Y-15844127D01*
X12299944Y-15844127D02*
X12309468Y-15815555D01*
X12309468Y-15815555D02*
X12318991Y-15796508D01*
X12318991Y-15796508D02*
X12338039Y-15767936D01*
X12338039Y-15767936D02*
X12347563Y-15758412D01*
X12414229Y-15806031D02*
X12423753Y-15796508D01*
X12423753Y-15796508D02*
X12442801Y-15786984D01*
X12442801Y-15786984D02*
X12490420Y-15786984D01*
X12490420Y-15786984D02*
X12509468Y-15796508D01*
X12509468Y-15796508D02*
X12518991Y-15806031D01*
X12518991Y-15806031D02*
X12528515Y-15825079D01*
X12528515Y-15825079D02*
X12528515Y-15844127D01*
X12528515Y-15844127D02*
X12518991Y-15872698D01*
X12518991Y-15872698D02*
X12404706Y-15986984D01*
X12404706Y-15986984D02*
X12528515Y-15986984D01*
X12699944Y-15786984D02*
X12661848Y-15786984D01*
X12661848Y-15786984D02*
X12642801Y-15796508D01*
X12642801Y-15796508D02*
X12633277Y-15806031D01*
X12633277Y-15806031D02*
X12614229Y-15834603D01*
X12614229Y-15834603D02*
X12604706Y-15872698D01*
X12604706Y-15872698D02*
X12604706Y-15948888D01*
X12604706Y-15948888D02*
X12614229Y-15967936D01*
X12614229Y-15967936D02*
X12623753Y-15977460D01*
X12623753Y-15977460D02*
X12642801Y-15986984D01*
X12642801Y-15986984D02*
X12680896Y-15986984D01*
X12680896Y-15986984D02*
X12699944Y-15977460D01*
X12699944Y-15977460D02*
X12709468Y-15967936D01*
X12709468Y-15967936D02*
X12718991Y-15948888D01*
X12718991Y-15948888D02*
X12718991Y-15901269D01*
X12718991Y-15901269D02*
X12709468Y-15882222D01*
X12709468Y-15882222D02*
X12699944Y-15872698D01*
X12699944Y-15872698D02*
X12680896Y-15863174D01*
X12680896Y-15863174D02*
X12642801Y-15863174D01*
X12642801Y-15863174D02*
X12623753Y-15872698D01*
X12623753Y-15872698D02*
X12614229Y-15882222D01*
X12614229Y-15882222D02*
X12604706Y-15901269D01*
X12957087Y-15986984D02*
X12957087Y-15786984D01*
X13042801Y-15986984D02*
X13042801Y-15882222D01*
X13042801Y-15882222D02*
X13033277Y-15863174D01*
X13033277Y-15863174D02*
X13014230Y-15853650D01*
X13014230Y-15853650D02*
X12985658Y-15853650D01*
X12985658Y-15853650D02*
X12966610Y-15863174D01*
X12966610Y-15863174D02*
X12957087Y-15872698D01*
X13166610Y-15986984D02*
X13147563Y-15977460D01*
X13147563Y-15977460D02*
X13138039Y-15967936D01*
X13138039Y-15967936D02*
X13128515Y-15948888D01*
X13128515Y-15948888D02*
X13128515Y-15891746D01*
X13128515Y-15891746D02*
X13138039Y-15872698D01*
X13138039Y-15872698D02*
X13147563Y-15863174D01*
X13147563Y-15863174D02*
X13166610Y-15853650D01*
X13166610Y-15853650D02*
X13195182Y-15853650D01*
X13195182Y-15853650D02*
X13214230Y-15863174D01*
X13214230Y-15863174D02*
X13223753Y-15872698D01*
X13223753Y-15872698D02*
X13233277Y-15891746D01*
X13233277Y-15891746D02*
X13233277Y-15948888D01*
X13233277Y-15948888D02*
X13223753Y-15967936D01*
X13223753Y-15967936D02*
X13214230Y-15977460D01*
X13214230Y-15977460D02*
X13195182Y-15986984D01*
X13195182Y-15986984D02*
X13166610Y-15986984D01*
X13347563Y-15986984D02*
X13328515Y-15977460D01*
X13328515Y-15977460D02*
X13318991Y-15958412D01*
X13318991Y-15958412D02*
X13318991Y-15786984D01*
X13499944Y-15977460D02*
X13480896Y-15986984D01*
X13480896Y-15986984D02*
X13442801Y-15986984D01*
X13442801Y-15986984D02*
X13423753Y-15977460D01*
X13423753Y-15977460D02*
X13414230Y-15958412D01*
X13414230Y-15958412D02*
X13414230Y-15882222D01*
X13414230Y-15882222D02*
X13423753Y-15863174D01*
X13423753Y-15863174D02*
X13442801Y-15853650D01*
X13442801Y-15853650D02*
X13480896Y-15853650D01*
X13480896Y-15853650D02*
X13499944Y-15863174D01*
X13499944Y-15863174D02*
X13509468Y-15882222D01*
X13509468Y-15882222D02*
X13509468Y-15901269D01*
X13509468Y-15901269D02*
X13414230Y-15920317D01*
X13585658Y-15977460D02*
X13604706Y-15986984D01*
X13604706Y-15986984D02*
X13642801Y-15986984D01*
X13642801Y-15986984D02*
X13661849Y-15977460D01*
X13661849Y-15977460D02*
X13671372Y-15958412D01*
X13671372Y-15958412D02*
X13671372Y-15948888D01*
X13671372Y-15948888D02*
X13661849Y-15929841D01*
X13661849Y-15929841D02*
X13642801Y-15920317D01*
X13642801Y-15920317D02*
X13614230Y-15920317D01*
X13614230Y-15920317D02*
X13595182Y-15910793D01*
X13595182Y-15910793D02*
X13585658Y-15891746D01*
X13585658Y-15891746D02*
X13585658Y-15882222D01*
X13585658Y-15882222D02*
X13595182Y-15863174D01*
X13595182Y-15863174D02*
X13614230Y-15853650D01*
X13614230Y-15853650D02*
X13642801Y-15853650D01*
X13642801Y-15853650D02*
X13661849Y-15863174D01*
X13738039Y-16063174D02*
X13747563Y-16053650D01*
X13747563Y-16053650D02*
X13766611Y-16025079D01*
X13766611Y-16025079D02*
X13776134Y-16006031D01*
X13776134Y-16006031D02*
X13785658Y-15977460D01*
X13785658Y-15977460D02*
X13795182Y-15929841D01*
X13795182Y-15929841D02*
X13795182Y-15891746D01*
X13795182Y-15891746D02*
X13785658Y-15844127D01*
X13785658Y-15844127D02*
X13776134Y-15815555D01*
X13776134Y-15815555D02*
X13766611Y-15796508D01*
X13766611Y-15796508D02*
X13747563Y-15767936D01*
X13747563Y-15767936D02*
X13738039Y-15758412D01*
D12*
X8757856Y-16194856D02*
X8757856Y-16124144D01*
X8687144Y-16124144D01*
X8687144Y-16194856D01*
X8757856Y-16194856D01*
D11*
X9138039Y-16250984D02*
X9023753Y-16250984D01*
X9080896Y-16250984D02*
X9080896Y-16050984D01*
X9080896Y-16050984D02*
X9061848Y-16079555D01*
X9061848Y-16079555D02*
X9042801Y-16098603D01*
X9042801Y-16098603D02*
X9023753Y-16108127D01*
X9223753Y-16231936D02*
X9233277Y-16241460D01*
X9233277Y-16241460D02*
X9223753Y-16250984D01*
X9223753Y-16250984D02*
X9214229Y-16241460D01*
X9214229Y-16241460D02*
X9223753Y-16231936D01*
X9223753Y-16231936D02*
X9223753Y-16250984D01*
X9357086Y-16050984D02*
X9376134Y-16050984D01*
X9376134Y-16050984D02*
X9395182Y-16060508D01*
X9395182Y-16060508D02*
X9404705Y-16070031D01*
X9404705Y-16070031D02*
X9414229Y-16089079D01*
X9414229Y-16089079D02*
X9423753Y-16127174D01*
X9423753Y-16127174D02*
X9423753Y-16174793D01*
X9423753Y-16174793D02*
X9414229Y-16212888D01*
X9414229Y-16212888D02*
X9404705Y-16231936D01*
X9404705Y-16231936D02*
X9395182Y-16241460D01*
X9395182Y-16241460D02*
X9376134Y-16250984D01*
X9376134Y-16250984D02*
X9357086Y-16250984D01*
X9357086Y-16250984D02*
X9338039Y-16241460D01*
X9338039Y-16241460D02*
X9328515Y-16231936D01*
X9328515Y-16231936D02*
X9318991Y-16212888D01*
X9318991Y-16212888D02*
X9309467Y-16174793D01*
X9309467Y-16174793D02*
X9309467Y-16127174D01*
X9309467Y-16127174D02*
X9318991Y-16089079D01*
X9318991Y-16089079D02*
X9328515Y-16070031D01*
X9328515Y-16070031D02*
X9338039Y-16060508D01*
X9338039Y-16060508D02*
X9357086Y-16050984D01*
X9547563Y-16050984D02*
X9566610Y-16050984D01*
X9566610Y-16050984D02*
X9585658Y-16060508D01*
X9585658Y-16060508D02*
X9595182Y-16070031D01*
X9595182Y-16070031D02*
X9604705Y-16089079D01*
X9604705Y-16089079D02*
X9614229Y-16127174D01*
X9614229Y-16127174D02*
X9614229Y-16174793D01*
X9614229Y-16174793D02*
X9604705Y-16212888D01*
X9604705Y-16212888D02*
X9595182Y-16231936D01*
X9595182Y-16231936D02*
X9585658Y-16241460D01*
X9585658Y-16241460D02*
X9566610Y-16250984D01*
X9566610Y-16250984D02*
X9547563Y-16250984D01*
X9547563Y-16250984D02*
X9528515Y-16241460D01*
X9528515Y-16241460D02*
X9518991Y-16231936D01*
X9518991Y-16231936D02*
X9509467Y-16212888D01*
X9509467Y-16212888D02*
X9499944Y-16174793D01*
X9499944Y-16174793D02*
X9499944Y-16127174D01*
X9499944Y-16127174D02*
X9509467Y-16089079D01*
X9509467Y-16089079D02*
X9518991Y-16070031D01*
X9518991Y-16070031D02*
X9528515Y-16060508D01*
X9528515Y-16060508D02*
X9547563Y-16050984D01*
X9738039Y-16050984D02*
X9757086Y-16050984D01*
X9757086Y-16050984D02*
X9776134Y-16060508D01*
X9776134Y-16060508D02*
X9785658Y-16070031D01*
X9785658Y-16070031D02*
X9795182Y-16089079D01*
X9795182Y-16089079D02*
X9804705Y-16127174D01*
X9804705Y-16127174D02*
X9804705Y-16174793D01*
X9804705Y-16174793D02*
X9795182Y-16212888D01*
X9795182Y-16212888D02*
X9785658Y-16231936D01*
X9785658Y-16231936D02*
X9776134Y-16241460D01*
X9776134Y-16241460D02*
X9757086Y-16250984D01*
X9757086Y-16250984D02*
X9738039Y-16250984D01*
X9738039Y-16250984D02*
X9718991Y-16241460D01*
X9718991Y-16241460D02*
X9709467Y-16231936D01*
X9709467Y-16231936D02*
X9699944Y-16212888D01*
X9699944Y-16212888D02*
X9690420Y-16174793D01*
X9690420Y-16174793D02*
X9690420Y-16127174D01*
X9690420Y-16127174D02*
X9699944Y-16089079D01*
X9699944Y-16089079D02*
X9709467Y-16070031D01*
X9709467Y-16070031D02*
X9718991Y-16060508D01*
X9718991Y-16060508D02*
X9738039Y-16050984D01*
X9890420Y-16250984D02*
X9890420Y-16117650D01*
X9890420Y-16136698D02*
X9899944Y-16127174D01*
X9899944Y-16127174D02*
X9918991Y-16117650D01*
X9918991Y-16117650D02*
X9947563Y-16117650D01*
X9947563Y-16117650D02*
X9966610Y-16127174D01*
X9966610Y-16127174D02*
X9976134Y-16146222D01*
X9976134Y-16146222D02*
X9976134Y-16250984D01*
X9976134Y-16146222D02*
X9985658Y-16127174D01*
X9985658Y-16127174D02*
X10004705Y-16117650D01*
X10004705Y-16117650D02*
X10033277Y-16117650D01*
X10033277Y-16117650D02*
X10052325Y-16127174D01*
X10052325Y-16127174D02*
X10061848Y-16146222D01*
X10061848Y-16146222D02*
X10061848Y-16250984D01*
X10157086Y-16250984D02*
X10157086Y-16117650D01*
X10157086Y-16136698D02*
X10166610Y-16127174D01*
X10166610Y-16127174D02*
X10185658Y-16117650D01*
X10185658Y-16117650D02*
X10214229Y-16117650D01*
X10214229Y-16117650D02*
X10233277Y-16127174D01*
X10233277Y-16127174D02*
X10242801Y-16146222D01*
X10242801Y-16146222D02*
X10242801Y-16250984D01*
X10242801Y-16146222D02*
X10252325Y-16127174D01*
X10252325Y-16127174D02*
X10271372Y-16117650D01*
X10271372Y-16117650D02*
X10299944Y-16117650D01*
X10299944Y-16117650D02*
X10318991Y-16127174D01*
X10318991Y-16127174D02*
X10328515Y-16146222D01*
X10328515Y-16146222D02*
X10328515Y-16250984D01*
X10718991Y-16041460D02*
X10547563Y-16298603D01*
X10976134Y-16050984D02*
X10995182Y-16050984D01*
X10995182Y-16050984D02*
X11014229Y-16060508D01*
X11014229Y-16060508D02*
X11023753Y-16070031D01*
X11023753Y-16070031D02*
X11033277Y-16089079D01*
X11033277Y-16089079D02*
X11042801Y-16127174D01*
X11042801Y-16127174D02*
X11042801Y-16174793D01*
X11042801Y-16174793D02*
X11033277Y-16212888D01*
X11033277Y-16212888D02*
X11023753Y-16231936D01*
X11023753Y-16231936D02*
X11014229Y-16241460D01*
X11014229Y-16241460D02*
X10995182Y-16250984D01*
X10995182Y-16250984D02*
X10976134Y-16250984D01*
X10976134Y-16250984D02*
X10957087Y-16241460D01*
X10957087Y-16241460D02*
X10947563Y-16231936D01*
X10947563Y-16231936D02*
X10938039Y-16212888D01*
X10938039Y-16212888D02*
X10928515Y-16174793D01*
X10928515Y-16174793D02*
X10928515Y-16127174D01*
X10928515Y-16127174D02*
X10938039Y-16089079D01*
X10938039Y-16089079D02*
X10947563Y-16070031D01*
X10947563Y-16070031D02*
X10957087Y-16060508D01*
X10957087Y-16060508D02*
X10976134Y-16050984D01*
X11128515Y-16231936D02*
X11138039Y-16241460D01*
X11138039Y-16241460D02*
X11128515Y-16250984D01*
X11128515Y-16250984D02*
X11118991Y-16241460D01*
X11118991Y-16241460D02*
X11128515Y-16231936D01*
X11128515Y-16231936D02*
X11128515Y-16250984D01*
X11261848Y-16050984D02*
X11280896Y-16050984D01*
X11280896Y-16050984D02*
X11299944Y-16060508D01*
X11299944Y-16060508D02*
X11309467Y-16070031D01*
X11309467Y-16070031D02*
X11318991Y-16089079D01*
X11318991Y-16089079D02*
X11328515Y-16127174D01*
X11328515Y-16127174D02*
X11328515Y-16174793D01*
X11328515Y-16174793D02*
X11318991Y-16212888D01*
X11318991Y-16212888D02*
X11309467Y-16231936D01*
X11309467Y-16231936D02*
X11299944Y-16241460D01*
X11299944Y-16241460D02*
X11280896Y-16250984D01*
X11280896Y-16250984D02*
X11261848Y-16250984D01*
X11261848Y-16250984D02*
X11242801Y-16241460D01*
X11242801Y-16241460D02*
X11233277Y-16231936D01*
X11233277Y-16231936D02*
X11223753Y-16212888D01*
X11223753Y-16212888D02*
X11214229Y-16174793D01*
X11214229Y-16174793D02*
X11214229Y-16127174D01*
X11214229Y-16127174D02*
X11223753Y-16089079D01*
X11223753Y-16089079D02*
X11233277Y-16070031D01*
X11233277Y-16070031D02*
X11242801Y-16060508D01*
X11242801Y-16060508D02*
X11261848Y-16050984D01*
X11395182Y-16050984D02*
X11518991Y-16050984D01*
X11518991Y-16050984D02*
X11452325Y-16127174D01*
X11452325Y-16127174D02*
X11480896Y-16127174D01*
X11480896Y-16127174D02*
X11499944Y-16136698D01*
X11499944Y-16136698D02*
X11509467Y-16146222D01*
X11509467Y-16146222D02*
X11518991Y-16165269D01*
X11518991Y-16165269D02*
X11518991Y-16212888D01*
X11518991Y-16212888D02*
X11509467Y-16231936D01*
X11509467Y-16231936D02*
X11499944Y-16241460D01*
X11499944Y-16241460D02*
X11480896Y-16250984D01*
X11480896Y-16250984D02*
X11423753Y-16250984D01*
X11423753Y-16250984D02*
X11404706Y-16241460D01*
X11404706Y-16241460D02*
X11395182Y-16231936D01*
X11614229Y-16250984D02*
X11652325Y-16250984D01*
X11652325Y-16250984D02*
X11671372Y-16241460D01*
X11671372Y-16241460D02*
X11680896Y-16231936D01*
X11680896Y-16231936D02*
X11699944Y-16203365D01*
X11699944Y-16203365D02*
X11709467Y-16165269D01*
X11709467Y-16165269D02*
X11709467Y-16089079D01*
X11709467Y-16089079D02*
X11699944Y-16070031D01*
X11699944Y-16070031D02*
X11690420Y-16060508D01*
X11690420Y-16060508D02*
X11671372Y-16050984D01*
X11671372Y-16050984D02*
X11633277Y-16050984D01*
X11633277Y-16050984D02*
X11614229Y-16060508D01*
X11614229Y-16060508D02*
X11604706Y-16070031D01*
X11604706Y-16070031D02*
X11595182Y-16089079D01*
X11595182Y-16089079D02*
X11595182Y-16136698D01*
X11595182Y-16136698D02*
X11604706Y-16155746D01*
X11604706Y-16155746D02*
X11614229Y-16165269D01*
X11614229Y-16165269D02*
X11633277Y-16174793D01*
X11633277Y-16174793D02*
X11671372Y-16174793D01*
X11671372Y-16174793D02*
X11690420Y-16165269D01*
X11690420Y-16165269D02*
X11699944Y-16155746D01*
X11699944Y-16155746D02*
X11709467Y-16136698D01*
X11880896Y-16117650D02*
X11880896Y-16250984D01*
X11833277Y-16041460D02*
X11785658Y-16184317D01*
X11785658Y-16184317D02*
X11909467Y-16184317D01*
X11976134Y-16050984D02*
X11976134Y-16089079D01*
X12052325Y-16050984D02*
X12052325Y-16089079D01*
X12347563Y-16327174D02*
X12338039Y-16317650D01*
X12338039Y-16317650D02*
X12318991Y-16289079D01*
X12318991Y-16289079D02*
X12309468Y-16270031D01*
X12309468Y-16270031D02*
X12299944Y-16241460D01*
X12299944Y-16241460D02*
X12290420Y-16193841D01*
X12290420Y-16193841D02*
X12290420Y-16155746D01*
X12290420Y-16155746D02*
X12299944Y-16108127D01*
X12299944Y-16108127D02*
X12309468Y-16079555D01*
X12309468Y-16079555D02*
X12318991Y-16060508D01*
X12318991Y-16060508D02*
X12338039Y-16031936D01*
X12338039Y-16031936D02*
X12347563Y-16022412D01*
X12509468Y-16050984D02*
X12471372Y-16050984D01*
X12471372Y-16050984D02*
X12452325Y-16060508D01*
X12452325Y-16060508D02*
X12442801Y-16070031D01*
X12442801Y-16070031D02*
X12423753Y-16098603D01*
X12423753Y-16098603D02*
X12414229Y-16136698D01*
X12414229Y-16136698D02*
X12414229Y-16212888D01*
X12414229Y-16212888D02*
X12423753Y-16231936D01*
X12423753Y-16231936D02*
X12433277Y-16241460D01*
X12433277Y-16241460D02*
X12452325Y-16250984D01*
X12452325Y-16250984D02*
X12490420Y-16250984D01*
X12490420Y-16250984D02*
X12509468Y-16241460D01*
X12509468Y-16241460D02*
X12518991Y-16231936D01*
X12518991Y-16231936D02*
X12528515Y-16212888D01*
X12528515Y-16212888D02*
X12528515Y-16165269D01*
X12528515Y-16165269D02*
X12518991Y-16146222D01*
X12518991Y-16146222D02*
X12509468Y-16136698D01*
X12509468Y-16136698D02*
X12490420Y-16127174D01*
X12490420Y-16127174D02*
X12452325Y-16127174D01*
X12452325Y-16127174D02*
X12433277Y-16136698D01*
X12433277Y-16136698D02*
X12423753Y-16146222D01*
X12423753Y-16146222D02*
X12414229Y-16165269D01*
X12766610Y-16250984D02*
X12766610Y-16050984D01*
X12852325Y-16250984D02*
X12852325Y-16146222D01*
X12852325Y-16146222D02*
X12842801Y-16127174D01*
X12842801Y-16127174D02*
X12823753Y-16117650D01*
X12823753Y-16117650D02*
X12795182Y-16117650D01*
X12795182Y-16117650D02*
X12776134Y-16127174D01*
X12776134Y-16127174D02*
X12766610Y-16136698D01*
X12976134Y-16250984D02*
X12957087Y-16241460D01*
X12957087Y-16241460D02*
X12947563Y-16231936D01*
X12947563Y-16231936D02*
X12938039Y-16212888D01*
X12938039Y-16212888D02*
X12938039Y-16155746D01*
X12938039Y-16155746D02*
X12947563Y-16136698D01*
X12947563Y-16136698D02*
X12957087Y-16127174D01*
X12957087Y-16127174D02*
X12976134Y-16117650D01*
X12976134Y-16117650D02*
X13004706Y-16117650D01*
X13004706Y-16117650D02*
X13023753Y-16127174D01*
X13023753Y-16127174D02*
X13033277Y-16136698D01*
X13033277Y-16136698D02*
X13042801Y-16155746D01*
X13042801Y-16155746D02*
X13042801Y-16212888D01*
X13042801Y-16212888D02*
X13033277Y-16231936D01*
X13033277Y-16231936D02*
X13023753Y-16241460D01*
X13023753Y-16241460D02*
X13004706Y-16250984D01*
X13004706Y-16250984D02*
X12976134Y-16250984D01*
X13157087Y-16250984D02*
X13138039Y-16241460D01*
X13138039Y-16241460D02*
X13128515Y-16222412D01*
X13128515Y-16222412D02*
X13128515Y-16050984D01*
X13309468Y-16241460D02*
X13290420Y-16250984D01*
X13290420Y-16250984D02*
X13252325Y-16250984D01*
X13252325Y-16250984D02*
X13233277Y-16241460D01*
X13233277Y-16241460D02*
X13223753Y-16222412D01*
X13223753Y-16222412D02*
X13223753Y-16146222D01*
X13223753Y-16146222D02*
X13233277Y-16127174D01*
X13233277Y-16127174D02*
X13252325Y-16117650D01*
X13252325Y-16117650D02*
X13290420Y-16117650D01*
X13290420Y-16117650D02*
X13309468Y-16127174D01*
X13309468Y-16127174D02*
X13318991Y-16146222D01*
X13318991Y-16146222D02*
X13318991Y-16165269D01*
X13318991Y-16165269D02*
X13223753Y-16184317D01*
X13395182Y-16241460D02*
X13414230Y-16250984D01*
X13414230Y-16250984D02*
X13452325Y-16250984D01*
X13452325Y-16250984D02*
X13471372Y-16241460D01*
X13471372Y-16241460D02*
X13480896Y-16222412D01*
X13480896Y-16222412D02*
X13480896Y-16212888D01*
X13480896Y-16212888D02*
X13471372Y-16193841D01*
X13471372Y-16193841D02*
X13452325Y-16184317D01*
X13452325Y-16184317D02*
X13423753Y-16184317D01*
X13423753Y-16184317D02*
X13404706Y-16174793D01*
X13404706Y-16174793D02*
X13395182Y-16155746D01*
X13395182Y-16155746D02*
X13395182Y-16146222D01*
X13395182Y-16146222D02*
X13404706Y-16127174D01*
X13404706Y-16127174D02*
X13423753Y-16117650D01*
X13423753Y-16117650D02*
X13452325Y-16117650D01*
X13452325Y-16117650D02*
X13471372Y-16127174D01*
X13547563Y-16327174D02*
X13557087Y-16317650D01*
X13557087Y-16317650D02*
X13576134Y-16289079D01*
X13576134Y-16289079D02*
X13585658Y-16270031D01*
X13585658Y-16270031D02*
X13595182Y-16241460D01*
X13595182Y-16241460D02*
X13604706Y-16193841D01*
X13604706Y-16193841D02*
X13604706Y-16155746D01*
X13604706Y-16155746D02*
X13595182Y-16108127D01*
X13595182Y-16108127D02*
X13585658Y-16079555D01*
X13585658Y-16079555D02*
X13576134Y-16060508D01*
X13576134Y-16060508D02*
X13557087Y-16031936D01*
X13557087Y-16031936D02*
X13547563Y-16022412D01*
M02*
