%TF.GenerationSoftware,KiCad,Pcbnew,8.0.4*%
%TF.CreationDate,2025-04-19T21:16:23+05:30*%
%TF.ProjectId,Snakebot_pcb_dev,536e616b-6562-46f7-945f-7063625f6465,rev?*%
%TF.SameCoordinates,Original*%
%TF.FileFunction,Paste,Top*%
%TF.FilePolarity,Positive*%
%FSLAX46Y46*%
G04 Gerber Fmt 4.6, Leading zero omitted, Abs format (unit mm)*
G04 Created by KiCad (PCBNEW 8.0.4) date 2025-04-19 21:16:23*
%MOMM*%
%LPD*%
G01*
G04 APERTURE LIST*
G04 Aperture macros list*
%AMRoundRect*
0 Rectangle with rounded corners*
0 $1 Rounding radius*
0 $2 $3 $4 $5 $6 $7 $8 $9 X,Y pos of 4 corners*
0 Add a 4 corners polygon primitive as box body*
4,1,4,$2,$3,$4,$5,$6,$7,$8,$9,$2,$3,0*
0 Add four circle primitives for the rounded corners*
1,1,$1+$1,$2,$3*
1,1,$1+$1,$4,$5*
1,1,$1+$1,$6,$7*
1,1,$1+$1,$8,$9*
0 Add four rect primitives between the rounded corners*
20,1,$1+$1,$2,$3,$4,$5,0*
20,1,$1+$1,$4,$5,$6,$7,0*
20,1,$1+$1,$6,$7,$8,$9,0*
20,1,$1+$1,$8,$9,$2,$3,0*%
G04 Aperture macros list end*
%ADD10RoundRect,0.237500X0.250000X0.237500X-0.250000X0.237500X-0.250000X-0.237500X0.250000X-0.237500X0*%
%ADD11RoundRect,0.250000X-0.325000X-0.450000X0.325000X-0.450000X0.325000X0.450000X-0.325000X0.450000X0*%
%ADD12RoundRect,0.237500X-0.250000X-0.237500X0.250000X-0.237500X0.250000X0.237500X-0.250000X0.237500X0*%
%ADD13RoundRect,0.250000X-0.337500X-0.475000X0.337500X-0.475000X0.337500X0.475000X-0.337500X0.475000X0*%
%ADD14R,1.500000X0.900000*%
%ADD15R,0.900000X1.500000*%
%ADD16R,0.900000X0.900000*%
%ADD17RoundRect,0.237500X-0.300000X-0.237500X0.300000X-0.237500X0.300000X0.237500X-0.300000X0.237500X0*%
%ADD18RoundRect,0.237500X0.300000X0.237500X-0.300000X0.237500X-0.300000X-0.237500X0.300000X-0.237500X0*%
%ADD19R,2.850000X6.600000*%
%ADD20R,1.000000X2.800000*%
%ADD21RoundRect,0.075000X0.350000X0.075000X-0.350000X0.075000X-0.350000X-0.075000X0.350000X-0.075000X0*%
%ADD22RoundRect,0.075000X-0.075000X0.350000X-0.075000X-0.350000X0.075000X-0.350000X0.075000X0.350000X0*%
%ADD23RoundRect,0.375000X-0.625000X-0.375000X0.625000X-0.375000X0.625000X0.375000X-0.625000X0.375000X0*%
%ADD24RoundRect,0.500000X-0.500000X-1.400000X0.500000X-1.400000X0.500000X1.400000X-0.500000X1.400000X0*%
%ADD25RoundRect,0.250000X0.375000X1.000000X-0.375000X1.000000X-0.375000X-1.000000X0.375000X-1.000000X0*%
%ADD26RoundRect,0.250000X0.350000X0.450000X-0.350000X0.450000X-0.350000X-0.450000X0.350000X-0.450000X0*%
%ADD27RoundRect,0.250000X0.337500X0.475000X-0.337500X0.475000X-0.337500X-0.475000X0.337500X-0.475000X0*%
%ADD28R,1.295400X0.254000*%
%ADD29R,0.254000X0.711200*%
G04 APERTURE END LIST*
D10*
%TO.C,R4*%
X116912500Y-127500000D03*
X115087500Y-127500000D03*
%TD*%
D11*
%TO.C,D3*%
X107069000Y-129281300D03*
X109119000Y-129281300D03*
%TD*%
D12*
%TO.C,R5*%
X111587500Y-129500000D03*
X113412500Y-129500000D03*
%TD*%
D13*
%TO.C,C3*%
X107075000Y-123250000D03*
X109150000Y-123250000D03*
%TD*%
D14*
%TO.C,U1*%
X118650000Y-120630000D03*
X118650000Y-121900000D03*
X118650000Y-123170000D03*
X118650000Y-124440000D03*
X118650000Y-125710000D03*
X118650000Y-126980000D03*
X118650000Y-128250000D03*
X118650000Y-129520000D03*
X118650000Y-130790000D03*
X118650000Y-132060000D03*
X118650000Y-133330000D03*
X118650000Y-134600000D03*
X118650000Y-135870000D03*
X118650000Y-137140000D03*
D15*
X121690000Y-138390000D03*
X122960000Y-138390000D03*
X124230000Y-138390000D03*
X125500000Y-138390000D03*
X126770000Y-138390000D03*
X128040000Y-138390000D03*
X129310000Y-138390000D03*
X130580000Y-138390000D03*
X131850000Y-138390000D03*
X133120000Y-138390000D03*
D14*
X136150000Y-137140000D03*
X136150000Y-135870000D03*
X136150000Y-134600000D03*
X136150000Y-133330000D03*
X136150000Y-132060000D03*
X136150000Y-130790000D03*
X136150000Y-129520000D03*
X136150000Y-128250000D03*
X136150000Y-126980000D03*
X136150000Y-125710000D03*
X136150000Y-124440000D03*
X136150000Y-123170000D03*
X136150000Y-121900000D03*
X136150000Y-120630000D03*
D16*
X124500000Y-126950000D03*
X124500000Y-128350000D03*
X124500000Y-129750000D03*
X125900000Y-126950000D03*
X125900000Y-128350000D03*
X125900000Y-129750000D03*
X127300000Y-126950000D03*
X127300000Y-128350000D03*
X127300000Y-129750000D03*
%TD*%
D10*
%TO.C,R10*%
X144325000Y-130575000D03*
X142500000Y-130575000D03*
%TD*%
D13*
%TO.C,C12*%
X98962500Y-136750000D03*
X101037500Y-136750000D03*
%TD*%
D17*
%TO.C,C8*%
X143637500Y-143250000D03*
X145362500Y-143250000D03*
%TD*%
D18*
%TO.C,C13*%
X112975000Y-120750000D03*
X111250000Y-120750000D03*
%TD*%
%TO.C,C14*%
X112975000Y-122250000D03*
X111250000Y-122250000D03*
%TD*%
D11*
%TO.C,D1*%
X155487500Y-131000000D03*
X157537500Y-131000000D03*
%TD*%
D10*
%TO.C,R1*%
X116525000Y-123750000D03*
X114700000Y-123750000D03*
%TD*%
%TO.C,R9*%
X144325000Y-129075000D03*
X142500000Y-129075000D03*
%TD*%
D19*
%TO.C,L1*%
X114419000Y-135000000D03*
X108769000Y-135000000D03*
%TD*%
D20*
%TO.C,SW2*%
X94400000Y-132650000D03*
X94400000Y-126850000D03*
X98400000Y-132650000D03*
X98400000Y-126850000D03*
%TD*%
D18*
%TO.C,C16*%
X140937500Y-130575000D03*
X139212500Y-130575000D03*
%TD*%
D11*
%TO.C,D2*%
X107069000Y-127281300D03*
X109119000Y-127281300D03*
%TD*%
D18*
%TO.C,C1*%
X116475000Y-120750000D03*
X114750000Y-120750000D03*
%TD*%
%TO.C,C6*%
X112975000Y-123750000D03*
X111250000Y-123750000D03*
%TD*%
D20*
%TO.C,SW1*%
X94400000Y-122900000D03*
X94400000Y-117100000D03*
X98400000Y-122900000D03*
X98400000Y-117100000D03*
%TD*%
D13*
%TO.C,C4*%
X155512500Y-126750000D03*
X157587500Y-126750000D03*
%TD*%
D10*
%TO.C,R3*%
X113412500Y-127500000D03*
X111587500Y-127500000D03*
%TD*%
D12*
%TO.C,R7*%
X103206500Y-129281300D03*
X105031500Y-129281300D03*
%TD*%
D18*
%TO.C,C9*%
X105112500Y-125250000D03*
X103387500Y-125250000D03*
%TD*%
D21*
%TO.C,U4*%
X143376500Y-125950000D03*
X143376500Y-125450000D03*
X143376500Y-124950000D03*
X143376500Y-124450000D03*
X143376500Y-123950000D03*
X143376500Y-123450000D03*
D22*
X142676500Y-122750000D03*
X142176500Y-122750000D03*
X141676500Y-122750000D03*
X141176500Y-122750000D03*
X140676500Y-122750000D03*
X140176500Y-122750000D03*
D21*
X139476500Y-123450000D03*
X139476500Y-123950000D03*
X139476500Y-124450000D03*
X139476500Y-124950000D03*
X139476500Y-125450000D03*
X139476500Y-125950000D03*
D22*
X140176500Y-126650000D03*
X140676500Y-126650000D03*
X141176500Y-126650000D03*
X141676500Y-126650000D03*
X142176500Y-126650000D03*
X142676500Y-126650000D03*
%TD*%
D18*
%TO.C,C2*%
X116475000Y-122250000D03*
X114750000Y-122250000D03*
%TD*%
D17*
%TO.C,C15*%
X140314000Y-120750000D03*
X142039000Y-120750000D03*
%TD*%
D23*
%TO.C,U2*%
X150350000Y-133700000D03*
X150350000Y-136000000D03*
D24*
X156650000Y-136000000D03*
D23*
X150350000Y-138300000D03*
%TD*%
D17*
%TO.C,C10*%
X97000000Y-140750000D03*
X98725000Y-140750000D03*
%TD*%
D25*
%TO.C,SW3*%
X151750000Y-127750000D03*
X149250000Y-127750000D03*
X146750000Y-127750000D03*
%TD*%
D26*
%TO.C,R8*%
X104944000Y-136781300D03*
X102944000Y-136781300D03*
%TD*%
D27*
%TO.C,C5*%
X109150000Y-120750000D03*
X107075000Y-120750000D03*
%TD*%
D12*
%TO.C,R2*%
X155600000Y-129000000D03*
X157425000Y-129000000D03*
%TD*%
D28*
%TO.C,U3*%
X102794000Y-132781301D03*
X102794000Y-133281300D03*
X102794000Y-133781299D03*
D29*
X102943999Y-134731300D03*
X103444001Y-134731300D03*
X103944000Y-134731300D03*
X104443999Y-134731300D03*
X104944001Y-134731300D03*
D28*
X105094000Y-133781299D03*
X105094000Y-133281300D03*
X105094000Y-132781301D03*
D29*
X104944001Y-131831300D03*
X104443999Y-131831300D03*
X103944000Y-131831300D03*
X103444001Y-131831300D03*
X102943999Y-131831300D03*
%TD*%
D10*
%TO.C,R6*%
X105144000Y-123531300D03*
X103319000Y-123531300D03*
%TD*%
D13*
%TO.C,C11*%
X103212500Y-127250000D03*
X105287500Y-127250000D03*
%TD*%
D18*
%TO.C,C7*%
X97112500Y-136750000D03*
X95387500Y-136750000D03*
%TD*%
M02*
