%TF.GenerationSoftware,KiCad,Pcbnew,8.0.4*%
%TF.CreationDate,2025-04-19T21:15:14+05:30*%
%TF.ProjectId,Snakebot_pcb_dev,536e616b-6562-46f7-945f-7063625f6465,rev?*%
%TF.SameCoordinates,Original*%
%TF.FileFunction,Drillmap*%
%TF.FilePolarity,Positive*%
%FSLAX45Y45*%
G04 Gerber Fmt 4.5, Leading zero omitted, Abs format (unit mm)*
G04 Created by KiCad (PCBNEW 8.0.4) date 2025-04-19 21:15:14*
%MOMM*%
%LPD*%
G01*
G04 APERTURE LIST*
%ADD10C,0.050000*%
%ADD11C,0.200000*%
%ADD12C,0.100000*%
%ADD13C,0.320000*%
G04 APERTURE END LIST*
D10*
X8775000Y-14725000D02*
X16625000Y-14725000D01*
X8775000Y-14700000D02*
X8775000Y-14725000D01*
X16625000Y-14650000D02*
X16625000Y-14600000D01*
X16625000Y-11450000D02*
X8775000Y-11450000D01*
X8775000Y-14600000D02*
X8775000Y-14650000D01*
X8775000Y-14500000D02*
X8775000Y-14600000D01*
X16625000Y-14725000D02*
X16625000Y-14650000D01*
X16625000Y-14500000D02*
X16625000Y-11450000D01*
X8775000Y-11450000D02*
X8775000Y-14500000D01*
X8775000Y-14650000D02*
X8775000Y-14700000D01*
X16625000Y-14600000D02*
X16625000Y-14500000D01*
D11*
D12*
X14540000Y-12455000D02*
X14630000Y-12545000D01*
X14630000Y-12455000D02*
X14540000Y-12545000D01*
X15220000Y-12455000D02*
X15310000Y-12545000D01*
X15310000Y-12455000D02*
X15220000Y-12545000D01*
D13*
X9285000Y-14150000D02*
G75*
G02*
X8965000Y-14150000I-160000J0D01*
G01*
X8965000Y-14150000D02*
G75*
G02*
X9285000Y-14150000I160000J0D01*
G01*
X16435000Y-14150000D02*
G75*
G02*
X16115000Y-14150000I-160000J0D01*
G01*
X16115000Y-14150000D02*
G75*
G02*
X16435000Y-14150000I160000J0D01*
G01*
D11*
X9033277Y-15038984D02*
X9033277Y-14838984D01*
X9033277Y-14838984D02*
X9080896Y-14838984D01*
X9080896Y-14838984D02*
X9109467Y-14848508D01*
X9109467Y-14848508D02*
X9128515Y-14867555D01*
X9128515Y-14867555D02*
X9138039Y-14886603D01*
X9138039Y-14886603D02*
X9147563Y-14924698D01*
X9147563Y-14924698D02*
X9147563Y-14953269D01*
X9147563Y-14953269D02*
X9138039Y-14991365D01*
X9138039Y-14991365D02*
X9128515Y-15010412D01*
X9128515Y-15010412D02*
X9109467Y-15029460D01*
X9109467Y-15029460D02*
X9080896Y-15038984D01*
X9080896Y-15038984D02*
X9033277Y-15038984D01*
X9233277Y-15038984D02*
X9233277Y-14905650D01*
X9233277Y-14943746D02*
X9242801Y-14924698D01*
X9242801Y-14924698D02*
X9252324Y-14915174D01*
X9252324Y-14915174D02*
X9271372Y-14905650D01*
X9271372Y-14905650D02*
X9290420Y-14905650D01*
X9357086Y-15038984D02*
X9357086Y-14905650D01*
X9357086Y-14838984D02*
X9347563Y-14848508D01*
X9347563Y-14848508D02*
X9357086Y-14858031D01*
X9357086Y-14858031D02*
X9366610Y-14848508D01*
X9366610Y-14848508D02*
X9357086Y-14838984D01*
X9357086Y-14838984D02*
X9357086Y-14858031D01*
X9480896Y-15038984D02*
X9461848Y-15029460D01*
X9461848Y-15029460D02*
X9452324Y-15010412D01*
X9452324Y-15010412D02*
X9452324Y-14838984D01*
X9585658Y-15038984D02*
X9566610Y-15029460D01*
X9566610Y-15029460D02*
X9557086Y-15010412D01*
X9557086Y-15010412D02*
X9557086Y-14838984D01*
X9814229Y-15038984D02*
X9814229Y-14838984D01*
X9814229Y-14838984D02*
X9880896Y-14981841D01*
X9880896Y-14981841D02*
X9947563Y-14838984D01*
X9947563Y-14838984D02*
X9947563Y-15038984D01*
X10128515Y-15038984D02*
X10128515Y-14934222D01*
X10128515Y-14934222D02*
X10118991Y-14915174D01*
X10118991Y-14915174D02*
X10099944Y-14905650D01*
X10099944Y-14905650D02*
X10061848Y-14905650D01*
X10061848Y-14905650D02*
X10042801Y-14915174D01*
X10128515Y-15029460D02*
X10109467Y-15038984D01*
X10109467Y-15038984D02*
X10061848Y-15038984D01*
X10061848Y-15038984D02*
X10042801Y-15029460D01*
X10042801Y-15029460D02*
X10033277Y-15010412D01*
X10033277Y-15010412D02*
X10033277Y-14991365D01*
X10033277Y-14991365D02*
X10042801Y-14972317D01*
X10042801Y-14972317D02*
X10061848Y-14962793D01*
X10061848Y-14962793D02*
X10109467Y-14962793D01*
X10109467Y-14962793D02*
X10128515Y-14953269D01*
X10223753Y-14905650D02*
X10223753Y-15105650D01*
X10223753Y-14915174D02*
X10242801Y-14905650D01*
X10242801Y-14905650D02*
X10280896Y-14905650D01*
X10280896Y-14905650D02*
X10299944Y-14915174D01*
X10299944Y-14915174D02*
X10309467Y-14924698D01*
X10309467Y-14924698D02*
X10318991Y-14943746D01*
X10318991Y-14943746D02*
X10318991Y-15000888D01*
X10318991Y-15000888D02*
X10309467Y-15019936D01*
X10309467Y-15019936D02*
X10299944Y-15029460D01*
X10299944Y-15029460D02*
X10280896Y-15038984D01*
X10280896Y-15038984D02*
X10242801Y-15038984D01*
X10242801Y-15038984D02*
X10223753Y-15029460D01*
X10404705Y-15019936D02*
X10414229Y-15029460D01*
X10414229Y-15029460D02*
X10404705Y-15038984D01*
X10404705Y-15038984D02*
X10395182Y-15029460D01*
X10395182Y-15029460D02*
X10404705Y-15019936D01*
X10404705Y-15019936D02*
X10404705Y-15038984D01*
X10404705Y-14915174D02*
X10414229Y-14924698D01*
X10414229Y-14924698D02*
X10404705Y-14934222D01*
X10404705Y-14934222D02*
X10395182Y-14924698D01*
X10395182Y-14924698D02*
X10404705Y-14915174D01*
X10404705Y-14915174D02*
X10404705Y-14934222D01*
D12*
X8682500Y-15322500D02*
X8772500Y-15412500D01*
X8772500Y-15322500D02*
X8682500Y-15412500D01*
D11*
X9071372Y-15258984D02*
X9090420Y-15258984D01*
X9090420Y-15258984D02*
X9109467Y-15268508D01*
X9109467Y-15268508D02*
X9118991Y-15278031D01*
X9118991Y-15278031D02*
X9128515Y-15297079D01*
X9128515Y-15297079D02*
X9138039Y-15335174D01*
X9138039Y-15335174D02*
X9138039Y-15382793D01*
X9138039Y-15382793D02*
X9128515Y-15420888D01*
X9128515Y-15420888D02*
X9118991Y-15439936D01*
X9118991Y-15439936D02*
X9109467Y-15449460D01*
X9109467Y-15449460D02*
X9090420Y-15458984D01*
X9090420Y-15458984D02*
X9071372Y-15458984D01*
X9071372Y-15458984D02*
X9052324Y-15449460D01*
X9052324Y-15449460D02*
X9042801Y-15439936D01*
X9042801Y-15439936D02*
X9033277Y-15420888D01*
X9033277Y-15420888D02*
X9023753Y-15382793D01*
X9023753Y-15382793D02*
X9023753Y-15335174D01*
X9023753Y-15335174D02*
X9033277Y-15297079D01*
X9033277Y-15297079D02*
X9042801Y-15278031D01*
X9042801Y-15278031D02*
X9052324Y-15268508D01*
X9052324Y-15268508D02*
X9071372Y-15258984D01*
X9223753Y-15439936D02*
X9233277Y-15449460D01*
X9233277Y-15449460D02*
X9223753Y-15458984D01*
X9223753Y-15458984D02*
X9214229Y-15449460D01*
X9214229Y-15449460D02*
X9223753Y-15439936D01*
X9223753Y-15439936D02*
X9223753Y-15458984D01*
X9328515Y-15458984D02*
X9366610Y-15458984D01*
X9366610Y-15458984D02*
X9385658Y-15449460D01*
X9385658Y-15449460D02*
X9395182Y-15439936D01*
X9395182Y-15439936D02*
X9414229Y-15411365D01*
X9414229Y-15411365D02*
X9423753Y-15373269D01*
X9423753Y-15373269D02*
X9423753Y-15297079D01*
X9423753Y-15297079D02*
X9414229Y-15278031D01*
X9414229Y-15278031D02*
X9404705Y-15268508D01*
X9404705Y-15268508D02*
X9385658Y-15258984D01*
X9385658Y-15258984D02*
X9347563Y-15258984D01*
X9347563Y-15258984D02*
X9328515Y-15268508D01*
X9328515Y-15268508D02*
X9318991Y-15278031D01*
X9318991Y-15278031D02*
X9309467Y-15297079D01*
X9309467Y-15297079D02*
X9309467Y-15344698D01*
X9309467Y-15344698D02*
X9318991Y-15363746D01*
X9318991Y-15363746D02*
X9328515Y-15373269D01*
X9328515Y-15373269D02*
X9347563Y-15382793D01*
X9347563Y-15382793D02*
X9385658Y-15382793D01*
X9385658Y-15382793D02*
X9404705Y-15373269D01*
X9404705Y-15373269D02*
X9414229Y-15363746D01*
X9414229Y-15363746D02*
X9423753Y-15344698D01*
X9547563Y-15258984D02*
X9566610Y-15258984D01*
X9566610Y-15258984D02*
X9585658Y-15268508D01*
X9585658Y-15268508D02*
X9595182Y-15278031D01*
X9595182Y-15278031D02*
X9604705Y-15297079D01*
X9604705Y-15297079D02*
X9614229Y-15335174D01*
X9614229Y-15335174D02*
X9614229Y-15382793D01*
X9614229Y-15382793D02*
X9604705Y-15420888D01*
X9604705Y-15420888D02*
X9595182Y-15439936D01*
X9595182Y-15439936D02*
X9585658Y-15449460D01*
X9585658Y-15449460D02*
X9566610Y-15458984D01*
X9566610Y-15458984D02*
X9547563Y-15458984D01*
X9547563Y-15458984D02*
X9528515Y-15449460D01*
X9528515Y-15449460D02*
X9518991Y-15439936D01*
X9518991Y-15439936D02*
X9509467Y-15420888D01*
X9509467Y-15420888D02*
X9499944Y-15382793D01*
X9499944Y-15382793D02*
X9499944Y-15335174D01*
X9499944Y-15335174D02*
X9509467Y-15297079D01*
X9509467Y-15297079D02*
X9518991Y-15278031D01*
X9518991Y-15278031D02*
X9528515Y-15268508D01*
X9528515Y-15268508D02*
X9547563Y-15258984D01*
X9738039Y-15258984D02*
X9757086Y-15258984D01*
X9757086Y-15258984D02*
X9776134Y-15268508D01*
X9776134Y-15268508D02*
X9785658Y-15278031D01*
X9785658Y-15278031D02*
X9795182Y-15297079D01*
X9795182Y-15297079D02*
X9804705Y-15335174D01*
X9804705Y-15335174D02*
X9804705Y-15382793D01*
X9804705Y-15382793D02*
X9795182Y-15420888D01*
X9795182Y-15420888D02*
X9785658Y-15439936D01*
X9785658Y-15439936D02*
X9776134Y-15449460D01*
X9776134Y-15449460D02*
X9757086Y-15458984D01*
X9757086Y-15458984D02*
X9738039Y-15458984D01*
X9738039Y-15458984D02*
X9718991Y-15449460D01*
X9718991Y-15449460D02*
X9709467Y-15439936D01*
X9709467Y-15439936D02*
X9699944Y-15420888D01*
X9699944Y-15420888D02*
X9690420Y-15382793D01*
X9690420Y-15382793D02*
X9690420Y-15335174D01*
X9690420Y-15335174D02*
X9699944Y-15297079D01*
X9699944Y-15297079D02*
X9709467Y-15278031D01*
X9709467Y-15278031D02*
X9718991Y-15268508D01*
X9718991Y-15268508D02*
X9738039Y-15258984D01*
X9890420Y-15458984D02*
X9890420Y-15325650D01*
X9890420Y-15344698D02*
X9899944Y-15335174D01*
X9899944Y-15335174D02*
X9918991Y-15325650D01*
X9918991Y-15325650D02*
X9947563Y-15325650D01*
X9947563Y-15325650D02*
X9966610Y-15335174D01*
X9966610Y-15335174D02*
X9976134Y-15354222D01*
X9976134Y-15354222D02*
X9976134Y-15458984D01*
X9976134Y-15354222D02*
X9985658Y-15335174D01*
X9985658Y-15335174D02*
X10004705Y-15325650D01*
X10004705Y-15325650D02*
X10033277Y-15325650D01*
X10033277Y-15325650D02*
X10052325Y-15335174D01*
X10052325Y-15335174D02*
X10061848Y-15354222D01*
X10061848Y-15354222D02*
X10061848Y-15458984D01*
X10157086Y-15458984D02*
X10157086Y-15325650D01*
X10157086Y-15344698D02*
X10166610Y-15335174D01*
X10166610Y-15335174D02*
X10185658Y-15325650D01*
X10185658Y-15325650D02*
X10214229Y-15325650D01*
X10214229Y-15325650D02*
X10233277Y-15335174D01*
X10233277Y-15335174D02*
X10242801Y-15354222D01*
X10242801Y-15354222D02*
X10242801Y-15458984D01*
X10242801Y-15354222D02*
X10252325Y-15335174D01*
X10252325Y-15335174D02*
X10271372Y-15325650D01*
X10271372Y-15325650D02*
X10299944Y-15325650D01*
X10299944Y-15325650D02*
X10318991Y-15335174D01*
X10318991Y-15335174D02*
X10328515Y-15354222D01*
X10328515Y-15354222D02*
X10328515Y-15458984D01*
X10718991Y-15249460D02*
X10547563Y-15506603D01*
X10976134Y-15258984D02*
X10995182Y-15258984D01*
X10995182Y-15258984D02*
X11014229Y-15268508D01*
X11014229Y-15268508D02*
X11023753Y-15278031D01*
X11023753Y-15278031D02*
X11033277Y-15297079D01*
X11033277Y-15297079D02*
X11042801Y-15335174D01*
X11042801Y-15335174D02*
X11042801Y-15382793D01*
X11042801Y-15382793D02*
X11033277Y-15420888D01*
X11033277Y-15420888D02*
X11023753Y-15439936D01*
X11023753Y-15439936D02*
X11014229Y-15449460D01*
X11014229Y-15449460D02*
X10995182Y-15458984D01*
X10995182Y-15458984D02*
X10976134Y-15458984D01*
X10976134Y-15458984D02*
X10957087Y-15449460D01*
X10957087Y-15449460D02*
X10947563Y-15439936D01*
X10947563Y-15439936D02*
X10938039Y-15420888D01*
X10938039Y-15420888D02*
X10928515Y-15382793D01*
X10928515Y-15382793D02*
X10928515Y-15335174D01*
X10928515Y-15335174D02*
X10938039Y-15297079D01*
X10938039Y-15297079D02*
X10947563Y-15278031D01*
X10947563Y-15278031D02*
X10957087Y-15268508D01*
X10957087Y-15268508D02*
X10976134Y-15258984D01*
X11128515Y-15439936D02*
X11138039Y-15449460D01*
X11138039Y-15449460D02*
X11128515Y-15458984D01*
X11128515Y-15458984D02*
X11118991Y-15449460D01*
X11118991Y-15449460D02*
X11128515Y-15439936D01*
X11128515Y-15439936D02*
X11128515Y-15458984D01*
X11261848Y-15258984D02*
X11280896Y-15258984D01*
X11280896Y-15258984D02*
X11299944Y-15268508D01*
X11299944Y-15268508D02*
X11309467Y-15278031D01*
X11309467Y-15278031D02*
X11318991Y-15297079D01*
X11318991Y-15297079D02*
X11328515Y-15335174D01*
X11328515Y-15335174D02*
X11328515Y-15382793D01*
X11328515Y-15382793D02*
X11318991Y-15420888D01*
X11318991Y-15420888D02*
X11309467Y-15439936D01*
X11309467Y-15439936D02*
X11299944Y-15449460D01*
X11299944Y-15449460D02*
X11280896Y-15458984D01*
X11280896Y-15458984D02*
X11261848Y-15458984D01*
X11261848Y-15458984D02*
X11242801Y-15449460D01*
X11242801Y-15449460D02*
X11233277Y-15439936D01*
X11233277Y-15439936D02*
X11223753Y-15420888D01*
X11223753Y-15420888D02*
X11214229Y-15382793D01*
X11214229Y-15382793D02*
X11214229Y-15335174D01*
X11214229Y-15335174D02*
X11223753Y-15297079D01*
X11223753Y-15297079D02*
X11233277Y-15278031D01*
X11233277Y-15278031D02*
X11242801Y-15268508D01*
X11242801Y-15268508D02*
X11261848Y-15258984D01*
X11395182Y-15258984D02*
X11518991Y-15258984D01*
X11518991Y-15258984D02*
X11452325Y-15335174D01*
X11452325Y-15335174D02*
X11480896Y-15335174D01*
X11480896Y-15335174D02*
X11499944Y-15344698D01*
X11499944Y-15344698D02*
X11509467Y-15354222D01*
X11509467Y-15354222D02*
X11518991Y-15373269D01*
X11518991Y-15373269D02*
X11518991Y-15420888D01*
X11518991Y-15420888D02*
X11509467Y-15439936D01*
X11509467Y-15439936D02*
X11499944Y-15449460D01*
X11499944Y-15449460D02*
X11480896Y-15458984D01*
X11480896Y-15458984D02*
X11423753Y-15458984D01*
X11423753Y-15458984D02*
X11404706Y-15449460D01*
X11404706Y-15449460D02*
X11395182Y-15439936D01*
X11699944Y-15258984D02*
X11604706Y-15258984D01*
X11604706Y-15258984D02*
X11595182Y-15354222D01*
X11595182Y-15354222D02*
X11604706Y-15344698D01*
X11604706Y-15344698D02*
X11623753Y-15335174D01*
X11623753Y-15335174D02*
X11671372Y-15335174D01*
X11671372Y-15335174D02*
X11690420Y-15344698D01*
X11690420Y-15344698D02*
X11699944Y-15354222D01*
X11699944Y-15354222D02*
X11709467Y-15373269D01*
X11709467Y-15373269D02*
X11709467Y-15420888D01*
X11709467Y-15420888D02*
X11699944Y-15439936D01*
X11699944Y-15439936D02*
X11690420Y-15449460D01*
X11690420Y-15449460D02*
X11671372Y-15458984D01*
X11671372Y-15458984D02*
X11623753Y-15458984D01*
X11623753Y-15458984D02*
X11604706Y-15449460D01*
X11604706Y-15449460D02*
X11595182Y-15439936D01*
X11880896Y-15325650D02*
X11880896Y-15458984D01*
X11833277Y-15249460D02*
X11785658Y-15392317D01*
X11785658Y-15392317D02*
X11909467Y-15392317D01*
X11976134Y-15258984D02*
X11976134Y-15297079D01*
X12052325Y-15258984D02*
X12052325Y-15297079D01*
X12347563Y-15535174D02*
X12338039Y-15525650D01*
X12338039Y-15525650D02*
X12318991Y-15497079D01*
X12318991Y-15497079D02*
X12309468Y-15478031D01*
X12309468Y-15478031D02*
X12299944Y-15449460D01*
X12299944Y-15449460D02*
X12290420Y-15401841D01*
X12290420Y-15401841D02*
X12290420Y-15363746D01*
X12290420Y-15363746D02*
X12299944Y-15316127D01*
X12299944Y-15316127D02*
X12309468Y-15287555D01*
X12309468Y-15287555D02*
X12318991Y-15268508D01*
X12318991Y-15268508D02*
X12338039Y-15239936D01*
X12338039Y-15239936D02*
X12347563Y-15230412D01*
X12414229Y-15278031D02*
X12423753Y-15268508D01*
X12423753Y-15268508D02*
X12442801Y-15258984D01*
X12442801Y-15258984D02*
X12490420Y-15258984D01*
X12490420Y-15258984D02*
X12509468Y-15268508D01*
X12509468Y-15268508D02*
X12518991Y-15278031D01*
X12518991Y-15278031D02*
X12528515Y-15297079D01*
X12528515Y-15297079D02*
X12528515Y-15316127D01*
X12528515Y-15316127D02*
X12518991Y-15344698D01*
X12518991Y-15344698D02*
X12404706Y-15458984D01*
X12404706Y-15458984D02*
X12528515Y-15458984D01*
X12766610Y-15458984D02*
X12766610Y-15258984D01*
X12852325Y-15458984D02*
X12852325Y-15354222D01*
X12852325Y-15354222D02*
X12842801Y-15335174D01*
X12842801Y-15335174D02*
X12823753Y-15325650D01*
X12823753Y-15325650D02*
X12795182Y-15325650D01*
X12795182Y-15325650D02*
X12776134Y-15335174D01*
X12776134Y-15335174D02*
X12766610Y-15344698D01*
X12976134Y-15458984D02*
X12957087Y-15449460D01*
X12957087Y-15449460D02*
X12947563Y-15439936D01*
X12947563Y-15439936D02*
X12938039Y-15420888D01*
X12938039Y-15420888D02*
X12938039Y-15363746D01*
X12938039Y-15363746D02*
X12947563Y-15344698D01*
X12947563Y-15344698D02*
X12957087Y-15335174D01*
X12957087Y-15335174D02*
X12976134Y-15325650D01*
X12976134Y-15325650D02*
X13004706Y-15325650D01*
X13004706Y-15325650D02*
X13023753Y-15335174D01*
X13023753Y-15335174D02*
X13033277Y-15344698D01*
X13033277Y-15344698D02*
X13042801Y-15363746D01*
X13042801Y-15363746D02*
X13042801Y-15420888D01*
X13042801Y-15420888D02*
X13033277Y-15439936D01*
X13033277Y-15439936D02*
X13023753Y-15449460D01*
X13023753Y-15449460D02*
X13004706Y-15458984D01*
X13004706Y-15458984D02*
X12976134Y-15458984D01*
X13157087Y-15458984D02*
X13138039Y-15449460D01*
X13138039Y-15449460D02*
X13128515Y-15430412D01*
X13128515Y-15430412D02*
X13128515Y-15258984D01*
X13309468Y-15449460D02*
X13290420Y-15458984D01*
X13290420Y-15458984D02*
X13252325Y-15458984D01*
X13252325Y-15458984D02*
X13233277Y-15449460D01*
X13233277Y-15449460D02*
X13223753Y-15430412D01*
X13223753Y-15430412D02*
X13223753Y-15354222D01*
X13223753Y-15354222D02*
X13233277Y-15335174D01*
X13233277Y-15335174D02*
X13252325Y-15325650D01*
X13252325Y-15325650D02*
X13290420Y-15325650D01*
X13290420Y-15325650D02*
X13309468Y-15335174D01*
X13309468Y-15335174D02*
X13318991Y-15354222D01*
X13318991Y-15354222D02*
X13318991Y-15373269D01*
X13318991Y-15373269D02*
X13223753Y-15392317D01*
X13395182Y-15449460D02*
X13414230Y-15458984D01*
X13414230Y-15458984D02*
X13452325Y-15458984D01*
X13452325Y-15458984D02*
X13471372Y-15449460D01*
X13471372Y-15449460D02*
X13480896Y-15430412D01*
X13480896Y-15430412D02*
X13480896Y-15420888D01*
X13480896Y-15420888D02*
X13471372Y-15401841D01*
X13471372Y-15401841D02*
X13452325Y-15392317D01*
X13452325Y-15392317D02*
X13423753Y-15392317D01*
X13423753Y-15392317D02*
X13404706Y-15382793D01*
X13404706Y-15382793D02*
X13395182Y-15363746D01*
X13395182Y-15363746D02*
X13395182Y-15354222D01*
X13395182Y-15354222D02*
X13404706Y-15335174D01*
X13404706Y-15335174D02*
X13423753Y-15325650D01*
X13423753Y-15325650D02*
X13452325Y-15325650D01*
X13452325Y-15325650D02*
X13471372Y-15335174D01*
X13547563Y-15535174D02*
X13557087Y-15525650D01*
X13557087Y-15525650D02*
X13576134Y-15497079D01*
X13576134Y-15497079D02*
X13585658Y-15478031D01*
X13585658Y-15478031D02*
X13595182Y-15449460D01*
X13595182Y-15449460D02*
X13604706Y-15401841D01*
X13604706Y-15401841D02*
X13604706Y-15363746D01*
X13604706Y-15363746D02*
X13595182Y-15316127D01*
X13595182Y-15316127D02*
X13585658Y-15287555D01*
X13585658Y-15287555D02*
X13576134Y-15268508D01*
X13576134Y-15268508D02*
X13557087Y-15239936D01*
X13557087Y-15239936D02*
X13547563Y-15230412D01*
X13909468Y-15535174D02*
X13899944Y-15525650D01*
X13899944Y-15525650D02*
X13880896Y-15497079D01*
X13880896Y-15497079D02*
X13871372Y-15478031D01*
X13871372Y-15478031D02*
X13861849Y-15449460D01*
X13861849Y-15449460D02*
X13852325Y-15401841D01*
X13852325Y-15401841D02*
X13852325Y-15363746D01*
X13852325Y-15363746D02*
X13861849Y-15316127D01*
X13861849Y-15316127D02*
X13871372Y-15287555D01*
X13871372Y-15287555D02*
X13880896Y-15268508D01*
X13880896Y-15268508D02*
X13899944Y-15239936D01*
X13899944Y-15239936D02*
X13909468Y-15230412D01*
X13985658Y-15325650D02*
X13985658Y-15458984D01*
X13985658Y-15344698D02*
X13995182Y-15335174D01*
X13995182Y-15335174D02*
X14014230Y-15325650D01*
X14014230Y-15325650D02*
X14042801Y-15325650D01*
X14042801Y-15325650D02*
X14061849Y-15335174D01*
X14061849Y-15335174D02*
X14071372Y-15354222D01*
X14071372Y-15354222D02*
X14071372Y-15458984D01*
X14195182Y-15458984D02*
X14176134Y-15449460D01*
X14176134Y-15449460D02*
X14166611Y-15439936D01*
X14166611Y-15439936D02*
X14157087Y-15420888D01*
X14157087Y-15420888D02*
X14157087Y-15363746D01*
X14157087Y-15363746D02*
X14166611Y-15344698D01*
X14166611Y-15344698D02*
X14176134Y-15335174D01*
X14176134Y-15335174D02*
X14195182Y-15325650D01*
X14195182Y-15325650D02*
X14223753Y-15325650D01*
X14223753Y-15325650D02*
X14242801Y-15335174D01*
X14242801Y-15335174D02*
X14252325Y-15344698D01*
X14252325Y-15344698D02*
X14261849Y-15363746D01*
X14261849Y-15363746D02*
X14261849Y-15420888D01*
X14261849Y-15420888D02*
X14252325Y-15439936D01*
X14252325Y-15439936D02*
X14242801Y-15449460D01*
X14242801Y-15449460D02*
X14223753Y-15458984D01*
X14223753Y-15458984D02*
X14195182Y-15458984D01*
X14318992Y-15325650D02*
X14395182Y-15325650D01*
X14347563Y-15258984D02*
X14347563Y-15430412D01*
X14347563Y-15430412D02*
X14357087Y-15449460D01*
X14357087Y-15449460D02*
X14376134Y-15458984D01*
X14376134Y-15458984D02*
X14395182Y-15458984D01*
X14614230Y-15325650D02*
X14614230Y-15525650D01*
X14614230Y-15335174D02*
X14633277Y-15325650D01*
X14633277Y-15325650D02*
X14671373Y-15325650D01*
X14671373Y-15325650D02*
X14690420Y-15335174D01*
X14690420Y-15335174D02*
X14699944Y-15344698D01*
X14699944Y-15344698D02*
X14709468Y-15363746D01*
X14709468Y-15363746D02*
X14709468Y-15420888D01*
X14709468Y-15420888D02*
X14699944Y-15439936D01*
X14699944Y-15439936D02*
X14690420Y-15449460D01*
X14690420Y-15449460D02*
X14671373Y-15458984D01*
X14671373Y-15458984D02*
X14633277Y-15458984D01*
X14633277Y-15458984D02*
X14614230Y-15449460D01*
X14823753Y-15458984D02*
X14804706Y-15449460D01*
X14804706Y-15449460D02*
X14795182Y-15430412D01*
X14795182Y-15430412D02*
X14795182Y-15258984D01*
X14985658Y-15458984D02*
X14985658Y-15354222D01*
X14985658Y-15354222D02*
X14976134Y-15335174D01*
X14976134Y-15335174D02*
X14957087Y-15325650D01*
X14957087Y-15325650D02*
X14918992Y-15325650D01*
X14918992Y-15325650D02*
X14899944Y-15335174D01*
X14985658Y-15449460D02*
X14966611Y-15458984D01*
X14966611Y-15458984D02*
X14918992Y-15458984D01*
X14918992Y-15458984D02*
X14899944Y-15449460D01*
X14899944Y-15449460D02*
X14890420Y-15430412D01*
X14890420Y-15430412D02*
X14890420Y-15411365D01*
X14890420Y-15411365D02*
X14899944Y-15392317D01*
X14899944Y-15392317D02*
X14918992Y-15382793D01*
X14918992Y-15382793D02*
X14966611Y-15382793D01*
X14966611Y-15382793D02*
X14985658Y-15373269D01*
X15052325Y-15325650D02*
X15128515Y-15325650D01*
X15080896Y-15258984D02*
X15080896Y-15430412D01*
X15080896Y-15430412D02*
X15090420Y-15449460D01*
X15090420Y-15449460D02*
X15109468Y-15458984D01*
X15109468Y-15458984D02*
X15128515Y-15458984D01*
X15271373Y-15449460D02*
X15252325Y-15458984D01*
X15252325Y-15458984D02*
X15214230Y-15458984D01*
X15214230Y-15458984D02*
X15195182Y-15449460D01*
X15195182Y-15449460D02*
X15185658Y-15430412D01*
X15185658Y-15430412D02*
X15185658Y-15354222D01*
X15185658Y-15354222D02*
X15195182Y-15335174D01*
X15195182Y-15335174D02*
X15214230Y-15325650D01*
X15214230Y-15325650D02*
X15252325Y-15325650D01*
X15252325Y-15325650D02*
X15271373Y-15335174D01*
X15271373Y-15335174D02*
X15280896Y-15354222D01*
X15280896Y-15354222D02*
X15280896Y-15373269D01*
X15280896Y-15373269D02*
X15185658Y-15392317D01*
X15452325Y-15458984D02*
X15452325Y-15258984D01*
X15452325Y-15449460D02*
X15433277Y-15458984D01*
X15433277Y-15458984D02*
X15395182Y-15458984D01*
X15395182Y-15458984D02*
X15376134Y-15449460D01*
X15376134Y-15449460D02*
X15366611Y-15439936D01*
X15366611Y-15439936D02*
X15357087Y-15420888D01*
X15357087Y-15420888D02*
X15357087Y-15363746D01*
X15357087Y-15363746D02*
X15366611Y-15344698D01*
X15366611Y-15344698D02*
X15376134Y-15335174D01*
X15376134Y-15335174D02*
X15395182Y-15325650D01*
X15395182Y-15325650D02*
X15433277Y-15325650D01*
X15433277Y-15325650D02*
X15452325Y-15335174D01*
X15528515Y-15535174D02*
X15538039Y-15525650D01*
X15538039Y-15525650D02*
X15557087Y-15497079D01*
X15557087Y-15497079D02*
X15566611Y-15478031D01*
X15566611Y-15478031D02*
X15576134Y-15449460D01*
X15576134Y-15449460D02*
X15585658Y-15401841D01*
X15585658Y-15401841D02*
X15585658Y-15363746D01*
X15585658Y-15363746D02*
X15576134Y-15316127D01*
X15576134Y-15316127D02*
X15566611Y-15287555D01*
X15566611Y-15287555D02*
X15557087Y-15268508D01*
X15557087Y-15268508D02*
X15538039Y-15239936D01*
X15538039Y-15239936D02*
X15528515Y-15230412D01*
X8772500Y-15631500D02*
G75*
G02*
X8572500Y-15631500I-100000J0D01*
G01*
X8572500Y-15631500D02*
G75*
G02*
X8772500Y-15631500I100000J0D01*
G01*
X9014229Y-15522984D02*
X9138039Y-15522984D01*
X9138039Y-15522984D02*
X9071372Y-15599174D01*
X9071372Y-15599174D02*
X9099944Y-15599174D01*
X9099944Y-15599174D02*
X9118991Y-15608698D01*
X9118991Y-15608698D02*
X9128515Y-15618222D01*
X9128515Y-15618222D02*
X9138039Y-15637269D01*
X9138039Y-15637269D02*
X9138039Y-15684888D01*
X9138039Y-15684888D02*
X9128515Y-15703936D01*
X9128515Y-15703936D02*
X9118991Y-15713460D01*
X9118991Y-15713460D02*
X9099944Y-15722984D01*
X9099944Y-15722984D02*
X9042801Y-15722984D01*
X9042801Y-15722984D02*
X9023753Y-15713460D01*
X9023753Y-15713460D02*
X9014229Y-15703936D01*
X9223753Y-15703936D02*
X9233277Y-15713460D01*
X9233277Y-15713460D02*
X9223753Y-15722984D01*
X9223753Y-15722984D02*
X9214229Y-15713460D01*
X9214229Y-15713460D02*
X9223753Y-15703936D01*
X9223753Y-15703936D02*
X9223753Y-15722984D01*
X9309467Y-15542031D02*
X9318991Y-15532508D01*
X9318991Y-15532508D02*
X9338039Y-15522984D01*
X9338039Y-15522984D02*
X9385658Y-15522984D01*
X9385658Y-15522984D02*
X9404705Y-15532508D01*
X9404705Y-15532508D02*
X9414229Y-15542031D01*
X9414229Y-15542031D02*
X9423753Y-15561079D01*
X9423753Y-15561079D02*
X9423753Y-15580127D01*
X9423753Y-15580127D02*
X9414229Y-15608698D01*
X9414229Y-15608698D02*
X9299944Y-15722984D01*
X9299944Y-15722984D02*
X9423753Y-15722984D01*
X9547563Y-15522984D02*
X9566610Y-15522984D01*
X9566610Y-15522984D02*
X9585658Y-15532508D01*
X9585658Y-15532508D02*
X9595182Y-15542031D01*
X9595182Y-15542031D02*
X9604705Y-15561079D01*
X9604705Y-15561079D02*
X9614229Y-15599174D01*
X9614229Y-15599174D02*
X9614229Y-15646793D01*
X9614229Y-15646793D02*
X9604705Y-15684888D01*
X9604705Y-15684888D02*
X9595182Y-15703936D01*
X9595182Y-15703936D02*
X9585658Y-15713460D01*
X9585658Y-15713460D02*
X9566610Y-15722984D01*
X9566610Y-15722984D02*
X9547563Y-15722984D01*
X9547563Y-15722984D02*
X9528515Y-15713460D01*
X9528515Y-15713460D02*
X9518991Y-15703936D01*
X9518991Y-15703936D02*
X9509467Y-15684888D01*
X9509467Y-15684888D02*
X9499944Y-15646793D01*
X9499944Y-15646793D02*
X9499944Y-15599174D01*
X9499944Y-15599174D02*
X9509467Y-15561079D01*
X9509467Y-15561079D02*
X9518991Y-15542031D01*
X9518991Y-15542031D02*
X9528515Y-15532508D01*
X9528515Y-15532508D02*
X9547563Y-15522984D01*
X9738039Y-15522984D02*
X9757086Y-15522984D01*
X9757086Y-15522984D02*
X9776134Y-15532508D01*
X9776134Y-15532508D02*
X9785658Y-15542031D01*
X9785658Y-15542031D02*
X9795182Y-15561079D01*
X9795182Y-15561079D02*
X9804705Y-15599174D01*
X9804705Y-15599174D02*
X9804705Y-15646793D01*
X9804705Y-15646793D02*
X9795182Y-15684888D01*
X9795182Y-15684888D02*
X9785658Y-15703936D01*
X9785658Y-15703936D02*
X9776134Y-15713460D01*
X9776134Y-15713460D02*
X9757086Y-15722984D01*
X9757086Y-15722984D02*
X9738039Y-15722984D01*
X9738039Y-15722984D02*
X9718991Y-15713460D01*
X9718991Y-15713460D02*
X9709467Y-15703936D01*
X9709467Y-15703936D02*
X9699944Y-15684888D01*
X9699944Y-15684888D02*
X9690420Y-15646793D01*
X9690420Y-15646793D02*
X9690420Y-15599174D01*
X9690420Y-15599174D02*
X9699944Y-15561079D01*
X9699944Y-15561079D02*
X9709467Y-15542031D01*
X9709467Y-15542031D02*
X9718991Y-15532508D01*
X9718991Y-15532508D02*
X9738039Y-15522984D01*
X9890420Y-15722984D02*
X9890420Y-15589650D01*
X9890420Y-15608698D02*
X9899944Y-15599174D01*
X9899944Y-15599174D02*
X9918991Y-15589650D01*
X9918991Y-15589650D02*
X9947563Y-15589650D01*
X9947563Y-15589650D02*
X9966610Y-15599174D01*
X9966610Y-15599174D02*
X9976134Y-15618222D01*
X9976134Y-15618222D02*
X9976134Y-15722984D01*
X9976134Y-15618222D02*
X9985658Y-15599174D01*
X9985658Y-15599174D02*
X10004705Y-15589650D01*
X10004705Y-15589650D02*
X10033277Y-15589650D01*
X10033277Y-15589650D02*
X10052325Y-15599174D01*
X10052325Y-15599174D02*
X10061848Y-15618222D01*
X10061848Y-15618222D02*
X10061848Y-15722984D01*
X10157086Y-15722984D02*
X10157086Y-15589650D01*
X10157086Y-15608698D02*
X10166610Y-15599174D01*
X10166610Y-15599174D02*
X10185658Y-15589650D01*
X10185658Y-15589650D02*
X10214229Y-15589650D01*
X10214229Y-15589650D02*
X10233277Y-15599174D01*
X10233277Y-15599174D02*
X10242801Y-15618222D01*
X10242801Y-15618222D02*
X10242801Y-15722984D01*
X10242801Y-15618222D02*
X10252325Y-15599174D01*
X10252325Y-15599174D02*
X10271372Y-15589650D01*
X10271372Y-15589650D02*
X10299944Y-15589650D01*
X10299944Y-15589650D02*
X10318991Y-15599174D01*
X10318991Y-15599174D02*
X10328515Y-15618222D01*
X10328515Y-15618222D02*
X10328515Y-15722984D01*
X10718991Y-15513460D02*
X10547563Y-15770603D01*
X10976134Y-15522984D02*
X10995182Y-15522984D01*
X10995182Y-15522984D02*
X11014229Y-15532508D01*
X11014229Y-15532508D02*
X11023753Y-15542031D01*
X11023753Y-15542031D02*
X11033277Y-15561079D01*
X11033277Y-15561079D02*
X11042801Y-15599174D01*
X11042801Y-15599174D02*
X11042801Y-15646793D01*
X11042801Y-15646793D02*
X11033277Y-15684888D01*
X11033277Y-15684888D02*
X11023753Y-15703936D01*
X11023753Y-15703936D02*
X11014229Y-15713460D01*
X11014229Y-15713460D02*
X10995182Y-15722984D01*
X10995182Y-15722984D02*
X10976134Y-15722984D01*
X10976134Y-15722984D02*
X10957087Y-15713460D01*
X10957087Y-15713460D02*
X10947563Y-15703936D01*
X10947563Y-15703936D02*
X10938039Y-15684888D01*
X10938039Y-15684888D02*
X10928515Y-15646793D01*
X10928515Y-15646793D02*
X10928515Y-15599174D01*
X10928515Y-15599174D02*
X10938039Y-15561079D01*
X10938039Y-15561079D02*
X10947563Y-15542031D01*
X10947563Y-15542031D02*
X10957087Y-15532508D01*
X10957087Y-15532508D02*
X10976134Y-15522984D01*
X11128515Y-15703936D02*
X11138039Y-15713460D01*
X11138039Y-15713460D02*
X11128515Y-15722984D01*
X11128515Y-15722984D02*
X11118991Y-15713460D01*
X11118991Y-15713460D02*
X11128515Y-15703936D01*
X11128515Y-15703936D02*
X11128515Y-15722984D01*
X11328515Y-15722984D02*
X11214229Y-15722984D01*
X11271372Y-15722984D02*
X11271372Y-15522984D01*
X11271372Y-15522984D02*
X11252325Y-15551555D01*
X11252325Y-15551555D02*
X11233277Y-15570603D01*
X11233277Y-15570603D02*
X11214229Y-15580127D01*
X11404706Y-15542031D02*
X11414229Y-15532508D01*
X11414229Y-15532508D02*
X11433277Y-15522984D01*
X11433277Y-15522984D02*
X11480896Y-15522984D01*
X11480896Y-15522984D02*
X11499944Y-15532508D01*
X11499944Y-15532508D02*
X11509467Y-15542031D01*
X11509467Y-15542031D02*
X11518991Y-15561079D01*
X11518991Y-15561079D02*
X11518991Y-15580127D01*
X11518991Y-15580127D02*
X11509467Y-15608698D01*
X11509467Y-15608698D02*
X11395182Y-15722984D01*
X11395182Y-15722984D02*
X11518991Y-15722984D01*
X11690420Y-15522984D02*
X11652325Y-15522984D01*
X11652325Y-15522984D02*
X11633277Y-15532508D01*
X11633277Y-15532508D02*
X11623753Y-15542031D01*
X11623753Y-15542031D02*
X11604706Y-15570603D01*
X11604706Y-15570603D02*
X11595182Y-15608698D01*
X11595182Y-15608698D02*
X11595182Y-15684888D01*
X11595182Y-15684888D02*
X11604706Y-15703936D01*
X11604706Y-15703936D02*
X11614229Y-15713460D01*
X11614229Y-15713460D02*
X11633277Y-15722984D01*
X11633277Y-15722984D02*
X11671372Y-15722984D01*
X11671372Y-15722984D02*
X11690420Y-15713460D01*
X11690420Y-15713460D02*
X11699944Y-15703936D01*
X11699944Y-15703936D02*
X11709467Y-15684888D01*
X11709467Y-15684888D02*
X11709467Y-15637269D01*
X11709467Y-15637269D02*
X11699944Y-15618222D01*
X11699944Y-15618222D02*
X11690420Y-15608698D01*
X11690420Y-15608698D02*
X11671372Y-15599174D01*
X11671372Y-15599174D02*
X11633277Y-15599174D01*
X11633277Y-15599174D02*
X11614229Y-15608698D01*
X11614229Y-15608698D02*
X11604706Y-15618222D01*
X11604706Y-15618222D02*
X11595182Y-15637269D01*
X11833277Y-15522984D02*
X11852325Y-15522984D01*
X11852325Y-15522984D02*
X11871372Y-15532508D01*
X11871372Y-15532508D02*
X11880896Y-15542031D01*
X11880896Y-15542031D02*
X11890420Y-15561079D01*
X11890420Y-15561079D02*
X11899944Y-15599174D01*
X11899944Y-15599174D02*
X11899944Y-15646793D01*
X11899944Y-15646793D02*
X11890420Y-15684888D01*
X11890420Y-15684888D02*
X11880896Y-15703936D01*
X11880896Y-15703936D02*
X11871372Y-15713460D01*
X11871372Y-15713460D02*
X11852325Y-15722984D01*
X11852325Y-15722984D02*
X11833277Y-15722984D01*
X11833277Y-15722984D02*
X11814229Y-15713460D01*
X11814229Y-15713460D02*
X11804706Y-15703936D01*
X11804706Y-15703936D02*
X11795182Y-15684888D01*
X11795182Y-15684888D02*
X11785658Y-15646793D01*
X11785658Y-15646793D02*
X11785658Y-15599174D01*
X11785658Y-15599174D02*
X11795182Y-15561079D01*
X11795182Y-15561079D02*
X11804706Y-15542031D01*
X11804706Y-15542031D02*
X11814229Y-15532508D01*
X11814229Y-15532508D02*
X11833277Y-15522984D01*
X11976134Y-15522984D02*
X11976134Y-15561079D01*
X12052325Y-15522984D02*
X12052325Y-15561079D01*
X12347563Y-15799174D02*
X12338039Y-15789650D01*
X12338039Y-15789650D02*
X12318991Y-15761079D01*
X12318991Y-15761079D02*
X12309468Y-15742031D01*
X12309468Y-15742031D02*
X12299944Y-15713460D01*
X12299944Y-15713460D02*
X12290420Y-15665841D01*
X12290420Y-15665841D02*
X12290420Y-15627746D01*
X12290420Y-15627746D02*
X12299944Y-15580127D01*
X12299944Y-15580127D02*
X12309468Y-15551555D01*
X12309468Y-15551555D02*
X12318991Y-15532508D01*
X12318991Y-15532508D02*
X12338039Y-15503936D01*
X12338039Y-15503936D02*
X12347563Y-15494412D01*
X12414229Y-15542031D02*
X12423753Y-15532508D01*
X12423753Y-15532508D02*
X12442801Y-15522984D01*
X12442801Y-15522984D02*
X12490420Y-15522984D01*
X12490420Y-15522984D02*
X12509468Y-15532508D01*
X12509468Y-15532508D02*
X12518991Y-15542031D01*
X12518991Y-15542031D02*
X12528515Y-15561079D01*
X12528515Y-15561079D02*
X12528515Y-15580127D01*
X12528515Y-15580127D02*
X12518991Y-15608698D01*
X12518991Y-15608698D02*
X12404706Y-15722984D01*
X12404706Y-15722984D02*
X12528515Y-15722984D01*
X12766610Y-15722984D02*
X12766610Y-15522984D01*
X12852325Y-15722984D02*
X12852325Y-15618222D01*
X12852325Y-15618222D02*
X12842801Y-15599174D01*
X12842801Y-15599174D02*
X12823753Y-15589650D01*
X12823753Y-15589650D02*
X12795182Y-15589650D01*
X12795182Y-15589650D02*
X12776134Y-15599174D01*
X12776134Y-15599174D02*
X12766610Y-15608698D01*
X12976134Y-15722984D02*
X12957087Y-15713460D01*
X12957087Y-15713460D02*
X12947563Y-15703936D01*
X12947563Y-15703936D02*
X12938039Y-15684888D01*
X12938039Y-15684888D02*
X12938039Y-15627746D01*
X12938039Y-15627746D02*
X12947563Y-15608698D01*
X12947563Y-15608698D02*
X12957087Y-15599174D01*
X12957087Y-15599174D02*
X12976134Y-15589650D01*
X12976134Y-15589650D02*
X13004706Y-15589650D01*
X13004706Y-15589650D02*
X13023753Y-15599174D01*
X13023753Y-15599174D02*
X13033277Y-15608698D01*
X13033277Y-15608698D02*
X13042801Y-15627746D01*
X13042801Y-15627746D02*
X13042801Y-15684888D01*
X13042801Y-15684888D02*
X13033277Y-15703936D01*
X13033277Y-15703936D02*
X13023753Y-15713460D01*
X13023753Y-15713460D02*
X13004706Y-15722984D01*
X13004706Y-15722984D02*
X12976134Y-15722984D01*
X13157087Y-15722984D02*
X13138039Y-15713460D01*
X13138039Y-15713460D02*
X13128515Y-15694412D01*
X13128515Y-15694412D02*
X13128515Y-15522984D01*
X13309468Y-15713460D02*
X13290420Y-15722984D01*
X13290420Y-15722984D02*
X13252325Y-15722984D01*
X13252325Y-15722984D02*
X13233277Y-15713460D01*
X13233277Y-15713460D02*
X13223753Y-15694412D01*
X13223753Y-15694412D02*
X13223753Y-15618222D01*
X13223753Y-15618222D02*
X13233277Y-15599174D01*
X13233277Y-15599174D02*
X13252325Y-15589650D01*
X13252325Y-15589650D02*
X13290420Y-15589650D01*
X13290420Y-15589650D02*
X13309468Y-15599174D01*
X13309468Y-15599174D02*
X13318991Y-15618222D01*
X13318991Y-15618222D02*
X13318991Y-15637269D01*
X13318991Y-15637269D02*
X13223753Y-15656317D01*
X13395182Y-15713460D02*
X13414230Y-15722984D01*
X13414230Y-15722984D02*
X13452325Y-15722984D01*
X13452325Y-15722984D02*
X13471372Y-15713460D01*
X13471372Y-15713460D02*
X13480896Y-15694412D01*
X13480896Y-15694412D02*
X13480896Y-15684888D01*
X13480896Y-15684888D02*
X13471372Y-15665841D01*
X13471372Y-15665841D02*
X13452325Y-15656317D01*
X13452325Y-15656317D02*
X13423753Y-15656317D01*
X13423753Y-15656317D02*
X13404706Y-15646793D01*
X13404706Y-15646793D02*
X13395182Y-15627746D01*
X13395182Y-15627746D02*
X13395182Y-15618222D01*
X13395182Y-15618222D02*
X13404706Y-15599174D01*
X13404706Y-15599174D02*
X13423753Y-15589650D01*
X13423753Y-15589650D02*
X13452325Y-15589650D01*
X13452325Y-15589650D02*
X13471372Y-15599174D01*
X13547563Y-15799174D02*
X13557087Y-15789650D01*
X13557087Y-15789650D02*
X13576134Y-15761079D01*
X13576134Y-15761079D02*
X13585658Y-15742031D01*
X13585658Y-15742031D02*
X13595182Y-15713460D01*
X13595182Y-15713460D02*
X13604706Y-15665841D01*
X13604706Y-15665841D02*
X13604706Y-15627746D01*
X13604706Y-15627746D02*
X13595182Y-15580127D01*
X13595182Y-15580127D02*
X13585658Y-15551555D01*
X13585658Y-15551555D02*
X13576134Y-15532508D01*
X13576134Y-15532508D02*
X13557087Y-15503936D01*
X13557087Y-15503936D02*
X13547563Y-15494412D01*
X13909468Y-15799174D02*
X13899944Y-15789650D01*
X13899944Y-15789650D02*
X13880896Y-15761079D01*
X13880896Y-15761079D02*
X13871372Y-15742031D01*
X13871372Y-15742031D02*
X13861849Y-15713460D01*
X13861849Y-15713460D02*
X13852325Y-15665841D01*
X13852325Y-15665841D02*
X13852325Y-15627746D01*
X13852325Y-15627746D02*
X13861849Y-15580127D01*
X13861849Y-15580127D02*
X13871372Y-15551555D01*
X13871372Y-15551555D02*
X13880896Y-15532508D01*
X13880896Y-15532508D02*
X13899944Y-15503936D01*
X13899944Y-15503936D02*
X13909468Y-15494412D01*
X13985658Y-15589650D02*
X13985658Y-15722984D01*
X13985658Y-15608698D02*
X13995182Y-15599174D01*
X13995182Y-15599174D02*
X14014230Y-15589650D01*
X14014230Y-15589650D02*
X14042801Y-15589650D01*
X14042801Y-15589650D02*
X14061849Y-15599174D01*
X14061849Y-15599174D02*
X14071372Y-15618222D01*
X14071372Y-15618222D02*
X14071372Y-15722984D01*
X14195182Y-15722984D02*
X14176134Y-15713460D01*
X14176134Y-15713460D02*
X14166611Y-15703936D01*
X14166611Y-15703936D02*
X14157087Y-15684888D01*
X14157087Y-15684888D02*
X14157087Y-15627746D01*
X14157087Y-15627746D02*
X14166611Y-15608698D01*
X14166611Y-15608698D02*
X14176134Y-15599174D01*
X14176134Y-15599174D02*
X14195182Y-15589650D01*
X14195182Y-15589650D02*
X14223753Y-15589650D01*
X14223753Y-15589650D02*
X14242801Y-15599174D01*
X14242801Y-15599174D02*
X14252325Y-15608698D01*
X14252325Y-15608698D02*
X14261849Y-15627746D01*
X14261849Y-15627746D02*
X14261849Y-15684888D01*
X14261849Y-15684888D02*
X14252325Y-15703936D01*
X14252325Y-15703936D02*
X14242801Y-15713460D01*
X14242801Y-15713460D02*
X14223753Y-15722984D01*
X14223753Y-15722984D02*
X14195182Y-15722984D01*
X14318992Y-15589650D02*
X14395182Y-15589650D01*
X14347563Y-15522984D02*
X14347563Y-15694412D01*
X14347563Y-15694412D02*
X14357087Y-15713460D01*
X14357087Y-15713460D02*
X14376134Y-15722984D01*
X14376134Y-15722984D02*
X14395182Y-15722984D01*
X14614230Y-15589650D02*
X14614230Y-15789650D01*
X14614230Y-15599174D02*
X14633277Y-15589650D01*
X14633277Y-15589650D02*
X14671373Y-15589650D01*
X14671373Y-15589650D02*
X14690420Y-15599174D01*
X14690420Y-15599174D02*
X14699944Y-15608698D01*
X14699944Y-15608698D02*
X14709468Y-15627746D01*
X14709468Y-15627746D02*
X14709468Y-15684888D01*
X14709468Y-15684888D02*
X14699944Y-15703936D01*
X14699944Y-15703936D02*
X14690420Y-15713460D01*
X14690420Y-15713460D02*
X14671373Y-15722984D01*
X14671373Y-15722984D02*
X14633277Y-15722984D01*
X14633277Y-15722984D02*
X14614230Y-15713460D01*
X14823753Y-15722984D02*
X14804706Y-15713460D01*
X14804706Y-15713460D02*
X14795182Y-15694412D01*
X14795182Y-15694412D02*
X14795182Y-15522984D01*
X14985658Y-15722984D02*
X14985658Y-15618222D01*
X14985658Y-15618222D02*
X14976134Y-15599174D01*
X14976134Y-15599174D02*
X14957087Y-15589650D01*
X14957087Y-15589650D02*
X14918992Y-15589650D01*
X14918992Y-15589650D02*
X14899944Y-15599174D01*
X14985658Y-15713460D02*
X14966611Y-15722984D01*
X14966611Y-15722984D02*
X14918992Y-15722984D01*
X14918992Y-15722984D02*
X14899944Y-15713460D01*
X14899944Y-15713460D02*
X14890420Y-15694412D01*
X14890420Y-15694412D02*
X14890420Y-15675365D01*
X14890420Y-15675365D02*
X14899944Y-15656317D01*
X14899944Y-15656317D02*
X14918992Y-15646793D01*
X14918992Y-15646793D02*
X14966611Y-15646793D01*
X14966611Y-15646793D02*
X14985658Y-15637269D01*
X15052325Y-15589650D02*
X15128515Y-15589650D01*
X15080896Y-15522984D02*
X15080896Y-15694412D01*
X15080896Y-15694412D02*
X15090420Y-15713460D01*
X15090420Y-15713460D02*
X15109468Y-15722984D01*
X15109468Y-15722984D02*
X15128515Y-15722984D01*
X15271373Y-15713460D02*
X15252325Y-15722984D01*
X15252325Y-15722984D02*
X15214230Y-15722984D01*
X15214230Y-15722984D02*
X15195182Y-15713460D01*
X15195182Y-15713460D02*
X15185658Y-15694412D01*
X15185658Y-15694412D02*
X15185658Y-15618222D01*
X15185658Y-15618222D02*
X15195182Y-15599174D01*
X15195182Y-15599174D02*
X15214230Y-15589650D01*
X15214230Y-15589650D02*
X15252325Y-15589650D01*
X15252325Y-15589650D02*
X15271373Y-15599174D01*
X15271373Y-15599174D02*
X15280896Y-15618222D01*
X15280896Y-15618222D02*
X15280896Y-15637269D01*
X15280896Y-15637269D02*
X15185658Y-15656317D01*
X15452325Y-15722984D02*
X15452325Y-15522984D01*
X15452325Y-15713460D02*
X15433277Y-15722984D01*
X15433277Y-15722984D02*
X15395182Y-15722984D01*
X15395182Y-15722984D02*
X15376134Y-15713460D01*
X15376134Y-15713460D02*
X15366611Y-15703936D01*
X15366611Y-15703936D02*
X15357087Y-15684888D01*
X15357087Y-15684888D02*
X15357087Y-15627746D01*
X15357087Y-15627746D02*
X15366611Y-15608698D01*
X15366611Y-15608698D02*
X15376134Y-15599174D01*
X15376134Y-15599174D02*
X15395182Y-15589650D01*
X15395182Y-15589650D02*
X15433277Y-15589650D01*
X15433277Y-15589650D02*
X15452325Y-15599174D01*
X15528515Y-15799174D02*
X15538039Y-15789650D01*
X15538039Y-15789650D02*
X15557087Y-15761079D01*
X15557087Y-15761079D02*
X15566611Y-15742031D01*
X15566611Y-15742031D02*
X15576134Y-15713460D01*
X15576134Y-15713460D02*
X15585658Y-15665841D01*
X15585658Y-15665841D02*
X15585658Y-15627746D01*
X15585658Y-15627746D02*
X15576134Y-15580127D01*
X15576134Y-15580127D02*
X15566611Y-15551555D01*
X15566611Y-15551555D02*
X15557087Y-15532508D01*
X15557087Y-15532508D02*
X15538039Y-15503936D01*
X15538039Y-15503936D02*
X15528515Y-15494412D01*
M02*
