%TF.GenerationSoftware,KiCad,Pcbnew,8.0.4*%
%TF.CreationDate,2025-04-19T21:16:23+05:30*%
%TF.ProjectId,Snakebot_pcb_dev,536e616b-6562-46f7-945f-7063625f6465,rev?*%
%TF.SameCoordinates,Original*%
%TF.FileFunction,Copper,L1,Top*%
%TF.FilePolarity,Positive*%
%FSLAX46Y46*%
G04 Gerber Fmt 4.6, Leading zero omitted, Abs format (unit mm)*
G04 Created by KiCad (PCBNEW 8.0.4) date 2025-04-19 21:16:23*
%MOMM*%
%LPD*%
G01*
G04 APERTURE LIST*
G04 Aperture macros list*
%AMRoundRect*
0 Rectangle with rounded corners*
0 $1 Rounding radius*
0 $2 $3 $4 $5 $6 $7 $8 $9 X,Y pos of 4 corners*
0 Add a 4 corners polygon primitive as box body*
4,1,4,$2,$3,$4,$5,$6,$7,$8,$9,$2,$3,0*
0 Add four circle primitives for the rounded corners*
1,1,$1+$1,$2,$3*
1,1,$1+$1,$4,$5*
1,1,$1+$1,$6,$7*
1,1,$1+$1,$8,$9*
0 Add four rect primitives between the rounded corners*
20,1,$1+$1,$2,$3,$4,$5,0*
20,1,$1+$1,$4,$5,$6,$7,0*
20,1,$1+$1,$6,$7,$8,$9,0*
20,1,$1+$1,$8,$9,$2,$3,0*%
G04 Aperture macros list end*
%TA.AperFunction,ComponentPad*%
%ADD10RoundRect,0.250000X0.600000X0.750000X-0.600000X0.750000X-0.600000X-0.750000X0.600000X-0.750000X0*%
%TD*%
%TA.AperFunction,ComponentPad*%
%ADD11O,1.700000X2.000000*%
%TD*%
%TA.AperFunction,SMDPad,CuDef*%
%ADD12RoundRect,0.237500X0.250000X0.237500X-0.250000X0.237500X-0.250000X-0.237500X0.250000X-0.237500X0*%
%TD*%
%TA.AperFunction,SMDPad,CuDef*%
%ADD13RoundRect,0.250000X-0.325000X-0.450000X0.325000X-0.450000X0.325000X0.450000X-0.325000X0.450000X0*%
%TD*%
%TA.AperFunction,SMDPad,CuDef*%
%ADD14RoundRect,0.237500X-0.250000X-0.237500X0.250000X-0.237500X0.250000X0.237500X-0.250000X0.237500X0*%
%TD*%
%TA.AperFunction,SMDPad,CuDef*%
%ADD15RoundRect,0.250000X-0.337500X-0.475000X0.337500X-0.475000X0.337500X0.475000X-0.337500X0.475000X0*%
%TD*%
%TA.AperFunction,SMDPad,CuDef*%
%ADD16R,1.500000X0.900000*%
%TD*%
%TA.AperFunction,SMDPad,CuDef*%
%ADD17R,0.900000X1.500000*%
%TD*%
%TA.AperFunction,SMDPad,CuDef*%
%ADD18R,0.900000X0.900000*%
%TD*%
%TA.AperFunction,HeatsinkPad*%
%ADD19C,0.600000*%
%TD*%
%TA.AperFunction,SMDPad,CuDef*%
%ADD20R,3.800000X3.800000*%
%TD*%
%TA.AperFunction,SMDPad,CuDef*%
%ADD21RoundRect,0.237500X-0.300000X-0.237500X0.300000X-0.237500X0.300000X0.237500X-0.300000X0.237500X0*%
%TD*%
%TA.AperFunction,SMDPad,CuDef*%
%ADD22RoundRect,0.237500X0.300000X0.237500X-0.300000X0.237500X-0.300000X-0.237500X0.300000X-0.237500X0*%
%TD*%
%TA.AperFunction,ComponentPad*%
%ADD23RoundRect,0.250000X-0.600000X-0.750000X0.600000X-0.750000X0.600000X0.750000X-0.600000X0.750000X0*%
%TD*%
%TA.AperFunction,ComponentPad*%
%ADD24RoundRect,0.250000X0.600000X0.725000X-0.600000X0.725000X-0.600000X-0.725000X0.600000X-0.725000X0*%
%TD*%
%TA.AperFunction,ComponentPad*%
%ADD25O,1.700000X1.950000*%
%TD*%
%TA.AperFunction,ComponentPad*%
%ADD26RoundRect,0.250000X0.725000X-0.600000X0.725000X0.600000X-0.725000X0.600000X-0.725000X-0.600000X0*%
%TD*%
%TA.AperFunction,ComponentPad*%
%ADD27O,1.950000X1.700000*%
%TD*%
%TA.AperFunction,SMDPad,CuDef*%
%ADD28R,2.850000X6.600000*%
%TD*%
%TA.AperFunction,SMDPad,CuDef*%
%ADD29R,1.000000X2.800000*%
%TD*%
%TA.AperFunction,SMDPad,CuDef*%
%ADD30RoundRect,0.075000X0.350000X0.075000X-0.350000X0.075000X-0.350000X-0.075000X0.350000X-0.075000X0*%
%TD*%
%TA.AperFunction,SMDPad,CuDef*%
%ADD31RoundRect,0.075000X-0.075000X0.350000X-0.075000X-0.350000X0.075000X-0.350000X0.075000X0.350000X0*%
%TD*%
%TA.AperFunction,SMDPad,CuDef*%
%ADD32RoundRect,0.375000X-0.625000X-0.375000X0.625000X-0.375000X0.625000X0.375000X-0.625000X0.375000X0*%
%TD*%
%TA.AperFunction,SMDPad,CuDef*%
%ADD33RoundRect,0.500000X-0.500000X-1.400000X0.500000X-1.400000X0.500000X1.400000X-0.500000X1.400000X0*%
%TD*%
%TA.AperFunction,SMDPad,CuDef*%
%ADD34RoundRect,0.250000X0.375000X1.000000X-0.375000X1.000000X-0.375000X-1.000000X0.375000X-1.000000X0*%
%TD*%
%TA.AperFunction,SMDPad,CuDef*%
%ADD35RoundRect,0.250000X0.350000X0.450000X-0.350000X0.450000X-0.350000X-0.450000X0.350000X-0.450000X0*%
%TD*%
%TA.AperFunction,SMDPad,CuDef*%
%ADD36RoundRect,0.250000X0.337500X0.475000X-0.337500X0.475000X-0.337500X-0.475000X0.337500X-0.475000X0*%
%TD*%
%TA.AperFunction,SMDPad,CuDef*%
%ADD37R,1.295400X0.254000*%
%TD*%
%TA.AperFunction,SMDPad,CuDef*%
%ADD38R,0.254000X0.711200*%
%TD*%
%TA.AperFunction,ComponentPad*%
%ADD39RoundRect,0.250000X-0.725000X0.600000X-0.725000X-0.600000X0.725000X-0.600000X0.725000X0.600000X0*%
%TD*%
%TA.AperFunction,ViaPad*%
%ADD40C,0.600000*%
%TD*%
%TA.AperFunction,Conductor*%
%ADD41C,0.200000*%
%TD*%
G04 APERTURE END LIST*
D10*
%TO.P,J5,1,Pin_1*%
%TO.N,VCC*%
X117250000Y-143750000D03*
D11*
%TO.P,J5,2,Pin_2*%
%TO.N,GND*%
X114750000Y-143750000D03*
%TD*%
D12*
%TO.P,R4,1*%
%TO.N,VCC*%
X116912500Y-127500000D03*
%TO.P,R4,2*%
%TO.N,Net-(D3-A)*%
X115087500Y-127500000D03*
%TD*%
D13*
%TO.P,D3,1,K*%
%TO.N,Net-(D3-K)*%
X107069000Y-129281300D03*
%TO.P,D3,2,A*%
%TO.N,Net-(D3-A)*%
X109119000Y-129281300D03*
%TD*%
D14*
%TO.P,R5,1*%
%TO.N,Net-(U3-CSP)*%
X111587500Y-129500000D03*
%TO.P,R5,2*%
%TO.N,+7.5V*%
X113412500Y-129500000D03*
%TD*%
D15*
%TO.P,C3,1*%
%TO.N,GND*%
X107075000Y-123250000D03*
%TO.P,C3,2*%
%TO.N,EN*%
X109150000Y-123250000D03*
%TD*%
D16*
%TO.P,U1,1,GND*%
%TO.N,GND*%
X118650000Y-120630000D03*
%TO.P,U1,2,VDD*%
%TO.N,+3.3V*%
X118650000Y-121900000D03*
%TO.P,U1,3,EN*%
%TO.N,EN*%
X118650000Y-123170000D03*
%TO.P,U1,4,SENSOR_VP*%
%TO.N,unconnected-(U1-SENSOR_VP-Pad4)*%
X118650000Y-124440000D03*
%TO.P,U1,5,SENSOR_VN*%
%TO.N,unconnected-(U1-SENSOR_VN-Pad5)*%
X118650000Y-125710000D03*
%TO.P,U1,6,IO34*%
%TO.N,unconnected-(U1-IO34-Pad6)*%
X118650000Y-126980000D03*
%TO.P,U1,7,IO35*%
%TO.N,unconnected-(U1-IO35-Pad7)*%
X118650000Y-128250000D03*
%TO.P,U1,8,IO32*%
%TO.N,IO32*%
X118650000Y-129520000D03*
%TO.P,U1,9,IO33*%
%TO.N,IO33*%
X118650000Y-130790000D03*
%TO.P,U1,10,IO25*%
%TO.N,IO25*%
X118650000Y-132060000D03*
%TO.P,U1,11,IO26*%
%TO.N,IO26*%
X118650000Y-133330000D03*
%TO.P,U1,12,IO27*%
%TO.N,IO27*%
X118650000Y-134600000D03*
%TO.P,U1,13,IO14*%
%TO.N,unconnected-(U1-IO14-Pad13)*%
X118650000Y-135870000D03*
%TO.P,U1,14,IO12*%
%TO.N,unconnected-(U1-IO12-Pad14)*%
X118650000Y-137140000D03*
D17*
%TO.P,U1,15,GND*%
%TO.N,GND*%
X121690000Y-138390000D03*
%TO.P,U1,16,IO13*%
%TO.N,unconnected-(U1-IO13-Pad16)*%
X122960000Y-138390000D03*
%TO.P,U1,17,NC*%
%TO.N,unconnected-(U1-NC-Pad17)*%
X124230000Y-138390000D03*
%TO.P,U1,18,NC*%
%TO.N,unconnected-(U1-NC-Pad18)*%
X125500000Y-138390000D03*
%TO.P,U1,19,NC*%
%TO.N,unconnected-(U1-NC-Pad19)*%
X126770000Y-138390000D03*
%TO.P,U1,20,NC*%
%TO.N,unconnected-(U1-NC-Pad20)*%
X128040000Y-138390000D03*
%TO.P,U1,21,NC*%
%TO.N,unconnected-(U1-NC-Pad21)*%
X129310000Y-138390000D03*
%TO.P,U1,22,NC*%
%TO.N,unconnected-(U1-NC-Pad22)*%
X130580000Y-138390000D03*
%TO.P,U1,23,IO15*%
%TO.N,unconnected-(U1-IO15-Pad23)*%
X131850000Y-138390000D03*
%TO.P,U1,24,IO2*%
%TO.N,unconnected-(U1-IO2-Pad24)*%
X133120000Y-138390000D03*
D16*
%TO.P,U1,25,IO0*%
%TO.N,BOOT*%
X136150000Y-137140000D03*
%TO.P,U1,26,IO4*%
%TO.N,unconnected-(U1-IO4-Pad26)*%
X136150000Y-135870000D03*
%TO.P,U1,27,IO16*%
%TO.N,MOTOR_H*%
X136150000Y-134600000D03*
%TO.P,U1,28,IO17*%
%TO.N,MOTOR_V*%
X136150000Y-133330000D03*
%TO.P,U1,29,IO5*%
%TO.N,unconnected-(U1-IO5-Pad29)*%
X136150000Y-132060000D03*
%TO.P,U1,30,IO18*%
%TO.N,TX2*%
X136150000Y-130790000D03*
%TO.P,U1,31,IO19*%
%TO.N,RX2*%
X136150000Y-129520000D03*
%TO.P,U1,32,NC*%
%TO.N,unconnected-(U1-NC-Pad32)*%
X136150000Y-128250000D03*
%TO.P,U1,33,IO21*%
%TO.N,SDA*%
X136150000Y-126980000D03*
%TO.P,U1,34,RXD0/IO3*%
%TO.N,RX*%
X136150000Y-125710000D03*
%TO.P,U1,35,TXD0/IO1*%
%TO.N,TX*%
X136150000Y-124440000D03*
%TO.P,U1,36,IO22*%
%TO.N,SCL*%
X136150000Y-123170000D03*
%TO.P,U1,37,IO23*%
%TO.N,unconnected-(U1-IO23-Pad37)*%
X136150000Y-121900000D03*
%TO.P,U1,38,GND*%
%TO.N,GND*%
X136150000Y-120630000D03*
D18*
%TO.P,U1,39,GND*%
X124500000Y-126950000D03*
D19*
X124500000Y-127650000D03*
D18*
X124500000Y-128350000D03*
D19*
X124500000Y-129050000D03*
D18*
X124500000Y-129750000D03*
D19*
X125200000Y-126950000D03*
X125200000Y-128350000D03*
X125200000Y-129750000D03*
X125875000Y-127650000D03*
X125875000Y-129050000D03*
D18*
X125900000Y-126950000D03*
X125900000Y-128350000D03*
D20*
X125900000Y-128350000D03*
D18*
X125900000Y-129750000D03*
D19*
X126600000Y-126950000D03*
X126600000Y-128350000D03*
X126600000Y-129750000D03*
D18*
X127300000Y-126950000D03*
D19*
X127300000Y-127650000D03*
D18*
X127300000Y-128350000D03*
D19*
X127300000Y-129050000D03*
D18*
X127300000Y-129750000D03*
%TD*%
D12*
%TO.P,R10,1*%
%TO.N,+3.3V*%
X144325000Y-130575000D03*
%TO.P,R10,2*%
%TO.N,SDA*%
X142500000Y-130575000D03*
%TD*%
D15*
%TO.P,C12,1*%
%TO.N,GND*%
X98962500Y-136750000D03*
%TO.P,C12,2*%
%TO.N,Net-(U3-VCC)*%
X101037500Y-136750000D03*
%TD*%
D21*
%TO.P,C8,1*%
%TO.N,VCC*%
X143637500Y-143250000D03*
%TO.P,C8,2*%
%TO.N,GND*%
X145362500Y-143250000D03*
%TD*%
D22*
%TO.P,C13,1*%
%TO.N,GND*%
X112975000Y-120750000D03*
%TO.P,C13,2*%
%TO.N,+3.3V*%
X111250000Y-120750000D03*
%TD*%
%TO.P,C14,1*%
%TO.N,GND*%
X112975000Y-122250000D03*
%TO.P,C14,2*%
%TO.N,+3.3V*%
X111250000Y-122250000D03*
%TD*%
D13*
%TO.P,D1,1,K*%
%TO.N,GND*%
X155487500Y-131000000D03*
%TO.P,D1,2,A*%
%TO.N,Net-(D1-A)*%
X157537500Y-131000000D03*
%TD*%
D12*
%TO.P,R1,1*%
%TO.N,+3.3V*%
X116525000Y-123750000D03*
%TO.P,R1,2*%
%TO.N,EN*%
X114700000Y-123750000D03*
%TD*%
%TO.P,R9,1*%
%TO.N,+3.3V*%
X144325000Y-129075000D03*
%TO.P,R9,2*%
%TO.N,SCL*%
X142500000Y-129075000D03*
%TD*%
D23*
%TO.P,J2,1,Pin_1*%
%TO.N,+7.5V*%
X155750000Y-120532500D03*
D11*
%TO.P,J2,2,Pin_2*%
%TO.N,GND*%
X158250000Y-120532500D03*
%TD*%
D24*
%TO.P,J4,1,Pin_1*%
%TO.N,GND*%
X145250000Y-134300000D03*
D25*
%TO.P,J4,2,Pin_2*%
%TO.N,+7.5V*%
X142750000Y-134300000D03*
%TO.P,J4,3,Pin_3*%
%TO.N,MOTOR_V*%
X140250000Y-134300000D03*
%TD*%
D26*
%TO.P,J8,1,Pin_1*%
%TO.N,+3.3V*%
X90000000Y-135000000D03*
D27*
%TO.P,J8,2,Pin_2*%
%TO.N,IO27*%
X90000000Y-132500000D03*
%TO.P,J8,3,Pin_3*%
%TO.N,IO26*%
X90000000Y-130000000D03*
%TO.P,J8,4,Pin_4*%
%TO.N,IO25*%
X90000000Y-127500000D03*
%TO.P,J8,5,Pin_5*%
%TO.N,IO33*%
X90000000Y-125000000D03*
%TO.P,J8,6,Pin_6*%
%TO.N,IO32*%
X90000000Y-122500000D03*
%TO.P,J8,7,Pin_7*%
%TO.N,EN*%
X90000000Y-120000000D03*
%TO.P,J8,8,Pin_8*%
%TO.N,GND*%
X90000000Y-117500000D03*
%TD*%
D28*
%TO.P,L1,1,1*%
%TO.N,Net-(U3-BST)*%
X114419000Y-135000000D03*
%TO.P,L1,2,2*%
%TO.N,Net-(U3-CSP)*%
X108769000Y-135000000D03*
%TD*%
D29*
%TO.P,SW2,1,1*%
%TO.N,GND*%
X94400000Y-132650000D03*
X94400000Y-126850000D03*
%TO.P,SW2,2,2*%
%TO.N,BOOT*%
X98400000Y-132650000D03*
X98400000Y-126850000D03*
%TD*%
D24*
%TO.P,J3,1,Pin_1*%
%TO.N,GND*%
X145250000Y-139250000D03*
D25*
%TO.P,J3,2,Pin_2*%
%TO.N,+7.5V*%
X142750000Y-139250000D03*
%TO.P,J3,3,Pin_3*%
%TO.N,MOTOR_H*%
X140250000Y-139250000D03*
%TD*%
D22*
%TO.P,C16,1*%
%TO.N,Net-(U4-CPOUT)*%
X140937500Y-130575000D03*
%TO.P,C16,2*%
%TO.N,GND*%
X139212500Y-130575000D03*
%TD*%
D13*
%TO.P,D2,1,K*%
%TO.N,Net-(D2-K)*%
X107069000Y-127281300D03*
%TO.P,D2,2,A*%
%TO.N,Net-(D2-A)*%
X109119000Y-127281300D03*
%TD*%
D24*
%TO.P,J1,1,Pin_1*%
%TO.N,+5V*%
X130750000Y-143750000D03*
D25*
%TO.P,J1,2,Pin_2*%
%TO.N,GND*%
X128250000Y-143750000D03*
%TO.P,J1,3,Pin_3*%
%TO.N,TX*%
X125750000Y-143750000D03*
%TO.P,J1,4,Pin_4*%
%TO.N,RX*%
X123250000Y-143750000D03*
%TD*%
D22*
%TO.P,C1,1*%
%TO.N,+3.3V*%
X116475000Y-120750000D03*
%TO.P,C1,2*%
%TO.N,GND*%
X114750000Y-120750000D03*
%TD*%
%TO.P,C6,1*%
%TO.N,EN*%
X112975000Y-123750000D03*
%TO.P,C6,2*%
%TO.N,GND*%
X111250000Y-123750000D03*
%TD*%
D29*
%TO.P,SW1,1,1*%
%TO.N,GND*%
X94400000Y-122900000D03*
X94400000Y-117100000D03*
%TO.P,SW1,2,2*%
%TO.N,EN*%
X98400000Y-122900000D03*
X98400000Y-117100000D03*
%TD*%
D15*
%TO.P,C4,1*%
%TO.N,Net-(SW3-B)*%
X155512500Y-126750000D03*
%TO.P,C4,2*%
%TO.N,GND*%
X157587500Y-126750000D03*
%TD*%
D12*
%TO.P,R3,1*%
%TO.N,VCC*%
X113412500Y-127500000D03*
%TO.P,R3,2*%
%TO.N,Net-(D2-A)*%
X111587500Y-127500000D03*
%TD*%
D14*
%TO.P,R7,1*%
%TO.N,Net-(U3-NTC)*%
X103206500Y-129281300D03*
%TO.P,R7,2*%
%TO.N,GND*%
X105031500Y-129281300D03*
%TD*%
D22*
%TO.P,C9,1*%
%TO.N,Net-(U3-BST)*%
X105112500Y-125250000D03*
%TO.P,C9,2*%
%TO.N,Net-(U3-SW)*%
X103387500Y-125250000D03*
%TD*%
D30*
%TO.P,U4,1,CLKIN*%
%TO.N,GND*%
X143376500Y-125950000D03*
%TO.P,U4,2,NC*%
%TO.N,unconnected-(U4-NC-Pad2)*%
X143376500Y-125450000D03*
%TO.P,U4,3,NC*%
%TO.N,unconnected-(U4-NC-Pad3)*%
X143376500Y-124950000D03*
%TO.P,U4,4,NC*%
%TO.N,unconnected-(U4-NC-Pad4)*%
X143376500Y-124450000D03*
%TO.P,U4,5,NC*%
%TO.N,unconnected-(U4-NC-Pad5)*%
X143376500Y-123950000D03*
%TO.P,U4,6,AUX_DA*%
%TO.N,unconnected-(U4-AUX_DA-Pad6)*%
X143376500Y-123450000D03*
D31*
%TO.P,U4,7,AUX_CL*%
%TO.N,unconnected-(U4-AUX_CL-Pad7)*%
X142676500Y-122750000D03*
%TO.P,U4,8,VLOGIC*%
%TO.N,+3.3V*%
X142176500Y-122750000D03*
%TO.P,U4,9,AD0*%
%TO.N,GND*%
X141676500Y-122750000D03*
%TO.P,U4,10,REGOUT*%
%TO.N,Net-(U4-REGOUT)*%
X141176500Y-122750000D03*
%TO.P,U4,11,FSYNC*%
%TO.N,GND*%
X140676500Y-122750000D03*
%TO.P,U4,12,INT*%
%TO.N,unconnected-(U4-INT-Pad12)*%
X140176500Y-122750000D03*
D30*
%TO.P,U4,13,VDD*%
%TO.N,+3.3V*%
X139476500Y-123450000D03*
%TO.P,U4,14,NC*%
%TO.N,unconnected-(U4-NC-Pad14)*%
X139476500Y-123950000D03*
%TO.P,U4,15,NC*%
%TO.N,unconnected-(U4-NC-Pad15)*%
X139476500Y-124450000D03*
%TO.P,U4,16,NC*%
%TO.N,unconnected-(U4-NC-Pad16)*%
X139476500Y-124950000D03*
%TO.P,U4,17,NC*%
%TO.N,unconnected-(U4-NC-Pad17)*%
X139476500Y-125450000D03*
%TO.P,U4,18,GND*%
%TO.N,GND*%
X139476500Y-125950000D03*
D31*
%TO.P,U4,19,RESV*%
%TO.N,unconnected-(U4-RESV-Pad19)*%
X140176500Y-126650000D03*
%TO.P,U4,20,CPOUT*%
%TO.N,Net-(U4-CPOUT)*%
X140676500Y-126650000D03*
%TO.P,U4,21,RESV*%
%TO.N,unconnected-(U4-RESV-Pad21)*%
X141176500Y-126650000D03*
%TO.P,U4,22,RESV*%
%TO.N,unconnected-(U4-RESV-Pad22)*%
X141676500Y-126650000D03*
%TO.P,U4,23,SCL*%
%TO.N,SCL*%
X142176500Y-126650000D03*
%TO.P,U4,24,SDA*%
%TO.N,SDA*%
X142676500Y-126650000D03*
%TD*%
D22*
%TO.P,C2,1*%
%TO.N,+3.3V*%
X116475000Y-122250000D03*
%TO.P,C2,2*%
%TO.N,GND*%
X114750000Y-122250000D03*
%TD*%
D21*
%TO.P,C15,1*%
%TO.N,GND*%
X140314000Y-120750000D03*
%TO.P,C15,2*%
%TO.N,Net-(U4-REGOUT)*%
X142039000Y-120750000D03*
%TD*%
D32*
%TO.P,U2,1,GND*%
%TO.N,GND*%
X150350000Y-133700000D03*
%TO.P,U2,2,VO*%
%TO.N,+3.3V*%
X150350000Y-136000000D03*
D33*
X156650000Y-136000000D03*
D32*
%TO.P,U2,3,VI*%
%TO.N,Net-(SW3-B)*%
X150350000Y-138300000D03*
%TD*%
D21*
%TO.P,C10,1*%
%TO.N,+7.5V*%
X97000000Y-140750000D03*
%TO.P,C10,2*%
%TO.N,GND*%
X98725000Y-140750000D03*
%TD*%
D34*
%TO.P,SW3,1,A*%
%TO.N,+7.5V*%
X151750000Y-127750000D03*
%TO.P,SW3,2,B*%
%TO.N,Net-(SW3-B)*%
X149250000Y-127750000D03*
%TO.P,SW3,3,C*%
%TO.N,+5V*%
X146750000Y-127750000D03*
%TD*%
D35*
%TO.P,R8,1*%
%TO.N,GND*%
X104944000Y-136781300D03*
%TO.P,R8,2*%
%TO.N,Net-(U3-\u002AEN)*%
X102944000Y-136781300D03*
%TD*%
D10*
%TO.P,J6,1,Pin_1*%
%TO.N,VCC*%
X139500000Y-143750000D03*
D11*
%TO.P,J6,2,Pin_2*%
%TO.N,GND*%
X137000000Y-143750000D03*
%TD*%
D36*
%TO.P,C5,1*%
%TO.N,+3.3V*%
X109150000Y-120750000D03*
%TO.P,C5,2*%
%TO.N,GND*%
X107075000Y-120750000D03*
%TD*%
D14*
%TO.P,R2,1*%
%TO.N,Net-(SW3-B)*%
X155600000Y-129000000D03*
%TO.P,R2,2*%
%TO.N,Net-(D1-A)*%
X157425000Y-129000000D03*
%TD*%
D37*
%TO.P,U3,1,SW*%
%TO.N,Net-(U3-SW)*%
X102794000Y-132781301D03*
%TO.P,U3,2,VIN*%
%TO.N,VCC*%
X102794000Y-133281300D03*
%TO.P,U3,3,VCC*%
%TO.N,Net-(U3-VCC)*%
X102794000Y-133781299D03*
D38*
%TO.P,U3,4,CELL*%
%TO.N,GND*%
X102943999Y-134731300D03*
%TO.P,U3,5,SEL*%
X103444001Y-134731300D03*
%TO.P,U3,6,\u002AEN*%
%TO.N,Net-(U3-\u002AEN)*%
X103944000Y-134731300D03*
%TO.P,U3,7,NC*%
%TO.N,unconnected-(U3-NC-Pad7)*%
X104443999Y-134731300D03*
%TO.P,U3,8,AGND*%
%TO.N,GND*%
X104944001Y-134731300D03*
D37*
%TO.P,U3,9,BATT*%
%TO.N,+7.5V*%
X105094000Y-133781299D03*
%TO.P,U3,10,CSP*%
%TO.N,Net-(U3-CSP)*%
X105094000Y-133281300D03*
%TO.P,U3,11,\u002ACHGOK*%
%TO.N,Net-(D3-K)*%
X105094000Y-132781301D03*
D38*
%TO.P,U3,12,\u002AACOK*%
%TO.N,Net-(D2-K)*%
X104944001Y-131831300D03*
%TO.P,U3,13,NTC*%
%TO.N,Net-(U3-NTC)*%
X104443999Y-131831300D03*
%TO.P,U3,14,TMR*%
%TO.N,Net-(U3-TMR)*%
X103944000Y-131831300D03*
%TO.P,U3,15,BST*%
%TO.N,Net-(U3-BST)*%
X103444001Y-131831300D03*
%TO.P,U3,16,PGND*%
%TO.N,GND*%
X102943999Y-131831300D03*
%TD*%
D12*
%TO.P,R6,1*%
%TO.N,Net-(U3-VCC)*%
X105144000Y-123531300D03*
%TO.P,R6,2*%
%TO.N,Net-(U3-NTC)*%
X103319000Y-123531300D03*
%TD*%
D15*
%TO.P,C11,1*%
%TO.N,Net-(U3-TMR)*%
X103212500Y-127250000D03*
%TO.P,C11,2*%
%TO.N,GND*%
X105287500Y-127250000D03*
%TD*%
D39*
%TO.P,J7,1,Pin_1*%
%TO.N,GND*%
X164000000Y-117500000D03*
D27*
%TO.P,J7,2,Pin_2*%
X164000000Y-120000000D03*
%TO.P,J7,3,Pin_3*%
%TO.N,EN*%
X164000000Y-122500000D03*
%TO.P,J7,4,Pin_4*%
%TO.N,BOOT*%
X164000000Y-125000000D03*
%TO.P,J7,5,Pin_5*%
%TO.N,RX2*%
X164000000Y-127500000D03*
%TO.P,J7,6,Pin_6*%
%TO.N,TX2*%
X164000000Y-130000000D03*
%TO.P,J7,7,Pin_7*%
%TO.N,+3.3V*%
X164000000Y-132500000D03*
%TO.P,J7,8,Pin_8*%
X164000000Y-135000000D03*
%TD*%
D22*
%TO.P,C7,1*%
%TO.N,BOOT*%
X97112500Y-136750000D03*
%TO.P,C7,2*%
%TO.N,GND*%
X95387500Y-136750000D03*
%TD*%
D40*
%TO.N,GND*%
X101000000Y-122000000D03*
X138800000Y-121000000D03*
X98631985Y-139118015D03*
X114750000Y-126000000D03*
X113500000Y-124900000D03*
X137600000Y-121000000D03*
X99000000Y-135000000D03*
X148100735Y-138149265D03*
X100911320Y-131732525D03*
X99500000Y-138250000D03*
X100600000Y-123600000D03*
X144082605Y-121614453D03*
X143250000Y-120750000D03*
%TO.N,VCC*%
X117000000Y-126250000D03*
X101500000Y-133250000D03*
%TO.N,Net-(U3-BST)*%
X101500000Y-131000000D03*
X116750000Y-136250000D03*
%TO.N,+3.3V*%
X115750000Y-124900000D03*
X92800000Y-119800000D03*
X114000000Y-119750000D03*
X126000000Y-119750000D03*
X148600000Y-135600000D03*
X146000000Y-130800000D03*
%TO.N,+7.5V*%
X95500000Y-139250000D03*
X106500000Y-135250000D03*
%TO.N,EN*%
X103000000Y-122000000D03*
X116500000Y-125500000D03*
X108250000Y-122000000D03*
%TO.N,RX*%
X138125000Y-127050000D03*
%TO.N,BOOT*%
X159750000Y-131750000D03*
X101000000Y-140000000D03*
X138000000Y-137000000D03*
%TO.N,TX*%
X140075000Y-128000000D03*
%TO.N,RX2*%
X137550000Y-129600000D03*
%TO.N,TX2*%
X137625000Y-130825000D03*
%TO.N,IO32*%
X116600000Y-129525000D03*
%TO.N,IO33*%
X116650000Y-130950000D03*
%TO.N,IO27*%
X116700000Y-134975000D03*
%TO.N,IO26*%
X116650000Y-133725000D03*
%TO.N,IO25*%
X116650000Y-132225000D03*
%TO.N,SCL*%
X141400000Y-127800000D03*
X137750000Y-123250000D03*
%TO.N,SDA*%
X139400000Y-128800000D03*
X141276500Y-128800000D03*
X142800000Y-127800000D03*
%TD*%
D41*
%TO.N,GND*%
X140676500Y-122550000D02*
X140676500Y-121112500D01*
X141829686Y-121525000D02*
X142725000Y-121525000D01*
X107612500Y-126000000D02*
X107075000Y-125462500D01*
X143250000Y-121000000D02*
X143250000Y-120750000D01*
X101584744Y-137800000D02*
X100012500Y-137800000D01*
X96100000Y-124600000D02*
X94400000Y-122900000D01*
X100012500Y-137800000D02*
X98962500Y-136750000D01*
X139476500Y-125950000D02*
X139019090Y-125950000D01*
X101010095Y-131831300D02*
X100911320Y-131732525D01*
X104944001Y-136781299D02*
X104944000Y-136781300D01*
X141676500Y-122750000D02*
X141676500Y-121678186D01*
X143833910Y-125950000D02*
X144500000Y-125283910D01*
X112400000Y-124900000D02*
X113500000Y-124900000D01*
X138350000Y-125280910D02*
X138350000Y-123001471D01*
X141676500Y-121678186D02*
X141829686Y-121525000D01*
X137600000Y-122251471D02*
X137600000Y-121000000D01*
X101925000Y-135750299D02*
X101925000Y-137459744D01*
X102943999Y-134731300D02*
X101925000Y-135750299D01*
X140314000Y-120750000D02*
X139050000Y-120750000D01*
X100012500Y-137800000D02*
X99562500Y-138250000D01*
X137230000Y-120630000D02*
X137600000Y-121000000D01*
X100600000Y-123600000D02*
X99600000Y-124600000D01*
X112975000Y-122250000D02*
X112750000Y-122250000D01*
X143376500Y-125950000D02*
X143833910Y-125950000D01*
X102943999Y-131831300D02*
X101010095Y-131831300D01*
X99562500Y-138250000D02*
X99500000Y-138250000D01*
X139019090Y-125950000D02*
X138350000Y-125280910D01*
X114750000Y-120000000D02*
X115250000Y-119500000D01*
X101925000Y-137459744D02*
X101584744Y-137800000D01*
X107075000Y-120750000D02*
X102250000Y-120750000D01*
X107075000Y-123250000D02*
X107075000Y-120750000D01*
X107075000Y-123250000D02*
X107075000Y-125462500D01*
X139050000Y-120750000D02*
X138800000Y-121000000D01*
X112975000Y-120750000D02*
X112975000Y-122250000D01*
X105287500Y-129025300D02*
X105031500Y-129281300D01*
X136150000Y-120630000D02*
X137230000Y-120630000D01*
X99000000Y-135000000D02*
X99000000Y-136712500D01*
X138350000Y-123001471D02*
X137600000Y-122251471D01*
X114750000Y-120750000D02*
X114750000Y-122250000D01*
X117520000Y-119500000D02*
X118650000Y-120630000D01*
X103925300Y-137800000D02*
X101584744Y-137800000D01*
X111250000Y-123750000D02*
X112400000Y-124900000D01*
X104944001Y-134731300D02*
X104944001Y-136781299D01*
X104944000Y-136781300D02*
X103925300Y-137800000D01*
X99600000Y-124600000D02*
X96100000Y-124600000D01*
X99000000Y-136712500D02*
X98962500Y-136750000D01*
X98631985Y-139118015D02*
X98631985Y-140656985D01*
X112750000Y-122250000D02*
X111250000Y-123750000D01*
X114750000Y-120750000D02*
X114750000Y-120000000D01*
X94400000Y-122900000D02*
X94400000Y-117100000D01*
X112975000Y-122250000D02*
X114750000Y-122250000D01*
X102250000Y-120750000D02*
X101000000Y-122000000D01*
X140264000Y-120800000D02*
X140314000Y-120750000D01*
X98631985Y-140656985D02*
X98725000Y-140750000D01*
X102943999Y-134731300D02*
X103444001Y-134731300D01*
X105287500Y-127250000D02*
X105287500Y-129025300D01*
X144082605Y-121614453D02*
X144500000Y-122031848D01*
X142725000Y-121525000D02*
X143250000Y-121000000D01*
X115250000Y-119500000D02*
X117520000Y-119500000D01*
X114750000Y-126000000D02*
X107612500Y-126000000D01*
X107075000Y-125462500D02*
X105287500Y-127250000D01*
X140676500Y-121112500D02*
X140314000Y-120750000D01*
X144500000Y-122031848D02*
X144500000Y-125283910D01*
X121690000Y-138390000D02*
X121480000Y-138600000D01*
%TO.N,Net-(SW3-B)*%
X149250000Y-127750000D02*
X148625000Y-128375000D01*
X148625000Y-130900000D02*
X153700000Y-130900000D01*
X147800000Y-137000000D02*
X147800000Y-131725000D01*
X150350000Y-138300000D02*
X149100000Y-138300000D01*
X153700000Y-130900000D02*
X155600000Y-129000000D01*
X147800000Y-131725000D02*
X148625000Y-130900000D01*
X155600000Y-126837500D02*
X155512500Y-126750000D01*
X148625000Y-128375000D02*
X148625000Y-130900000D01*
X155600000Y-129000000D02*
X155600000Y-126837500D01*
X149100000Y-138300000D02*
X147800000Y-137000000D01*
%TO.N,VCC*%
X116137500Y-126725000D02*
X116525000Y-126725000D01*
X118550000Y-145050000D02*
X138200000Y-145050000D01*
X101500000Y-133250000D02*
X101531300Y-133281300D01*
X114187500Y-126725000D02*
X116137500Y-126725000D01*
X117250000Y-143750000D02*
X118550000Y-145050000D01*
X138200000Y-145050000D02*
X139500000Y-143750000D01*
X116525000Y-126725000D02*
X117000000Y-126250000D01*
X143387500Y-143500000D02*
X143637500Y-143250000D01*
X113412500Y-127500000D02*
X114187500Y-126725000D01*
X101531300Y-133281300D02*
X102794000Y-133281300D01*
X116137500Y-126725000D02*
X116912500Y-127500000D01*
X139500000Y-143500000D02*
X143387500Y-143500000D01*
%TO.N,Net-(U3-SW)*%
X100400000Y-132650000D02*
X100250000Y-132500000D01*
X102794000Y-132781301D02*
X102662699Y-132650000D01*
X101400000Y-126671814D02*
X102821814Y-125250000D01*
X102821814Y-125250000D02*
X103387500Y-125250000D01*
X101400000Y-129000000D02*
X101400000Y-126671814D01*
X100250000Y-130150000D02*
X101400000Y-129000000D01*
X100250000Y-132500000D02*
X100250000Y-130150000D01*
X102662699Y-132650000D02*
X100400000Y-132650000D01*
%TO.N,Net-(U3-BST)*%
X103444001Y-131248702D02*
X103353994Y-131248702D01*
X102019000Y-126618500D02*
X102412500Y-126225000D01*
X102412500Y-126225000D02*
X104137500Y-126225000D01*
X116250000Y-135750000D02*
X115169000Y-135750000D01*
X102019000Y-129913708D02*
X101500000Y-130432708D01*
X115169000Y-135750000D02*
X114419000Y-135000000D01*
X102019000Y-129913708D02*
X102019000Y-126618500D01*
X103444001Y-131248702D02*
X103444001Y-131831300D01*
X104137500Y-126225000D02*
X105112500Y-125250000D01*
X116750000Y-136250000D02*
X116250000Y-135750000D01*
X103353994Y-131248702D02*
X102019000Y-129913708D01*
X101500000Y-130432708D02*
X101500000Y-131000000D01*
%TO.N,+3.3V*%
X157650000Y-135000000D02*
X164000000Y-135000000D01*
X142176500Y-122292590D02*
X142544090Y-121925000D01*
X145775000Y-130575000D02*
X146000000Y-130800000D01*
X143500000Y-119750000D02*
X137295000Y-119750000D01*
X143900000Y-120000000D02*
X143650000Y-119750000D01*
X142176500Y-122750000D02*
X142176500Y-122292590D01*
X116525000Y-122300000D02*
X116475000Y-122250000D01*
X138200000Y-122173500D02*
X138200000Y-120655000D01*
X92800000Y-132200000D02*
X92800000Y-120000000D01*
X142923529Y-121925000D02*
X143900000Y-120948529D01*
X144900000Y-120400000D02*
X144875000Y-120375000D01*
X143900000Y-120948529D02*
X143900000Y-120000000D01*
X149950000Y-135600000D02*
X150350000Y-136000000D01*
X116525000Y-120800000D02*
X116475000Y-120750000D01*
X116475000Y-122250000D02*
X118300000Y-122250000D01*
X126000000Y-119750000D02*
X137295000Y-119750000D01*
X118300000Y-122250000D02*
X118650000Y-121900000D01*
X116475000Y-122250000D02*
X116475000Y-120750000D01*
X142544090Y-121925000D02*
X142923529Y-121925000D01*
X90000000Y-135000000D02*
X92800000Y-132200000D01*
X111250000Y-120750000D02*
X111250000Y-122250000D01*
X109150000Y-120750000D02*
X111250000Y-120750000D01*
X164000000Y-132500000D02*
X164000000Y-135000000D01*
X144325000Y-129075000D02*
X144900000Y-128500000D01*
X116525000Y-123750000D02*
X116525000Y-122300000D01*
X144900000Y-128500000D02*
X144900000Y-120400000D01*
X148600000Y-135600000D02*
X149950000Y-135600000D01*
X112250000Y-119750000D02*
X114000000Y-119750000D01*
X150350000Y-136000000D02*
X156650000Y-136000000D01*
X144325000Y-130575000D02*
X145775000Y-130575000D01*
X143650000Y-119750000D02*
X143500000Y-119750000D01*
X116525000Y-124125000D02*
X115750000Y-124900000D01*
X138200000Y-120655000D02*
X137425000Y-119880000D01*
X144875000Y-120375000D02*
X144250000Y-119750000D01*
X139476500Y-123450000D02*
X138200000Y-122173500D01*
X156650000Y-136000000D02*
X157650000Y-135000000D01*
X144250000Y-119750000D02*
X143500000Y-119750000D01*
X116525000Y-123750000D02*
X116525000Y-124125000D01*
X137295000Y-119750000D02*
X137425000Y-119880000D01*
X92800000Y-120000000D02*
X92800000Y-119800000D01*
X144325000Y-130575000D02*
X144325000Y-129075000D01*
X111250000Y-120750000D02*
X112250000Y-119750000D01*
%TO.N,+7.5V*%
X113412500Y-129500000D02*
X111987500Y-130925000D01*
X111987500Y-130925000D02*
X111987500Y-138762500D01*
X151750000Y-127750000D02*
X151750000Y-124532500D01*
X105094000Y-133781299D02*
X105094000Y-133844000D01*
X106500000Y-138750000D02*
X106500000Y-135250000D01*
X105094000Y-133844000D02*
X106500000Y-135250000D01*
X151750000Y-124532500D02*
X155750000Y-120532500D01*
X97000000Y-140750000D02*
X95500000Y-139250000D01*
X107250000Y-139500000D02*
X106500000Y-138750000D01*
X111987500Y-138762500D02*
X111250000Y-139500000D01*
X111250000Y-139500000D02*
X107250000Y-139500000D01*
%TO.N,Net-(U3-TMR)*%
X103944000Y-131183015D02*
X103944000Y-131831300D01*
X103464977Y-130793999D02*
X103554984Y-130793999D01*
X103554984Y-130793999D02*
X103944000Y-131183015D01*
X103212500Y-127250000D02*
X102419000Y-128043500D01*
X102419000Y-128043500D02*
X102419000Y-129748022D01*
X102419000Y-129748022D02*
X103464977Y-130793999D01*
%TO.N,EN*%
X109150000Y-123250000D02*
X109150000Y-122900000D01*
X101825000Y-122900000D02*
X98400000Y-122900000D01*
X118120000Y-123170000D02*
X117312500Y-123977500D01*
X102725000Y-122000000D02*
X101825000Y-122900000D01*
X114700000Y-124800000D02*
X115400000Y-125500000D01*
X112975000Y-123750000D02*
X114700000Y-123750000D01*
X118650000Y-123170000D02*
X118120000Y-123170000D01*
X90000000Y-120000000D02*
X91275000Y-118725000D01*
X114000000Y-125500000D02*
X114700000Y-124800000D01*
X103000000Y-122000000D02*
X102725000Y-122000000D01*
X114700000Y-124800000D02*
X114700000Y-123750000D01*
X98400000Y-122900000D02*
X98400000Y-117100000D01*
X96700000Y-115400000D02*
X98400000Y-117100000D01*
X117312500Y-124687500D02*
X116500000Y-125500000D01*
X111400000Y-125500000D02*
X114000000Y-125500000D01*
X92400000Y-115400000D02*
X96700000Y-115400000D01*
X109150000Y-122900000D02*
X108250000Y-122000000D01*
X109150000Y-123250000D02*
X111400000Y-125500000D01*
X115400000Y-125500000D02*
X116500000Y-125500000D01*
X91275000Y-118725000D02*
X91275000Y-116525000D01*
X91275000Y-116525000D02*
X92400000Y-115400000D01*
X117312500Y-123977500D02*
X117312500Y-124687500D01*
%TO.N,Net-(U3-VCC)*%
X101037500Y-135537799D02*
X99200000Y-133700299D01*
X99200000Y-126090685D02*
X102534385Y-122756300D01*
X104369000Y-122756300D02*
X105144000Y-123531300D01*
X101037500Y-136750000D02*
X101037500Y-135537799D01*
X101037500Y-135537799D02*
X102794000Y-133781299D01*
X102534385Y-122756300D02*
X104369000Y-122756300D01*
X99200000Y-133700299D02*
X99200000Y-126090685D01*
%TO.N,Net-(U4-REGOUT)*%
X141176500Y-121612500D02*
X142039000Y-120750000D01*
X141176500Y-122750000D02*
X141176500Y-121612500D01*
%TO.N,Net-(U4-CPOUT)*%
X140937500Y-130575000D02*
X140676500Y-130314000D01*
X140676500Y-130314000D02*
X140676500Y-126650000D01*
%TO.N,Net-(D2-A)*%
X109119000Y-127281300D02*
X111368800Y-127281300D01*
X111368800Y-127281300D02*
X111587500Y-127500000D01*
%TO.N,Net-(D2-K)*%
X107069000Y-127721556D02*
X105819000Y-128971556D01*
X105819000Y-130956301D02*
X104944001Y-131831300D01*
X107069000Y-127281300D02*
X107069000Y-127721556D01*
X105819000Y-128971556D02*
X105819000Y-130956301D01*
%TO.N,Net-(D3-K)*%
X107069000Y-130806301D02*
X107069000Y-129281300D01*
X105094000Y-132781301D02*
X107069000Y-130806301D01*
%TO.N,Net-(D3-A)*%
X109675300Y-128725000D02*
X113862500Y-128725000D01*
X109119000Y-129281300D02*
X109675300Y-128725000D01*
X113862500Y-128725000D02*
X115087500Y-127500000D01*
%TO.N,RX*%
X136150000Y-125710000D02*
X136785000Y-125710000D01*
X136785000Y-125710000D02*
X138125000Y-127050000D01*
%TO.N,BOOT*%
X97112500Y-136750000D02*
X97112500Y-135287500D01*
X98400000Y-134000000D02*
X98400000Y-132650000D01*
X100362500Y-140000000D02*
X101000000Y-140000000D01*
X136150000Y-137140000D02*
X137860000Y-137140000D01*
X97112500Y-136750000D02*
X100306250Y-139943750D01*
X164000000Y-125748654D02*
X164000000Y-125000000D01*
X159750000Y-129998654D02*
X164000000Y-125748654D01*
X137860000Y-137140000D02*
X138000000Y-137000000D01*
X97112500Y-135287500D02*
X98400000Y-134000000D01*
X100306250Y-139943750D02*
X100362500Y-140000000D01*
X159750000Y-131750000D02*
X159750000Y-129998654D01*
X98400000Y-132650000D02*
X98400000Y-126850000D01*
%TO.N,+5V*%
X146750000Y-127750000D02*
X146750000Y-139859744D01*
X132300000Y-142200000D02*
X130750000Y-143750000D01*
X146750000Y-139859744D02*
X144409744Y-142200000D01*
X144409744Y-142200000D02*
X132300000Y-142200000D01*
%TO.N,Net-(D1-A)*%
X157425000Y-130887500D02*
X157537500Y-131000000D01*
X157425000Y-129000000D02*
X157425000Y-130887500D01*
%TO.N,TX*%
X136150000Y-124440000D02*
X136680000Y-124440000D01*
X136150000Y-124440000D02*
X136515000Y-124440000D01*
X136515000Y-124440000D02*
X140075000Y-128000000D01*
%TO.N,MOTOR_H*%
X140250000Y-137540000D02*
X140250000Y-139250000D01*
X136150000Y-134600000D02*
X137310000Y-134600000D01*
X137310000Y-134600000D02*
X140250000Y-137540000D01*
%TO.N,MOTOR_V*%
X140250000Y-134300000D02*
X140250000Y-133555000D01*
X136150000Y-133330000D02*
X140025000Y-133330000D01*
X140250000Y-133555000D02*
X140025000Y-133330000D01*
%TO.N,RX2*%
X137470000Y-129520000D02*
X137550000Y-129600000D01*
X136150000Y-129520000D02*
X137470000Y-129520000D01*
%TO.N,TX2*%
X137590000Y-130790000D02*
X137625000Y-130825000D01*
X136150000Y-130790000D02*
X137590000Y-130790000D01*
%TO.N,IO32*%
X116605000Y-129520000D02*
X118650000Y-129520000D01*
X116600000Y-129525000D02*
X116605000Y-129520000D01*
%TO.N,IO33*%
X117000000Y-130950000D02*
X117160000Y-130790000D01*
X116650000Y-130950000D02*
X117000000Y-130950000D01*
X117160000Y-130790000D02*
X118650000Y-130790000D01*
%TO.N,IO27*%
X116700000Y-134975000D02*
X116975000Y-134975000D01*
X117350000Y-134600000D02*
X118650000Y-134600000D01*
X116975000Y-134975000D02*
X117350000Y-134600000D01*
%TO.N,IO26*%
X116650000Y-133725000D02*
X116875000Y-133725000D01*
X116875000Y-133725000D02*
X117270000Y-133330000D01*
X117270000Y-133330000D02*
X118650000Y-133330000D01*
%TO.N,IO25*%
X116650000Y-132225000D02*
X116900000Y-132225000D01*
X117065000Y-132060000D02*
X118650000Y-132060000D01*
X116900000Y-132225000D02*
X117065000Y-132060000D01*
%TO.N,Net-(U3-CSP)*%
X105094000Y-133281300D02*
X105968701Y-133281300D01*
X111587500Y-132181500D02*
X111587500Y-129500000D01*
X107687401Y-135000000D02*
X108769000Y-135000000D01*
X105968701Y-133281300D02*
X107687401Y-135000000D01*
X108769000Y-135000000D02*
X111587500Y-132181500D01*
%TO.N,Net-(U3-NTC)*%
X104212800Y-128275000D02*
X104212800Y-126715386D01*
X105668700Y-124475000D02*
X104262700Y-124475000D01*
X104212800Y-126715386D02*
X104903186Y-126025000D01*
X103206500Y-129281300D02*
X104443999Y-130518799D01*
X103206500Y-129281300D02*
X104212800Y-128275000D01*
X105641722Y-126025000D02*
X106194000Y-125472722D01*
X106194000Y-125472722D02*
X106194000Y-125000300D01*
X104262700Y-124475000D02*
X103319000Y-123531300D01*
X106194000Y-125000300D02*
X105668700Y-124475000D01*
X104903186Y-126025000D02*
X105641722Y-126025000D01*
X104443999Y-130518799D02*
X104443999Y-131831300D01*
%TO.N,Net-(U3-\u002AEN)*%
X103944000Y-135781300D02*
X103944000Y-134731300D01*
X102944000Y-136781300D02*
X103944000Y-135781300D01*
%TO.N,SCL*%
X141400000Y-127975000D02*
X141712500Y-128287500D01*
X136230000Y-123250000D02*
X136150000Y-123170000D01*
X137750000Y-123250000D02*
X137645000Y-123145000D01*
X141712500Y-128287500D02*
X142500000Y-129075000D01*
X142176500Y-127823500D02*
X142176500Y-126650000D01*
X141400000Y-127800000D02*
X141400000Y-127975000D01*
X141712500Y-128287500D02*
X142176500Y-127823500D01*
X137750000Y-123250000D02*
X136230000Y-123250000D01*
%TO.N,SDA*%
X138212500Y-128187500D02*
X138225000Y-128175000D01*
X142800000Y-127800000D02*
X142800000Y-126773500D01*
X137030000Y-126980000D02*
X136150000Y-126980000D01*
X138775000Y-128175000D02*
X138225000Y-128175000D01*
X142800000Y-126773500D02*
X142676500Y-126650000D01*
X142500000Y-130575000D02*
X141276500Y-129351500D01*
X138225000Y-128175000D02*
X137030000Y-126980000D01*
X139400000Y-128800000D02*
X138775000Y-128175000D01*
X141276500Y-129351500D02*
X141276500Y-128800000D01*
%TD*%
%TA.AperFunction,Conductor*%
%TO.N,GND*%
G36*
X91717941Y-115020185D02*
G01*
X91763696Y-115072989D01*
X91773640Y-115142147D01*
X91744615Y-115205703D01*
X91738583Y-115212181D01*
X90794481Y-116156282D01*
X90794479Y-116156284D01*
X90775765Y-116188699D01*
X90725197Y-116236914D01*
X90656590Y-116250136D01*
X90630060Y-116244629D01*
X90441129Y-116183242D01*
X90250000Y-116152969D01*
X90250000Y-117095854D01*
X90183343Y-117057370D01*
X90062535Y-117025000D01*
X89937465Y-117025000D01*
X89816657Y-117057370D01*
X89750000Y-117095854D01*
X89750000Y-116152969D01*
X89558872Y-116183242D01*
X89558869Y-116183242D01*
X89356782Y-116248904D01*
X89167442Y-116345379D01*
X88995540Y-116470272D01*
X88995535Y-116470276D01*
X88845276Y-116620535D01*
X88845272Y-116620540D01*
X88720379Y-116792442D01*
X88623904Y-116981782D01*
X88558242Y-117183870D01*
X88558242Y-117183873D01*
X88547769Y-117250000D01*
X89595854Y-117250000D01*
X89557370Y-117316657D01*
X89525000Y-117437465D01*
X89525000Y-117562535D01*
X89557370Y-117683343D01*
X89595854Y-117750000D01*
X88547769Y-117750000D01*
X88558242Y-117816126D01*
X88558242Y-117816129D01*
X88623904Y-118018217D01*
X88720379Y-118207557D01*
X88845272Y-118379459D01*
X88845276Y-118379464D01*
X88995535Y-118529723D01*
X88995540Y-118529727D01*
X89160218Y-118649372D01*
X89202884Y-118704701D01*
X89208863Y-118774315D01*
X89176258Y-118836110D01*
X89160218Y-118850008D01*
X88995214Y-118969890D01*
X88995209Y-118969894D01*
X88844890Y-119120213D01*
X88719951Y-119292179D01*
X88623444Y-119481585D01*
X88557753Y-119683760D01*
X88524500Y-119893713D01*
X88524500Y-120106286D01*
X88556488Y-120308255D01*
X88557754Y-120316243D01*
X88619721Y-120506958D01*
X88623444Y-120518414D01*
X88719951Y-120707820D01*
X88844890Y-120879786D01*
X88995209Y-121030105D01*
X88995214Y-121030109D01*
X89159793Y-121149682D01*
X89202459Y-121205011D01*
X89208438Y-121274625D01*
X89175833Y-121336420D01*
X89159793Y-121350318D01*
X88995214Y-121469890D01*
X88995209Y-121469894D01*
X88844890Y-121620213D01*
X88719951Y-121792179D01*
X88623444Y-121981585D01*
X88557753Y-122183760D01*
X88524500Y-122393713D01*
X88524500Y-122606286D01*
X88551142Y-122774501D01*
X88557754Y-122816243D01*
X88604648Y-122960568D01*
X88623444Y-123018414D01*
X88719951Y-123207820D01*
X88844890Y-123379786D01*
X88995209Y-123530105D01*
X88995214Y-123530109D01*
X89159793Y-123649682D01*
X89202459Y-123705011D01*
X89208438Y-123774625D01*
X89175833Y-123836420D01*
X89159793Y-123850318D01*
X88995214Y-123969890D01*
X88995209Y-123969894D01*
X88844890Y-124120213D01*
X88719951Y-124292179D01*
X88623444Y-124481585D01*
X88557753Y-124683760D01*
X88524500Y-124893713D01*
X88524500Y-125106286D01*
X88541263Y-125212127D01*
X88557754Y-125316243D01*
X88601128Y-125449735D01*
X88623444Y-125518414D01*
X88719951Y-125707820D01*
X88844890Y-125879786D01*
X88995209Y-126030105D01*
X88995214Y-126030109D01*
X89159793Y-126149682D01*
X89202459Y-126205011D01*
X89208438Y-126274625D01*
X89175833Y-126336420D01*
X89159793Y-126350318D01*
X88995214Y-126469890D01*
X88995209Y-126469894D01*
X88844890Y-126620213D01*
X88719951Y-126792179D01*
X88623444Y-126981585D01*
X88557753Y-127183760D01*
X88539701Y-127297738D01*
X88524500Y-127393713D01*
X88524500Y-127606287D01*
X88533044Y-127660234D01*
X88555181Y-127800003D01*
X88557754Y-127816243D01*
X88620514Y-128009398D01*
X88623444Y-128018414D01*
X88719951Y-128207820D01*
X88844890Y-128379786D01*
X88995209Y-128530105D01*
X88995214Y-128530109D01*
X89159793Y-128649682D01*
X89202459Y-128705011D01*
X89208438Y-128774625D01*
X89175833Y-128836420D01*
X89159793Y-128850318D01*
X88995214Y-128969890D01*
X88995209Y-128969894D01*
X88844890Y-129120213D01*
X88719951Y-129292179D01*
X88623444Y-129481585D01*
X88557753Y-129683760D01*
X88526023Y-129884095D01*
X88524500Y-129893713D01*
X88524500Y-130106287D01*
X88532874Y-130159159D01*
X88553935Y-130292135D01*
X88557754Y-130316243D01*
X88621300Y-130511818D01*
X88623444Y-130518414D01*
X88719951Y-130707820D01*
X88844890Y-130879786D01*
X88995209Y-131030105D01*
X88995214Y-131030109D01*
X89159793Y-131149682D01*
X89202459Y-131205011D01*
X89208438Y-131274625D01*
X89175833Y-131336420D01*
X89159793Y-131350318D01*
X88995214Y-131469890D01*
X88995209Y-131469894D01*
X88844890Y-131620213D01*
X88719951Y-131792179D01*
X88623444Y-131981585D01*
X88557753Y-132183760D01*
X88542660Y-132279057D01*
X88524500Y-132393713D01*
X88524500Y-132606287D01*
X88524523Y-132606430D01*
X88550828Y-132772518D01*
X88557754Y-132816243D01*
X88611834Y-132982684D01*
X88623444Y-133018414D01*
X88719951Y-133207820D01*
X88844890Y-133379786D01*
X88983705Y-133518601D01*
X89017190Y-133579924D01*
X89012206Y-133649616D01*
X88970334Y-133705549D01*
X88961121Y-133711821D01*
X88806342Y-133807289D01*
X88682289Y-133931342D01*
X88590187Y-134080663D01*
X88590185Y-134080668D01*
X88583074Y-134102128D01*
X88535001Y-134247203D01*
X88535001Y-134247204D01*
X88535000Y-134247204D01*
X88524500Y-134349983D01*
X88524500Y-135650001D01*
X88524501Y-135650018D01*
X88535000Y-135752796D01*
X88535001Y-135752799D01*
X88576479Y-135877969D01*
X88590186Y-135919334D01*
X88682288Y-136068656D01*
X88806344Y-136192712D01*
X88955666Y-136284814D01*
X89122203Y-136339999D01*
X89224991Y-136350500D01*
X90775008Y-136350499D01*
X90877797Y-136339999D01*
X91044334Y-136284814D01*
X91193656Y-136192712D01*
X91317712Y-136068656D01*
X91409814Y-135919334D01*
X91464999Y-135752797D01*
X91475500Y-135650009D01*
X91475499Y-134425095D01*
X91495184Y-134358057D01*
X91511813Y-134337420D01*
X91751389Y-134097844D01*
X93400000Y-134097844D01*
X93406401Y-134157372D01*
X93406403Y-134157379D01*
X93456645Y-134292086D01*
X93456649Y-134292093D01*
X93542809Y-134407187D01*
X93542812Y-134407190D01*
X93657906Y-134493350D01*
X93657913Y-134493354D01*
X93792620Y-134543596D01*
X93792627Y-134543598D01*
X93852155Y-134549999D01*
X93852172Y-134550000D01*
X94150000Y-134550000D01*
X94650000Y-134550000D01*
X94947828Y-134550000D01*
X94947844Y-134549999D01*
X95007372Y-134543598D01*
X95007379Y-134543596D01*
X95142086Y-134493354D01*
X95142093Y-134493350D01*
X95257187Y-134407190D01*
X95257190Y-134407187D01*
X95343350Y-134292093D01*
X95343354Y-134292086D01*
X95393596Y-134157379D01*
X95393598Y-134157372D01*
X95399999Y-134097844D01*
X95400000Y-134097827D01*
X95400000Y-132900000D01*
X94650000Y-132900000D01*
X94650000Y-134550000D01*
X94150000Y-134550000D01*
X94150000Y-132900000D01*
X93400000Y-132900000D01*
X93400000Y-134097844D01*
X91751389Y-134097844D01*
X93158506Y-132690728D01*
X93158511Y-132690724D01*
X93168714Y-132680520D01*
X93168716Y-132680520D01*
X93280520Y-132568716D01*
X93334171Y-132475789D01*
X93340583Y-132464684D01*
X93342134Y-132461998D01*
X93392702Y-132413783D01*
X93449520Y-132400000D01*
X94150000Y-132400000D01*
X94650000Y-132400000D01*
X95400000Y-132400000D01*
X95400000Y-131202172D01*
X95399999Y-131202155D01*
X95393598Y-131142627D01*
X95393596Y-131142620D01*
X95343354Y-131007913D01*
X95343350Y-131007906D01*
X95257190Y-130892812D01*
X95257187Y-130892809D01*
X95142093Y-130806649D01*
X95142086Y-130806645D01*
X95007379Y-130756403D01*
X95007372Y-130756401D01*
X94947844Y-130750000D01*
X94650000Y-130750000D01*
X94650000Y-132400000D01*
X94150000Y-132400000D01*
X94150000Y-130750000D01*
X93852155Y-130750000D01*
X93792627Y-130756401D01*
X93792620Y-130756403D01*
X93657913Y-130806645D01*
X93657910Y-130806647D01*
X93598811Y-130850889D01*
X93533346Y-130875306D01*
X93465073Y-130860454D01*
X93415668Y-130811049D01*
X93400500Y-130751622D01*
X93400500Y-128748377D01*
X93420185Y-128681338D01*
X93472989Y-128635583D01*
X93542147Y-128625639D01*
X93598812Y-128649111D01*
X93657910Y-128693352D01*
X93657913Y-128693354D01*
X93792620Y-128743596D01*
X93792627Y-128743598D01*
X93852155Y-128749999D01*
X93852172Y-128750000D01*
X94150000Y-128750000D01*
X94650000Y-128750000D01*
X94947828Y-128750000D01*
X94947844Y-128749999D01*
X95007372Y-128743598D01*
X95007379Y-128743596D01*
X95142086Y-128693354D01*
X95142093Y-128693350D01*
X95257187Y-128607190D01*
X95257190Y-128607187D01*
X95343350Y-128492093D01*
X95343354Y-128492086D01*
X95393596Y-128357379D01*
X95393598Y-128357372D01*
X95399999Y-128297844D01*
X95400000Y-128297827D01*
X95400000Y-127100000D01*
X94650000Y-127100000D01*
X94650000Y-128750000D01*
X94150000Y-128750000D01*
X94150000Y-126724000D01*
X94169685Y-126656961D01*
X94222489Y-126611206D01*
X94274000Y-126600000D01*
X95400000Y-126600000D01*
X95400000Y-125402172D01*
X95399999Y-125402155D01*
X95393598Y-125342627D01*
X95393596Y-125342620D01*
X95343354Y-125207913D01*
X95343350Y-125207906D01*
X95257190Y-125092812D01*
X95257187Y-125092809D01*
X95142093Y-125006649D01*
X95142086Y-125006645D01*
X95100626Y-124991182D01*
X95044692Y-124949311D01*
X95020275Y-124883847D01*
X95035126Y-124815574D01*
X95084531Y-124766168D01*
X95100626Y-124758818D01*
X95142086Y-124743354D01*
X95142093Y-124743350D01*
X95257187Y-124657190D01*
X95257190Y-124657187D01*
X95343350Y-124542093D01*
X95343354Y-124542086D01*
X95393596Y-124407379D01*
X95393598Y-124407372D01*
X95399999Y-124347844D01*
X95400000Y-124347827D01*
X95400000Y-123150000D01*
X94274000Y-123150000D01*
X94206961Y-123130315D01*
X94161206Y-123077511D01*
X94150000Y-123026000D01*
X94150000Y-122650000D01*
X94650000Y-122650000D01*
X95400000Y-122650000D01*
X95400000Y-121452172D01*
X95399999Y-121452155D01*
X95393598Y-121392627D01*
X95393596Y-121392620D01*
X95343354Y-121257913D01*
X95343350Y-121257906D01*
X95257190Y-121142812D01*
X95257187Y-121142809D01*
X95142093Y-121056649D01*
X95142086Y-121056645D01*
X95007379Y-121006403D01*
X95007372Y-121006401D01*
X94947844Y-121000000D01*
X94650000Y-121000000D01*
X94650000Y-122650000D01*
X94150000Y-122650000D01*
X94150000Y-121000000D01*
X93852155Y-121000000D01*
X93792627Y-121006401D01*
X93792620Y-121006403D01*
X93657913Y-121056645D01*
X93657910Y-121056647D01*
X93598811Y-121100889D01*
X93533346Y-121125306D01*
X93465073Y-121110454D01*
X93415668Y-121061049D01*
X93400500Y-121001622D01*
X93400500Y-120382412D01*
X93420185Y-120315373D01*
X93427555Y-120305097D01*
X93429810Y-120302267D01*
X93429816Y-120302262D01*
X93525789Y-120149522D01*
X93585368Y-119979255D01*
X93585369Y-119979249D01*
X93605565Y-119800003D01*
X93605565Y-119799996D01*
X93585369Y-119620750D01*
X93585368Y-119620745D01*
X93574675Y-119590185D01*
X93525789Y-119450478D01*
X93500773Y-119410666D01*
X93482311Y-119381284D01*
X93429816Y-119297738D01*
X93302262Y-119170184D01*
X93149523Y-119074211D01*
X92979254Y-119014631D01*
X92979249Y-119014630D01*
X92800004Y-118994435D01*
X92799996Y-118994435D01*
X92620750Y-119014630D01*
X92620745Y-119014631D01*
X92450476Y-119074211D01*
X92297737Y-119170184D01*
X92170184Y-119297737D01*
X92074211Y-119450476D01*
X92014631Y-119620745D01*
X92014630Y-119620750D01*
X91994435Y-119799996D01*
X91994435Y-119800003D01*
X92014630Y-119979249D01*
X92014631Y-119979254D01*
X92074211Y-120149523D01*
X92085957Y-120168216D01*
X92163520Y-120291657D01*
X92170185Y-120302263D01*
X92172445Y-120305097D01*
X92173334Y-120307275D01*
X92173889Y-120308158D01*
X92173734Y-120308255D01*
X92198855Y-120369783D01*
X92199500Y-120382412D01*
X92199500Y-131899902D01*
X92179815Y-131966941D01*
X92163181Y-131987583D01*
X91686079Y-132464684D01*
X91624756Y-132498169D01*
X91555064Y-132493185D01*
X91499131Y-132451313D01*
X91475925Y-132396401D01*
X91475500Y-132393717D01*
X91475500Y-132393713D01*
X91442246Y-132183757D01*
X91376557Y-131981588D01*
X91280051Y-131792184D01*
X91280049Y-131792181D01*
X91280048Y-131792179D01*
X91155109Y-131620213D01*
X91004792Y-131469896D01*
X90990483Y-131459500D01*
X90840204Y-131350316D01*
X90797540Y-131294989D01*
X90791561Y-131225376D01*
X90824166Y-131163580D01*
X90840199Y-131149686D01*
X91004792Y-131030104D01*
X91155104Y-130879792D01*
X91155106Y-130879788D01*
X91155109Y-130879786D01*
X91280048Y-130707820D01*
X91280047Y-130707820D01*
X91280051Y-130707816D01*
X91376557Y-130518412D01*
X91442246Y-130316243D01*
X91475500Y-130106287D01*
X91475500Y-129893713D01*
X91442246Y-129683757D01*
X91376557Y-129481588D01*
X91280051Y-129292184D01*
X91280049Y-129292181D01*
X91280048Y-129292179D01*
X91155109Y-129120213D01*
X91004792Y-128969896D01*
X90972517Y-128946447D01*
X90840204Y-128850316D01*
X90797540Y-128794989D01*
X90791561Y-128725376D01*
X90824166Y-128663580D01*
X90840199Y-128649686D01*
X91004792Y-128530104D01*
X91155104Y-128379792D01*
X91155106Y-128379788D01*
X91155109Y-128379786D01*
X91280048Y-128207820D01*
X91280047Y-128207820D01*
X91280051Y-128207816D01*
X91376557Y-128018412D01*
X91442246Y-127816243D01*
X91475500Y-127606287D01*
X91475500Y-127393713D01*
X91442246Y-127183757D01*
X91376557Y-126981588D01*
X91280051Y-126792184D01*
X91280049Y-126792181D01*
X91280048Y-126792179D01*
X91155109Y-126620213D01*
X91004792Y-126469896D01*
X91004784Y-126469890D01*
X90840204Y-126350316D01*
X90797540Y-126294989D01*
X90791561Y-126225376D01*
X90824166Y-126163580D01*
X90840199Y-126149686D01*
X91004792Y-126030104D01*
X91155104Y-125879792D01*
X91155106Y-125879788D01*
X91155109Y-125879786D01*
X91264835Y-125728759D01*
X91280051Y-125707816D01*
X91376557Y-125518412D01*
X91442246Y-125316243D01*
X91475500Y-125106287D01*
X91475500Y-124893713D01*
X91442246Y-124683757D01*
X91376557Y-124481588D01*
X91280051Y-124292184D01*
X91280049Y-124292181D01*
X91280048Y-124292179D01*
X91155109Y-124120213D01*
X91004792Y-123969896D01*
X90966582Y-123942135D01*
X90840204Y-123850316D01*
X90797540Y-123794989D01*
X90791561Y-123725376D01*
X90824166Y-123663580D01*
X90840199Y-123649686D01*
X91004792Y-123530104D01*
X91155104Y-123379792D01*
X91155106Y-123379788D01*
X91155109Y-123379786D01*
X91280048Y-123207820D01*
X91280047Y-123207820D01*
X91280051Y-123207816D01*
X91376557Y-123018412D01*
X91442246Y-122816243D01*
X91475500Y-122606287D01*
X91475500Y-122393713D01*
X91442246Y-122183757D01*
X91376557Y-121981588D01*
X91280051Y-121792184D01*
X91280049Y-121792181D01*
X91280048Y-121792179D01*
X91155109Y-121620213D01*
X91004792Y-121469896D01*
X90980346Y-121452135D01*
X90840204Y-121350316D01*
X90797540Y-121294989D01*
X90791561Y-121225376D01*
X90824166Y-121163580D01*
X90840199Y-121149686D01*
X91004792Y-121030104D01*
X91155104Y-120879792D01*
X91155106Y-120879788D01*
X91155109Y-120879786D01*
X91280048Y-120707820D01*
X91280047Y-120707820D01*
X91280051Y-120707816D01*
X91376557Y-120518412D01*
X91442246Y-120316243D01*
X91475500Y-120106287D01*
X91475500Y-119893713D01*
X91442246Y-119683757D01*
X91397851Y-119547126D01*
X91395857Y-119477290D01*
X91428100Y-119421133D01*
X91633506Y-119215728D01*
X91633511Y-119215724D01*
X91643714Y-119205520D01*
X91643716Y-119205520D01*
X91755520Y-119093716D01*
X91809338Y-119000499D01*
X91834577Y-118956785D01*
X91875500Y-118804058D01*
X91875500Y-118645943D01*
X91875500Y-118547844D01*
X93400000Y-118547844D01*
X93406401Y-118607372D01*
X93406403Y-118607379D01*
X93456645Y-118742086D01*
X93456649Y-118742093D01*
X93542809Y-118857187D01*
X93542812Y-118857190D01*
X93657906Y-118943350D01*
X93657913Y-118943354D01*
X93792620Y-118993596D01*
X93792627Y-118993598D01*
X93852155Y-118999999D01*
X93852172Y-119000000D01*
X94150000Y-119000000D01*
X94650000Y-119000000D01*
X94947828Y-119000000D01*
X94947844Y-118999999D01*
X95007372Y-118993598D01*
X95007379Y-118993596D01*
X95142086Y-118943354D01*
X95142093Y-118943350D01*
X95257187Y-118857190D01*
X95257190Y-118857187D01*
X95343350Y-118742093D01*
X95343354Y-118742086D01*
X95393596Y-118607379D01*
X95393598Y-118607372D01*
X95399999Y-118547844D01*
X95400000Y-118547827D01*
X95400000Y-117350000D01*
X94650000Y-117350000D01*
X94650000Y-119000000D01*
X94150000Y-119000000D01*
X94150000Y-117350000D01*
X93400000Y-117350000D01*
X93400000Y-118547844D01*
X91875500Y-118547844D01*
X91875500Y-116825097D01*
X91895185Y-116758058D01*
X91911819Y-116737416D01*
X92612416Y-116036819D01*
X92673739Y-116003334D01*
X92700097Y-116000500D01*
X93276000Y-116000500D01*
X93343039Y-116020185D01*
X93388794Y-116072989D01*
X93400000Y-116124500D01*
X93400000Y-116850000D01*
X95400000Y-116850000D01*
X95400000Y-116124500D01*
X95419685Y-116057461D01*
X95472489Y-116011706D01*
X95524000Y-116000500D01*
X96399903Y-116000500D01*
X96466942Y-116020185D01*
X96487584Y-116036819D01*
X97363181Y-116912416D01*
X97396666Y-116973739D01*
X97399500Y-117000097D01*
X97399500Y-118547870D01*
X97399501Y-118547876D01*
X97405908Y-118607483D01*
X97456202Y-118742328D01*
X97456206Y-118742335D01*
X97542452Y-118857544D01*
X97542455Y-118857547D01*
X97657664Y-118943793D01*
X97657669Y-118943796D01*
X97718833Y-118966608D01*
X97774766Y-119008478D01*
X97799184Y-119073942D01*
X97799500Y-119082790D01*
X97799500Y-120917209D01*
X97779815Y-120984248D01*
X97727011Y-121030003D01*
X97718833Y-121033391D01*
X97657671Y-121056202D01*
X97657664Y-121056206D01*
X97542455Y-121142452D01*
X97542452Y-121142455D01*
X97456206Y-121257664D01*
X97456202Y-121257671D01*
X97405908Y-121392517D01*
X97399906Y-121448350D01*
X97399501Y-121452123D01*
X97399500Y-121452135D01*
X97399500Y-124347870D01*
X97399501Y-124347876D01*
X97405908Y-124407483D01*
X97456202Y-124542328D01*
X97456206Y-124542335D01*
X97542452Y-124657544D01*
X97542455Y-124657547D01*
X97657664Y-124743793D01*
X97657671Y-124743797D01*
X97697944Y-124758818D01*
X97753878Y-124800689D01*
X97778295Y-124866153D01*
X97763443Y-124934426D01*
X97714038Y-124983832D01*
X97697944Y-124991182D01*
X97657671Y-125006202D01*
X97657664Y-125006206D01*
X97542455Y-125092452D01*
X97542452Y-125092455D01*
X97456206Y-125207664D01*
X97456202Y-125207671D01*
X97405908Y-125342517D01*
X97399501Y-125402116D01*
X97399500Y-125402135D01*
X97399500Y-128297870D01*
X97399501Y-128297876D01*
X97405908Y-128357483D01*
X97456202Y-128492328D01*
X97456206Y-128492335D01*
X97542452Y-128607544D01*
X97542455Y-128607547D01*
X97657664Y-128693793D01*
X97657669Y-128693796D01*
X97718833Y-128716608D01*
X97774766Y-128758478D01*
X97799184Y-128823942D01*
X97799500Y-128832790D01*
X97799500Y-130667209D01*
X97779815Y-130734248D01*
X97727011Y-130780003D01*
X97718833Y-130783391D01*
X97657671Y-130806202D01*
X97657664Y-130806206D01*
X97542455Y-130892452D01*
X97542452Y-130892455D01*
X97456206Y-131007664D01*
X97456202Y-131007671D01*
X97405908Y-131142517D01*
X97399501Y-131202116D01*
X97399500Y-131202135D01*
X97399500Y-134099901D01*
X97379815Y-134166940D01*
X97363181Y-134187582D01*
X96743786Y-134806978D01*
X96631981Y-134918782D01*
X96631975Y-134918790D01*
X96585380Y-134999497D01*
X96585380Y-134999498D01*
X96552923Y-135055714D01*
X96552923Y-135055715D01*
X96511999Y-135208443D01*
X96511999Y-135208445D01*
X96511999Y-135376546D01*
X96512000Y-135376559D01*
X96512000Y-135761548D01*
X96492315Y-135828587D01*
X96453097Y-135867086D01*
X96351653Y-135929657D01*
X96351648Y-135929661D01*
X96337325Y-135943984D01*
X96276001Y-135977468D01*
X96206309Y-135972482D01*
X96161965Y-135943982D01*
X96148038Y-135930055D01*
X96148034Y-135930052D01*
X96001311Y-135839551D01*
X96001300Y-135839546D01*
X95837652Y-135785319D01*
X95736654Y-135775000D01*
X95637500Y-135775000D01*
X95637500Y-137724999D01*
X95736640Y-137724999D01*
X95736654Y-137724998D01*
X95837652Y-137714680D01*
X96001300Y-137660453D01*
X96001311Y-137660448D01*
X96148035Y-137569947D01*
X96161960Y-137556021D01*
X96223282Y-137522533D01*
X96292973Y-137527514D01*
X96337327Y-137556017D01*
X96351650Y-137570340D01*
X96498484Y-137660908D01*
X96662247Y-137715174D01*
X96763323Y-137725500D01*
X97187402Y-137725499D01*
X97254441Y-137745183D01*
X97275082Y-137761817D01*
X99076584Y-139563320D01*
X99110069Y-139624642D01*
X99105085Y-139694334D01*
X99063213Y-139750267D01*
X98997749Y-139774684D01*
X98988903Y-139775000D01*
X98975000Y-139775000D01*
X98975000Y-140500000D01*
X99762499Y-140500000D01*
X99798818Y-140463681D01*
X99800673Y-140465536D01*
X99834988Y-140435803D01*
X99904146Y-140425859D01*
X99967702Y-140454884D01*
X99974180Y-140460916D01*
X99993784Y-140480520D01*
X99993786Y-140480521D01*
X99993790Y-140480524D01*
X100079575Y-140530051D01*
X100130716Y-140559577D01*
X100283443Y-140600501D01*
X100283445Y-140600501D01*
X100417589Y-140600501D01*
X100484628Y-140620186D01*
X100494903Y-140627555D01*
X100497737Y-140629815D01*
X100497738Y-140629816D01*
X100588080Y-140686582D01*
X100649220Y-140724999D01*
X100650478Y-140725789D01*
X100820745Y-140785368D01*
X100820750Y-140785369D01*
X100999996Y-140805565D01*
X101000000Y-140805565D01*
X101000004Y-140805565D01*
X101179249Y-140785369D01*
X101179252Y-140785368D01*
X101179255Y-140785368D01*
X101349522Y-140725789D01*
X101502262Y-140629816D01*
X101629816Y-140502262D01*
X101725789Y-140349522D01*
X101785368Y-140179255D01*
X101785369Y-140179249D01*
X101805565Y-140000003D01*
X101805565Y-139999996D01*
X101785369Y-139820750D01*
X101785368Y-139820745D01*
X101769361Y-139774999D01*
X101725789Y-139650478D01*
X101725174Y-139649500D01*
X101686582Y-139588080D01*
X101629816Y-139497738D01*
X101502262Y-139370184D01*
X101450564Y-139337700D01*
X101349523Y-139274211D01*
X101179254Y-139214631D01*
X101179249Y-139214630D01*
X101000004Y-139194435D01*
X100999996Y-139194435D01*
X100820750Y-139214630D01*
X100820737Y-139214633D01*
X100650479Y-139274209D01*
X100633159Y-139285092D01*
X100565922Y-139304088D01*
X100499087Y-139283718D01*
X100479511Y-139267776D01*
X99386197Y-138174462D01*
X99352712Y-138113139D01*
X99357696Y-138043447D01*
X99399568Y-137987514D01*
X99447925Y-137965527D01*
X99452700Y-137964504D01*
X99619119Y-137909358D01*
X99619124Y-137909356D01*
X99768345Y-137817315D01*
X99892318Y-137693342D01*
X99894165Y-137690348D01*
X99895969Y-137688724D01*
X99896798Y-137687677D01*
X99896976Y-137687818D01*
X99946110Y-137643621D01*
X100015073Y-137632396D01*
X100079156Y-137660236D01*
X100105243Y-137690341D01*
X100107288Y-137693656D01*
X100231344Y-137817712D01*
X100380666Y-137909814D01*
X100547203Y-137964999D01*
X100649991Y-137975500D01*
X101425008Y-137975499D01*
X101425016Y-137975498D01*
X101425019Y-137975498D01*
X101481302Y-137969748D01*
X101527797Y-137964999D01*
X101694334Y-137909814D01*
X101843656Y-137817712D01*
X101893669Y-137767699D01*
X101954992Y-137734214D01*
X102024684Y-137739198D01*
X102069031Y-137767699D01*
X102125344Y-137824012D01*
X102274666Y-137916114D01*
X102441203Y-137971299D01*
X102543991Y-137981800D01*
X103344008Y-137981799D01*
X103344016Y-137981798D01*
X103344019Y-137981798D01*
X103400302Y-137976048D01*
X103446797Y-137971299D01*
X103613334Y-137916114D01*
X103762656Y-137824012D01*
X103856675Y-137729992D01*
X103917994Y-137696510D01*
X103987686Y-137701494D01*
X104032034Y-137729995D01*
X104125654Y-137823615D01*
X104274875Y-137915656D01*
X104274880Y-137915658D01*
X104441302Y-137970805D01*
X104441309Y-137970806D01*
X104544019Y-137981299D01*
X104693999Y-137981299D01*
X104694000Y-137981298D01*
X104694000Y-135662300D01*
X104713685Y-135595261D01*
X104766489Y-135549506D01*
X104816721Y-135538578D01*
X104851907Y-135503392D01*
X104865266Y-135491816D01*
X104872698Y-135486252D01*
X104938161Y-135461841D01*
X105006433Y-135476696D01*
X105033198Y-135503464D01*
X105034682Y-135501981D01*
X105071417Y-135538716D01*
X105137039Y-135557985D01*
X105182794Y-135610789D01*
X105194000Y-135662300D01*
X105194000Y-137981299D01*
X105343972Y-137981299D01*
X105343986Y-137981298D01*
X105446697Y-137970805D01*
X105613119Y-137915658D01*
X105613124Y-137915656D01*
X105710403Y-137855654D01*
X105777796Y-137837214D01*
X105844459Y-137858136D01*
X105889229Y-137911778D01*
X105899500Y-137961193D01*
X105899500Y-138663330D01*
X105899499Y-138663348D01*
X105899499Y-138829054D01*
X105899498Y-138829054D01*
X105934142Y-138958343D01*
X105940423Y-138981785D01*
X105947639Y-138994284D01*
X105969358Y-139031900D01*
X105969359Y-139031904D01*
X105969360Y-139031904D01*
X105991784Y-139070745D01*
X106019479Y-139118714D01*
X106019481Y-139118717D01*
X106138349Y-139237585D01*
X106138355Y-139237590D01*
X106765139Y-139864374D01*
X106765149Y-139864385D01*
X106769479Y-139868715D01*
X106769480Y-139868716D01*
X106881284Y-139980520D01*
X106954528Y-140022807D01*
X107018215Y-140059577D01*
X107170943Y-140100500D01*
X111163331Y-140100500D01*
X111163347Y-140100501D01*
X111170943Y-140100501D01*
X111329054Y-140100501D01*
X111329057Y-140100501D01*
X111481785Y-140059577D01*
X111545472Y-140022807D01*
X111618716Y-139980520D01*
X111730520Y-139868716D01*
X111730520Y-139868714D01*
X111740724Y-139858511D01*
X111740727Y-139858506D01*
X112411392Y-139187844D01*
X120740000Y-139187844D01*
X120746401Y-139247372D01*
X120746403Y-139247379D01*
X120796645Y-139382086D01*
X120796649Y-139382093D01*
X120882809Y-139497187D01*
X120882812Y-139497190D01*
X120997906Y-139583350D01*
X120997913Y-139583354D01*
X121132620Y-139633596D01*
X121132627Y-139633598D01*
X121192155Y-139639999D01*
X121192172Y-139640000D01*
X121440000Y-139640000D01*
X121440000Y-138640000D01*
X120740000Y-138640000D01*
X120740000Y-139187844D01*
X112411392Y-139187844D01*
X112468020Y-139131216D01*
X112547077Y-138994284D01*
X112588001Y-138841557D01*
X112588001Y-138841555D01*
X112590104Y-138833707D01*
X112592179Y-138834263D01*
X112615856Y-138780727D01*
X112674177Y-138742250D01*
X112744041Y-138741411D01*
X112753870Y-138744617D01*
X112886517Y-138794091D01*
X112886516Y-138794091D01*
X112893444Y-138794835D01*
X112946127Y-138800500D01*
X115891872Y-138800499D01*
X115951483Y-138794091D01*
X116086331Y-138743796D01*
X116201546Y-138657546D01*
X116287796Y-138542331D01*
X116338091Y-138407483D01*
X116344500Y-138347873D01*
X116344499Y-137130962D01*
X116364184Y-137063924D01*
X116416987Y-137018169D01*
X116486146Y-137008225D01*
X116509454Y-137013922D01*
X116570737Y-137035366D01*
X116570743Y-137035367D01*
X116570745Y-137035368D01*
X116570746Y-137035368D01*
X116570750Y-137035369D01*
X116749996Y-137055565D01*
X116750000Y-137055565D01*
X116750004Y-137055565D01*
X116929249Y-137035369D01*
X116929252Y-137035368D01*
X116929255Y-137035368D01*
X117099522Y-136975789D01*
X117209527Y-136906667D01*
X117276764Y-136887667D01*
X117343599Y-136908034D01*
X117388814Y-136961302D01*
X117399500Y-137011661D01*
X117399500Y-137637870D01*
X117399501Y-137637876D01*
X117405908Y-137697483D01*
X117456202Y-137832328D01*
X117456206Y-137832335D01*
X117542452Y-137947544D01*
X117542455Y-137947547D01*
X117657664Y-138033793D01*
X117657671Y-138033797D01*
X117792517Y-138084091D01*
X117792516Y-138084091D01*
X117799444Y-138084835D01*
X117852127Y-138090500D01*
X119447872Y-138090499D01*
X119507483Y-138084091D01*
X119642331Y-138033796D01*
X119757546Y-137947546D01*
X119843796Y-137832331D01*
X119894091Y-137697483D01*
X119900500Y-137637873D01*
X119900500Y-137592155D01*
X120740000Y-137592155D01*
X120740000Y-138140000D01*
X121440000Y-138140000D01*
X121440000Y-137140000D01*
X121940000Y-137140000D01*
X121940000Y-139640000D01*
X122187828Y-139640000D01*
X122187844Y-139639999D01*
X122247372Y-139633598D01*
X122247375Y-139633597D01*
X122280949Y-139621075D01*
X122350640Y-139616089D01*
X122367619Y-139621075D01*
X122402511Y-139634089D01*
X122402512Y-139634089D01*
X122402517Y-139634091D01*
X122462127Y-139640500D01*
X123457872Y-139640499D01*
X123517483Y-139634091D01*
X123551667Y-139621340D01*
X123621358Y-139616357D01*
X123638327Y-139621338D01*
X123672517Y-139634091D01*
X123732127Y-139640500D01*
X124727872Y-139640499D01*
X124787483Y-139634091D01*
X124821667Y-139621340D01*
X124891358Y-139616357D01*
X124908327Y-139621338D01*
X124942517Y-139634091D01*
X125002127Y-139640500D01*
X125997872Y-139640499D01*
X126057483Y-139634091D01*
X126091667Y-139621340D01*
X126161358Y-139616357D01*
X126178327Y-139621338D01*
X126212517Y-139634091D01*
X126272127Y-139640500D01*
X127267872Y-139640499D01*
X127327483Y-139634091D01*
X127361667Y-139621340D01*
X127431358Y-139616357D01*
X127448327Y-139621338D01*
X127482517Y-139634091D01*
X127542127Y-139640500D01*
X128537872Y-139640499D01*
X128597483Y-139634091D01*
X128631667Y-139621340D01*
X128701358Y-139616357D01*
X128718327Y-139621338D01*
X128752517Y-139634091D01*
X128812127Y-139640500D01*
X129807872Y-139640499D01*
X129867483Y-139634091D01*
X129901667Y-139621340D01*
X129971358Y-139616357D01*
X129988327Y-139621338D01*
X130022517Y-139634091D01*
X130082127Y-139640500D01*
X131077872Y-139640499D01*
X131137483Y-139634091D01*
X131171667Y-139621340D01*
X131241358Y-139616357D01*
X131258327Y-139621338D01*
X131292517Y-139634091D01*
X131352127Y-139640500D01*
X132347872Y-139640499D01*
X132407483Y-139634091D01*
X132441667Y-139621340D01*
X132511358Y-139616357D01*
X132528327Y-139621338D01*
X132562517Y-139634091D01*
X132622127Y-139640500D01*
X133617872Y-139640499D01*
X133677483Y-139634091D01*
X133812331Y-139583796D01*
X133927546Y-139497546D01*
X134013796Y-139382331D01*
X134064091Y-139247483D01*
X134070500Y-139187873D01*
X134070499Y-137592128D01*
X134064091Y-137532517D01*
X134060367Y-137522533D01*
X134013797Y-137397671D01*
X134013793Y-137397664D01*
X133927547Y-137282455D01*
X133927544Y-137282452D01*
X133812335Y-137196206D01*
X133812328Y-137196202D01*
X133677482Y-137145908D01*
X133677483Y-137145908D01*
X133617883Y-137139501D01*
X133617881Y-137139500D01*
X133617873Y-137139500D01*
X133617864Y-137139500D01*
X132622129Y-137139500D01*
X132622123Y-137139501D01*
X132562518Y-137145908D01*
X132528331Y-137158659D01*
X132458639Y-137163642D01*
X132441669Y-137158659D01*
X132418452Y-137150000D01*
X132407483Y-137145909D01*
X132407482Y-137145908D01*
X132347883Y-137139501D01*
X132347881Y-137139500D01*
X132347873Y-137139500D01*
X132347864Y-137139500D01*
X131352129Y-137139500D01*
X131352123Y-137139501D01*
X131292518Y-137145908D01*
X131258331Y-137158659D01*
X131188639Y-137163642D01*
X131171669Y-137158659D01*
X131148452Y-137150000D01*
X131137483Y-137145909D01*
X131137482Y-137145908D01*
X131077883Y-137139501D01*
X131077881Y-137139500D01*
X131077873Y-137139500D01*
X131077864Y-137139500D01*
X130082129Y-137139500D01*
X130082123Y-137139501D01*
X130022518Y-137145908D01*
X129988331Y-137158659D01*
X129918639Y-137163642D01*
X129901669Y-137158659D01*
X129878452Y-137150000D01*
X129867483Y-137145909D01*
X129867482Y-137145908D01*
X129807883Y-137139501D01*
X129807881Y-137139500D01*
X129807873Y-137139500D01*
X129807864Y-137139500D01*
X128812129Y-137139500D01*
X128812123Y-137139501D01*
X128752518Y-137145908D01*
X128718331Y-137158659D01*
X128648639Y-137163642D01*
X128631669Y-137158659D01*
X128608452Y-137150000D01*
X128597483Y-137145909D01*
X128597482Y-137145908D01*
X128537883Y-137139501D01*
X128537881Y-137139500D01*
X128537873Y-137139500D01*
X128537864Y-137139500D01*
X127542129Y-137139500D01*
X127542123Y-137139501D01*
X127482518Y-137145908D01*
X127448331Y-137158659D01*
X127378639Y-137163642D01*
X127361669Y-137158659D01*
X127338452Y-137150000D01*
X127327483Y-137145909D01*
X127327482Y-137145908D01*
X127267883Y-137139501D01*
X127267881Y-137139500D01*
X127267873Y-137139500D01*
X127267864Y-137139500D01*
X126272129Y-137139500D01*
X126272123Y-137139501D01*
X126212518Y-137145908D01*
X126178331Y-137158659D01*
X126108639Y-137163642D01*
X126091669Y-137158659D01*
X126068452Y-137150000D01*
X126057483Y-137145909D01*
X126057482Y-137145908D01*
X125997883Y-137139501D01*
X125997881Y-137139500D01*
X125997873Y-137139500D01*
X125997864Y-137139500D01*
X125002129Y-137139500D01*
X125002123Y-137139501D01*
X124942518Y-137145908D01*
X124908331Y-137158659D01*
X124838639Y-137163642D01*
X124821669Y-137158659D01*
X124798452Y-137150000D01*
X124787483Y-137145909D01*
X124787482Y-137145908D01*
X124727883Y-137139501D01*
X124727881Y-137139500D01*
X124727873Y-137139500D01*
X124727864Y-137139500D01*
X123732129Y-137139500D01*
X123732123Y-137139501D01*
X123672518Y-137145908D01*
X123638331Y-137158659D01*
X123568639Y-137163642D01*
X123551669Y-137158659D01*
X123528452Y-137150000D01*
X123517483Y-137145909D01*
X123517482Y-137145908D01*
X123457883Y-137139501D01*
X123457881Y-137139500D01*
X123457873Y-137139500D01*
X123457864Y-137139500D01*
X122462129Y-137139500D01*
X122462123Y-137139501D01*
X122402520Y-137145908D01*
X122402517Y-137145908D01*
X122402517Y-137145909D01*
X122367620Y-137158925D01*
X122367617Y-137158926D01*
X122297925Y-137163909D01*
X122280952Y-137158925D01*
X122247379Y-137146403D01*
X122247372Y-137146401D01*
X122187844Y-137140000D01*
X121940000Y-137140000D01*
X121440000Y-137140000D01*
X121192155Y-137140000D01*
X121132627Y-137146401D01*
X121132620Y-137146403D01*
X120997913Y-137196645D01*
X120997906Y-137196649D01*
X120882812Y-137282809D01*
X120882809Y-137282812D01*
X120796649Y-137397906D01*
X120796645Y-137397913D01*
X120746403Y-137532620D01*
X120746401Y-137532627D01*
X120740000Y-137592155D01*
X119900500Y-137592155D01*
X119900499Y-136642128D01*
X119894091Y-136582517D01*
X119881340Y-136548332D01*
X119876357Y-136478642D01*
X119881340Y-136461669D01*
X119894091Y-136427483D01*
X119900500Y-136367873D01*
X119900499Y-135372128D01*
X119894091Y-135312517D01*
X119881340Y-135278332D01*
X119876357Y-135208642D01*
X119881340Y-135191669D01*
X119894091Y-135157483D01*
X119900500Y-135097873D01*
X119900499Y-134102128D01*
X119894091Y-134042517D01*
X119881340Y-134008332D01*
X119876357Y-133938642D01*
X119881340Y-133921669D01*
X119894091Y-133887483D01*
X119900500Y-133827873D01*
X119900499Y-132832128D01*
X119894091Y-132772517D01*
X119881340Y-132738332D01*
X119876357Y-132668642D01*
X119881340Y-132651669D01*
X119894091Y-132617483D01*
X119900500Y-132557873D01*
X119900499Y-131562128D01*
X119894091Y-131502517D01*
X119881340Y-131468332D01*
X119876357Y-131398642D01*
X119881340Y-131381669D01*
X119894091Y-131347483D01*
X119900500Y-131287873D01*
X119900499Y-130297844D01*
X123500000Y-130297844D01*
X123506401Y-130357372D01*
X123506403Y-130357379D01*
X123556645Y-130492086D01*
X123556649Y-130492093D01*
X123642809Y-130607187D01*
X123642812Y-130607190D01*
X123757906Y-130693350D01*
X123757913Y-130693354D01*
X123892620Y-130743596D01*
X123892627Y-130743598D01*
X123952155Y-130749999D01*
X123952172Y-130750000D01*
X125650000Y-130750000D01*
X125650000Y-130000000D01*
X126150000Y-130000000D01*
X126150000Y-130750000D01*
X127847828Y-130750000D01*
X127847844Y-130749999D01*
X127907372Y-130743598D01*
X127907379Y-130743596D01*
X128042086Y-130693354D01*
X128042093Y-130693350D01*
X128157187Y-130607190D01*
X128157190Y-130607187D01*
X128243350Y-130492093D01*
X128243354Y-130492086D01*
X128293596Y-130357379D01*
X128293598Y-130357372D01*
X128299999Y-130297844D01*
X128300000Y-130297827D01*
X128300000Y-128600000D01*
X127550000Y-128600000D01*
X127550000Y-128946447D01*
X127565872Y-128962319D01*
X127599357Y-129023642D01*
X127594373Y-129093334D01*
X127565872Y-129137681D01*
X127550000Y-129153552D01*
X127550000Y-129876000D01*
X127530315Y-129943039D01*
X127477511Y-129988794D01*
X127426000Y-130000000D01*
X126703552Y-130000000D01*
X126687681Y-130015872D01*
X126626358Y-130049357D01*
X126556666Y-130044373D01*
X126512319Y-130015872D01*
X126496447Y-130000000D01*
X126150000Y-130000000D01*
X125650000Y-130000000D01*
X125303552Y-130000000D01*
X125287681Y-130015872D01*
X125226358Y-130049357D01*
X125156666Y-130044373D01*
X125112319Y-130015872D01*
X125096447Y-130000000D01*
X124374000Y-130000000D01*
X124306961Y-129980315D01*
X124261206Y-129927511D01*
X124250000Y-129876000D01*
X124250000Y-129730109D01*
X125100000Y-129730109D01*
X125100000Y-129769891D01*
X125115224Y-129806645D01*
X125143355Y-129834776D01*
X125180109Y-129850000D01*
X125219891Y-129850000D01*
X125256645Y-129834776D01*
X125284776Y-129806645D01*
X125300000Y-129769891D01*
X125300000Y-129730109D01*
X126500000Y-129730109D01*
X126500000Y-129769891D01*
X126515224Y-129806645D01*
X126543355Y-129834776D01*
X126580109Y-129850000D01*
X126619891Y-129850000D01*
X126656645Y-129834776D01*
X126684776Y-129806645D01*
X126700000Y-129769891D01*
X126700000Y-129730109D01*
X126684776Y-129693355D01*
X126656645Y-129665224D01*
X126619891Y-129650000D01*
X126580109Y-129650000D01*
X126543355Y-129665224D01*
X126515224Y-129693355D01*
X126500000Y-129730109D01*
X125300000Y-129730109D01*
X125284776Y-129693355D01*
X125256645Y-129665224D01*
X125219891Y-129650000D01*
X125180109Y-129650000D01*
X125143355Y-129665224D01*
X125115224Y-129693355D01*
X125100000Y-129730109D01*
X124250000Y-129730109D01*
X124250000Y-129153553D01*
X124234128Y-129137681D01*
X124200643Y-129076358D01*
X124203950Y-129030109D01*
X124400000Y-129030109D01*
X124400000Y-129069891D01*
X124415224Y-129106645D01*
X124443355Y-129134776D01*
X124480109Y-129150000D01*
X124519891Y-129150000D01*
X124556645Y-129134776D01*
X124584776Y-129106645D01*
X124600000Y-129069891D01*
X124600000Y-129050000D01*
X124853553Y-129050000D01*
X124901292Y-129097738D01*
X125187500Y-129383946D01*
X125521446Y-129050000D01*
X125521446Y-129049999D01*
X125501556Y-129030109D01*
X125775000Y-129030109D01*
X125775000Y-129069891D01*
X125790224Y-129106645D01*
X125818355Y-129134776D01*
X125855109Y-129150000D01*
X125894891Y-129150000D01*
X125931645Y-129134776D01*
X125959776Y-129106645D01*
X125975000Y-129069891D01*
X125975000Y-129049999D01*
X126253553Y-129049999D01*
X126253553Y-129050001D01*
X126599998Y-129396446D01*
X126599999Y-129396446D01*
X126898708Y-129097738D01*
X126946446Y-129050000D01*
X126926555Y-129030109D01*
X127200000Y-129030109D01*
X127200000Y-129069891D01*
X127215224Y-129106645D01*
X127243355Y-129134776D01*
X127280109Y-129150000D01*
X127319891Y-129150000D01*
X127356645Y-129134776D01*
X127384776Y-129106645D01*
X127400000Y-129069891D01*
X127400000Y-129030109D01*
X127384776Y-128993355D01*
X127356645Y-128965224D01*
X127319891Y-128950000D01*
X127280109Y-128950000D01*
X127243355Y-128965224D01*
X127215224Y-128993355D01*
X127200000Y-129030109D01*
X126926555Y-129030109D01*
X126599999Y-128703553D01*
X126599998Y-128703553D01*
X126253553Y-129049999D01*
X125975000Y-129049999D01*
X125975000Y-129030109D01*
X125959776Y-128993355D01*
X125931645Y-128965224D01*
X125894891Y-128950000D01*
X125855109Y-128950000D01*
X125818355Y-128965224D01*
X125790224Y-128993355D01*
X125775000Y-129030109D01*
X125501556Y-129030109D01*
X125187500Y-128716052D01*
X125187499Y-128716053D01*
X125163924Y-128739630D01*
X125163922Y-128739632D01*
X124853553Y-129050000D01*
X124600000Y-129050000D01*
X124600000Y-129030109D01*
X124584776Y-128993355D01*
X124556645Y-128965224D01*
X124519891Y-128950000D01*
X124480109Y-128950000D01*
X124443355Y-128965224D01*
X124415224Y-128993355D01*
X124400000Y-129030109D01*
X124203950Y-129030109D01*
X124205627Y-129006666D01*
X124234128Y-128962319D01*
X124249999Y-128946447D01*
X124250000Y-128946446D01*
X124250000Y-128600000D01*
X123500000Y-128600000D01*
X123500000Y-130297844D01*
X119900499Y-130297844D01*
X119900499Y-130292128D01*
X119894091Y-130232517D01*
X119881340Y-130198332D01*
X119876357Y-130128642D01*
X119881340Y-130111669D01*
X119894091Y-130077483D01*
X119900500Y-130017873D01*
X119900499Y-129022128D01*
X119894091Y-128962517D01*
X119881340Y-128928332D01*
X119876357Y-128858642D01*
X119881340Y-128841669D01*
X119894091Y-128807483D01*
X119900500Y-128747873D01*
X119900500Y-128330109D01*
X125100000Y-128330109D01*
X125100000Y-128369891D01*
X125115224Y-128406645D01*
X125143355Y-128434776D01*
X125180109Y-128450000D01*
X125219891Y-128450000D01*
X125256645Y-128434776D01*
X125284776Y-128406645D01*
X125300000Y-128369891D01*
X125300000Y-128330109D01*
X126500000Y-128330109D01*
X126500000Y-128369891D01*
X126515224Y-128406645D01*
X126543355Y-128434776D01*
X126580109Y-128450000D01*
X126619891Y-128450000D01*
X126656645Y-128434776D01*
X126684776Y-128406645D01*
X126700000Y-128369891D01*
X126700000Y-128330109D01*
X126684776Y-128293355D01*
X126656645Y-128265224D01*
X126619891Y-128250000D01*
X126580109Y-128250000D01*
X126543355Y-128265224D01*
X126515224Y-128293355D01*
X126500000Y-128330109D01*
X125300000Y-128330109D01*
X125284776Y-128293355D01*
X125256645Y-128265224D01*
X125219891Y-128250000D01*
X125180109Y-128250000D01*
X125143355Y-128265224D01*
X125115224Y-128293355D01*
X125100000Y-128330109D01*
X119900500Y-128330109D01*
X119900499Y-127752128D01*
X119894091Y-127692517D01*
X119881340Y-127658332D01*
X119876357Y-127588642D01*
X119881340Y-127571669D01*
X119894091Y-127537483D01*
X119900500Y-127477873D01*
X119900499Y-126482128D01*
X119894091Y-126422517D01*
X119886496Y-126402155D01*
X123500000Y-126402155D01*
X123500000Y-128100000D01*
X124250000Y-128100000D01*
X124250000Y-127753553D01*
X124234128Y-127737681D01*
X124200643Y-127676358D01*
X124203950Y-127630109D01*
X124400000Y-127630109D01*
X124400000Y-127669891D01*
X124415224Y-127706645D01*
X124443355Y-127734776D01*
X124480109Y-127750000D01*
X124519891Y-127750000D01*
X124556645Y-127734776D01*
X124584776Y-127706645D01*
X124600000Y-127669891D01*
X124600000Y-127649999D01*
X124853553Y-127649999D01*
X124896071Y-127692516D01*
X124896072Y-127692518D01*
X125187500Y-127983946D01*
X125521446Y-127650000D01*
X125521446Y-127649999D01*
X125501556Y-127630109D01*
X125775000Y-127630109D01*
X125775000Y-127669891D01*
X125790224Y-127706645D01*
X125818355Y-127734776D01*
X125855109Y-127750000D01*
X125894891Y-127750000D01*
X125931645Y-127734776D01*
X125959776Y-127706645D01*
X125975000Y-127669891D01*
X125975000Y-127649999D01*
X126253553Y-127649999D01*
X126253553Y-127650001D01*
X126599998Y-127996446D01*
X126599999Y-127996446D01*
X126903929Y-127692517D01*
X126946446Y-127650000D01*
X126926555Y-127630109D01*
X127200000Y-127630109D01*
X127200000Y-127669891D01*
X127215224Y-127706645D01*
X127243355Y-127734776D01*
X127280109Y-127750000D01*
X127319891Y-127750000D01*
X127356645Y-127734776D01*
X127384776Y-127706645D01*
X127400000Y-127669891D01*
X127400000Y-127630109D01*
X127384776Y-127593355D01*
X127356645Y-127565224D01*
X127319891Y-127550000D01*
X127280109Y-127550000D01*
X127243355Y-127565224D01*
X127215224Y-127593355D01*
X127200000Y-127630109D01*
X126926555Y-127630109D01*
X126599999Y-127303553D01*
X126599998Y-127303553D01*
X126253553Y-127649999D01*
X125975000Y-127649999D01*
X125975000Y-127630109D01*
X125959776Y-127593355D01*
X125931645Y-127565224D01*
X125894891Y-127550000D01*
X125855109Y-127550000D01*
X125818355Y-127565224D01*
X125790224Y-127593355D01*
X125775000Y-127630109D01*
X125501556Y-127630109D01*
X125187500Y-127316053D01*
X125146556Y-127356999D01*
X125146554Y-127357000D01*
X124853553Y-127649999D01*
X124600000Y-127649999D01*
X124600000Y-127630109D01*
X124584776Y-127593355D01*
X124556645Y-127565224D01*
X124519891Y-127550000D01*
X124480109Y-127550000D01*
X124443355Y-127565224D01*
X124415224Y-127593355D01*
X124400000Y-127630109D01*
X124203950Y-127630109D01*
X124205627Y-127606666D01*
X124234128Y-127562319D01*
X124249999Y-127546447D01*
X124250000Y-127546446D01*
X124250000Y-126930109D01*
X125100000Y-126930109D01*
X125100000Y-126969891D01*
X125115224Y-127006645D01*
X125143355Y-127034776D01*
X125180109Y-127050000D01*
X125219891Y-127050000D01*
X125256645Y-127034776D01*
X125284776Y-127006645D01*
X125300000Y-126969891D01*
X125300000Y-126930109D01*
X126500000Y-126930109D01*
X126500000Y-126969891D01*
X126515224Y-127006645D01*
X126543355Y-127034776D01*
X126580109Y-127050000D01*
X126619891Y-127050000D01*
X126656645Y-127034776D01*
X126684776Y-127006645D01*
X126700000Y-126969891D01*
X126700000Y-126930109D01*
X126684776Y-126893355D01*
X126656645Y-126865224D01*
X126619891Y-126850000D01*
X126580109Y-126850000D01*
X126543355Y-126865224D01*
X126515224Y-126893355D01*
X126500000Y-126930109D01*
X125300000Y-126930109D01*
X125284776Y-126893355D01*
X125256645Y-126865224D01*
X125219891Y-126850000D01*
X125180109Y-126850000D01*
X125143355Y-126865224D01*
X125115224Y-126893355D01*
X125100000Y-126930109D01*
X124250000Y-126930109D01*
X124250000Y-126824000D01*
X124269685Y-126756961D01*
X124322489Y-126711206D01*
X124374000Y-126700000D01*
X125096447Y-126700000D01*
X125096447Y-126699999D01*
X125112319Y-126684128D01*
X125173642Y-126650643D01*
X125243334Y-126655627D01*
X125287681Y-126684128D01*
X125303553Y-126700000D01*
X125650000Y-126700000D01*
X126150000Y-126700000D01*
X126496447Y-126700000D01*
X126496447Y-126699999D01*
X126512319Y-126684128D01*
X126573642Y-126650643D01*
X126643334Y-126655627D01*
X126687681Y-126684128D01*
X126703553Y-126700000D01*
X127426000Y-126700000D01*
X127493039Y-126719685D01*
X127538794Y-126772489D01*
X127550000Y-126824000D01*
X127550000Y-127546447D01*
X127565872Y-127562319D01*
X127599357Y-127623642D01*
X127594373Y-127693334D01*
X127565872Y-127737681D01*
X127550000Y-127753552D01*
X127550000Y-128100000D01*
X128300000Y-128100000D01*
X128300000Y-126402172D01*
X128299999Y-126402155D01*
X128293598Y-126342627D01*
X128293596Y-126342620D01*
X128243354Y-126207913D01*
X128243350Y-126207906D01*
X128157190Y-126092812D01*
X128157187Y-126092809D01*
X128042093Y-126006649D01*
X128042086Y-126006645D01*
X127907379Y-125956403D01*
X127907372Y-125956401D01*
X127847844Y-125950000D01*
X126150000Y-125950000D01*
X126150000Y-126700000D01*
X125650000Y-126700000D01*
X125650000Y-125950000D01*
X123952155Y-125950000D01*
X123892627Y-125956401D01*
X123892620Y-125956403D01*
X123757913Y-126006645D01*
X123757906Y-126006649D01*
X123642812Y-126092809D01*
X123642809Y-126092812D01*
X123556649Y-126207906D01*
X123556645Y-126207913D01*
X123506403Y-126342620D01*
X123506401Y-126342627D01*
X123500000Y-126402155D01*
X119886496Y-126402155D01*
X119881340Y-126388332D01*
X119876357Y-126318642D01*
X119881340Y-126301669D01*
X119894091Y-126267483D01*
X119900500Y-126207873D01*
X119900499Y-125212128D01*
X119894091Y-125152517D01*
X119881340Y-125118332D01*
X119876357Y-125048642D01*
X119881340Y-125031669D01*
X119894091Y-124997483D01*
X119900500Y-124937873D01*
X119900499Y-123942128D01*
X119894091Y-123882517D01*
X119881340Y-123848332D01*
X119876357Y-123778642D01*
X119881340Y-123761669D01*
X119894091Y-123727483D01*
X119900500Y-123667873D01*
X119900499Y-122672128D01*
X119894091Y-122612517D01*
X119881340Y-122578332D01*
X119876357Y-122508642D01*
X119881340Y-122491669D01*
X119894091Y-122457483D01*
X119900500Y-122397873D01*
X119900499Y-121402128D01*
X119894091Y-121342517D01*
X119881073Y-121307616D01*
X119876090Y-121237926D01*
X119881075Y-121220949D01*
X119893597Y-121187375D01*
X119893598Y-121187372D01*
X119899999Y-121127844D01*
X119900000Y-121127827D01*
X119900000Y-120880000D01*
X118524000Y-120880000D01*
X118456961Y-120860315D01*
X118411206Y-120807511D01*
X118400000Y-120756000D01*
X118400000Y-120380000D01*
X118900000Y-120380000D01*
X119900000Y-120380000D01*
X119900000Y-120132172D01*
X119899999Y-120132155D01*
X119893598Y-120072627D01*
X119893596Y-120072620D01*
X119843354Y-119937913D01*
X119843350Y-119937906D01*
X119757190Y-119822812D01*
X119757187Y-119822809D01*
X119642093Y-119736649D01*
X119642086Y-119736645D01*
X119507379Y-119686403D01*
X119507372Y-119686401D01*
X119447844Y-119680000D01*
X118900000Y-119680000D01*
X118900000Y-120380000D01*
X118400000Y-120380000D01*
X118400000Y-119680000D01*
X117852155Y-119680000D01*
X117792627Y-119686401D01*
X117792620Y-119686403D01*
X117657913Y-119736645D01*
X117657906Y-119736649D01*
X117542812Y-119822809D01*
X117542809Y-119822812D01*
X117451411Y-119944904D01*
X117395477Y-119986775D01*
X117325786Y-119991759D01*
X117264464Y-119958274D01*
X117235851Y-119929661D01*
X117235850Y-119929660D01*
X117135238Y-119867602D01*
X117089018Y-119839093D01*
X117089013Y-119839091D01*
X117039877Y-119822809D01*
X116925253Y-119784826D01*
X116925251Y-119784825D01*
X116824178Y-119774500D01*
X116125830Y-119774500D01*
X116125812Y-119774501D01*
X116024747Y-119784825D01*
X115860984Y-119839092D01*
X115860981Y-119839093D01*
X115714148Y-119929661D01*
X115699825Y-119943984D01*
X115638501Y-119977468D01*
X115568809Y-119972482D01*
X115524465Y-119943982D01*
X115510538Y-119930055D01*
X115510534Y-119930052D01*
X115363811Y-119839551D01*
X115363800Y-119839546D01*
X115200152Y-119785319D01*
X115099154Y-119775000D01*
X114919195Y-119775000D01*
X114852156Y-119755315D01*
X114806401Y-119702511D01*
X114795975Y-119664883D01*
X114785369Y-119570750D01*
X114785368Y-119570745D01*
X114758848Y-119494955D01*
X114755287Y-119425176D01*
X114790016Y-119364548D01*
X114852009Y-119332321D01*
X114875890Y-119330000D01*
X125124110Y-119330000D01*
X125191149Y-119349685D01*
X125236904Y-119402489D01*
X125246848Y-119471647D01*
X125241152Y-119494955D01*
X125214631Y-119570745D01*
X125214630Y-119570750D01*
X125194435Y-119749996D01*
X125194435Y-119750000D01*
X125214630Y-119929249D01*
X125214631Y-119929254D01*
X125274211Y-120099523D01*
X125317370Y-120168209D01*
X125370184Y-120252262D01*
X125497738Y-120379816D01*
X125566809Y-120423216D01*
X125648426Y-120474500D01*
X125650478Y-120475789D01*
X125772288Y-120518412D01*
X125820745Y-120535368D01*
X125820750Y-120535369D01*
X125999996Y-120555565D01*
X126000000Y-120555565D01*
X126000004Y-120555565D01*
X126179249Y-120535369D01*
X126179252Y-120535368D01*
X126179255Y-120535368D01*
X126349522Y-120475789D01*
X126502262Y-120379816D01*
X126502267Y-120379810D01*
X126505097Y-120377555D01*
X126507275Y-120376665D01*
X126508158Y-120376111D01*
X126508255Y-120376265D01*
X126569783Y-120351145D01*
X126582412Y-120350500D01*
X134819138Y-120350500D01*
X134886177Y-120370185D01*
X134898357Y-120380000D01*
X136276000Y-120380000D01*
X136343039Y-120399685D01*
X136388794Y-120452489D01*
X136400000Y-120504000D01*
X136400000Y-120756000D01*
X136380315Y-120823039D01*
X136327511Y-120868794D01*
X136276000Y-120880000D01*
X134900000Y-120880000D01*
X134900000Y-121127844D01*
X134906401Y-121187372D01*
X134906403Y-121187379D01*
X134918925Y-121220952D01*
X134923909Y-121290643D01*
X134918925Y-121307617D01*
X134905909Y-121342514D01*
X134905908Y-121342516D01*
X134900533Y-121392516D01*
X134899501Y-121402123D01*
X134899500Y-121402135D01*
X134899500Y-122397870D01*
X134899501Y-122397876D01*
X134905908Y-122457481D01*
X134918659Y-122491669D01*
X134923642Y-122561361D01*
X134918659Y-122578331D01*
X134905908Y-122612518D01*
X134900024Y-122667250D01*
X134899501Y-122672123D01*
X134899500Y-122672135D01*
X134899500Y-123667870D01*
X134899501Y-123667876D01*
X134905908Y-123727481D01*
X134918659Y-123761669D01*
X134923642Y-123831361D01*
X134918659Y-123848331D01*
X134905908Y-123882518D01*
X134900025Y-123937241D01*
X134899501Y-123942123D01*
X134899500Y-123942135D01*
X134899500Y-124937870D01*
X134899501Y-124937876D01*
X134905908Y-124997481D01*
X134918659Y-125031669D01*
X134923642Y-125101361D01*
X134918659Y-125118331D01*
X134905908Y-125152518D01*
X134900338Y-125204332D01*
X134899501Y-125212123D01*
X134899500Y-125212135D01*
X134899500Y-126207870D01*
X134899501Y-126207876D01*
X134905908Y-126267481D01*
X134918659Y-126301669D01*
X134923642Y-126371361D01*
X134918659Y-126388331D01*
X134905908Y-126422518D01*
X134900815Y-126469894D01*
X134899501Y-126482123D01*
X134899500Y-126482135D01*
X134899500Y-127477870D01*
X134899501Y-127477876D01*
X134905908Y-127537481D01*
X134918659Y-127571669D01*
X134923642Y-127641361D01*
X134918659Y-127658331D01*
X134905909Y-127692517D01*
X134901366Y-127734776D01*
X134899501Y-127752123D01*
X134899500Y-127752135D01*
X134899500Y-128747870D01*
X134899501Y-128747876D01*
X134905908Y-128807481D01*
X134918659Y-128841669D01*
X134923642Y-128911361D01*
X134918659Y-128928331D01*
X134905908Y-128962518D01*
X134904109Y-128979255D01*
X134899501Y-129022123D01*
X134899500Y-129022135D01*
X134899500Y-130017870D01*
X134899501Y-130017876D01*
X134905908Y-130077481D01*
X134918659Y-130111669D01*
X134923642Y-130181361D01*
X134918659Y-130198331D01*
X134905908Y-130232518D01*
X134899909Y-130288323D01*
X134899501Y-130292123D01*
X134899500Y-130292135D01*
X134899500Y-131287870D01*
X134899501Y-131287876D01*
X134905908Y-131347481D01*
X134918659Y-131381669D01*
X134923642Y-131451361D01*
X134918659Y-131468331D01*
X134905908Y-131502518D01*
X134901860Y-131540173D01*
X134899501Y-131562123D01*
X134899500Y-131562135D01*
X134899500Y-132557870D01*
X134899501Y-132557876D01*
X134905908Y-132617481D01*
X134918659Y-132651669D01*
X134923642Y-132721361D01*
X134918659Y-132738331D01*
X134905908Y-132772518D01*
X134900320Y-132824500D01*
X134899501Y-132832123D01*
X134899500Y-132832135D01*
X134899500Y-133827870D01*
X134899501Y-133827876D01*
X134905908Y-133887481D01*
X134918659Y-133921669D01*
X134923642Y-133991361D01*
X134918659Y-134008331D01*
X134905908Y-134042518D01*
X134899962Y-134097827D01*
X134899501Y-134102123D01*
X134899500Y-134102135D01*
X134899500Y-135097870D01*
X134899501Y-135097876D01*
X134905908Y-135157481D01*
X134918659Y-135191669D01*
X134923642Y-135261361D01*
X134918659Y-135278331D01*
X134905908Y-135312518D01*
X134899501Y-135372116D01*
X134899501Y-135372123D01*
X134899500Y-135372135D01*
X134899500Y-136367870D01*
X134899501Y-136367876D01*
X134905908Y-136427481D01*
X134918659Y-136461669D01*
X134923642Y-136531361D01*
X134918659Y-136548331D01*
X134905908Y-136582518D01*
X134901859Y-136620185D01*
X134899501Y-136642123D01*
X134899500Y-136642135D01*
X134899500Y-137637870D01*
X134899501Y-137637876D01*
X134905908Y-137697483D01*
X134956202Y-137832328D01*
X134956206Y-137832335D01*
X135042452Y-137947544D01*
X135042455Y-137947547D01*
X135157664Y-138033793D01*
X135157671Y-138033797D01*
X135292517Y-138084091D01*
X135292516Y-138084091D01*
X135299444Y-138084835D01*
X135352127Y-138090500D01*
X136947872Y-138090499D01*
X137007483Y-138084091D01*
X137142331Y-138033796D01*
X137257546Y-137947546D01*
X137343796Y-137832331D01*
X137347960Y-137821165D01*
X137389829Y-137765234D01*
X137455293Y-137740816D01*
X137464141Y-137740500D01*
X137671453Y-137740500D01*
X137712407Y-137747458D01*
X137820745Y-137785368D01*
X137820751Y-137785368D01*
X137820753Y-137785369D01*
X137999996Y-137805565D01*
X138000000Y-137805565D01*
X138000004Y-137805565D01*
X138179249Y-137785369D01*
X138179252Y-137785368D01*
X138179255Y-137785368D01*
X138349522Y-137725789D01*
X138502262Y-137629816D01*
X138629816Y-137502262D01*
X138725789Y-137349522D01*
X138785368Y-137179255D01*
X138785368Y-137179254D01*
X138786198Y-137176883D01*
X138826920Y-137120106D01*
X138891873Y-137094359D01*
X138960434Y-137107815D01*
X138990921Y-137130156D01*
X139612640Y-137751875D01*
X139646125Y-137813198D01*
X139641141Y-137882890D01*
X139599269Y-137938823D01*
X139581256Y-137950040D01*
X139542180Y-137969950D01*
X139370213Y-138094890D01*
X139219890Y-138245213D01*
X139094951Y-138417179D01*
X138998444Y-138606585D01*
X138932753Y-138808760D01*
X138905838Y-138978696D01*
X138899500Y-139018713D01*
X138899500Y-139481287D01*
X138902724Y-139501641D01*
X138926142Y-139649500D01*
X138932754Y-139691243D01*
X138994025Y-139879816D01*
X138998444Y-139893414D01*
X139094951Y-140082820D01*
X139219890Y-140254786D01*
X139370213Y-140405109D01*
X139542179Y-140530048D01*
X139542181Y-140530049D01*
X139542184Y-140530051D01*
X139731588Y-140626557D01*
X139933757Y-140692246D01*
X140143713Y-140725500D01*
X140143714Y-140725500D01*
X140356286Y-140725500D01*
X140356287Y-140725500D01*
X140566243Y-140692246D01*
X140768412Y-140626557D01*
X140957816Y-140530051D01*
X141025993Y-140480518D01*
X141129786Y-140405109D01*
X141129788Y-140405106D01*
X141129792Y-140405104D01*
X141280104Y-140254792D01*
X141399683Y-140090204D01*
X141455011Y-140047540D01*
X141524624Y-140041561D01*
X141586420Y-140074166D01*
X141600313Y-140090199D01*
X141665015Y-140179254D01*
X141719896Y-140254792D01*
X141870213Y-140405109D01*
X142042179Y-140530048D01*
X142042181Y-140530049D01*
X142042184Y-140530051D01*
X142231588Y-140626557D01*
X142433757Y-140692246D01*
X142643713Y-140725500D01*
X142643714Y-140725500D01*
X142856286Y-140725500D01*
X142856287Y-140725500D01*
X143066243Y-140692246D01*
X143268412Y-140626557D01*
X143457816Y-140530051D01*
X143525993Y-140480518D01*
X143629784Y-140405110D01*
X143629784Y-140405109D01*
X143629792Y-140405104D01*
X143768967Y-140265928D01*
X143830286Y-140232446D01*
X143899978Y-140237430D01*
X143955912Y-140279301D01*
X143962184Y-140288515D01*
X144057684Y-140443345D01*
X144181654Y-140567315D01*
X144330875Y-140659356D01*
X144330880Y-140659358D01*
X144497302Y-140714505D01*
X144497309Y-140714506D01*
X144600019Y-140724999D01*
X144736144Y-140724999D01*
X144803184Y-140744683D01*
X144848939Y-140797487D01*
X144858883Y-140866645D01*
X144829859Y-140930201D01*
X144823826Y-140936680D01*
X144197328Y-141563181D01*
X144136005Y-141596666D01*
X144109647Y-141599500D01*
X132386669Y-141599500D01*
X132386653Y-141599499D01*
X132379057Y-141599499D01*
X132220943Y-141599499D01*
X132139627Y-141621288D01*
X132068210Y-141640424D01*
X132068209Y-141640425D01*
X132018096Y-141669359D01*
X132018095Y-141669360D01*
X131974689Y-141694420D01*
X131931285Y-141719479D01*
X131931282Y-141719481D01*
X131819478Y-141831286D01*
X131412582Y-142238181D01*
X131351259Y-142271666D01*
X131324901Y-142274500D01*
X130099998Y-142274500D01*
X130099981Y-142274501D01*
X129997203Y-142285000D01*
X129997200Y-142285001D01*
X129830668Y-142340185D01*
X129830663Y-142340187D01*
X129681342Y-142432289D01*
X129557289Y-142556342D01*
X129461551Y-142711559D01*
X129409603Y-142758283D01*
X129340640Y-142769506D01*
X129276558Y-142741662D01*
X129268331Y-142734143D01*
X129129464Y-142595276D01*
X129129459Y-142595272D01*
X128957557Y-142470379D01*
X128768215Y-142373903D01*
X128566124Y-142308241D01*
X128500000Y-142297768D01*
X128500000Y-143345854D01*
X128433343Y-143307370D01*
X128312535Y-143275000D01*
X128187465Y-143275000D01*
X128066657Y-143307370D01*
X128000000Y-143345854D01*
X128000000Y-142297768D01*
X127999999Y-142297768D01*
X127933875Y-142308241D01*
X127731784Y-142373903D01*
X127542442Y-142470379D01*
X127370540Y-142595272D01*
X127370535Y-142595276D01*
X127220276Y-142745535D01*
X127220272Y-142745540D01*
X127100627Y-142910218D01*
X127045297Y-142952884D01*
X126975684Y-142958863D01*
X126913889Y-142926257D01*
X126899991Y-142910218D01*
X126780109Y-142745214D01*
X126780105Y-142745209D01*
X126629786Y-142594890D01*
X126457820Y-142469951D01*
X126268414Y-142373444D01*
X126268413Y-142373443D01*
X126268412Y-142373443D01*
X126066243Y-142307754D01*
X126066241Y-142307753D01*
X126066240Y-142307753D01*
X125904957Y-142282208D01*
X125856287Y-142274500D01*
X125643713Y-142274500D01*
X125595042Y-142282208D01*
X125433760Y-142307753D01*
X125231585Y-142373444D01*
X125042179Y-142469951D01*
X124870213Y-142594890D01*
X124719894Y-142745209D01*
X124719890Y-142745214D01*
X124600318Y-142909793D01*
X124544989Y-142952459D01*
X124475375Y-142958438D01*
X124413580Y-142925833D01*
X124399682Y-142909793D01*
X124280109Y-142745214D01*
X124280105Y-142745209D01*
X124129786Y-142594890D01*
X123957820Y-142469951D01*
X123768414Y-142373444D01*
X123768413Y-142373443D01*
X123768412Y-142373443D01*
X123566243Y-142307754D01*
X123566241Y-142307753D01*
X123566240Y-142307753D01*
X123404957Y-142282208D01*
X123356287Y-142274500D01*
X123143713Y-142274500D01*
X123095042Y-142282208D01*
X122933760Y-142307753D01*
X122731585Y-142373444D01*
X122542179Y-142469951D01*
X122370213Y-142594890D01*
X122219890Y-142745213D01*
X122094951Y-142917179D01*
X121998444Y-143106585D01*
X121932753Y-143308760D01*
X121899500Y-143518713D01*
X121899500Y-143981286D01*
X121927948Y-144160904D01*
X121932754Y-144191243D01*
X121951845Y-144250000D01*
X121963927Y-144287182D01*
X121965922Y-144357023D01*
X121929842Y-144416856D01*
X121867141Y-144447684D01*
X121845996Y-144449500D01*
X118850098Y-144449500D01*
X118783059Y-144429815D01*
X118762417Y-144413181D01*
X118636818Y-144287582D01*
X118603333Y-144226259D01*
X118600499Y-144199901D01*
X118600499Y-142949998D01*
X118600498Y-142949981D01*
X118589999Y-142847203D01*
X118589998Y-142847200D01*
X118574523Y-142800500D01*
X118534814Y-142680666D01*
X118442712Y-142531344D01*
X118318656Y-142407288D01*
X118177486Y-142320214D01*
X118169336Y-142315187D01*
X118169331Y-142315185D01*
X118148375Y-142308241D01*
X118002797Y-142260001D01*
X118002795Y-142260000D01*
X117900010Y-142249500D01*
X116599998Y-142249500D01*
X116599981Y-142249501D01*
X116497203Y-142260000D01*
X116497200Y-142260001D01*
X116330668Y-142315185D01*
X116330663Y-142315187D01*
X116181342Y-142407289D01*
X116057289Y-142531342D01*
X115961551Y-142686559D01*
X115909603Y-142733283D01*
X115840640Y-142744506D01*
X115776558Y-142716662D01*
X115768331Y-142709143D01*
X115629464Y-142570276D01*
X115629459Y-142570272D01*
X115457557Y-142445379D01*
X115268215Y-142348903D01*
X115066124Y-142283241D01*
X115000000Y-142272768D01*
X115000000Y-143316988D01*
X114942993Y-143284075D01*
X114815826Y-143250000D01*
X114684174Y-143250000D01*
X114557007Y-143284075D01*
X114500000Y-143316988D01*
X114500000Y-142272768D01*
X114499999Y-142272768D01*
X114433875Y-142283241D01*
X114231784Y-142348903D01*
X114042442Y-142445379D01*
X113870540Y-142570272D01*
X113870535Y-142570276D01*
X113720276Y-142720535D01*
X113720272Y-142720540D01*
X113595379Y-142892442D01*
X113498904Y-143081782D01*
X113433242Y-143283869D01*
X113433242Y-143283872D01*
X113400000Y-143493753D01*
X113400000Y-143500000D01*
X114316988Y-143500000D01*
X114284075Y-143557007D01*
X114250000Y-143684174D01*
X114250000Y-143815826D01*
X114284075Y-143942993D01*
X114316988Y-144000000D01*
X113400000Y-144000000D01*
X113400000Y-144006246D01*
X113433242Y-144216127D01*
X113433242Y-144216130D01*
X113498904Y-144418217D01*
X113595379Y-144607557D01*
X113720272Y-144779459D01*
X113720276Y-144779464D01*
X113870535Y-144929723D01*
X113870540Y-144929727D01*
X114042442Y-145054620D01*
X114231782Y-145151095D01*
X114433871Y-145216757D01*
X114500000Y-145227231D01*
X114500000Y-144183012D01*
X114557007Y-144215925D01*
X114684174Y-144250000D01*
X114815826Y-144250000D01*
X114942993Y-144215925D01*
X115000000Y-144183012D01*
X115000000Y-145227230D01*
X115066126Y-145216757D01*
X115066129Y-145216757D01*
X115268217Y-145151095D01*
X115457557Y-145054620D01*
X115629458Y-144929728D01*
X115768330Y-144790856D01*
X115829653Y-144757371D01*
X115899345Y-144762355D01*
X115955279Y-144804226D01*
X115961551Y-144813440D01*
X115965185Y-144819331D01*
X115965186Y-144819334D01*
X116057288Y-144968656D01*
X116181344Y-145092712D01*
X116330666Y-145184814D01*
X116497203Y-145239999D01*
X116599991Y-145250500D01*
X117849901Y-145250499D01*
X117916940Y-145270184D01*
X117937582Y-145286818D01*
X118181284Y-145530520D01*
X118181286Y-145530521D01*
X118181290Y-145530524D01*
X118318209Y-145609573D01*
X118318216Y-145609577D01*
X118470943Y-145650501D01*
X118470945Y-145650501D01*
X118636654Y-145650501D01*
X118636670Y-145650500D01*
X138113331Y-145650500D01*
X138113347Y-145650501D01*
X138120943Y-145650501D01*
X138279054Y-145650501D01*
X138279057Y-145650501D01*
X138431785Y-145609577D01*
X138481904Y-145580639D01*
X138568716Y-145530520D01*
X138680520Y-145418716D01*
X138680520Y-145418714D01*
X138690728Y-145408507D01*
X138690730Y-145408504D01*
X138812417Y-145286816D01*
X138873738Y-145253333D01*
X138900087Y-145250499D01*
X140150008Y-145250499D01*
X140151154Y-145250382D01*
X140167895Y-145248671D01*
X140252797Y-145239999D01*
X140419334Y-145184814D01*
X140568656Y-145092712D01*
X140692712Y-144968656D01*
X140784814Y-144819334D01*
X140839999Y-144652797D01*
X140850500Y-144550009D01*
X140850500Y-144224500D01*
X140870185Y-144157461D01*
X140922989Y-144111706D01*
X140974500Y-144100500D01*
X142890380Y-144100500D01*
X142955476Y-144118961D01*
X143023477Y-144160904D01*
X143023478Y-144160904D01*
X143023484Y-144160908D01*
X143187247Y-144215174D01*
X143288323Y-144225500D01*
X143986676Y-144225499D01*
X143986684Y-144225498D01*
X143986687Y-144225498D01*
X144042030Y-144219844D01*
X144087753Y-144215174D01*
X144251516Y-144160908D01*
X144398350Y-144070340D01*
X144412671Y-144056018D01*
X144473989Y-144022533D01*
X144543681Y-144027514D01*
X144588034Y-144056017D01*
X144601961Y-144069944D01*
X144601965Y-144069947D01*
X144748688Y-144160448D01*
X144748699Y-144160453D01*
X144912347Y-144214680D01*
X145013351Y-144224999D01*
X145612500Y-144224999D01*
X145711640Y-144224999D01*
X145711654Y-144224998D01*
X145812652Y-144214680D01*
X145976300Y-144160453D01*
X145976311Y-144160448D01*
X146123034Y-144069947D01*
X146123038Y-144069944D01*
X146244944Y-143948038D01*
X146244947Y-143948034D01*
X146335448Y-143801311D01*
X146335453Y-143801300D01*
X146389680Y-143637652D01*
X146399999Y-143536654D01*
X146400000Y-143536641D01*
X146400000Y-143500000D01*
X145612500Y-143500000D01*
X145612500Y-144224999D01*
X145013351Y-144224999D01*
X145112500Y-144224998D01*
X145112500Y-143124000D01*
X145132185Y-143056961D01*
X145184989Y-143011206D01*
X145236500Y-143000000D01*
X146399999Y-143000000D01*
X146399999Y-142963360D01*
X146399998Y-142963345D01*
X146389680Y-142862347D01*
X146335453Y-142698699D01*
X146335448Y-142698688D01*
X146244947Y-142551965D01*
X146244944Y-142551961D01*
X146123038Y-142430055D01*
X146123034Y-142430052D01*
X145976311Y-142339551D01*
X145976300Y-142339546D01*
X145812652Y-142285319D01*
X145711654Y-142275000D01*
X145483339Y-142275000D01*
X145416300Y-142255315D01*
X145370545Y-142202511D01*
X145360601Y-142133353D01*
X145389626Y-142069797D01*
X145395638Y-142063339D01*
X146080267Y-141378711D01*
X160899500Y-141378711D01*
X160899500Y-141621288D01*
X160931161Y-141861785D01*
X160993947Y-142096104D01*
X161086773Y-142320205D01*
X161086777Y-142320214D01*
X161103341Y-142348903D01*
X161208064Y-142530289D01*
X161208066Y-142530292D01*
X161208067Y-142530293D01*
X161355733Y-142722736D01*
X161355739Y-142722743D01*
X161527256Y-142894260D01*
X161527263Y-142894266D01*
X161632466Y-142974991D01*
X161719711Y-143041936D01*
X161929788Y-143163224D01*
X162153900Y-143256054D01*
X162388211Y-143318838D01*
X162568586Y-143342584D01*
X162628711Y-143350500D01*
X162628712Y-143350500D01*
X162871289Y-143350500D01*
X162919388Y-143344167D01*
X163111789Y-143318838D01*
X163346100Y-143256054D01*
X163570212Y-143163224D01*
X163780289Y-143041936D01*
X163972738Y-142894265D01*
X164144265Y-142722738D01*
X164291936Y-142530289D01*
X164413224Y-142320212D01*
X164506054Y-142096100D01*
X164568838Y-141861789D01*
X164600500Y-141621288D01*
X164600500Y-141378712D01*
X164568838Y-141138211D01*
X164506054Y-140903900D01*
X164413224Y-140679788D01*
X164291936Y-140469711D01*
X164144265Y-140277262D01*
X164144260Y-140277256D01*
X163972743Y-140105739D01*
X163972736Y-140105733D01*
X163780293Y-139958067D01*
X163780292Y-139958066D01*
X163780289Y-139958064D01*
X163607841Y-139858501D01*
X163570214Y-139836777D01*
X163570205Y-139836773D01*
X163346104Y-139743947D01*
X163149411Y-139691243D01*
X163111789Y-139681162D01*
X163111788Y-139681161D01*
X163111785Y-139681161D01*
X162871289Y-139649500D01*
X162871288Y-139649500D01*
X162628712Y-139649500D01*
X162628711Y-139649500D01*
X162388214Y-139681161D01*
X162153895Y-139743947D01*
X161929794Y-139836773D01*
X161929785Y-139836777D01*
X161719706Y-139958067D01*
X161527263Y-140105733D01*
X161527256Y-140105739D01*
X161355739Y-140277256D01*
X161355733Y-140277263D01*
X161208067Y-140469706D01*
X161086777Y-140679785D01*
X161086773Y-140679794D01*
X160993947Y-140903895D01*
X160931161Y-141138214D01*
X160899500Y-141378711D01*
X146080267Y-141378711D01*
X147230520Y-140228460D01*
X147309577Y-140091528D01*
X147350501Y-139938801D01*
X147350501Y-139780686D01*
X147350501Y-139773091D01*
X147350500Y-139773073D01*
X147350500Y-137699097D01*
X147370185Y-137632058D01*
X147422989Y-137586303D01*
X147492147Y-137576359D01*
X147555703Y-137605384D01*
X147562179Y-137611414D01*
X148731284Y-138780520D01*
X148731286Y-138780521D01*
X148731290Y-138780524D01*
X148823200Y-138833588D01*
X148871416Y-138884154D01*
X148881535Y-138911047D01*
X148898358Y-138978691D01*
X148898360Y-138978696D01*
X148982967Y-139149292D01*
X148982969Y-139149295D01*
X149102277Y-139297721D01*
X149102278Y-139297722D01*
X149250704Y-139417030D01*
X149250707Y-139417032D01*
X149421302Y-139501639D01*
X149421303Y-139501639D01*
X149421307Y-139501641D01*
X149606111Y-139547600D01*
X149648877Y-139550500D01*
X151051122Y-139550499D01*
X151093889Y-139547600D01*
X151278693Y-139501641D01*
X151449296Y-139417030D01*
X151597722Y-139297722D01*
X151717030Y-139149296D01*
X151801641Y-138978693D01*
X151847600Y-138793889D01*
X151850500Y-138751123D01*
X151850499Y-137848878D01*
X151847600Y-137806111D01*
X151801641Y-137621307D01*
X151776169Y-137569947D01*
X151717032Y-137450707D01*
X151717030Y-137450704D01*
X151597722Y-137302278D01*
X151597721Y-137302277D01*
X151528514Y-137246647D01*
X151488595Y-137189304D01*
X151486015Y-137119482D01*
X151521594Y-137059349D01*
X151528514Y-137053353D01*
X151550888Y-137035368D01*
X151597722Y-136997722D01*
X151717030Y-136849296D01*
X151778923Y-136724500D01*
X151804628Y-136672671D01*
X151806535Y-136673617D01*
X151842131Y-136625590D01*
X151907478Y-136600860D01*
X151916916Y-136600500D01*
X155025501Y-136600500D01*
X155092540Y-136620185D01*
X155138295Y-136672989D01*
X155149501Y-136724500D01*
X155149501Y-137458036D01*
X155149760Y-137460945D01*
X155160113Y-137577415D01*
X155216089Y-137773045D01*
X155216090Y-137773048D01*
X155216091Y-137773049D01*
X155310302Y-137953407D01*
X155338113Y-137987514D01*
X155438890Y-138111109D01*
X155516587Y-138174462D01*
X155596593Y-138239698D01*
X155776951Y-138333909D01*
X155972582Y-138389886D01*
X156091963Y-138400500D01*
X157208036Y-138400499D01*
X157327418Y-138389886D01*
X157523049Y-138333909D01*
X157703407Y-138239698D01*
X157861109Y-138111109D01*
X157989698Y-137953407D01*
X158083909Y-137773049D01*
X158139886Y-137577418D01*
X158150500Y-137458037D01*
X158150499Y-135724499D01*
X158170184Y-135657461D01*
X158222987Y-135611706D01*
X158274499Y-135600500D01*
X162589281Y-135600500D01*
X162656320Y-135620185D01*
X162699765Y-135668205D01*
X162719947Y-135707814D01*
X162719948Y-135707815D01*
X162844890Y-135879786D01*
X162995213Y-136030109D01*
X163167179Y-136155048D01*
X163167181Y-136155049D01*
X163167184Y-136155051D01*
X163356588Y-136251557D01*
X163558757Y-136317246D01*
X163768713Y-136350500D01*
X163768714Y-136350500D01*
X164231286Y-136350500D01*
X164231287Y-136350500D01*
X164441243Y-136317246D01*
X164643412Y-136251557D01*
X164832816Y-136155051D01*
X164949328Y-136070401D01*
X165004786Y-136030109D01*
X165004788Y-136030106D01*
X165004792Y-136030104D01*
X165155104Y-135879792D01*
X165155106Y-135879788D01*
X165155109Y-135879786D01*
X165280048Y-135707820D01*
X165280047Y-135707820D01*
X165280051Y-135707816D01*
X165376557Y-135518412D01*
X165442246Y-135316243D01*
X165475500Y-135106287D01*
X165475500Y-134893713D01*
X165442246Y-134683757D01*
X165376557Y-134481588D01*
X165280051Y-134292184D01*
X165280049Y-134292181D01*
X165280048Y-134292179D01*
X165155109Y-134120213D01*
X165004792Y-133969896D01*
X164951729Y-133931344D01*
X164840204Y-133850316D01*
X164797540Y-133794989D01*
X164791561Y-133725376D01*
X164824166Y-133663580D01*
X164840199Y-133649686D01*
X165004792Y-133530104D01*
X165155104Y-133379792D01*
X165155106Y-133379788D01*
X165155109Y-133379786D01*
X165264086Y-133229789D01*
X165280051Y-133207816D01*
X165376557Y-133018412D01*
X165442246Y-132816243D01*
X165475500Y-132606287D01*
X165475500Y-132393713D01*
X165442246Y-132183757D01*
X165376557Y-131981588D01*
X165280051Y-131792184D01*
X165280049Y-131792181D01*
X165280048Y-131792179D01*
X165155109Y-131620213D01*
X165004792Y-131469896D01*
X164990483Y-131459500D01*
X164840204Y-131350316D01*
X164797540Y-131294989D01*
X164791561Y-131225376D01*
X164824166Y-131163580D01*
X164840199Y-131149686D01*
X165004792Y-131030104D01*
X165155104Y-130879792D01*
X165155106Y-130879788D01*
X165155109Y-130879786D01*
X165280048Y-130707820D01*
X165280047Y-130707820D01*
X165280051Y-130707816D01*
X165376557Y-130518412D01*
X165442246Y-130316243D01*
X165475500Y-130106287D01*
X165475500Y-129893713D01*
X165442246Y-129683757D01*
X165376557Y-129481588D01*
X165280051Y-129292184D01*
X165280049Y-129292181D01*
X165280048Y-129292179D01*
X165155109Y-129120213D01*
X165004792Y-128969896D01*
X164972517Y-128946447D01*
X164840204Y-128850316D01*
X164797540Y-128794989D01*
X164791561Y-128725376D01*
X164824166Y-128663580D01*
X164840199Y-128649686D01*
X165004792Y-128530104D01*
X165155104Y-128379792D01*
X165155106Y-128379788D01*
X165155109Y-128379786D01*
X165280048Y-128207820D01*
X165280047Y-128207820D01*
X165280051Y-128207816D01*
X165376557Y-128018412D01*
X165442246Y-127816243D01*
X165475500Y-127606287D01*
X165475500Y-127393713D01*
X165442246Y-127183757D01*
X165376557Y-126981588D01*
X165280051Y-126792184D01*
X165280049Y-126792181D01*
X165280048Y-126792179D01*
X165155109Y-126620213D01*
X165004792Y-126469896D01*
X165004784Y-126469890D01*
X164840204Y-126350316D01*
X164797540Y-126294989D01*
X164791561Y-126225376D01*
X164824166Y-126163580D01*
X164840199Y-126149686D01*
X165004792Y-126030104D01*
X165155104Y-125879792D01*
X165155106Y-125879788D01*
X165155109Y-125879786D01*
X165264835Y-125728759D01*
X165280051Y-125707816D01*
X165376557Y-125518412D01*
X165442246Y-125316243D01*
X165475500Y-125106287D01*
X165475500Y-124893713D01*
X165442246Y-124683757D01*
X165376557Y-124481588D01*
X165280051Y-124292184D01*
X165280049Y-124292181D01*
X165280048Y-124292179D01*
X165155109Y-124120213D01*
X165004792Y-123969896D01*
X164966582Y-123942135D01*
X164840204Y-123850316D01*
X164797540Y-123794989D01*
X164791561Y-123725376D01*
X164824166Y-123663580D01*
X164840199Y-123649686D01*
X165004792Y-123530104D01*
X165155104Y-123379792D01*
X165155106Y-123379788D01*
X165155109Y-123379786D01*
X165280048Y-123207820D01*
X165280047Y-123207820D01*
X165280051Y-123207816D01*
X165376557Y-123018412D01*
X165442246Y-122816243D01*
X165475500Y-122606287D01*
X165475500Y-122393713D01*
X165442246Y-122183757D01*
X165376557Y-121981588D01*
X165280051Y-121792184D01*
X165280049Y-121792181D01*
X165280048Y-121792179D01*
X165155109Y-121620213D01*
X165004790Y-121469894D01*
X165004785Y-121469890D01*
X164839781Y-121350008D01*
X164797115Y-121294678D01*
X164791136Y-121225065D01*
X164823741Y-121163270D01*
X164839781Y-121149371D01*
X165004466Y-121029721D01*
X165154723Y-120879464D01*
X165154727Y-120879459D01*
X165279620Y-120707557D01*
X165376095Y-120518217D01*
X165441757Y-120316129D01*
X165441757Y-120316126D01*
X165452231Y-120250000D01*
X164404146Y-120250000D01*
X164442630Y-120183343D01*
X164475000Y-120062535D01*
X164475000Y-119937465D01*
X164442630Y-119816657D01*
X164404146Y-119750000D01*
X165452231Y-119750000D01*
X165441757Y-119683873D01*
X165441757Y-119683870D01*
X165376095Y-119481782D01*
X165279620Y-119292442D01*
X165154727Y-119120540D01*
X165154723Y-119120535D01*
X165015493Y-118981305D01*
X164982008Y-118919982D01*
X164986992Y-118850290D01*
X165028864Y-118794357D01*
X165038078Y-118788085D01*
X165193343Y-118692317D01*
X165317315Y-118568345D01*
X165409356Y-118419124D01*
X165409358Y-118419119D01*
X165464505Y-118252697D01*
X165464506Y-118252690D01*
X165474999Y-118149986D01*
X165475000Y-118149973D01*
X165475000Y-117750000D01*
X164404146Y-117750000D01*
X164442630Y-117683343D01*
X164475000Y-117562535D01*
X164475000Y-117437465D01*
X164442630Y-117316657D01*
X164404146Y-117250000D01*
X165474999Y-117250000D01*
X165474999Y-116850028D01*
X165474998Y-116850013D01*
X165464505Y-116747302D01*
X165409358Y-116580880D01*
X165409356Y-116580875D01*
X165317315Y-116431654D01*
X165193345Y-116307684D01*
X165044124Y-116215643D01*
X165044119Y-116215641D01*
X164877697Y-116160494D01*
X164877690Y-116160493D01*
X164774986Y-116150000D01*
X164250000Y-116150000D01*
X164250000Y-117095854D01*
X164183343Y-117057370D01*
X164062535Y-117025000D01*
X163937465Y-117025000D01*
X163816657Y-117057370D01*
X163750000Y-117095854D01*
X163750000Y-116150000D01*
X163225028Y-116150000D01*
X163225012Y-116150001D01*
X163122302Y-116160494D01*
X162955880Y-116215641D01*
X162955875Y-116215643D01*
X162806654Y-116307684D01*
X162682684Y-116431654D01*
X162590643Y-116580875D01*
X162590641Y-116580880D01*
X162535494Y-116747302D01*
X162535493Y-116747309D01*
X162525000Y-116850013D01*
X162525000Y-117250000D01*
X163595854Y-117250000D01*
X163557370Y-117316657D01*
X163525000Y-117437465D01*
X163525000Y-117562535D01*
X163557370Y-117683343D01*
X163595854Y-117750000D01*
X162525001Y-117750000D01*
X162525001Y-118149986D01*
X162535494Y-118252697D01*
X162590641Y-118419119D01*
X162590643Y-118419124D01*
X162682684Y-118568345D01*
X162806654Y-118692315D01*
X162961922Y-118788085D01*
X163008646Y-118840033D01*
X163019869Y-118908996D01*
X162992025Y-118973078D01*
X162984507Y-118981305D01*
X162845271Y-119120541D01*
X162720379Y-119292442D01*
X162623904Y-119481782D01*
X162558242Y-119683870D01*
X162558242Y-119683873D01*
X162547769Y-119750000D01*
X163595854Y-119750000D01*
X163557370Y-119816657D01*
X163525000Y-119937465D01*
X163525000Y-120062535D01*
X163557370Y-120183343D01*
X163595854Y-120250000D01*
X162547769Y-120250000D01*
X162558242Y-120316126D01*
X162558242Y-120316129D01*
X162623904Y-120518217D01*
X162720379Y-120707557D01*
X162845272Y-120879459D01*
X162845276Y-120879464D01*
X162995535Y-121029723D01*
X162995540Y-121029727D01*
X163160218Y-121149372D01*
X163202884Y-121204701D01*
X163208863Y-121274315D01*
X163176258Y-121336110D01*
X163160218Y-121350008D01*
X162995214Y-121469890D01*
X162995209Y-121469894D01*
X162844890Y-121620213D01*
X162719951Y-121792179D01*
X162623444Y-121981585D01*
X162557753Y-122183760D01*
X162524500Y-122393713D01*
X162524500Y-122606286D01*
X162551142Y-122774501D01*
X162557754Y-122816243D01*
X162604648Y-122960568D01*
X162623444Y-123018414D01*
X162719951Y-123207820D01*
X162844890Y-123379786D01*
X162995209Y-123530105D01*
X162995214Y-123530109D01*
X163159793Y-123649682D01*
X163202459Y-123705011D01*
X163208438Y-123774625D01*
X163175833Y-123836420D01*
X163159793Y-123850318D01*
X162995214Y-123969890D01*
X162995209Y-123969894D01*
X162844890Y-124120213D01*
X162719951Y-124292179D01*
X162623444Y-124481585D01*
X162557753Y-124683760D01*
X162524500Y-124893713D01*
X162524500Y-125106286D01*
X162541263Y-125212127D01*
X162557754Y-125316243D01*
X162601128Y-125449735D01*
X162623444Y-125518414D01*
X162719951Y-125707820D01*
X162844890Y-125879786D01*
X162848053Y-125883488D01*
X162847178Y-125884234D01*
X162878065Y-125940799D01*
X162873081Y-126010491D01*
X162844580Y-126054838D01*
X159269481Y-129629936D01*
X159269480Y-129629938D01*
X159226574Y-129704255D01*
X159220107Y-129715456D01*
X159220105Y-129715458D01*
X159190425Y-129766863D01*
X159190424Y-129766864D01*
X159179765Y-129806645D01*
X159149499Y-129919597D01*
X159149499Y-129919599D01*
X159149499Y-130087700D01*
X159149500Y-130087713D01*
X159149500Y-131167587D01*
X159129815Y-131234626D01*
X159122450Y-131244896D01*
X159120186Y-131247734D01*
X159024211Y-131400476D01*
X158964631Y-131570745D01*
X158964630Y-131570750D01*
X158944435Y-131749996D01*
X158944435Y-131750003D01*
X158964630Y-131929249D01*
X158964631Y-131929254D01*
X159024211Y-132099523D01*
X159087344Y-132199998D01*
X159120184Y-132252262D01*
X159247738Y-132379816D01*
X159269855Y-132393713D01*
X159382804Y-132464684D01*
X159400478Y-132475789D01*
X159570745Y-132535368D01*
X159570750Y-132535369D01*
X159749996Y-132555565D01*
X159750000Y-132555565D01*
X159750004Y-132555565D01*
X159929249Y-132535369D01*
X159929252Y-132535368D01*
X159929255Y-132535368D01*
X160099522Y-132475789D01*
X160252262Y-132379816D01*
X160379816Y-132252262D01*
X160475789Y-132099522D01*
X160535368Y-131929255D01*
X160536562Y-131918657D01*
X160555565Y-131750003D01*
X160555565Y-131749996D01*
X160535369Y-131570750D01*
X160535368Y-131570745D01*
X160511405Y-131502262D01*
X160475789Y-131400478D01*
X160474635Y-131398642D01*
X160405036Y-131287876D01*
X160379816Y-131247738D01*
X160379814Y-131247736D01*
X160379813Y-131247734D01*
X160377550Y-131244896D01*
X160376659Y-131242715D01*
X160376111Y-131241842D01*
X160376264Y-131241745D01*
X160351144Y-131180209D01*
X160350500Y-131167587D01*
X160350500Y-130298750D01*
X160370185Y-130231711D01*
X160386814Y-130211074D01*
X162487921Y-128109966D01*
X162549242Y-128076483D01*
X162618934Y-128081467D01*
X162674867Y-128123339D01*
X162686085Y-128141354D01*
X162719951Y-128207820D01*
X162844890Y-128379786D01*
X162995209Y-128530105D01*
X162995214Y-128530109D01*
X163159793Y-128649682D01*
X163202459Y-128705011D01*
X163208438Y-128774625D01*
X163175833Y-128836420D01*
X163159793Y-128850318D01*
X162995214Y-128969890D01*
X162995209Y-128969894D01*
X162844890Y-129120213D01*
X162719951Y-129292179D01*
X162623444Y-129481585D01*
X162557753Y-129683760D01*
X162526023Y-129884095D01*
X162524500Y-129893713D01*
X162524500Y-130106287D01*
X162532874Y-130159159D01*
X162553935Y-130292135D01*
X162557754Y-130316243D01*
X162621300Y-130511818D01*
X162623444Y-130518414D01*
X162719951Y-130707820D01*
X162844890Y-130879786D01*
X162995209Y-131030105D01*
X162995214Y-131030109D01*
X163159793Y-131149682D01*
X163202459Y-131205011D01*
X163208438Y-131274625D01*
X163175833Y-131336420D01*
X163159793Y-131350318D01*
X162995214Y-131469890D01*
X162995209Y-131469894D01*
X162844890Y-131620213D01*
X162719951Y-131792179D01*
X162623444Y-131981585D01*
X162557753Y-132183760D01*
X162542660Y-132279057D01*
X162524500Y-132393713D01*
X162524500Y-132606287D01*
X162524523Y-132606430D01*
X162550828Y-132772518D01*
X162557754Y-132816243D01*
X162611834Y-132982684D01*
X162623444Y-133018414D01*
X162719951Y-133207820D01*
X162844890Y-133379786D01*
X162995209Y-133530105D01*
X162995214Y-133530109D01*
X163159793Y-133649682D01*
X163202459Y-133705011D01*
X163208438Y-133774625D01*
X163175833Y-133836420D01*
X163159793Y-133850318D01*
X162995214Y-133969890D01*
X162995209Y-133969894D01*
X162844890Y-134120213D01*
X162719948Y-134292184D01*
X162719947Y-134292185D01*
X162699765Y-134331795D01*
X162651791Y-134382591D01*
X162589281Y-134399500D01*
X158226777Y-134399500D01*
X158159738Y-134379815D01*
X158113983Y-134327011D01*
X158107561Y-134309612D01*
X158083909Y-134226951D01*
X157989698Y-134046593D01*
X157958502Y-134008334D01*
X157861109Y-133888890D01*
X157703409Y-133760304D01*
X157703410Y-133760304D01*
X157703407Y-133760302D01*
X157523049Y-133666091D01*
X157523048Y-133666090D01*
X157523045Y-133666089D01*
X157405829Y-133632550D01*
X157327418Y-133610114D01*
X157327415Y-133610113D01*
X157327413Y-133610113D01*
X157261102Y-133604217D01*
X157208037Y-133599500D01*
X157208032Y-133599500D01*
X156091971Y-133599500D01*
X156091965Y-133599500D01*
X156091964Y-133599501D01*
X156080316Y-133600536D01*
X155972584Y-133610113D01*
X155776954Y-133666089D01*
X155702442Y-133705011D01*
X155596593Y-133760302D01*
X155596591Y-133760303D01*
X155596590Y-133760304D01*
X155438890Y-133888890D01*
X155312415Y-134044001D01*
X155310302Y-134046593D01*
X155281289Y-134102135D01*
X155216089Y-134226954D01*
X155160114Y-134422583D01*
X155160113Y-134422586D01*
X155149500Y-134541966D01*
X155149500Y-135275500D01*
X155129815Y-135342539D01*
X155077011Y-135388294D01*
X155025500Y-135399500D01*
X151916916Y-135399500D01*
X151849877Y-135379815D01*
X151804122Y-135327011D01*
X151802425Y-135322887D01*
X151717032Y-135150707D01*
X151717030Y-135150704D01*
X151597724Y-135002280D01*
X151597722Y-135002278D01*
X151528112Y-134946324D01*
X151488196Y-134888985D01*
X151485616Y-134819163D01*
X151521194Y-134759030D01*
X151528115Y-134753033D01*
X151597366Y-134697367D01*
X151597367Y-134697366D01*
X151716607Y-134549025D01*
X151716609Y-134549022D01*
X151801168Y-134378523D01*
X151847102Y-134193824D01*
X151850000Y-134151096D01*
X151850000Y-133950000D01*
X148850000Y-133950000D01*
X148850000Y-134151096D01*
X148852897Y-134193824D01*
X148898831Y-134378523D01*
X148983390Y-134549022D01*
X148983392Y-134549025D01*
X149088699Y-134680033D01*
X149115358Y-134744617D01*
X149102867Y-134813361D01*
X149055194Y-134864440D01*
X148987473Y-134881635D01*
X148951097Y-134874762D01*
X148779254Y-134814631D01*
X148779249Y-134814630D01*
X148600004Y-134794435D01*
X148600003Y-134794435D01*
X148600001Y-134794435D01*
X148600000Y-134794435D01*
X148578184Y-134796892D01*
X148538382Y-134801377D01*
X148469560Y-134789321D01*
X148418181Y-134741971D01*
X148400500Y-134678156D01*
X148400500Y-133248903D01*
X148850000Y-133248903D01*
X148850000Y-133450000D01*
X150100000Y-133450000D01*
X150600000Y-133450000D01*
X151850000Y-133450000D01*
X151850000Y-133248903D01*
X151847102Y-133206175D01*
X151801168Y-133021476D01*
X151716609Y-132850977D01*
X151716607Y-132850974D01*
X151597367Y-132702633D01*
X151597366Y-132702632D01*
X151449025Y-132583392D01*
X151449022Y-132583390D01*
X151278523Y-132498831D01*
X151093824Y-132452897D01*
X151051097Y-132450000D01*
X150600000Y-132450000D01*
X150600000Y-133450000D01*
X150100000Y-133450000D01*
X150100000Y-132450000D01*
X149648903Y-132450000D01*
X149606175Y-132452897D01*
X149421476Y-132498831D01*
X149250977Y-132583390D01*
X149250974Y-132583392D01*
X149102633Y-132702632D01*
X149102632Y-132702633D01*
X148983392Y-132850974D01*
X148983390Y-132850977D01*
X148898831Y-133021476D01*
X148852897Y-133206175D01*
X148850000Y-133248903D01*
X148400500Y-133248903D01*
X148400500Y-132025097D01*
X148420185Y-131958058D01*
X148436819Y-131937416D01*
X148837416Y-131536819D01*
X148898739Y-131503334D01*
X148925097Y-131500500D01*
X153613331Y-131500500D01*
X153613347Y-131500501D01*
X153620943Y-131500501D01*
X153779054Y-131500501D01*
X153779057Y-131500501D01*
X153931785Y-131459577D01*
X153986777Y-131427827D01*
X154068716Y-131380520D01*
X154180520Y-131268716D01*
X154180520Y-131268714D01*
X154190724Y-131258511D01*
X154190728Y-131258506D01*
X154200821Y-131248412D01*
X154262142Y-131214929D01*
X154331834Y-131219913D01*
X154387767Y-131261785D01*
X154412184Y-131327249D01*
X154412500Y-131336094D01*
X154412500Y-131499970D01*
X154412501Y-131499987D01*
X154422994Y-131602697D01*
X154478141Y-131769119D01*
X154478143Y-131769124D01*
X154570184Y-131918345D01*
X154694154Y-132042315D01*
X154843375Y-132134356D01*
X154843380Y-132134358D01*
X155009802Y-132189505D01*
X155009809Y-132189506D01*
X155112519Y-132199999D01*
X155237499Y-132199999D01*
X155237500Y-132199998D01*
X155237500Y-130874000D01*
X155257185Y-130806961D01*
X155309989Y-130761206D01*
X155361500Y-130750000D01*
X155613500Y-130750000D01*
X155680539Y-130769685D01*
X155726294Y-130822489D01*
X155737500Y-130874000D01*
X155737500Y-132199999D01*
X155862472Y-132199999D01*
X155862486Y-132199998D01*
X155965197Y-132189505D01*
X156131619Y-132134358D01*
X156131624Y-132134356D01*
X156280845Y-132042315D01*
X156404818Y-131918342D01*
X156406665Y-131915348D01*
X156408469Y-131913724D01*
X156409298Y-131912677D01*
X156409476Y-131912818D01*
X156458610Y-131868621D01*
X156527573Y-131857396D01*
X156591656Y-131885236D01*
X156617743Y-131915341D01*
X156619788Y-131918656D01*
X156743844Y-132042712D01*
X156893166Y-132134814D01*
X157059703Y-132189999D01*
X157162491Y-132200500D01*
X157912508Y-132200499D01*
X157912516Y-132200498D01*
X157912519Y-132200498D01*
X157968802Y-132194748D01*
X158015297Y-132189999D01*
X158181834Y-132134814D01*
X158331156Y-132042712D01*
X158455212Y-131918656D01*
X158547314Y-131769334D01*
X158602499Y-131602797D01*
X158613000Y-131500009D01*
X158612999Y-130499992D01*
X158612191Y-130492086D01*
X158602499Y-130397203D01*
X158602498Y-130397200D01*
X158597448Y-130381961D01*
X158547314Y-130230666D01*
X158455212Y-130081344D01*
X158331156Y-129957288D01*
X158331155Y-129957287D01*
X158259131Y-129912863D01*
X158212406Y-129860915D01*
X158201183Y-129791953D01*
X158229026Y-129727871D01*
X158236525Y-129719664D01*
X158257840Y-129698350D01*
X158348408Y-129551516D01*
X158402674Y-129387753D01*
X158413000Y-129286677D01*
X158412999Y-128713324D01*
X158407165Y-128656216D01*
X158402674Y-128612247D01*
X158398616Y-128600000D01*
X158348408Y-128448484D01*
X158257840Y-128301650D01*
X158135850Y-128179660D01*
X158135846Y-128179657D01*
X158114940Y-128166762D01*
X158068215Y-128114814D01*
X158056994Y-128045852D01*
X158084837Y-127981770D01*
X158141033Y-127943518D01*
X158244119Y-127909358D01*
X158244124Y-127909356D01*
X158393345Y-127817315D01*
X158517315Y-127693345D01*
X158609356Y-127544124D01*
X158609358Y-127544119D01*
X158664505Y-127377697D01*
X158664506Y-127377690D01*
X158674999Y-127274986D01*
X158675000Y-127274973D01*
X158675000Y-127000000D01*
X157461500Y-127000000D01*
X157394461Y-126980315D01*
X157348706Y-126927511D01*
X157337500Y-126876000D01*
X157337500Y-126500000D01*
X157837500Y-126500000D01*
X158674999Y-126500000D01*
X158674999Y-126225028D01*
X158674998Y-126225013D01*
X158664505Y-126122302D01*
X158609358Y-125955880D01*
X158609356Y-125955875D01*
X158517315Y-125806654D01*
X158393345Y-125682684D01*
X158244124Y-125590643D01*
X158244119Y-125590641D01*
X158077697Y-125535494D01*
X158077690Y-125535493D01*
X157974986Y-125525000D01*
X157837500Y-125525000D01*
X157837500Y-126500000D01*
X157337500Y-126500000D01*
X157337500Y-125525000D01*
X157200027Y-125525000D01*
X157200012Y-125525001D01*
X157097302Y-125535494D01*
X156930880Y-125590641D01*
X156930875Y-125590643D01*
X156781654Y-125682684D01*
X156657683Y-125806655D01*
X156657679Y-125806660D01*
X156655826Y-125809665D01*
X156654018Y-125811290D01*
X156653202Y-125812323D01*
X156653025Y-125812183D01*
X156603874Y-125856385D01*
X156534911Y-125867601D01*
X156470831Y-125839752D01*
X156444753Y-125809653D01*
X156444737Y-125809628D01*
X156442712Y-125806344D01*
X156318656Y-125682288D01*
X156218927Y-125620775D01*
X156169336Y-125590187D01*
X156169331Y-125590185D01*
X156143752Y-125581709D01*
X156002797Y-125535001D01*
X156002795Y-125535000D01*
X155900010Y-125524500D01*
X155124998Y-125524500D01*
X155124980Y-125524501D01*
X155022203Y-125535000D01*
X155022200Y-125535001D01*
X154855668Y-125590185D01*
X154855663Y-125590187D01*
X154706342Y-125682289D01*
X154582289Y-125806342D01*
X154490187Y-125955663D01*
X154490185Y-125955668D01*
X154468045Y-126022482D01*
X154435001Y-126122203D01*
X154435001Y-126122204D01*
X154435000Y-126122204D01*
X154424500Y-126224983D01*
X154424500Y-127275001D01*
X154424501Y-127275019D01*
X154435000Y-127377796D01*
X154435001Y-127377799D01*
X154490185Y-127544331D01*
X154490187Y-127544336D01*
X154491489Y-127546447D01*
X154582288Y-127693656D01*
X154706344Y-127817712D01*
X154855666Y-127909814D01*
X154855667Y-127909814D01*
X154855670Y-127909816D01*
X154909621Y-127927693D01*
X154967066Y-127967464D01*
X154993890Y-128031980D01*
X154981576Y-128100756D01*
X154935716Y-128150937D01*
X154889150Y-128179659D01*
X154767161Y-128301648D01*
X154676593Y-128448481D01*
X154676591Y-128448486D01*
X154657273Y-128506785D01*
X154622326Y-128612247D01*
X154622326Y-128612248D01*
X154622325Y-128612248D01*
X154612000Y-128713315D01*
X154612000Y-129087401D01*
X154592315Y-129154440D01*
X154575681Y-129175082D01*
X154301264Y-129449500D01*
X153744966Y-130005799D01*
X153487584Y-130263181D01*
X153426261Y-130296666D01*
X153399903Y-130299500D01*
X149349500Y-130299500D01*
X149282461Y-130279815D01*
X149236706Y-130227011D01*
X149225500Y-130175500D01*
X149225500Y-129624499D01*
X149245185Y-129557460D01*
X149297989Y-129511705D01*
X149349500Y-129500499D01*
X149675002Y-129500499D01*
X149675008Y-129500499D01*
X149777797Y-129489999D01*
X149944334Y-129434814D01*
X150093656Y-129342712D01*
X150217712Y-129218656D01*
X150309814Y-129069334D01*
X150364999Y-128902797D01*
X150375500Y-128800009D01*
X150375499Y-126699992D01*
X150375498Y-126699983D01*
X150624500Y-126699983D01*
X150624500Y-128800001D01*
X150624501Y-128800018D01*
X150635000Y-128902796D01*
X150635001Y-128902799D01*
X150690185Y-129069331D01*
X150690187Y-129069336D01*
X150707705Y-129097737D01*
X150782288Y-129218656D01*
X150906344Y-129342712D01*
X151055666Y-129434814D01*
X151222203Y-129489999D01*
X151324991Y-129500500D01*
X152175008Y-129500499D01*
X152175016Y-129500498D01*
X152175019Y-129500498D01*
X152231302Y-129494748D01*
X152277797Y-129489999D01*
X152444334Y-129434814D01*
X152593656Y-129342712D01*
X152717712Y-129218656D01*
X152809814Y-129069334D01*
X152864999Y-128902797D01*
X152875500Y-128800009D01*
X152875499Y-126699992D01*
X152874599Y-126691186D01*
X152864999Y-126597203D01*
X152864998Y-126597200D01*
X152840908Y-126524501D01*
X152809814Y-126430666D01*
X152717712Y-126281344D01*
X152593656Y-126157288D01*
X152444334Y-126065186D01*
X152444333Y-126065185D01*
X152444332Y-126065185D01*
X152435493Y-126062256D01*
X152378049Y-126022482D01*
X152351228Y-125957965D01*
X152350500Y-125944551D01*
X152350500Y-125805743D01*
X152370185Y-125738704D01*
X152422989Y-125692949D01*
X152492147Y-125683005D01*
X152498670Y-125684122D01*
X152560738Y-125696468D01*
X152581006Y-125700500D01*
X152581007Y-125700500D01*
X152718995Y-125700500D01*
X152810550Y-125682288D01*
X152854328Y-125673580D01*
X152981811Y-125620775D01*
X153096542Y-125544114D01*
X153194114Y-125446542D01*
X153270775Y-125331811D01*
X153277224Y-125316243D01*
X153320346Y-125212135D01*
X153323580Y-125204328D01*
X153333886Y-125152517D01*
X153350500Y-125068995D01*
X153350500Y-124931004D01*
X153323581Y-124795677D01*
X153323580Y-124795676D01*
X153323580Y-124795672D01*
X153302093Y-124743797D01*
X153270778Y-124668195D01*
X153270771Y-124668182D01*
X153194114Y-124553458D01*
X153194111Y-124553454D01*
X153096545Y-124455888D01*
X153096541Y-124455885D01*
X152981809Y-124379223D01*
X152979835Y-124378168D01*
X152978994Y-124377342D01*
X152976746Y-124375840D01*
X152977030Y-124375413D01*
X152929990Y-124329207D01*
X152914528Y-124261070D01*
X152938358Y-124195389D01*
X152950598Y-124181135D01*
X155062417Y-122069316D01*
X155123738Y-122035833D01*
X155150087Y-122032999D01*
X156400008Y-122032999D01*
X156502797Y-122022499D01*
X156669334Y-121967314D01*
X156818656Y-121875212D01*
X156942712Y-121751156D01*
X157034814Y-121601834D01*
X157034814Y-121601831D01*
X157038448Y-121595941D01*
X157090395Y-121549216D01*
X157159358Y-121537993D01*
X157223440Y-121565836D01*
X157231668Y-121573356D01*
X157370535Y-121712223D01*
X157370540Y-121712227D01*
X157542442Y-121837120D01*
X157731782Y-121933595D01*
X157933871Y-121999257D01*
X158000000Y-122009731D01*
X158000000Y-120965512D01*
X158057007Y-120998425D01*
X158184174Y-121032500D01*
X158315826Y-121032500D01*
X158442993Y-120998425D01*
X158500000Y-120965512D01*
X158500000Y-122009730D01*
X158566126Y-121999257D01*
X158566129Y-121999257D01*
X158768217Y-121933595D01*
X158957557Y-121837120D01*
X159129459Y-121712227D01*
X159129464Y-121712223D01*
X159279723Y-121561964D01*
X159279727Y-121561959D01*
X159404620Y-121390057D01*
X159501095Y-121200717D01*
X159566757Y-120998630D01*
X159566757Y-120998627D01*
X159600000Y-120788746D01*
X159600000Y-120782500D01*
X158683012Y-120782500D01*
X158715925Y-120725493D01*
X158750000Y-120598326D01*
X158750000Y-120466674D01*
X158715925Y-120339507D01*
X158683012Y-120282500D01*
X159600000Y-120282500D01*
X159600000Y-120276253D01*
X159566757Y-120066372D01*
X159566757Y-120066369D01*
X159501095Y-119864282D01*
X159404620Y-119674942D01*
X159279727Y-119503040D01*
X159279723Y-119503035D01*
X159129464Y-119352776D01*
X159129459Y-119352772D01*
X158957557Y-119227879D01*
X158768215Y-119131403D01*
X158566124Y-119065741D01*
X158500000Y-119055268D01*
X158500000Y-120099488D01*
X158442993Y-120066575D01*
X158315826Y-120032500D01*
X158184174Y-120032500D01*
X158057007Y-120066575D01*
X158000000Y-120099488D01*
X158000000Y-119055268D01*
X157999999Y-119055268D01*
X157933875Y-119065741D01*
X157731784Y-119131403D01*
X157542442Y-119227879D01*
X157370541Y-119352771D01*
X157231668Y-119491644D01*
X157170345Y-119525128D01*
X157100653Y-119520144D01*
X157044720Y-119478272D01*
X157038448Y-119469058D01*
X156995015Y-119398642D01*
X156942712Y-119313844D01*
X156818656Y-119189788D01*
X156706388Y-119120541D01*
X156669336Y-119097687D01*
X156669331Y-119097685D01*
X156657347Y-119093714D01*
X156502797Y-119042501D01*
X156502795Y-119042500D01*
X156400010Y-119032000D01*
X155099998Y-119032000D01*
X155099981Y-119032001D01*
X154997203Y-119042500D01*
X154997200Y-119042501D01*
X154830668Y-119097685D01*
X154830663Y-119097687D01*
X154681342Y-119189789D01*
X154557289Y-119313842D01*
X154465187Y-119463163D01*
X154465185Y-119463168D01*
X154444696Y-119525000D01*
X154410001Y-119629703D01*
X154410001Y-119629704D01*
X154410000Y-119629704D01*
X154399500Y-119732483D01*
X154399500Y-120982402D01*
X154379815Y-121049441D01*
X154363181Y-121070083D01*
X151269481Y-124163782D01*
X151269477Y-124163787D01*
X151225233Y-124240422D01*
X151225233Y-124240423D01*
X151190423Y-124300714D01*
X151183536Y-124326418D01*
X151149499Y-124453443D01*
X151149499Y-124453445D01*
X151149499Y-124621546D01*
X151149500Y-124621559D01*
X151149500Y-125944551D01*
X151129815Y-126011590D01*
X151077011Y-126057345D01*
X151064507Y-126062256D01*
X151055667Y-126065185D01*
X150906342Y-126157289D01*
X150782289Y-126281342D01*
X150690187Y-126430663D01*
X150690185Y-126430668D01*
X150687083Y-126440029D01*
X150635001Y-126597203D01*
X150635001Y-126597204D01*
X150635000Y-126597204D01*
X150624500Y-126699983D01*
X150375498Y-126699983D01*
X150374599Y-126691186D01*
X150364999Y-126597203D01*
X150364998Y-126597200D01*
X150340908Y-126524501D01*
X150309814Y-126430666D01*
X150217712Y-126281344D01*
X150093656Y-126157288D01*
X149989118Y-126092809D01*
X149944336Y-126065187D01*
X149944331Y-126065185D01*
X149935492Y-126062256D01*
X149777797Y-126010001D01*
X149777795Y-126010000D01*
X149675010Y-125999500D01*
X148824998Y-125999500D01*
X148824980Y-125999501D01*
X148722203Y-126010000D01*
X148722200Y-126010001D01*
X148555668Y-126065185D01*
X148555663Y-126065187D01*
X148406342Y-126157289D01*
X148282289Y-126281342D01*
X148190187Y-126430663D01*
X148190185Y-126430668D01*
X148187083Y-126440029D01*
X148135001Y-126597203D01*
X148135001Y-126597204D01*
X148135000Y-126597204D01*
X148124500Y-126699983D01*
X148124500Y-128007665D01*
X148107875Y-128069686D01*
X148106874Y-128071419D01*
X148056298Y-128119625D01*
X147987688Y-128132834D01*
X147922828Y-128106854D01*
X147882311Y-128049932D01*
X147875499Y-128009401D01*
X147875499Y-126699992D01*
X147874599Y-126691186D01*
X147864999Y-126597203D01*
X147864998Y-126597200D01*
X147840908Y-126524501D01*
X147809814Y-126430666D01*
X147717712Y-126281344D01*
X147593656Y-126157288D01*
X147489118Y-126092809D01*
X147444336Y-126065187D01*
X147444331Y-126065185D01*
X147435492Y-126062256D01*
X147277797Y-126010001D01*
X147277795Y-126010000D01*
X147175010Y-125999500D01*
X146324998Y-125999500D01*
X146324980Y-125999501D01*
X146222203Y-126010000D01*
X146222200Y-126010001D01*
X146055668Y-126065185D01*
X146055663Y-126065187D01*
X145906342Y-126157289D01*
X145782289Y-126281342D01*
X145768871Y-126303096D01*
X145732144Y-126362642D01*
X145730039Y-126366054D01*
X145678091Y-126412778D01*
X145609128Y-126424001D01*
X145545046Y-126396157D01*
X145506190Y-126338089D01*
X145500500Y-126300957D01*
X145500500Y-125795798D01*
X145520185Y-125728759D01*
X145572989Y-125683004D01*
X145642147Y-125673060D01*
X145648692Y-125674181D01*
X145781004Y-125700500D01*
X145781007Y-125700500D01*
X145918995Y-125700500D01*
X146010550Y-125682288D01*
X146054328Y-125673580D01*
X146181811Y-125620775D01*
X146296542Y-125544114D01*
X146394114Y-125446542D01*
X146470775Y-125331811D01*
X146477224Y-125316243D01*
X146520346Y-125212135D01*
X146523580Y-125204328D01*
X146533886Y-125152517D01*
X146550500Y-125068995D01*
X146550500Y-124931004D01*
X146523581Y-124795677D01*
X146523580Y-124795676D01*
X146523580Y-124795672D01*
X146502093Y-124743797D01*
X146470778Y-124668195D01*
X146470771Y-124668182D01*
X146394114Y-124553458D01*
X146394111Y-124553454D01*
X146296545Y-124455888D01*
X146296541Y-124455885D01*
X146181817Y-124379228D01*
X146181804Y-124379221D01*
X146054332Y-124326421D01*
X146054322Y-124326418D01*
X145918995Y-124299500D01*
X145918993Y-124299500D01*
X145781007Y-124299500D01*
X145781002Y-124299500D01*
X145648691Y-124325818D01*
X145579099Y-124319591D01*
X145523922Y-124276727D01*
X145500678Y-124210838D01*
X145500500Y-124204201D01*
X145500500Y-120320943D01*
X145497454Y-120309577D01*
X145486711Y-120269481D01*
X145459577Y-120168216D01*
X145448784Y-120149522D01*
X145380524Y-120031290D01*
X145380521Y-120031286D01*
X145380520Y-120031284D01*
X145268716Y-119919480D01*
X145268715Y-119919479D01*
X145264385Y-119915149D01*
X145264374Y-119915139D01*
X144890916Y-119541681D01*
X144857431Y-119480358D01*
X144862415Y-119410666D01*
X144904287Y-119354733D01*
X144969751Y-119330316D01*
X144978597Y-119330000D01*
X151400000Y-119330000D01*
X151400000Y-115124500D01*
X151419685Y-115057461D01*
X151472489Y-115011706D01*
X151524000Y-115000500D01*
X165625500Y-115000500D01*
X165692539Y-115020185D01*
X165738294Y-115072989D01*
X165749500Y-115124500D01*
X165749500Y-146376000D01*
X165729815Y-146443039D01*
X165677011Y-146488794D01*
X165625500Y-146500000D01*
X88374500Y-146500000D01*
X88307461Y-146480315D01*
X88261706Y-146427511D01*
X88250500Y-146376000D01*
X88250500Y-141378711D01*
X89399500Y-141378711D01*
X89399500Y-141621288D01*
X89431161Y-141861785D01*
X89493947Y-142096104D01*
X89586773Y-142320205D01*
X89586777Y-142320214D01*
X89603341Y-142348903D01*
X89708064Y-142530289D01*
X89708066Y-142530292D01*
X89708067Y-142530293D01*
X89855733Y-142722736D01*
X89855739Y-142722743D01*
X90027256Y-142894260D01*
X90027263Y-142894266D01*
X90132466Y-142974991D01*
X90219711Y-143041936D01*
X90429788Y-143163224D01*
X90653900Y-143256054D01*
X90888211Y-143318838D01*
X91068586Y-143342584D01*
X91128711Y-143350500D01*
X91128712Y-143350500D01*
X91371289Y-143350500D01*
X91419388Y-143344167D01*
X91611789Y-143318838D01*
X91846100Y-143256054D01*
X92070212Y-143163224D01*
X92280289Y-143041936D01*
X92472738Y-142894265D01*
X92644265Y-142722738D01*
X92791936Y-142530289D01*
X92913224Y-142320212D01*
X93006054Y-142096100D01*
X93068838Y-141861789D01*
X93100500Y-141621288D01*
X93100500Y-141378712D01*
X93068838Y-141138211D01*
X93006054Y-140903900D01*
X92913224Y-140679788D01*
X92791936Y-140469711D01*
X92644265Y-140277262D01*
X92644260Y-140277256D01*
X92472743Y-140105739D01*
X92472736Y-140105733D01*
X92280293Y-139958067D01*
X92280292Y-139958066D01*
X92280289Y-139958064D01*
X92107841Y-139858501D01*
X92070214Y-139836777D01*
X92070205Y-139836773D01*
X91846104Y-139743947D01*
X91649411Y-139691243D01*
X91611789Y-139681162D01*
X91611788Y-139681161D01*
X91611785Y-139681161D01*
X91371289Y-139649500D01*
X91371288Y-139649500D01*
X91128712Y-139649500D01*
X91128711Y-139649500D01*
X90888214Y-139681161D01*
X90653895Y-139743947D01*
X90429794Y-139836773D01*
X90429785Y-139836777D01*
X90219706Y-139958067D01*
X90027263Y-140105733D01*
X90027256Y-140105739D01*
X89855739Y-140277256D01*
X89855733Y-140277263D01*
X89708067Y-140469706D01*
X89586777Y-140679785D01*
X89586773Y-140679794D01*
X89493947Y-140903895D01*
X89431161Y-141138214D01*
X89399500Y-141378711D01*
X88250500Y-141378711D01*
X88250500Y-139249996D01*
X94694435Y-139249996D01*
X94694435Y-139250003D01*
X94714630Y-139429249D01*
X94714631Y-139429254D01*
X94774211Y-139599523D01*
X94833785Y-139694334D01*
X94870184Y-139752262D01*
X94997738Y-139879816D01*
X95150478Y-139975789D01*
X95320745Y-140035368D01*
X95407669Y-140045161D01*
X95472080Y-140072226D01*
X95481465Y-140080700D01*
X95925681Y-140524916D01*
X95959166Y-140586239D01*
X95962000Y-140612597D01*
X95962000Y-141036669D01*
X95962001Y-141036687D01*
X95972325Y-141137752D01*
X96008609Y-141247249D01*
X96026592Y-141301516D01*
X96117160Y-141448350D01*
X96239150Y-141570340D01*
X96385984Y-141660908D01*
X96549747Y-141715174D01*
X96650823Y-141725500D01*
X97349176Y-141725499D01*
X97349184Y-141725498D01*
X97349187Y-141725498D01*
X97408109Y-141719479D01*
X97450253Y-141715174D01*
X97614016Y-141660908D01*
X97760850Y-141570340D01*
X97775171Y-141556018D01*
X97836489Y-141522533D01*
X97906181Y-141527514D01*
X97950534Y-141556017D01*
X97964461Y-141569944D01*
X97964465Y-141569947D01*
X98111188Y-141660448D01*
X98111199Y-141660453D01*
X98274847Y-141714680D01*
X98375851Y-141724999D01*
X98975000Y-141724999D01*
X99074140Y-141724999D01*
X99074154Y-141724998D01*
X99175152Y-141714680D01*
X99338800Y-141660453D01*
X99338811Y-141660448D01*
X99485534Y-141569947D01*
X99485538Y-141569944D01*
X99607444Y-141448038D01*
X99607447Y-141448034D01*
X99697948Y-141301311D01*
X99697953Y-141301300D01*
X99752180Y-141137652D01*
X99762499Y-141036654D01*
X99762500Y-141036641D01*
X99762500Y-141000000D01*
X98975000Y-141000000D01*
X98975000Y-141724999D01*
X98375851Y-141724999D01*
X98475000Y-141724998D01*
X98475000Y-139774999D01*
X98375860Y-139775000D01*
X98375844Y-139775001D01*
X98274847Y-139785319D01*
X98111199Y-139839546D01*
X98111188Y-139839551D01*
X97964465Y-139930052D01*
X97950532Y-139943985D01*
X97889208Y-139977468D01*
X97819516Y-139972482D01*
X97775172Y-139943982D01*
X97760851Y-139929661D01*
X97760850Y-139929660D01*
X97662039Y-139868713D01*
X97614018Y-139839093D01*
X97614013Y-139839091D01*
X97607018Y-139836773D01*
X97450253Y-139784826D01*
X97450251Y-139784825D01*
X97349184Y-139774500D01*
X97349177Y-139774500D01*
X96925097Y-139774500D01*
X96858058Y-139754815D01*
X96837416Y-139738181D01*
X96330700Y-139231465D01*
X96297215Y-139170142D01*
X96295163Y-139157686D01*
X96285368Y-139070745D01*
X96225789Y-138900478D01*
X96129816Y-138747738D01*
X96002262Y-138620184D01*
X95958711Y-138592819D01*
X95849523Y-138524211D01*
X95679254Y-138464631D01*
X95679249Y-138464630D01*
X95500004Y-138444435D01*
X95499996Y-138444435D01*
X95320750Y-138464630D01*
X95320745Y-138464631D01*
X95150476Y-138524211D01*
X94997737Y-138620184D01*
X94870184Y-138747737D01*
X94774211Y-138900476D01*
X94714631Y-139070745D01*
X94714630Y-139070750D01*
X94694435Y-139249996D01*
X88250500Y-139249996D01*
X88250500Y-137036654D01*
X94350001Y-137036654D01*
X94360319Y-137137652D01*
X94414546Y-137301300D01*
X94414551Y-137301311D01*
X94505052Y-137448034D01*
X94505055Y-137448038D01*
X94626961Y-137569944D01*
X94626965Y-137569947D01*
X94773688Y-137660448D01*
X94773699Y-137660453D01*
X94937347Y-137714680D01*
X95038351Y-137724999D01*
X95137500Y-137724998D01*
X95137500Y-137000000D01*
X94350001Y-137000000D01*
X94350001Y-137036654D01*
X88250500Y-137036654D01*
X88250500Y-136463345D01*
X94350000Y-136463345D01*
X94350000Y-136500000D01*
X95137500Y-136500000D01*
X95137500Y-135774999D01*
X95038360Y-135775000D01*
X95038344Y-135775001D01*
X94937347Y-135785319D01*
X94773699Y-135839546D01*
X94773688Y-135839551D01*
X94626965Y-135930052D01*
X94626961Y-135930055D01*
X94505055Y-136051961D01*
X94505052Y-136051965D01*
X94414551Y-136198688D01*
X94414546Y-136198699D01*
X94360319Y-136362347D01*
X94350000Y-136463345D01*
X88250500Y-136463345D01*
X88250500Y-115124500D01*
X88270185Y-115057461D01*
X88322989Y-115011706D01*
X88374500Y-115000500D01*
X91650902Y-115000500D01*
X91717941Y-115020185D01*
G37*
%TD.AperFunction*%
%TA.AperFunction,Conductor*%
G36*
X135756915Y-142820185D02*
G01*
X135802670Y-142872989D01*
X135812614Y-142942147D01*
X135800361Y-142980795D01*
X135748904Y-143081782D01*
X135683242Y-143283869D01*
X135683242Y-143283872D01*
X135650000Y-143493753D01*
X135650000Y-143500000D01*
X136566988Y-143500000D01*
X136534075Y-143557007D01*
X136500000Y-143684174D01*
X136500000Y-143815826D01*
X136534075Y-143942993D01*
X136566988Y-144000000D01*
X135650000Y-144000000D01*
X135650000Y-144006246D01*
X135683242Y-144216127D01*
X135683242Y-144216130D01*
X135706329Y-144287182D01*
X135708324Y-144357023D01*
X135672244Y-144416856D01*
X135609543Y-144447684D01*
X135588398Y-144449500D01*
X132224500Y-144449500D01*
X132157461Y-144429815D01*
X132111706Y-144377011D01*
X132100500Y-144325500D01*
X132100499Y-143300097D01*
X132120183Y-143233058D01*
X132136818Y-143212416D01*
X132512416Y-142836819D01*
X132573739Y-142803334D01*
X132600097Y-142800500D01*
X135689876Y-142800500D01*
X135756915Y-142820185D01*
G37*
%TD.AperFunction*%
%TA.AperFunction,Conductor*%
G36*
X138843275Y-133950185D02*
G01*
X138889030Y-134002989D01*
X138899853Y-134064240D01*
X138899501Y-134068706D01*
X138899500Y-134068713D01*
X138899500Y-134531287D01*
X138902404Y-134549619D01*
X138925804Y-134697367D01*
X138932754Y-134741243D01*
X138990440Y-134918782D01*
X138998444Y-134943414D01*
X139094951Y-135132820D01*
X139219890Y-135304786D01*
X139370213Y-135455109D01*
X139542179Y-135580048D01*
X139542181Y-135580049D01*
X139542184Y-135580051D01*
X139731588Y-135676557D01*
X139933757Y-135742246D01*
X140143713Y-135775500D01*
X140143714Y-135775500D01*
X140356286Y-135775500D01*
X140356287Y-135775500D01*
X140566243Y-135742246D01*
X140768412Y-135676557D01*
X140957816Y-135580051D01*
X140979789Y-135564086D01*
X141129786Y-135455109D01*
X141129788Y-135455106D01*
X141129792Y-135455104D01*
X141280104Y-135304792D01*
X141399683Y-135140204D01*
X141455011Y-135097540D01*
X141524624Y-135091561D01*
X141586420Y-135124166D01*
X141600313Y-135140199D01*
X141665110Y-135229385D01*
X141719896Y-135304792D01*
X141870213Y-135455109D01*
X142042179Y-135580048D01*
X142042181Y-135580049D01*
X142042184Y-135580051D01*
X142231588Y-135676557D01*
X142433757Y-135742246D01*
X142643713Y-135775500D01*
X142643714Y-135775500D01*
X142856286Y-135775500D01*
X142856287Y-135775500D01*
X143066243Y-135742246D01*
X143268412Y-135676557D01*
X143457816Y-135580051D01*
X143568115Y-135499915D01*
X143629784Y-135455110D01*
X143629784Y-135455109D01*
X143629792Y-135455104D01*
X143768967Y-135315928D01*
X143830286Y-135282446D01*
X143899978Y-135287430D01*
X143955912Y-135329301D01*
X143962184Y-135338515D01*
X144057684Y-135493345D01*
X144181654Y-135617315D01*
X144330875Y-135709356D01*
X144330880Y-135709358D01*
X144497302Y-135764505D01*
X144497309Y-135764506D01*
X144600019Y-135774999D01*
X144999999Y-135774999D01*
X145000000Y-135774998D01*
X145000000Y-134704145D01*
X145066657Y-134742630D01*
X145187465Y-134775000D01*
X145312535Y-134775000D01*
X145433343Y-134742630D01*
X145500000Y-134704145D01*
X145500000Y-135774999D01*
X145899972Y-135774999D01*
X145899986Y-135774998D01*
X146009431Y-135763818D01*
X146009648Y-135765942D01*
X146069192Y-135770386D01*
X146124996Y-135812429D01*
X146149211Y-135877969D01*
X146149500Y-135886433D01*
X146149500Y-137663566D01*
X146129815Y-137730605D01*
X146077011Y-137776360D01*
X146009440Y-137786075D01*
X146009430Y-137786182D01*
X146009004Y-137786138D01*
X146007853Y-137786304D01*
X146004154Y-137785643D01*
X145899986Y-137775000D01*
X145500000Y-137775000D01*
X145500000Y-138845854D01*
X145433343Y-138807370D01*
X145312535Y-138775000D01*
X145187465Y-138775000D01*
X145066657Y-138807370D01*
X145000000Y-138845854D01*
X145000000Y-137775000D01*
X144600028Y-137775000D01*
X144600012Y-137775001D01*
X144497302Y-137785494D01*
X144330880Y-137840641D01*
X144330875Y-137840643D01*
X144181654Y-137932684D01*
X144057683Y-138056655D01*
X144057680Y-138056659D01*
X143962183Y-138211484D01*
X143910235Y-138258209D01*
X143841273Y-138269430D01*
X143777191Y-138241587D01*
X143768964Y-138234068D01*
X143629786Y-138094890D01*
X143457820Y-137969951D01*
X143268414Y-137873444D01*
X143268413Y-137873443D01*
X143268412Y-137873443D01*
X143066243Y-137807754D01*
X143066241Y-137807753D01*
X143066240Y-137807753D01*
X142868030Y-137776360D01*
X142856287Y-137774500D01*
X142643713Y-137774500D01*
X142631970Y-137776360D01*
X142433760Y-137807753D01*
X142231585Y-137873444D01*
X142042179Y-137969951D01*
X141870213Y-138094890D01*
X141719894Y-138245209D01*
X141719890Y-138245214D01*
X141600318Y-138409793D01*
X141544989Y-138452459D01*
X141475375Y-138458438D01*
X141413580Y-138425833D01*
X141399682Y-138409793D01*
X141280109Y-138245214D01*
X141280105Y-138245209D01*
X141129786Y-138094890D01*
X140957815Y-137969948D01*
X140957814Y-137969947D01*
X140918205Y-137949765D01*
X140867409Y-137901791D01*
X140850500Y-137839281D01*
X140850500Y-137629059D01*
X140850501Y-137629046D01*
X140850501Y-137460945D01*
X140850501Y-137460943D01*
X140809577Y-137308215D01*
X140765449Y-137231784D01*
X140765449Y-137231782D01*
X140730524Y-137171290D01*
X140730521Y-137171286D01*
X140730520Y-137171284D01*
X140618716Y-137059480D01*
X140618715Y-137059479D01*
X140614385Y-137055149D01*
X140614374Y-137055139D01*
X137797590Y-134238355D01*
X137797588Y-134238352D01*
X137701417Y-134142181D01*
X137667932Y-134080858D01*
X137672916Y-134011166D01*
X137714788Y-133955233D01*
X137780252Y-133930816D01*
X137789098Y-133930500D01*
X138776236Y-133930500D01*
X138843275Y-133950185D01*
G37*
%TD.AperFunction*%
%TA.AperFunction,Conductor*%
G36*
X99200085Y-134549619D02*
G01*
X100194367Y-135543901D01*
X100227852Y-135605224D01*
X100222868Y-135674916D01*
X100194368Y-135719262D01*
X100107288Y-135806343D01*
X100107283Y-135806349D01*
X100105241Y-135809661D01*
X100103247Y-135811453D01*
X100102807Y-135812011D01*
X100102711Y-135811935D01*
X100053291Y-135856383D01*
X99984328Y-135867602D01*
X99920247Y-135839755D01*
X99894168Y-135809656D01*
X99892319Y-135806659D01*
X99892316Y-135806655D01*
X99768345Y-135682684D01*
X99619124Y-135590643D01*
X99619119Y-135590641D01*
X99452697Y-135535494D01*
X99452690Y-135535493D01*
X99349986Y-135525000D01*
X99212500Y-135525000D01*
X99212500Y-136876000D01*
X99192815Y-136943039D01*
X99140011Y-136988794D01*
X99088500Y-137000000D01*
X98836500Y-137000000D01*
X98769461Y-136980315D01*
X98723706Y-136927511D01*
X98712500Y-136876000D01*
X98712500Y-135525000D01*
X98575027Y-135525000D01*
X98575012Y-135525001D01*
X98472302Y-135535494D01*
X98305880Y-135590641D01*
X98305875Y-135590643D01*
X98156654Y-135682684D01*
X98032683Y-135806655D01*
X98032680Y-135806659D01*
X97998907Y-135861414D01*
X97946959Y-135908139D01*
X97877997Y-135919360D01*
X97828272Y-135901855D01*
X97771903Y-135867086D01*
X97725178Y-135815138D01*
X97713000Y-135761548D01*
X97713000Y-135587596D01*
X97732685Y-135520557D01*
X97749315Y-135499919D01*
X98662416Y-134586817D01*
X98723739Y-134553333D01*
X98750097Y-134550499D01*
X98947871Y-134550499D01*
X98947872Y-134550499D01*
X99007483Y-134544091D01*
X99069071Y-134521119D01*
X99138762Y-134516135D01*
X99200085Y-134549619D01*
G37*
%TD.AperFunction*%
%TA.AperFunction,Conductor*%
G36*
X102292677Y-135234369D02*
G01*
X102348610Y-135276241D01*
X102365524Y-135307216D01*
X102373643Y-135328983D01*
X102373645Y-135328988D01*
X102441215Y-135419249D01*
X102465632Y-135484713D01*
X102450781Y-135552986D01*
X102401376Y-135602392D01*
X102380953Y-135611266D01*
X102274666Y-135646486D01*
X102274663Y-135646487D01*
X102216621Y-135682288D01*
X102125344Y-135738588D01*
X102125342Y-135738589D01*
X102125340Y-135738591D01*
X102100327Y-135763603D01*
X102039003Y-135797086D01*
X101969312Y-135792099D01*
X101924968Y-135763600D01*
X101880631Y-135719263D01*
X101847146Y-135657940D01*
X101852130Y-135588248D01*
X101880629Y-135543903D01*
X102161664Y-135262868D01*
X102222985Y-135229385D01*
X102292677Y-135234369D01*
G37*
%TD.AperFunction*%
%TA.AperFunction,Conductor*%
G36*
X139405539Y-130344685D02*
G01*
X139451294Y-130397489D01*
X139462500Y-130449000D01*
X139462500Y-131549999D01*
X139561640Y-131549999D01*
X139561654Y-131549998D01*
X139662652Y-131539680D01*
X139826300Y-131485453D01*
X139826311Y-131485448D01*
X139973035Y-131394947D01*
X139986960Y-131381021D01*
X140048282Y-131347533D01*
X140117973Y-131352514D01*
X140162327Y-131381017D01*
X140176650Y-131395340D01*
X140323484Y-131485908D01*
X140487247Y-131540174D01*
X140588323Y-131550500D01*
X141286676Y-131550499D01*
X141286684Y-131550498D01*
X141286687Y-131550498D01*
X141342030Y-131544844D01*
X141387753Y-131540174D01*
X141551516Y-131485908D01*
X141678653Y-131407488D01*
X141746045Y-131389048D01*
X141808846Y-131407488D01*
X141841817Y-131427825D01*
X141935975Y-131485903D01*
X141935978Y-131485904D01*
X141935984Y-131485908D01*
X142099747Y-131540174D01*
X142200823Y-131550500D01*
X142799176Y-131550499D01*
X142799184Y-131550498D01*
X142799187Y-131550498D01*
X142854530Y-131544844D01*
X142900253Y-131540174D01*
X143064016Y-131485908D01*
X143210850Y-131395340D01*
X143324819Y-131281371D01*
X143386142Y-131247886D01*
X143455834Y-131252870D01*
X143500181Y-131281371D01*
X143614150Y-131395340D01*
X143760984Y-131485908D01*
X143924747Y-131540174D01*
X144025823Y-131550500D01*
X144624176Y-131550499D01*
X144624184Y-131550498D01*
X144624187Y-131550498D01*
X144679530Y-131544844D01*
X144725253Y-131540174D01*
X144889016Y-131485908D01*
X145035850Y-131395340D01*
X145157840Y-131273350D01*
X145157840Y-131273349D01*
X145162947Y-131268243D01*
X145164040Y-131269336D01*
X145214173Y-131233829D01*
X145283972Y-131230682D01*
X145344392Y-131265770D01*
X145359426Y-131285141D01*
X145370181Y-131302259D01*
X145370184Y-131302262D01*
X145497738Y-131429816D01*
X145586276Y-131485448D01*
X145609460Y-131500016D01*
X145650478Y-131525789D01*
X145754295Y-131562116D01*
X145820745Y-131585368D01*
X145820750Y-131585369D01*
X145999996Y-131605565D01*
X145999998Y-131605565D01*
X145999998Y-131605564D01*
X146000000Y-131605565D01*
X146011614Y-131604256D01*
X146080435Y-131616309D01*
X146131816Y-131663657D01*
X146149500Y-131727476D01*
X146149500Y-132713566D01*
X146129815Y-132780605D01*
X146077011Y-132826360D01*
X146009440Y-132836075D01*
X146009430Y-132836182D01*
X146009004Y-132836138D01*
X146007853Y-132836304D01*
X146004154Y-132835643D01*
X145899986Y-132825000D01*
X145500000Y-132825000D01*
X145500000Y-133895854D01*
X145433343Y-133857370D01*
X145312535Y-133825000D01*
X145187465Y-133825000D01*
X145066657Y-133857370D01*
X145000000Y-133895854D01*
X145000000Y-132825000D01*
X144600028Y-132825000D01*
X144600012Y-132825001D01*
X144497302Y-132835494D01*
X144330880Y-132890641D01*
X144330875Y-132890643D01*
X144181654Y-132982684D01*
X144057683Y-133106655D01*
X144057680Y-133106659D01*
X143962183Y-133261484D01*
X143910235Y-133308209D01*
X143841273Y-133319430D01*
X143777191Y-133291587D01*
X143768964Y-133284068D01*
X143629786Y-133144890D01*
X143457820Y-133019951D01*
X143268414Y-132923444D01*
X143268413Y-132923443D01*
X143268412Y-132923443D01*
X143066243Y-132857754D01*
X143066241Y-132857753D01*
X143066240Y-132857753D01*
X142904372Y-132832116D01*
X142856287Y-132824500D01*
X142643713Y-132824500D01*
X142595628Y-132832116D01*
X142433760Y-132857753D01*
X142433757Y-132857754D01*
X142243256Y-132919652D01*
X142231585Y-132923444D01*
X142042179Y-133019951D01*
X141870213Y-133144890D01*
X141719894Y-133295209D01*
X141719890Y-133295214D01*
X141600318Y-133459793D01*
X141544989Y-133502459D01*
X141475375Y-133508438D01*
X141413580Y-133475833D01*
X141399682Y-133459793D01*
X141280109Y-133295214D01*
X141280105Y-133295209D01*
X141129786Y-133144890D01*
X140957820Y-133019951D01*
X140768414Y-132923444D01*
X140768413Y-132923443D01*
X140768412Y-132923443D01*
X140566243Y-132857754D01*
X140566241Y-132857753D01*
X140566239Y-132857753D01*
X140370941Y-132826821D01*
X140328339Y-132811735D01*
X140281241Y-132784543D01*
X140281239Y-132784541D01*
X140264937Y-132775129D01*
X140256785Y-132770423D01*
X140104057Y-132729499D01*
X139945943Y-132729499D01*
X139938347Y-132729499D01*
X139938331Y-132729500D01*
X137520094Y-132729500D01*
X137453055Y-132709815D01*
X137407300Y-132657011D01*
X137396804Y-132592246D01*
X137397756Y-132583392D01*
X137400500Y-132557873D01*
X137400499Y-131744025D01*
X137420183Y-131676987D01*
X137472987Y-131631232D01*
X137538382Y-131620806D01*
X137624996Y-131630565D01*
X137625000Y-131630565D01*
X137625004Y-131630565D01*
X137804249Y-131610369D01*
X137804252Y-131610368D01*
X137804255Y-131610368D01*
X137974522Y-131550789D01*
X138127262Y-131454816D01*
X138231866Y-131350212D01*
X138293189Y-131316727D01*
X138362881Y-131321711D01*
X138407227Y-131350211D01*
X138451961Y-131394944D01*
X138451965Y-131394947D01*
X138598688Y-131485448D01*
X138598699Y-131485453D01*
X138762347Y-131539680D01*
X138863351Y-131549999D01*
X138962500Y-131549998D01*
X138962500Y-130449000D01*
X138982185Y-130381961D01*
X139034989Y-130336206D01*
X139086500Y-130325000D01*
X139338500Y-130325000D01*
X139405539Y-130344685D01*
G37*
%TD.AperFunction*%
%TA.AperFunction,Conductor*%
G36*
X102236333Y-131498259D02*
G01*
X102292266Y-131540131D01*
X102316683Y-131605595D01*
X102316999Y-131614441D01*
X102316999Y-131704300D01*
X102692501Y-131704300D01*
X102759540Y-131723985D01*
X102805295Y-131776789D01*
X102816501Y-131828300D01*
X102816501Y-131834300D01*
X102796816Y-131901339D01*
X102744012Y-131947094D01*
X102692501Y-131958300D01*
X102316999Y-131958300D01*
X102303364Y-131971934D01*
X102297314Y-131992539D01*
X102244510Y-132038294D01*
X102192999Y-132049500D01*
X101543043Y-132049500D01*
X101500101Y-132036890D01*
X101478351Y-132047640D01*
X101456957Y-132049500D01*
X100974500Y-132049500D01*
X100907461Y-132029815D01*
X100861706Y-131977011D01*
X100850500Y-131925500D01*
X100850500Y-131761661D01*
X100870185Y-131694622D01*
X100922989Y-131648867D01*
X100992147Y-131638923D01*
X101040473Y-131656668D01*
X101150475Y-131725788D01*
X101320745Y-131785368D01*
X101320750Y-131785369D01*
X101470840Y-131802280D01*
X101497366Y-131813426D01*
X101508108Y-131806523D01*
X101529160Y-131802280D01*
X101679249Y-131785369D01*
X101679252Y-131785368D01*
X101679255Y-131785368D01*
X101849522Y-131725789D01*
X102002262Y-131629816D01*
X102105318Y-131526760D01*
X102166641Y-131493275D01*
X102236333Y-131498259D01*
G37*
%TD.AperFunction*%
%TA.AperFunction,Conductor*%
G36*
X103343039Y-115020185D02*
G01*
X103388794Y-115072989D01*
X103400000Y-115124500D01*
X103400000Y-119330000D01*
X106436520Y-119330000D01*
X106503559Y-119349685D01*
X106549314Y-119402489D01*
X106559258Y-119471647D01*
X106530233Y-119535203D01*
X106475524Y-119571706D01*
X106418380Y-119590641D01*
X106418375Y-119590643D01*
X106269154Y-119682684D01*
X106145184Y-119806654D01*
X106053143Y-119955875D01*
X106053141Y-119955880D01*
X105997994Y-120122302D01*
X105997993Y-120122309D01*
X105987500Y-120225013D01*
X105987500Y-120500000D01*
X107201000Y-120500000D01*
X107268039Y-120519685D01*
X107313794Y-120572489D01*
X107325000Y-120624000D01*
X107325000Y-124474999D01*
X107462472Y-124474999D01*
X107462486Y-124474998D01*
X107565197Y-124464505D01*
X107731619Y-124409358D01*
X107731624Y-124409356D01*
X107880845Y-124317315D01*
X108004818Y-124193342D01*
X108006665Y-124190348D01*
X108008469Y-124188724D01*
X108009298Y-124187677D01*
X108009476Y-124187818D01*
X108058610Y-124143621D01*
X108127573Y-124132396D01*
X108191656Y-124160236D01*
X108217743Y-124190341D01*
X108219788Y-124193656D01*
X108343844Y-124317712D01*
X108493166Y-124409814D01*
X108659703Y-124464999D01*
X108762491Y-124475500D01*
X109474901Y-124475499D01*
X109541940Y-124495183D01*
X109562582Y-124511818D01*
X111031284Y-125980520D01*
X111031286Y-125980521D01*
X111031290Y-125980524D01*
X111117175Y-126030109D01*
X111168216Y-126059577D01*
X111320943Y-126100501D01*
X111320945Y-126100501D01*
X111486654Y-126100501D01*
X111486670Y-126100500D01*
X113663402Y-126100500D01*
X113730441Y-126120185D01*
X113776196Y-126172989D01*
X113786140Y-126242147D01*
X113757115Y-126305703D01*
X113751083Y-126312181D01*
X113575082Y-126488181D01*
X113513759Y-126521666D01*
X113487401Y-126524500D01*
X113113330Y-126524500D01*
X113113312Y-126524501D01*
X113012247Y-126534825D01*
X112848484Y-126589092D01*
X112848481Y-126589093D01*
X112701648Y-126679661D01*
X112587681Y-126793629D01*
X112526358Y-126827114D01*
X112456666Y-126822130D01*
X112412319Y-126793629D01*
X112298351Y-126679661D01*
X112298350Y-126679660D01*
X112194282Y-126615470D01*
X112151518Y-126589093D01*
X112151513Y-126589091D01*
X112137891Y-126584577D01*
X111987753Y-126534826D01*
X111987751Y-126534825D01*
X111886678Y-126524500D01*
X111288330Y-126524500D01*
X111288312Y-126524501D01*
X111187247Y-126534825D01*
X111023484Y-126589092D01*
X111023481Y-126589093D01*
X110980718Y-126615470D01*
X110904730Y-126662339D01*
X110839636Y-126680800D01*
X110274301Y-126680800D01*
X110207262Y-126661115D01*
X110161507Y-126608311D01*
X110156595Y-126595804D01*
X110155586Y-126592759D01*
X110128814Y-126511966D01*
X110036712Y-126362644D01*
X109912656Y-126238588D01*
X109819888Y-126181369D01*
X109763336Y-126146487D01*
X109763331Y-126146485D01*
X109761862Y-126145998D01*
X109596797Y-126091301D01*
X109596795Y-126091300D01*
X109494010Y-126080800D01*
X108743998Y-126080800D01*
X108743980Y-126080801D01*
X108641203Y-126091300D01*
X108641200Y-126091301D01*
X108474668Y-126146485D01*
X108474663Y-126146487D01*
X108325342Y-126238589D01*
X108201285Y-126362646D01*
X108199537Y-126365482D01*
X108197829Y-126367017D01*
X108196807Y-126368311D01*
X108196585Y-126368136D01*
X108147589Y-126412205D01*
X108078626Y-126423426D01*
X108014544Y-126395582D01*
X107988463Y-126365482D01*
X107986714Y-126362646D01*
X107862657Y-126238589D01*
X107862656Y-126238588D01*
X107769888Y-126181369D01*
X107713336Y-126146487D01*
X107713331Y-126146485D01*
X107711862Y-126145998D01*
X107546797Y-126091301D01*
X107546795Y-126091300D01*
X107444016Y-126080800D01*
X106734519Y-126080800D01*
X106667480Y-126061115D01*
X106621725Y-126008311D01*
X106611781Y-125939153D01*
X106640806Y-125875597D01*
X106646812Y-125869145D01*
X106674520Y-125841438D01*
X106730498Y-125744480D01*
X106753577Y-125704507D01*
X106794501Y-125551779D01*
X106794501Y-125393665D01*
X106794501Y-125386070D01*
X106794500Y-125386052D01*
X106794500Y-124921244D01*
X106794499Y-124921241D01*
X106794305Y-124920516D01*
X106794308Y-124920515D01*
X106794294Y-124920476D01*
X106778692Y-124862247D01*
X106753577Y-124768516D01*
X106691501Y-124660997D01*
X106675030Y-124593098D01*
X106697883Y-124527071D01*
X106752805Y-124483881D01*
X106798890Y-124474999D01*
X106824999Y-124474999D01*
X106825000Y-124474998D01*
X106825000Y-121000000D01*
X105987501Y-121000000D01*
X105987501Y-121274986D01*
X105997994Y-121377697D01*
X106053141Y-121544119D01*
X106053143Y-121544124D01*
X106145184Y-121693345D01*
X106269155Y-121817316D01*
X106269159Y-121817319D01*
X106394226Y-121894462D01*
X106440951Y-121946410D01*
X106452172Y-122015372D01*
X106424329Y-122079454D01*
X106394226Y-122105538D01*
X106269159Y-122182680D01*
X106269155Y-122182683D01*
X106145184Y-122306654D01*
X106053143Y-122455875D01*
X106053141Y-122455880D01*
X105998638Y-122620360D01*
X105958865Y-122677805D01*
X105894349Y-122704628D01*
X105825573Y-122692313D01*
X105815836Y-122686895D01*
X105708022Y-122620395D01*
X105708017Y-122620393D01*
X105708016Y-122620392D01*
X105544253Y-122566126D01*
X105544251Y-122566125D01*
X105443184Y-122555800D01*
X105443177Y-122555800D01*
X105069099Y-122555800D01*
X105002060Y-122536115D01*
X104981418Y-122519482D01*
X104849521Y-122387586D01*
X104849521Y-122387585D01*
X104737717Y-122275781D01*
X104737709Y-122275775D01*
X104628980Y-122213001D01*
X104600788Y-122196724D01*
X104600787Y-122196723D01*
X104539693Y-122180353D01*
X104448057Y-122155799D01*
X104289943Y-122155799D01*
X104282347Y-122155799D01*
X104282331Y-122155800D01*
X103926767Y-122155800D01*
X103859728Y-122136115D01*
X103813973Y-122083311D01*
X103803546Y-122017919D01*
X103803833Y-122015372D01*
X103805565Y-122000000D01*
X103805481Y-121999257D01*
X103785369Y-121820750D01*
X103785368Y-121820745D01*
X103753323Y-121729166D01*
X103725789Y-121650478D01*
X103629816Y-121497738D01*
X103502262Y-121370184D01*
X103470647Y-121350319D01*
X103349523Y-121274211D01*
X103179254Y-121214631D01*
X103179249Y-121214630D01*
X103000004Y-121194435D01*
X102999996Y-121194435D01*
X102820750Y-121214630D01*
X102820745Y-121214631D01*
X102650476Y-121274211D01*
X102497739Y-121370183D01*
X102370183Y-121497738D01*
X102370182Y-121497739D01*
X102364353Y-121507016D01*
X102347046Y-121528716D01*
X102265820Y-121609944D01*
X102244480Y-121631284D01*
X102244478Y-121631286D01*
X101910766Y-121964999D01*
X101612584Y-122263181D01*
X101551261Y-122296666D01*
X101524903Y-122299500D01*
X99524499Y-122299500D01*
X99457460Y-122279815D01*
X99411705Y-122227011D01*
X99400499Y-122175500D01*
X99400499Y-121452129D01*
X99400498Y-121452123D01*
X99400497Y-121452116D01*
X99394091Y-121392517D01*
X99393173Y-121390057D01*
X99343797Y-121257671D01*
X99343793Y-121257664D01*
X99257547Y-121142455D01*
X99257544Y-121142452D01*
X99142335Y-121056206D01*
X99142328Y-121056202D01*
X99081167Y-121033391D01*
X99025233Y-120991520D01*
X99000816Y-120926056D01*
X99000500Y-120917209D01*
X99000500Y-119082790D01*
X99020185Y-119015751D01*
X99072989Y-118969996D01*
X99081146Y-118966616D01*
X99142331Y-118943796D01*
X99257546Y-118857546D01*
X99343796Y-118742331D01*
X99394091Y-118607483D01*
X99400500Y-118547873D01*
X99400499Y-115652128D01*
X99394091Y-115592517D01*
X99343796Y-115457669D01*
X99343795Y-115457668D01*
X99343793Y-115457664D01*
X99257547Y-115342455D01*
X99257544Y-115342452D01*
X99142335Y-115256206D01*
X99142328Y-115256202D01*
X99100715Y-115240682D01*
X99044781Y-115198811D01*
X99020364Y-115133347D01*
X99035215Y-115065074D01*
X99084620Y-115015668D01*
X99144048Y-115000500D01*
X103276000Y-115000500D01*
X103343039Y-115020185D01*
G37*
%TD.AperFunction*%
%TA.AperFunction,Conductor*%
G36*
X114743333Y-125708414D02*
G01*
X114787680Y-125736915D01*
X114915139Y-125864374D01*
X114915160Y-125864397D01*
X114963582Y-125912819D01*
X114997067Y-125974142D01*
X114992083Y-126043834D01*
X114950211Y-126099767D01*
X114884747Y-126124184D01*
X114875901Y-126124500D01*
X114524098Y-126124500D01*
X114457059Y-126104815D01*
X114411304Y-126052011D01*
X114401360Y-125982853D01*
X114430385Y-125919297D01*
X114436417Y-125912819D01*
X114480520Y-125868716D01*
X114480520Y-125868714D01*
X114490724Y-125858511D01*
X114490727Y-125858506D01*
X114612321Y-125736913D01*
X114673641Y-125703430D01*
X114743333Y-125708414D01*
G37*
%TD.AperFunction*%
%TA.AperFunction,Conductor*%
G36*
X138470334Y-123764258D02*
G01*
X138526267Y-123806130D01*
X138550684Y-123871594D01*
X138551000Y-123880440D01*
X138551000Y-124062727D01*
X138558568Y-124120208D01*
X138564305Y-124163784D01*
X138566874Y-124183292D01*
X138563899Y-124183683D01*
X138563899Y-124216316D01*
X138566874Y-124216708D01*
X138565813Y-124224762D01*
X138565813Y-124224764D01*
X138562438Y-124250393D01*
X138551000Y-124337272D01*
X138551000Y-124562727D01*
X138558746Y-124621559D01*
X138564884Y-124668182D01*
X138566874Y-124683292D01*
X138563899Y-124683683D01*
X138563899Y-124716316D01*
X138566874Y-124716708D01*
X138565813Y-124724762D01*
X138565813Y-124724764D01*
X138565716Y-124725500D01*
X138551000Y-124837272D01*
X138551000Y-125062727D01*
X138566874Y-125183292D01*
X138563899Y-125183683D01*
X138563899Y-125216316D01*
X138566874Y-125216708D01*
X138550470Y-125341305D01*
X138549174Y-125341134D01*
X138527039Y-125401512D01*
X138471342Y-125443697D01*
X138401679Y-125449072D01*
X138340169Y-125415932D01*
X138339676Y-125415441D01*
X137436818Y-124512583D01*
X137403333Y-124451260D01*
X137400499Y-124424902D01*
X137400499Y-124150557D01*
X137420184Y-124083518D01*
X137472988Y-124037763D01*
X137542146Y-124027819D01*
X137565446Y-124033513D01*
X137570745Y-124035368D01*
X137570751Y-124035368D01*
X137570752Y-124035369D01*
X137749996Y-124055565D01*
X137750000Y-124055565D01*
X137750004Y-124055565D01*
X137929249Y-124035369D01*
X137929252Y-124035368D01*
X137929255Y-124035368D01*
X138099522Y-123975789D01*
X138252262Y-123879816D01*
X138339319Y-123792759D01*
X138400642Y-123759274D01*
X138470334Y-123764258D01*
G37*
%TD.AperFunction*%
%TA.AperFunction,Conductor*%
G36*
X100708627Y-123520185D02*
G01*
X100754382Y-123572989D01*
X100764326Y-123642147D01*
X100735301Y-123705703D01*
X100729269Y-123712181D01*
X99385821Y-125055627D01*
X99324498Y-125089112D01*
X99254806Y-125084128D01*
X99223829Y-125067213D01*
X99142331Y-125006204D01*
X99142326Y-125006201D01*
X99102056Y-124991182D01*
X99046122Y-124949312D01*
X99021704Y-124883847D01*
X99036555Y-124815574D01*
X99085960Y-124766168D01*
X99102056Y-124758818D01*
X99142326Y-124743798D01*
X99142326Y-124743797D01*
X99142331Y-124743796D01*
X99257546Y-124657546D01*
X99343796Y-124542331D01*
X99394091Y-124407483D01*
X99400500Y-124347873D01*
X99400500Y-123624500D01*
X99420185Y-123557461D01*
X99472989Y-123511706D01*
X99524500Y-123500500D01*
X100641588Y-123500500D01*
X100708627Y-123520185D01*
G37*
%TD.AperFunction*%
%TA.AperFunction,Conductor*%
G36*
X112155473Y-124527514D02*
G01*
X112199827Y-124556017D01*
X112214150Y-124570340D01*
X112360984Y-124660908D01*
X112360985Y-124660908D01*
X112360988Y-124660910D01*
X112365721Y-124663117D01*
X112418162Y-124709288D01*
X112437315Y-124776481D01*
X112417101Y-124843363D01*
X112363936Y-124888698D01*
X112313319Y-124899500D01*
X111910492Y-124899500D01*
X111843453Y-124879815D01*
X111797698Y-124827011D01*
X111787754Y-124757853D01*
X111816779Y-124694297D01*
X111858090Y-124663116D01*
X111863811Y-124660448D01*
X112010535Y-124569947D01*
X112024460Y-124556021D01*
X112085782Y-124522533D01*
X112155473Y-124527514D01*
G37*
%TD.AperFunction*%
%TA.AperFunction,Conductor*%
G36*
X144218834Y-121581443D02*
G01*
X144274767Y-121623315D01*
X144299184Y-121688779D01*
X144299500Y-121697625D01*
X144299500Y-122837830D01*
X144279815Y-122904869D01*
X144227011Y-122950624D01*
X144157853Y-122960568D01*
X144100014Y-122936206D01*
X144016733Y-122872302D01*
X144016732Y-122872301D01*
X144016730Y-122872300D01*
X143921729Y-122832950D01*
X143876736Y-122814313D01*
X143862671Y-122812461D01*
X143764227Y-122799500D01*
X143764220Y-122799500D01*
X143451000Y-122799500D01*
X143383961Y-122779815D01*
X143338206Y-122727011D01*
X143327000Y-122675500D01*
X143327000Y-122422127D01*
X143346685Y-122355088D01*
X143363319Y-122334446D01*
X143404049Y-122293716D01*
X143404049Y-122293714D01*
X143414253Y-122283511D01*
X143414256Y-122283506D01*
X144087820Y-121609943D01*
X144149142Y-121576459D01*
X144218834Y-121581443D01*
G37*
%TD.AperFunction*%
%TA.AperFunction,Conductor*%
G36*
X113739554Y-120506958D02*
G01*
X113820745Y-120535368D01*
X113820750Y-120535369D01*
X113999996Y-120555565D01*
X114000000Y-120555565D01*
X114000004Y-120555565D01*
X114179249Y-120535369D01*
X114179252Y-120535368D01*
X114179255Y-120535368D01*
X114260446Y-120506957D01*
X114301401Y-120500000D01*
X114876000Y-120500000D01*
X114943039Y-120519685D01*
X114988794Y-120572489D01*
X115000000Y-120624000D01*
X115000000Y-122376000D01*
X114980315Y-122443039D01*
X114927511Y-122488794D01*
X114876000Y-122500000D01*
X112849000Y-122500000D01*
X112781961Y-122480315D01*
X112736206Y-122427511D01*
X112725000Y-122376000D01*
X112725000Y-122000000D01*
X113225000Y-122000000D01*
X114500000Y-122000000D01*
X114500000Y-121000000D01*
X113225000Y-121000000D01*
X113225000Y-122000000D01*
X112725000Y-122000000D01*
X112725000Y-120624000D01*
X112744685Y-120556961D01*
X112797489Y-120511206D01*
X112849000Y-120500000D01*
X113698599Y-120500000D01*
X113739554Y-120506958D01*
G37*
%TD.AperFunction*%
%TA.AperFunction,Conductor*%
G36*
X139219539Y-120370185D02*
G01*
X139265294Y-120422989D01*
X139276500Y-120474500D01*
X139276500Y-120500000D01*
X140440000Y-120500000D01*
X140507039Y-120519685D01*
X140552794Y-120572489D01*
X140564000Y-120624000D01*
X140564000Y-120876000D01*
X140544315Y-120943039D01*
X140491511Y-120988794D01*
X140440000Y-121000000D01*
X139276501Y-121000000D01*
X139276501Y-121036654D01*
X139286819Y-121137652D01*
X139341046Y-121301300D01*
X139341051Y-121301311D01*
X139431552Y-121448034D01*
X139431555Y-121448038D01*
X139553461Y-121569944D01*
X139553465Y-121569947D01*
X139700188Y-121660448D01*
X139700201Y-121660454D01*
X139771190Y-121683977D01*
X139828635Y-121723749D01*
X139855459Y-121788265D01*
X139843144Y-121857040D01*
X139807674Y-121900058D01*
X139691051Y-121989547D01*
X139691050Y-121989548D01*
X139691049Y-121989549D01*
X139598802Y-122109767D01*
X139598800Y-122109770D01*
X139540813Y-122249763D01*
X139540813Y-122249764D01*
X139525470Y-122366305D01*
X139523764Y-122366080D01*
X139502146Y-122425085D01*
X139446457Y-122467280D01*
X139376795Y-122472669D01*
X139315279Y-122439540D01*
X139314769Y-122439033D01*
X138836819Y-121961083D01*
X138803334Y-121899760D01*
X138800500Y-121873402D01*
X138800500Y-120744060D01*
X138800501Y-120744047D01*
X138800501Y-120575944D01*
X138796560Y-120561236D01*
X138781918Y-120506592D01*
X138783581Y-120436745D01*
X138822743Y-120378882D01*
X138886971Y-120351377D01*
X138901693Y-120350500D01*
X139152500Y-120350500D01*
X139219539Y-120370185D01*
G37*
%TD.AperFunction*%
%TA.AperFunction,Conductor*%
G36*
X164250000Y-119595854D02*
G01*
X164183343Y-119557370D01*
X164062535Y-119525000D01*
X163937465Y-119525000D01*
X163816657Y-119557370D01*
X163750000Y-119595854D01*
X163750000Y-117904145D01*
X163816657Y-117942630D01*
X163937465Y-117975000D01*
X164062535Y-117975000D01*
X164183343Y-117942630D01*
X164250000Y-117904145D01*
X164250000Y-119595854D01*
G37*
%TD.AperFunction*%
%TD*%
M02*
