M48
; DRILL file {KiCad 8.0.4} date 2025-04-19T21:16:34+0530
; FORMAT={-:-/ absolute / inch / decimal}
; #@! TF.CreationDate,2025-04-19T21:16:34+05:30
; #@! TF.GenerationSoftware,Kicad,Pcbnew,8.0.4
; #@! TF.FileFunction,Plated,1,2,PTH
FMAT,2
INCH
; #@! TA.AperFunction,Plated,PTH,ComponentDrill
T1C0.0079
; #@! TA.AperFunction,Plated,PTH,ViaDrill
T2C0.0118
; #@! TA.AperFunction,Plated,PTH,ComponentDrill
T3C0.0374
; #@! TA.AperFunction,Plated,PTH,ComponentDrill
T4C0.0394
%
G90
G05
T1
X4.9016Y-5.0256
X4.9016Y-5.0807
X4.9291Y-4.998
X4.9291Y-5.0531
X4.9291Y-5.1083
X4.9557Y-5.0256
X4.9557Y-5.0807
X4.9843Y-4.998
X4.9843Y-5.0531
X4.9843Y-5.1083
X5.0118Y-5.0256
X5.0118Y-5.0807
T2
X3.6535Y-4.7165
X3.7598Y-5.4823
X3.8831Y-5.4771
X3.8976Y-5.315
X3.9173Y-5.4429
X3.9606Y-4.8661
X3.9729Y-5.1863
X3.9764Y-4.8031
X3.9764Y-5.5118
X3.9961Y-5.1575
X3.9961Y-5.2461
X4.0551Y-4.8031
X4.1929Y-5.3248
X4.2618Y-4.8031
X4.4685Y-4.9173
X4.4882Y-4.7146
X4.5177Y-4.9606
X4.5571Y-4.9173
X4.5866Y-4.9409
X4.5906Y-5.0994
X4.5925Y-5.1555
X4.5925Y-5.2057
X4.5925Y-5.2648
X4.5945Y-5.314
X4.5965Y-5.3642
X4.6063Y-4.9705
X4.9606Y-4.7146
X5.4154Y-5.1024
X5.4173Y-4.7638
X5.4183Y-5.1506
X5.4232Y-4.8524
X5.4331Y-5.3937
X5.438Y-5.002
X5.4646Y-4.7638
X5.4882Y-5.0709
X5.5148Y-5.0394
X5.5621Y-5.0709
X5.5669Y-5.0315
X5.622Y-5.0315
X5.6398Y-4.7539
X5.6725Y-4.788
X5.748Y-5.1496
X5.8307Y-5.4389
X5.8504Y-5.3386
X6.2894Y-5.187
T3
X3.5433Y-4.626
X3.5433Y-4.7244
X3.5433Y-4.8228
X3.5433Y-4.9213
X3.5433Y-5.0197
X3.5433Y-5.1181
X3.5433Y-5.2165
X3.5433Y-5.315
X4.8524Y-5.6594
X4.9508Y-5.6594
X5.0492Y-5.6594
X5.1476Y-5.6594
X5.5217Y-5.2874
X5.5217Y-5.4823
X5.6201Y-5.2874
X5.6201Y-5.4823
X5.7185Y-5.2874
X5.7185Y-5.4823
X6.4567Y-4.626
X6.4567Y-4.7244
X6.4567Y-4.8228
X6.4567Y-4.9213
X6.4567Y-5.0197
X6.4567Y-5.1181
X6.4567Y-5.2165
X6.4567Y-5.315
T4
X4.5177Y-5.6594
X4.6161Y-5.6594
X5.3937Y-5.6594
X5.4921Y-5.6594
X6.1319Y-4.7454
X6.2303Y-4.7454
M30
